<svg width="520" height="300" viewBox="0 0 520 300" fill="none" xmlns="http://www.w3.org/2000/svg">
<rect width="520" height="300" fill="white"/>
<path d="M477 91H43V91.7233H477V91Z" fill="#C7C7C7"/>
<path d="M60.7838 114.742H57.4246V118.297H55.5367V109.183H61.3957V110.98H57.4246V112.946H60.7838V114.742ZM68.001 111.605V118.297H66.2173V117.32C65.8137 117.919 65.2668 118.375 64.2643 118.375C62.9883 118.375 61.8947 117.646 61.8947 115.888V111.605H63.7435V115.511C63.7435 116.357 64.1601 116.734 64.8111 116.734C65.6184 116.734 66.1652 116.149 66.1652 115.185V111.605H68.001ZM69.4188 111.605H71.2155V112.503C71.6192 111.904 72.192 111.448 73.2336 111.448C74.6007 111.448 75.6163 112.256 75.6163 113.909V118.297H73.7675V114.3C73.7675 113.479 73.3118 113.089 72.6217 113.089C71.8796 113.089 71.2676 113.61 71.2676 114.651V118.297H69.4188V111.605ZM79.0261 111.605H80.263V111.279C80.263 109.665 81.3176 108.74 82.7629 108.74C83.4139 108.74 84.0518 108.922 84.6247 109.3L83.9477 110.706C83.6743 110.511 83.3488 110.407 83.0363 110.407C82.5155 110.407 82.0988 110.68 82.0988 111.279V111.605H83.7263V113.258H82.0988V118.297H80.263V113.258H79.0261V111.605ZM91.2734 116.044C91.2734 116.526 91.5858 116.721 91.9113 116.721C92.0806 116.721 92.2368 116.682 92.3931 116.591L92.7837 117.932C92.367 118.232 91.8853 118.375 91.4296 118.375C90.6354 118.375 89.9193 117.945 89.737 117.125C89.3073 117.919 88.461 118.375 87.3674 118.375C85.4404 118.375 84.2295 116.865 84.2295 114.925C84.2295 112.998 85.3883 111.448 87.3804 111.448C88.409 111.448 89.1511 111.865 89.4896 112.516V111.605H91.2734V116.044ZM86.0784 114.912C86.0784 115.992 86.7424 116.747 87.7319 116.747C88.7475 116.747 89.4375 116.005 89.4375 114.912C89.4375 113.831 88.7475 113.076 87.7319 113.076C86.6903 113.076 86.0784 113.87 86.0784 114.912ZM99.3383 116.643C98.6613 117.737 97.6067 118.375 96.3437 118.375C94.1954 118.375 92.9585 116.891 92.9585 114.951C92.9585 112.972 94.3647 111.448 96.3958 111.448C97.5546 111.448 98.5181 111.93 99.1561 112.841L97.841 113.909C97.4765 113.362 97.0078 113.102 96.4088 113.102C95.3933 113.102 94.7944 113.844 94.7944 114.886C94.7944 115.94 95.4714 116.721 96.5 116.721C97.1249 116.721 97.7499 116.37 98.1014 115.745L99.3383 116.643ZM99.3134 111.605H100.641V109.964H102.49V111.605H104.404V113.258H102.49V115.693C102.49 116.396 102.933 116.721 103.506 116.721C103.805 116.721 104.157 116.63 104.482 116.422L104.938 117.789C104.313 118.18 103.662 118.375 103.011 118.375C101.631 118.375 100.641 117.516 100.641 116.018V113.258H99.3134V111.605ZM109.81 113.597C109.354 113.18 108.716 112.998 108.248 112.998C107.766 112.998 107.453 113.193 107.453 113.532C107.453 113.896 107.792 113.987 108.664 114.157C109.719 114.352 111.099 114.612 111.099 116.11C111.099 117.503 109.901 118.375 108.287 118.375C107.141 118.375 106.021 117.919 105.24 117.138L106.217 115.849C106.802 116.5 107.766 116.787 108.456 116.787C108.951 116.787 109.276 116.63 109.276 116.305C109.276 115.979 108.964 115.849 108.196 115.693C107.141 115.498 105.644 115.224 105.644 113.623C105.644 112.164 106.855 111.448 108.209 111.448C109.159 111.448 110.11 111.774 110.748 112.412L109.81 113.597ZM121.364 116.044C121.364 116.526 121.677 116.721 122.002 116.721C122.172 116.721 122.328 116.682 122.484 116.591L122.875 117.932C122.458 118.232 121.976 118.375 121.521 118.375C120.726 118.375 120.01 117.945 119.828 117.125C119.398 117.919 118.552 118.375 117.458 118.375C115.531 118.375 114.32 116.865 114.32 114.925C114.32 112.998 115.479 111.448 117.471 111.448C118.5 111.448 119.242 111.865 119.581 112.516V111.605H121.364V116.044ZM116.169 114.912C116.169 115.992 116.833 116.747 117.823 116.747C118.838 116.747 119.528 116.005 119.528 114.912C119.528 113.831 118.838 113.076 117.823 113.076C116.781 113.076 116.169 113.87 116.169 114.912ZM127.46 111.448C129.452 111.448 130.598 113.011 130.598 114.925C130.598 116.826 129.439 118.375 127.473 118.375C126.497 118.375 125.676 117.984 125.312 117.372V118.297H123.567V109.183H125.416V112.425C125.742 111.852 126.497 111.448 127.46 111.448ZM125.403 114.912C125.403 115.992 126.08 116.747 127.109 116.747C128.098 116.747 128.762 115.992 128.762 114.912C128.762 113.87 128.137 113.076 127.109 113.076C126.08 113.076 125.403 113.831 125.403 114.912ZM134.708 111.448C136.7 111.448 138.171 112.933 138.171 114.912C138.171 116.891 136.7 118.375 134.708 118.375C132.703 118.375 131.232 116.891 131.232 114.912C131.232 112.933 132.703 111.448 134.708 111.448ZM133.081 114.912C133.081 115.979 133.719 116.721 134.708 116.721C135.698 116.721 136.336 115.979 136.336 114.912C136.336 113.844 135.698 113.102 134.708 113.102C133.719 113.102 133.081 113.844 133.081 114.912ZM145.17 111.605V118.297H143.387V117.32C142.983 117.919 142.436 118.375 141.434 118.375C140.158 118.375 139.064 117.646 139.064 115.888V111.605H140.913V115.511C140.913 116.357 141.33 116.734 141.981 116.734C142.788 116.734 143.335 116.149 143.335 115.185V111.605H145.17ZM145.807 111.605H147.135V109.964H148.984V111.605H150.898V113.258H148.984V115.693C148.984 116.396 149.427 116.721 149.999 116.721C150.299 116.721 150.65 116.63 150.976 116.422L151.432 117.789C150.807 118.18 150.156 118.375 149.505 118.375C148.125 118.375 147.135 117.516 147.135 116.018V113.258H145.807V111.605ZM154.072 111.605H155.4V109.964H157.249V111.605H159.163V113.258H157.249V115.693C157.249 116.396 157.692 116.721 158.265 116.721C158.564 116.721 158.916 116.63 159.241 116.422L159.697 117.789C159.072 118.18 158.421 118.375 157.77 118.375C156.39 118.375 155.4 117.516 155.4 116.018V113.258H154.072V111.605ZM166.343 115.55H161.786C161.982 116.383 162.567 116.787 163.466 116.787C164.247 116.787 164.807 116.461 165.197 116.018L166.135 117.151C165.406 117.932 164.494 118.375 163.323 118.375C161.278 118.375 159.911 117.047 159.911 115.003C159.911 112.972 161.252 111.448 163.349 111.448C165.171 111.448 166.343 112.581 166.343 114.834V115.55ZM161.76 114.222H164.52C164.507 113.479 164.13 112.972 163.244 112.972C162.424 112.972 161.916 113.427 161.76 114.222ZM173.419 115.55H168.862C169.058 116.383 169.643 116.787 170.542 116.787C171.323 116.787 171.883 116.461 172.274 116.018L173.211 117.151C172.482 117.932 171.57 118.375 170.399 118.375C168.355 118.375 166.987 117.047 166.987 115.003C166.987 112.972 168.328 111.448 170.425 111.448C172.247 111.448 173.419 112.581 173.419 114.834V115.55ZM168.836 114.222H171.596C171.583 113.479 171.206 112.972 170.321 112.972C169.5 112.972 168.992 113.427 168.836 114.222ZM173.647 111.605H174.975V109.964H176.824V111.605H178.738V113.258H176.824V115.693C176.824 116.396 177.267 116.721 177.84 116.721C178.139 116.721 178.491 116.63 178.816 116.422L179.272 117.789C178.647 118.18 177.996 118.375 177.345 118.375C175.965 118.375 174.975 117.516 174.975 116.018V113.258H173.647V111.605ZM180.03 109.183H181.879V112.451C182.269 111.878 182.842 111.448 183.845 111.448C185.212 111.448 186.227 112.256 186.227 113.909V118.297H184.378V114.3C184.378 113.479 183.923 113.089 183.233 113.089C182.491 113.089 181.879 113.597 181.879 114.638V118.297H180.03V109.183Z" fill="#434343"/>
<path d="M63.5151 127.208H64.6189L62.3505 134.297H61.3682L59.6771 129.051L57.9859 134.297H56.9935L54.7353 127.208H55.8289L57.51 132.646L59.1809 127.208H60.1733L61.8442 132.646L63.5151 127.208ZM65.3056 127.208H66.298V130.064C66.612 129.487 67.1689 129.092 68.0398 129.092C69.1335 129.092 69.8525 129.76 69.8525 130.945V134.297H68.8601V131.198C68.8601 130.418 68.4348 129.983 67.7461 129.983C66.9664 129.983 66.298 130.56 66.298 131.613V134.297H65.3056V127.208ZM76.0275 132.849C76.0275 133.274 76.2908 133.456 76.6047 133.456C76.7465 133.456 76.8984 133.416 77.0401 133.335L77.2832 134.074C76.9895 134.266 76.6654 134.358 76.3616 134.358C75.754 134.358 75.2173 133.983 75.1464 133.315C74.7819 134.003 74.1034 134.358 73.2325 134.358C71.673 134.358 70.8021 133.142 70.8021 131.745C70.8021 130.347 71.6527 129.092 73.2325 129.092C74.0933 129.092 74.7312 129.446 75.0553 130.064V129.213H76.0275V132.849ZM71.7945 131.725C71.7945 132.747 72.4426 133.466 73.4047 133.466C74.3566 133.466 75.035 132.758 75.035 131.725C75.035 130.692 74.3667 129.983 73.3844 129.983C72.3414 129.983 71.7945 130.783 71.7945 131.725ZM77.1787 129.213H78.242V127.856H79.2446V129.213H80.8041V130.104H79.2446V132.575C79.2446 133.183 79.6395 133.456 80.1155 133.456C80.3889 133.456 80.7028 133.365 80.9661 133.193L81.2497 133.912C80.8142 134.216 80.3383 134.358 79.8724 134.358C78.9509 134.358 78.242 133.77 78.242 132.707V130.104H77.1787V129.213ZM83.538 129.213H84.6013V127.856H85.6038V129.213H87.1633V130.104H85.6038V132.575C85.6038 133.183 85.9987 133.456 86.4747 133.456C86.7481 133.456 87.062 133.365 87.3253 133.193L87.6089 133.912C87.1734 134.216 86.6975 134.358 86.2317 134.358C85.3101 134.358 84.6013 133.77 84.6013 132.707V130.104H83.538V129.213ZM88.3537 127.208H89.3461V130.064C89.66 129.487 90.217 129.092 91.0879 129.092C92.1815 129.092 92.9005 129.76 92.9005 130.945V134.297H91.9081V131.198C91.9081 130.418 91.4828 129.983 90.7942 129.983C90.0144 129.983 89.3461 130.56 89.3461 131.613V134.297H88.3537V127.208ZM98.6198 132.059H94.8426C94.9641 133.001 95.5717 133.477 96.4628 133.477C97.1312 133.477 97.6173 133.183 97.9413 132.727L98.4983 133.325C97.9717 133.983 97.2932 134.358 96.3818 134.358C94.8021 134.358 93.8502 133.254 93.8502 131.785C93.8502 130.327 94.7818 129.092 96.3919 129.092C97.7692 129.092 98.6198 129.983 98.6198 131.563V132.059ZM94.8426 131.299H97.6274C97.6274 130.428 97.2021 129.932 96.3514 129.932C95.4907 129.932 94.9641 130.449 94.8426 131.299ZM106.443 134.297H105.481V133.406C105.147 134.003 104.479 134.358 103.638 134.358C102.059 134.358 101.218 133.122 101.218 131.735C101.218 130.347 102.069 129.092 103.648 129.092C104.479 129.092 105.127 129.436 105.441 130.013V127.208H106.443V134.297ZM102.211 131.725C102.211 132.747 102.848 133.466 103.811 133.466C104.783 133.466 105.451 132.747 105.451 131.725C105.451 130.702 104.783 129.983 103.8 129.983C102.767 129.983 102.211 130.783 102.211 131.725ZM109.976 129.092C111.485 129.092 112.559 130.206 112.559 131.725C112.559 133.234 111.485 134.358 109.976 134.358C108.468 134.358 107.394 133.234 107.394 131.725C107.394 130.206 108.468 129.092 109.976 129.092ZM108.387 131.725C108.387 132.737 109.025 133.456 109.976 133.456C110.928 133.456 111.566 132.737 111.566 131.725C111.566 130.712 110.928 129.993 109.976 129.993C109.025 129.993 108.387 130.712 108.387 131.725ZM120.383 132.849C120.383 133.274 120.646 133.456 120.96 133.456C121.102 133.456 121.254 133.416 121.396 133.335L121.639 134.074C121.345 134.266 121.021 134.358 120.717 134.358C120.11 134.358 119.573 133.983 119.502 133.315C119.137 134.003 118.459 134.358 117.588 134.358C116.029 134.358 115.158 133.142 115.158 131.745C115.158 130.347 116.008 129.092 117.588 129.092C118.449 129.092 119.087 129.446 119.411 130.064V129.213H120.383V132.849ZM116.15 131.725C116.15 132.747 116.798 133.466 117.76 133.466C118.712 133.466 119.391 132.758 119.391 131.725C119.391 130.692 118.722 129.983 117.74 129.983C116.697 129.983 116.15 130.783 116.15 131.725ZM122.34 129.213H123.312V130.084C123.626 129.507 124.183 129.092 125.074 129.092C126.168 129.092 126.887 129.76 126.887 130.945V134.297H125.894V131.198C125.894 130.418 125.469 129.983 124.78 129.983C124 129.983 123.332 130.57 123.332 131.634V134.297H122.34V129.213ZM133.062 134.297H132.1V133.406C131.765 134.003 131.097 134.358 130.256 134.358C128.677 134.358 127.836 133.122 127.836 131.735C127.836 130.347 128.687 129.092 130.267 129.092C131.097 129.092 131.745 129.436 132.059 130.013V127.208H133.062V134.297ZM128.829 131.725C128.829 132.747 129.467 133.466 130.429 133.466C131.401 133.466 132.069 132.747 132.069 131.725C132.069 130.702 131.401 129.983 130.418 129.983C129.386 129.983 128.829 130.783 128.829 131.725ZM136.665 127.208H137.657V130.064C137.971 129.487 138.528 129.092 139.399 129.092C140.493 129.092 141.212 129.76 141.212 130.945V134.297H140.219V131.198C140.219 130.418 139.794 129.983 139.106 129.983C138.326 129.983 137.657 130.56 137.657 131.613V134.297H136.665V127.208ZM144.744 129.092C146.253 129.092 147.326 130.206 147.326 131.725C147.326 133.234 146.253 134.358 144.744 134.358C143.235 134.358 142.161 133.234 142.161 131.725C142.161 130.206 143.235 129.092 144.744 129.092ZM143.154 131.725C143.154 132.737 143.792 133.456 144.744 133.456C145.696 133.456 146.334 132.737 146.334 131.725C146.334 130.712 145.696 129.993 144.744 129.993C143.792 129.993 143.154 130.712 143.154 131.725ZM154.799 129.213H155.913L154.03 134.297H153.098L151.792 130.651L150.475 134.297H149.554L147.67 129.213H148.734L150.02 132.96L151.306 129.213H152.278L153.564 132.95L154.799 129.213ZM158.818 129.213H159.79V130.064C160.074 129.466 160.58 129.092 161.339 129.092C162.139 129.092 162.696 129.466 162.919 130.145C163.233 129.487 163.82 129.092 164.62 129.092C165.704 129.092 166.342 129.78 166.342 130.985V134.297H165.35V131.178C165.35 130.428 165.005 129.983 164.327 129.983C163.648 129.983 163.071 130.469 163.071 131.553V134.297H162.079V131.178C162.079 130.428 161.744 129.983 161.066 129.983C160.387 129.983 159.81 130.469 159.81 131.553V134.297H158.818V129.213ZM172.507 132.849C172.507 133.274 172.77 133.456 173.084 133.456C173.226 133.456 173.377 133.416 173.519 133.335L173.762 134.074C173.469 134.266 173.144 134.358 172.841 134.358C172.233 134.358 171.696 133.983 171.625 133.315C171.261 134.003 170.582 134.358 169.712 134.358C168.152 134.358 167.281 133.142 167.281 131.745C167.281 130.347 168.132 129.092 169.712 129.092C170.572 129.092 171.21 129.446 171.534 130.064V129.213H172.507V132.849ZM168.274 131.725C168.274 132.747 168.922 133.466 169.884 133.466C170.836 133.466 171.514 132.758 171.514 131.725C171.514 130.692 170.846 129.983 169.863 129.983C168.82 129.983 168.274 130.783 168.274 131.725ZM174.463 129.213H175.435V130.084C175.749 129.507 176.306 129.092 177.197 129.092C178.291 129.092 179.01 129.76 179.01 130.945V134.297H178.018V131.198C178.018 130.418 177.592 129.983 176.904 129.983C176.124 129.983 175.456 130.57 175.456 131.634V134.297H174.463V129.213ZM183.828 129.213H184.82V134.115C184.82 135.755 183.747 136.667 182.319 136.667C181.134 136.667 180.213 136.079 179.858 134.965L180.76 134.58C181.003 135.391 181.57 135.765 182.35 135.765C183.241 135.765 183.828 135.239 183.828 134.236V133.203C183.524 133.811 182.907 134.175 182.127 134.175C181.104 134.175 180.172 133.517 180.172 132.221V129.213H181.165V132.008C181.165 132.808 181.651 133.274 182.37 133.274C183.2 133.274 183.828 132.626 183.828 131.634V129.213ZM194.749 129.213H195.863L193.979 134.297H193.047L191.741 130.651L190.425 134.297H189.503L187.62 129.213H188.683L189.969 132.96L191.255 129.213H192.227L193.513 132.95L194.749 129.213ZM200.884 132.059H197.107C197.228 133.001 197.836 133.477 198.727 133.477C199.395 133.477 199.882 133.183 200.206 132.727L200.763 133.325C200.236 133.983 199.558 134.358 198.646 134.358C197.066 134.358 196.114 133.254 196.114 131.785C196.114 130.327 197.046 129.092 198.656 129.092C200.033 129.092 200.884 129.983 200.884 131.563V132.059ZM197.107 131.299H199.892C199.892 130.428 199.466 129.932 198.616 129.932C197.755 129.932 197.228 130.449 197.107 131.299ZM207.817 129.213H208.789V134.115C208.789 135.684 207.685 136.677 206.146 136.677C204.88 136.677 203.877 136.008 203.513 134.965L204.404 134.55C204.657 135.32 205.346 135.775 206.176 135.775C207.158 135.775 207.796 135.188 207.796 134.226V133.284C207.452 133.892 206.844 134.196 205.984 134.196C204.505 134.196 203.513 133.163 203.513 131.654C203.513 130.266 204.404 129.092 205.984 129.092C206.844 129.092 207.503 129.396 207.817 129.973V129.213ZM204.515 131.634C204.515 132.565 205.093 133.315 206.146 133.315C207.118 133.315 207.796 132.656 207.796 131.634C207.796 130.621 207.128 129.973 206.136 129.973C205.184 129.973 204.515 130.621 204.515 131.634ZM214.398 132.059H210.621C210.743 133.001 211.35 133.477 212.241 133.477C212.91 133.477 213.396 133.183 213.72 132.727L214.277 133.325C213.75 133.983 213.072 134.358 212.16 134.358C210.581 134.358 209.629 133.254 209.629 131.785C209.629 130.327 210.56 129.092 212.171 129.092C213.548 129.092 214.398 129.983 214.398 131.563V132.059ZM210.621 131.299H213.406C213.406 130.428 212.981 129.932 212.13 129.932C211.269 129.932 210.743 130.449 210.621 131.299ZM214.68 129.213H215.744V127.856H216.746V129.213H218.306V130.104H216.746V132.575C216.746 133.183 217.141 133.456 217.617 133.456C217.89 133.456 218.204 133.365 218.468 133.193L218.751 133.912C218.316 134.216 217.84 134.358 217.374 134.358C216.452 134.358 215.744 133.77 215.744 132.707V130.104H214.68V129.213Z" fill="#434343"/>
<g clip-path="url(#clip0_138_3546)">
<path d="M456.676 124.16L448.994 116.478C448.782 116.267 448.439 116.267 448.227 116.478C448.015 116.69 448.015 117.034 448.227 117.246L456.292 125.311C456.504 125.523 456.847 125.523 457.059 125.311L465.124 117.246C465.336 117.034 465.336 116.69 465.124 116.478C464.912 116.267 464.569 116.267 464.357 116.478L456.676 124.16Z" fill="#434343"/>
</g>
<path d="M477 149.87H43V150.593H477V149.87Z" fill="#C7C7C7"/>
<path d="M55.5367 177.167V168.053H57.4246V171.698H61.1874V168.053H63.0753V177.167H61.1874V173.495H57.4246V177.167H55.5367ZM70.6472 174.419H66.0902C66.2855 175.253 66.8714 175.656 67.7698 175.656C68.551 175.656 69.1109 175.331 69.5015 174.888L70.4389 176.021C69.7098 176.802 68.7984 177.245 67.6266 177.245C65.5825 177.245 64.2154 175.917 64.2154 173.872C64.2154 171.841 65.5564 170.318 67.6526 170.318C69.4754 170.318 70.6472 171.451 70.6472 173.703V174.419ZM66.0642 173.091H68.8244C68.8114 172.349 68.4338 171.841 67.5485 171.841C66.7282 171.841 66.2204 172.297 66.0642 173.091ZM78.3353 174.914C78.3353 175.396 78.6477 175.591 78.9732 175.591C79.1425 175.591 79.2987 175.552 79.455 175.461L79.8456 176.802C79.4289 177.101 78.9472 177.245 78.4915 177.245C77.6973 177.245 76.9812 176.815 76.7989 175.995C76.3692 176.789 75.5229 177.245 74.4293 177.245C72.5023 177.245 71.2914 175.734 71.2914 173.794C71.2914 171.867 72.4502 170.318 74.4423 170.318C75.4709 170.318 76.213 170.735 76.5515 171.386V170.474H78.3353V174.914ZM73.1403 173.781C73.1403 174.862 73.8043 175.617 74.7938 175.617C75.8094 175.617 76.4994 174.875 76.4994 173.781C76.4994 172.701 75.8094 171.945 74.7938 171.945C73.7522 171.945 73.1403 172.74 73.1403 173.781ZM80.5382 170.474H82.3349V171.49C82.6344 170.722 83.3114 170.396 84.1057 170.396C84.3791 170.396 84.6785 170.435 84.978 170.513L84.7176 172.232C84.4442 172.141 84.1708 172.102 83.9364 172.102C83.025 172.102 82.387 172.675 82.387 173.768V177.167H80.5382V170.474ZM85.1801 170.474H86.5081V168.834H88.357V170.474H90.2709V172.128H88.357V174.563C88.357 175.266 88.7997 175.591 89.3725 175.591C89.672 175.591 90.0235 175.5 90.349 175.292L90.8047 176.659C90.1798 177.049 89.5288 177.245 88.8778 177.245C87.4977 177.245 86.5081 176.385 86.5081 174.888V172.128H85.1801V170.474ZM95.3822 167.415C96.0853 167.415 96.58 167.922 96.58 168.573C96.58 169.211 96.0853 169.719 95.3822 169.719C94.6791 169.719 94.1713 169.211 94.1713 168.573C94.1713 167.922 94.6791 167.415 95.3822 167.415ZM94.4578 177.167V170.474H96.3066V177.167H94.4578ZM97.8059 170.474H99.6027V171.373C100.006 170.774 100.579 170.318 101.621 170.318C102.988 170.318 104.003 171.125 104.003 172.779V177.167H102.155V173.169C102.155 172.349 101.699 171.959 101.009 171.959C100.267 171.959 99.6548 172.479 99.6548 173.521V177.167H97.8059V170.474ZM104.622 170.474H105.859V170.149C105.859 168.534 106.914 167.61 108.359 167.61C109.01 167.61 109.648 167.792 110.221 168.17L109.544 169.576C109.27 169.381 108.945 169.276 108.632 169.276C108.111 169.276 107.695 169.55 107.695 170.149V170.474H109.322V172.128H107.695V177.167H105.859V172.128H104.622V170.474ZM113.302 170.318C115.294 170.318 116.765 171.802 116.765 173.781C116.765 175.76 115.294 177.245 113.302 177.245C111.297 177.245 109.826 175.76 109.826 173.781C109.826 171.802 111.297 170.318 113.302 170.318ZM111.674 173.781C111.674 174.849 112.312 175.591 113.302 175.591C114.291 175.591 114.929 174.849 114.929 173.781C114.929 172.714 114.291 171.972 113.302 171.972C112.312 171.972 111.674 172.714 111.674 173.781ZM117.788 170.474H119.585V171.49C119.884 170.722 120.561 170.396 121.356 170.396C121.629 170.396 121.928 170.435 122.228 170.513L121.968 172.232C121.694 172.141 121.421 172.102 121.186 172.102C120.275 172.102 119.637 172.675 119.637 173.768V177.167H117.788V170.474ZM122.957 170.474H124.754V171.373C125.131 170.696 125.717 170.318 126.59 170.318C127.514 170.318 128.191 170.722 128.529 171.542C128.92 170.761 129.623 170.318 130.587 170.318C131.98 170.318 132.774 171.203 132.774 172.87V177.167H130.938V173.169C130.938 172.453 130.691 171.959 129.949 171.959C129.259 171.959 128.79 172.401 128.79 173.456V177.167H126.941V173.169C126.941 172.453 126.707 171.959 125.965 171.959C125.274 171.959 124.806 172.401 124.806 173.456V177.167H122.957V170.474ZM140.831 174.914C140.831 175.396 141.144 175.591 141.469 175.591C141.638 175.591 141.795 175.552 141.951 175.461L142.342 176.802C141.925 177.101 141.443 177.245 140.987 177.245C140.193 177.245 139.477 176.815 139.295 175.995C138.865 176.789 138.019 177.245 136.925 177.245C134.998 177.245 133.787 175.734 133.787 173.794C133.787 171.867 134.946 170.318 136.938 170.318C137.967 170.318 138.709 170.735 139.048 171.386V170.474H140.831V174.914ZM135.636 173.781C135.636 174.862 136.3 175.617 137.29 175.617C138.305 175.617 138.995 174.875 138.995 173.781C138.995 172.701 138.305 171.945 137.29 171.945C136.248 171.945 135.636 172.74 135.636 173.781ZM141.999 170.474H143.327V168.834H145.176V170.474H147.09V172.128H145.176V174.563C145.176 175.266 145.618 175.591 146.191 175.591C146.491 175.591 146.842 175.5 147.168 175.292L147.623 176.659C146.998 177.049 146.347 177.245 145.696 177.245C144.316 177.245 143.327 176.385 143.327 174.888V172.128H141.999V170.474ZM149.41 167.415C150.113 167.415 150.607 167.922 150.607 168.573C150.607 169.211 150.113 169.719 149.41 169.719C148.707 169.719 148.199 169.211 148.199 168.573C148.199 167.922 148.707 167.415 149.41 167.415ZM148.485 177.167V170.474H150.334V177.167H148.485ZM154.919 170.318C156.911 170.318 158.382 171.802 158.382 173.781C158.382 175.76 156.911 177.245 154.919 177.245C152.914 177.245 151.443 175.76 151.443 173.781C151.443 171.802 152.914 170.318 154.919 170.318ZM153.292 173.781C153.292 174.849 153.93 175.591 154.919 175.591C155.909 175.591 156.547 174.849 156.547 173.781C156.547 172.714 155.909 171.972 154.919 171.972C153.93 171.972 153.292 172.714 153.292 173.781ZM159.405 170.474H161.202V171.373C161.606 170.774 162.179 170.318 163.22 170.318C164.587 170.318 165.603 171.125 165.603 172.779V177.167H163.754V173.169C163.754 172.349 163.298 171.959 162.608 171.959C161.866 171.959 161.254 172.479 161.254 173.521V177.167H159.405V170.474Z" fill="#434343"/>
<path d="M58.6948 185.916C60.7708 185.916 62.2898 187.496 62.2898 189.622C62.2898 191.749 60.7708 193.329 58.6948 193.329C56.629 193.329 55.0998 191.749 55.0998 189.622C55.0998 187.496 56.629 185.916 58.6948 185.916ZM56.1429 189.622C56.1429 191.192 57.2163 192.346 58.6948 192.346C60.1733 192.346 61.2467 191.192 61.2467 189.622C61.2467 188.053 60.1733 186.898 58.6948 186.898C57.2163 186.898 56.1429 188.053 56.1429 189.622ZM63.3475 188.083H64.3197V188.913C64.5627 188.296 65.1096 188.012 65.7273 188.012C65.9703 188.012 66.2235 188.053 66.4564 188.144L66.2944 189.065C66.0716 188.974 65.8387 188.934 65.6362 188.934C64.907 188.934 64.3399 189.42 64.3399 190.422V193.167H63.3475V188.083ZM71.0125 188.083H71.9846V192.984C71.9846 194.554 70.8808 195.546 69.3416 195.546C68.0757 195.546 67.0732 194.878 66.7086 193.835L67.5998 193.42C67.8529 194.189 68.5416 194.645 69.3719 194.645C70.3542 194.645 70.9922 194.058 70.9922 193.096V192.154C70.6479 192.761 70.0403 193.065 69.1795 193.065C67.701 193.065 66.7086 192.032 66.7086 190.523C66.7086 189.136 67.5998 187.961 69.1795 187.961C70.0403 187.961 70.6985 188.265 71.0125 188.842V188.083ZM67.7112 190.503C67.7112 191.435 68.2884 192.184 69.3416 192.184C70.3137 192.184 70.9922 191.526 70.9922 190.503C70.9922 189.491 70.3238 188.842 69.3314 188.842C68.3795 188.842 67.7112 189.491 67.7112 190.503ZM78.05 191.718C78.05 192.144 78.3133 192.326 78.6272 192.326C78.769 192.326 78.9209 192.285 79.0627 192.204L79.3057 192.944C79.0121 193.136 78.688 193.227 78.3842 193.227C77.7766 193.227 77.2399 192.853 77.169 192.184C76.8044 192.873 76.126 193.227 75.2551 193.227C73.6956 193.227 72.8247 192.012 72.8247 190.615C72.8247 189.217 73.6753 187.961 75.2551 187.961C76.1158 187.961 76.7538 188.316 77.0779 188.934V188.083H78.05V191.718ZM73.8171 190.594C73.8171 191.617 74.4652 192.336 75.4272 192.336C76.3791 192.336 77.0576 191.627 77.0576 190.594C77.0576 189.561 76.3892 188.853 75.407 188.853C74.3639 188.853 73.8171 189.653 73.8171 190.594ZM80.0067 188.083H80.9788V188.954C81.2928 188.377 81.8497 187.961 82.7409 187.961C83.8346 187.961 84.5536 188.63 84.5536 189.815V193.167H83.5611V190.068C83.5611 189.288 83.1358 188.853 82.4472 188.853C81.6675 188.853 80.9991 189.44 80.9991 190.503V193.167H80.0067V188.083ZM87.4494 188.083H88.4418V187.647C88.4418 186.503 89.1203 185.825 90.1431 185.825C90.6393 185.825 91.0646 185.966 91.4697 186.29L91.0241 187.03C90.7912 186.817 90.5279 186.726 90.2443 186.726C89.7583 186.726 89.4342 187.04 89.4342 187.637V188.083H90.8013V188.974H89.4342V193.167H88.4418V188.974H87.4494V188.083ZM96.2155 188.083V193.167H95.2434V192.235C94.9193 192.812 94.4028 193.227 93.5421 193.227C92.4585 193.227 91.699 192.569 91.699 191.303V188.083H92.6914V191.091C92.6914 191.911 93.1066 192.336 93.7851 192.336C94.5953 192.336 95.2231 191.718 95.2231 190.685V188.083H96.2155ZM97.472 188.083H98.4442V188.954C98.7581 188.377 99.3151 187.961 100.206 187.961C101.3 187.961 102.019 188.63 102.019 189.815V193.167H101.026V190.068C101.026 189.288 100.601 188.853 99.9125 188.853C99.1328 188.853 98.4644 189.44 98.4644 190.503V193.167H97.472V188.083ZM107.688 191.992C107.171 192.772 106.442 193.227 105.49 193.227C103.839 193.227 102.969 192.022 102.969 190.625C102.969 189.197 103.931 187.961 105.531 187.961C106.391 187.961 107.06 188.296 107.546 188.954L106.837 189.551C106.523 189.085 106.108 188.863 105.541 188.863C104.488 188.863 103.961 189.642 103.961 190.564C103.961 191.496 104.538 192.326 105.571 192.326C106.169 192.326 106.705 192.012 107.009 191.496L107.688 191.992ZM107.822 188.083H108.885V186.726H109.888V188.083H111.448V188.974H109.888V191.445C109.888 192.053 110.283 192.326 110.759 192.326C111.032 192.326 111.346 192.235 111.61 192.063L111.893 192.782C111.458 193.085 110.982 193.227 110.516 193.227C109.594 193.227 108.885 192.64 108.885 191.577V188.974H107.822V188.083ZM113.225 185.744C113.64 185.744 113.934 186.047 113.934 186.442C113.934 186.827 113.64 187.121 113.225 187.121C112.81 187.121 112.516 186.827 112.516 186.442C112.516 186.047 112.81 185.744 113.225 185.744ZM112.729 193.167V188.083H113.721V193.167H112.729ZM117.344 187.961C118.853 187.961 119.927 189.075 119.927 190.594C119.927 192.103 118.853 193.227 117.344 193.227C115.836 193.227 114.762 192.103 114.762 190.594C114.762 189.075 115.836 187.961 117.344 187.961ZM115.755 190.594C115.755 191.607 116.393 192.326 117.344 192.326C118.296 192.326 118.934 191.607 118.934 190.594C118.934 189.582 118.296 188.863 117.344 188.863C116.393 188.863 115.755 189.582 115.755 190.594ZM120.876 188.083H121.848V188.954C122.162 188.377 122.719 187.961 123.61 187.961C124.704 187.961 125.423 188.63 125.423 189.815V193.167H124.431V190.068C124.431 189.288 124.005 188.853 123.317 188.853C122.537 188.853 121.869 189.44 121.869 190.503V193.167H120.876V188.083ZM133.749 191.718C133.749 192.144 134.012 192.326 134.326 192.326C134.468 192.326 134.62 192.285 134.762 192.204L135.005 192.944C134.711 193.136 134.387 193.227 134.083 193.227C133.476 193.227 132.939 192.853 132.868 192.184C132.503 192.873 131.825 193.227 130.954 193.227C129.395 193.227 128.524 192.012 128.524 190.615C128.524 189.217 129.374 187.961 130.954 187.961C131.815 187.961 132.453 188.316 132.777 188.934V188.083H133.749V191.718ZM129.516 190.594C129.516 191.617 130.164 192.336 131.126 192.336C132.078 192.336 132.757 191.627 132.757 190.594C132.757 189.561 132.088 188.853 131.106 188.853C130.063 188.853 129.516 189.653 129.516 190.594ZM135.706 188.083H136.678V188.954C136.992 188.377 137.549 187.961 138.44 187.961C139.534 187.961 140.253 188.63 140.253 189.815V193.167H139.26V190.068C139.26 189.288 138.835 188.853 138.146 188.853C137.366 188.853 136.698 189.44 136.698 190.503V193.167H135.706V188.083ZM146.428 193.167H145.466V192.275C145.131 192.873 144.463 193.227 143.622 193.227C142.043 193.227 141.202 191.992 141.202 190.604C141.202 189.217 142.053 187.961 143.633 187.961C144.463 187.961 145.111 188.306 145.425 188.883V186.078H146.428V193.167ZM142.195 190.594C142.195 191.617 142.833 192.336 143.795 192.336C144.767 192.336 145.435 191.617 145.435 190.594C145.435 189.572 144.767 188.853 143.785 188.853C142.752 188.853 142.195 189.653 142.195 190.594ZM152.583 192.923C152.228 193.126 151.864 193.227 151.52 193.227C150.699 193.227 150.031 192.66 150.031 191.627V186.078H151.023V191.516C151.023 192.042 151.337 192.326 151.732 192.326C151.925 192.326 152.127 192.275 152.33 192.164L152.583 192.923ZM155.459 187.961C156.968 187.961 158.042 189.075 158.042 190.594C158.042 192.103 156.968 193.227 155.459 193.227C153.951 193.227 152.877 192.103 152.877 190.594C152.877 189.075 153.951 187.961 155.459 187.961ZM153.87 190.594C153.87 191.607 154.508 192.326 155.459 192.326C156.411 192.326 157.049 191.607 157.049 190.594C157.049 189.582 156.411 188.863 155.459 188.863C154.508 188.863 153.87 189.582 153.87 190.594ZM163.406 191.992C162.89 192.772 162.161 193.227 161.209 193.227C159.558 193.227 158.687 192.022 158.687 190.625C158.687 189.197 159.649 187.961 161.249 187.961C162.11 187.961 162.779 188.296 163.265 188.954L162.556 189.551C162.242 189.085 161.827 188.863 161.26 188.863C160.206 188.863 159.68 189.642 159.68 190.564C159.68 191.496 160.257 192.326 161.29 192.326C161.887 192.326 162.424 192.012 162.728 191.496L163.406 191.992ZM169.07 191.718C169.07 192.144 169.333 192.326 169.647 192.326C169.789 192.326 169.941 192.285 170.083 192.204L170.326 192.944C170.032 193.136 169.708 193.227 169.404 193.227C168.797 193.227 168.26 192.853 168.189 192.184C167.825 192.873 167.146 193.227 166.275 193.227C164.716 193.227 163.845 192.012 163.845 190.615C163.845 189.217 164.695 187.961 166.275 187.961C167.136 187.961 167.774 188.316 168.098 188.934V188.083H169.07V191.718ZM164.837 190.594C164.837 191.617 165.485 192.336 166.447 192.336C167.399 192.336 168.078 191.627 168.078 190.594C168.078 189.561 167.409 188.853 166.427 188.853C165.384 188.853 164.837 189.653 164.837 190.594ZM170.221 188.083H171.285V186.726H172.287V188.083H173.847V188.974H172.287V191.445C172.287 192.053 172.682 192.326 173.158 192.326C173.432 192.326 173.746 192.235 174.009 192.063L174.292 192.782C173.857 193.085 173.381 193.227 172.915 193.227C171.994 193.227 171.285 192.64 171.285 191.577V188.974H170.221V188.083ZM175.624 185.744C176.04 185.744 176.333 186.047 176.333 186.442C176.333 186.827 176.04 187.121 175.624 187.121C175.209 187.121 174.916 186.827 174.916 186.442C174.916 186.047 175.209 185.744 175.624 185.744ZM175.128 193.167V188.083H176.121V193.167H175.128ZM179.744 187.961C181.253 187.961 182.326 189.075 182.326 190.594C182.326 192.103 181.253 193.227 179.744 193.227C178.235 193.227 177.161 192.103 177.161 190.594C177.161 189.075 178.235 187.961 179.744 187.961ZM178.154 190.594C178.154 191.607 178.792 192.326 179.744 192.326C180.696 192.326 181.334 191.607 181.334 190.594C181.334 189.582 180.696 188.863 179.744 188.863C178.792 188.863 178.154 189.582 178.154 190.594ZM183.275 188.083H184.248V188.954C184.561 188.377 185.118 187.961 186.01 187.961C187.103 187.961 187.822 188.63 187.822 189.815V193.167H186.83V190.068C186.83 189.288 186.404 188.853 185.716 188.853C184.936 188.853 184.268 189.44 184.268 190.503V193.167H183.275V188.083Z" fill="#434343"/>
<g clip-path="url(#clip1_138_3546)">
<path d="M456.676 183.03L448.994 175.349C448.782 175.137 448.439 175.137 448.227 175.349C448.015 175.56 448.015 175.904 448.227 176.116L456.292 184.181C456.504 184.393 456.847 184.393 457.059 184.181L465.124 176.116C465.336 175.904 465.336 175.56 465.124 175.349C464.912 175.137 464.569 175.137 464.357 175.349L456.676 183.03Z" fill="#434343"/>
</g>
<path d="M477 208.74H43V209.463H477V208.74Z" fill="#C7C7C7"/>
<defs>
<clipPath id="clip0_138_3546">
<rect width="17.36" height="17.36" fill="white" transform="translate(448.067 112.117)"/>
</clipPath>
<clipPath id="clip1_138_3546">
<rect width="17.36" height="17.36" fill="white" transform="translate(448.067 170.987)"/>
</clipPath>
</defs>
</svg>
