<svg width="520" height="300" viewBox="0 0 520 300" fill="none" xmlns="http://www.w3.org/2000/svg">
<rect width="520" height="300" fill="white"/>
<rect x="108" y="66" width="304" height="50" fill="white"/>
<rect x="108" y="66" width="304" height="50" stroke="#C81414" stroke-width="4"/>
<rect width="48" height="46" transform="translate(110 68)" fill="#C81414"/>
<g clip-path="url(#clip0_138_3959)">
<path d="M133.953 80C140.555 80 145.906 85.3516 145.906 91.9531C145.906 98.5547 140.555 103.906 133.953 103.906C127.352 103.906 122 98.5547 122 91.9531C122 85.3516 127.352 80 133.953 80ZM133.953 81.5C128.18 81.5 123.5 86.18 123.5 91.9531C123.5 97.7262 128.18 102.406 133.953 102.406C139.726 102.406 144.406 97.7262 144.406 91.9531C144.406 86.18 139.726 81.5 133.953 81.5ZM128.941 86.9416C129.233 86.6487 129.708 86.6486 130.001 86.9415L133.952 90.892L137.903 86.9416C138.169 86.6753 138.586 86.6511 138.88 86.8689L138.964 86.9415C139.257 87.2344 139.257 87.7093 138.964 88.0022L135.013 91.953L138.965 95.904C139.231 96.1703 139.255 96.5869 139.037 96.8806L138.965 96.9647C138.672 97.2576 138.197 97.2576 137.904 96.9647L133.952 93.013L130.002 96.9647C129.736 97.231 129.319 97.2552 129.026 97.0373L128.942 96.9647C128.649 96.6719 128.649 96.197 128.942 95.9041L132.892 91.953L128.941 88.0022C128.674 87.736 128.65 87.3193 128.868 87.0257L128.941 86.9416Z" fill="white"/>
</g>
<path d="M179.846 97L178.856 94.372H174.032L173.042 97H170.252L175.202 84.4H177.686L182.636 97H179.846ZM174.932 91.942H177.956L176.444 87.856L174.932 91.942ZM188.789 96.532C188.087 96.91 187.367 97.108 186.683 97.108C185.027 97.108 183.677 96.01 183.677 93.922V84.4H186.233V93.652C186.233 94.408 186.683 94.822 187.313 94.822C187.583 94.822 187.889 94.75 188.195 94.588L188.789 96.532ZM197.944 93.202H191.644C191.914 94.354 192.724 94.912 193.966 94.912C195.046 94.912 195.82 94.462 196.36 93.85L197.656 95.416C196.648 96.496 195.388 97.108 193.768 97.108C190.942 97.108 189.052 95.272 189.052 92.446C189.052 89.638 190.906 87.532 193.804 87.532C196.324 87.532 197.944 89.098 197.944 92.212V93.202ZM191.608 91.366H195.424C195.406 90.34 194.884 89.638 193.66 89.638C192.526 89.638 191.824 90.268 191.608 91.366ZM199.375 87.748H201.859V89.152C202.273 88.09 203.209 87.64 204.307 87.64C204.685 87.64 205.099 87.694 205.513 87.802L205.153 90.178C204.775 90.052 204.397 89.998 204.073 89.998C202.813 89.998 201.931 90.79 201.931 92.302V97H199.375V87.748ZM205.792 87.748H207.628V85.48H210.184V87.748H212.83V90.034H210.184V93.4C210.184 94.372 210.796 94.822 211.588 94.822C212.002 94.822 212.488 94.696 212.938 94.408L213.568 96.298C212.704 96.838 211.804 97.108 210.904 97.108C208.996 97.108 207.628 95.92 207.628 93.85V90.034H205.792V87.748ZM223.546 86.884V97H220.936V86.884H217.03V84.4H227.434V86.884H223.546ZM229.925 83.518C230.897 83.518 231.581 84.22 231.581 85.12C231.581 86.002 230.897 86.704 229.925 86.704C228.953 86.704 228.251 86.002 228.251 85.12C228.251 84.22 228.953 83.518 229.925 83.518ZM228.647 97V87.748H231.203V97H228.647ZM232.196 87.748H234.032V85.48H236.588V87.748H239.234V90.034H236.588V93.4C236.588 94.372 237.2 94.822 237.992 94.822C238.406 94.822 238.892 94.696 239.342 94.408L239.972 96.298C239.108 96.838 238.208 97.108 237.308 97.108C235.4 97.108 234.032 95.92 234.032 93.85V90.034H232.196V87.748ZM246.131 96.532C245.429 96.91 244.709 97.108 244.025 97.108C242.369 97.108 241.019 96.01 241.019 93.922V84.4H243.575V93.652C243.575 94.408 244.025 94.822 244.655 94.822C244.925 94.822 245.231 94.75 245.537 94.588L246.131 96.532ZM255.287 93.202H248.987C249.257 94.354 250.067 94.912 251.309 94.912C252.389 94.912 253.163 94.462 253.703 93.85L254.999 95.416C253.991 96.496 252.731 97.108 251.111 97.108C248.285 97.108 246.395 95.272 246.395 92.446C246.395 89.638 248.249 87.532 251.147 87.532C253.667 87.532 255.287 89.098 255.287 92.212V93.202ZM248.951 91.366H252.767C252.749 90.34 252.227 89.638 251.003 89.638C249.869 89.638 249.167 90.268 248.951 91.366Z" fill="#434343"/>
<g filter="url(#filter0_dd_138_3959)">
<mask id="path-4-outside-1_138_3959" maskUnits="userSpaceOnUse" x="106" y="162" width="304" height="70" fill="black">
<rect fill="white" x="106" y="162" width="304" height="70"/>
<path d="M110 162H410V232H110V162Z"/>
</mask>
<path d="M110 162H410V232H110V162Z" fill="white"/>
<path d="M114 232V162H106V232H114Z" fill="#C81414" mask="url(#path-4-outside-1_138_3959)"/>
<g clip-path="url(#clip1_138_3959)">
<path d="M149.953 186C156.555 186 161.906 191.352 161.906 197.953C161.906 204.555 156.555 209.906 149.953 209.906C143.352 209.906 138 204.555 138 197.953C138 191.352 143.352 186 149.953 186ZM149.953 187.5C144.18 187.5 139.5 192.18 139.5 197.953C139.5 203.726 144.18 208.406 149.953 208.406C155.726 208.406 160.406 203.726 160.406 197.953C160.406 192.18 155.726 187.5 149.953 187.5ZM144.941 192.942C145.233 192.649 145.708 192.649 146.001 192.942L149.952 196.892L153.903 192.942C154.169 192.675 154.586 192.651 154.88 192.869L154.964 192.942C155.257 193.234 155.257 193.709 154.964 194.002L151.013 197.953L154.965 201.904C155.231 202.17 155.255 202.587 155.037 202.881L154.965 202.965C154.672 203.258 154.197 203.258 153.904 202.965L149.952 199.013L146.002 202.965C145.736 203.231 145.319 203.255 145.026 203.037L144.942 202.965C144.649 202.672 144.649 202.197 144.942 201.904L148.892 197.953L144.941 194.002C144.674 193.736 144.65 193.319 144.868 193.026L144.941 192.942Z" fill="#C81414"/>
</g>
<path d="M199.846 203L198.856 200.372H194.032L193.042 203H190.252L195.202 190.4H197.686L202.636 203H199.846ZM194.932 197.942H197.956L196.444 193.856L194.932 197.942ZM208.789 202.532C208.087 202.91 207.367 203.108 206.683 203.108C205.027 203.108 203.677 202.01 203.677 199.922V190.4H206.233V199.652C206.233 200.408 206.683 200.822 207.313 200.822C207.583 200.822 207.889 200.75 208.195 200.588L208.789 202.532ZM217.944 199.202H211.644C211.914 200.354 212.724 200.912 213.966 200.912C215.046 200.912 215.82 200.462 216.36 199.85L217.656 201.416C216.648 202.496 215.388 203.108 213.768 203.108C210.942 203.108 209.052 201.272 209.052 198.446C209.052 195.638 210.906 193.532 213.804 193.532C216.324 193.532 217.944 195.098 217.944 198.212V199.202ZM211.608 197.366H215.424C215.406 196.34 214.884 195.638 213.66 195.638C212.526 195.638 211.824 196.268 211.608 197.366ZM219.375 193.748H221.859V195.152C222.273 194.09 223.209 193.64 224.307 193.64C224.685 193.64 225.099 193.694 225.513 193.802L225.153 196.178C224.775 196.052 224.397 195.998 224.073 195.998C222.813 195.998 221.931 196.79 221.931 198.302V203H219.375V193.748ZM225.792 193.748H227.628V191.48H230.184V193.748H232.83V196.034H230.184V199.4C230.184 200.372 230.796 200.822 231.588 200.822C232.002 200.822 232.488 200.696 232.938 200.408L233.568 202.298C232.704 202.838 231.804 203.108 230.904 203.108C228.996 203.108 227.628 201.92 227.628 199.85V196.034H225.792V193.748ZM243.546 192.884V203H240.936V192.884H237.03V190.4H247.434V192.884H243.546ZM249.925 189.518C250.897 189.518 251.581 190.22 251.581 191.12C251.581 192.002 250.897 192.704 249.925 192.704C248.953 192.704 248.251 192.002 248.251 191.12C248.251 190.22 248.953 189.518 249.925 189.518ZM248.647 203V193.748H251.203V203H248.647ZM252.196 193.748H254.032V191.48H256.588V193.748H259.234V196.034H256.588V199.4C256.588 200.372 257.2 200.822 257.992 200.822C258.406 200.822 258.892 200.696 259.342 200.408L259.972 202.298C259.108 202.838 258.208 203.108 257.308 203.108C255.4 203.108 254.032 201.92 254.032 199.85V196.034H252.196V193.748ZM266.131 202.532C265.429 202.91 264.709 203.108 264.025 203.108C262.369 203.108 261.019 202.01 261.019 199.922V190.4H263.575V199.652C263.575 200.408 264.025 200.822 264.655 200.822C264.925 200.822 265.231 200.75 265.537 200.588L266.131 202.532ZM275.287 199.202H268.987C269.257 200.354 270.067 200.912 271.309 200.912C272.389 200.912 273.163 200.462 273.703 199.85L274.999 201.416C273.991 202.496 272.731 203.108 271.111 203.108C268.285 203.108 266.395 201.272 266.395 198.446C266.395 195.638 268.249 193.532 271.147 193.532C273.667 193.532 275.287 195.098 275.287 198.212V199.202ZM268.951 197.366H272.767C272.749 196.34 272.227 195.638 271.003 195.638C269.869 195.638 269.167 196.268 268.951 197.366Z" fill="#434343"/>
</g>
<defs>
<filter id="filter0_dd_138_3959" x="90" y="148" width="336" height="102" filterUnits="userSpaceOnUse" color-interpolation-filters="sRGB">
<feFlood flood-opacity="0" result="BackgroundImageFix"/>
<feColorMatrix in="SourceAlpha" type="matrix" values="0 0 0 0 0 0 0 0 0 0 0 0 0 0 0 0 0 0 127 0" result="hardAlpha"/>
<feOffset dy="2"/>
<feGaussianBlur stdDeviation="8"/>
<feColorMatrix type="matrix" values="0 0 0 0 0.129412 0 0 0 0 0.168627 0 0 0 0 0.211765 0 0 0 0.08 0"/>
<feBlend mode="normal" in2="BackgroundImageFix" result="effect1_dropShadow_138_3959"/>
<feColorMatrix in="SourceAlpha" type="matrix" values="0 0 0 0 0 0 0 0 0 0 0 0 0 0 0 0 0 0 127 0" result="hardAlpha"/>
<feMorphology radius="1" operator="dilate" in="SourceAlpha" result="effect2_dropShadow_138_3959"/>
<feOffset/>
<feColorMatrix type="matrix" values="0 0 0 0 0.0235294 0 0 0 0 0.172549 0 0 0 0 0.321569 0 0 0 0.1 0"/>
<feBlend mode="normal" in2="effect1_dropShadow_138_3959" result="effect2_dropShadow_138_3959"/>
<feBlend mode="normal" in="SourceGraphic" in2="effect2_dropShadow_138_3959" result="shape"/>
</filter>
<clipPath id="clip0_138_3959">
<rect width="24" height="24" fill="white" transform="translate(122 80)"/>
</clipPath>
<clipPath id="clip1_138_3959">
<rect width="24" height="24" fill="white" transform="translate(138 186)"/>
</clipPath>
</defs>
</svg>
