<svg width="520" height="300" viewBox="0 0 520 300" fill="none" xmlns="http://www.w3.org/2000/svg">
<rect width="520" height="300" fill="white"/>
<rect x="51" y="122" width="125" height="56" rx="28" fill="#144A38"/>
<path d="M88.6906 144.8C91.0586 144.8 92.1786 146.496 92.1786 148.24C92.1786 150.112 90.8506 151.904 88.4666 151.904H86.6906V156H84.3706V144.8H88.6906ZM86.6906 149.792H88.3386C89.3466 149.792 89.8586 149.104 89.8586 148.288C89.8586 147.536 89.3786 146.928 88.4346 146.928H86.6906V149.792ZM93.4218 147.776H95.6298V149.024C95.9978 148.08 96.8298 147.68 97.8058 147.68C98.1418 147.68 98.5098 147.728 98.8778 147.824L98.5578 149.936C98.2218 149.824 97.8858 149.776 97.5978 149.776C96.4778 149.776 95.6938 150.48 95.6938 151.824V156H93.4218V147.776ZM101.038 144.016C101.902 144.016 102.51 144.64 102.51 145.44C102.51 146.224 101.902 146.848 101.038 146.848C100.174 146.848 99.5497 146.224 99.5497 145.44C99.5497 144.64 100.174 144.016 101.038 144.016ZM99.9017 156V147.776H102.174V156H99.9017ZM104.016 147.776H106.224V148.88C106.688 148.048 107.408 147.584 108.48 147.584C109.616 147.584 110.448 148.08 110.864 149.088C111.344 148.128 112.208 147.584 113.392 147.584C115.104 147.584 116.08 148.672 116.08 150.72V156H113.824V151.088C113.824 150.208 113.52 149.6 112.608 149.6C111.76 149.6 111.184 150.144 111.184 151.44V156H108.912V151.088C108.912 150.208 108.624 149.6 107.712 149.6C106.864 149.6 106.288 150.144 106.288 151.44V156H104.016V147.776ZM125.982 153.232C125.982 153.824 126.366 154.064 126.766 154.064C126.974 154.064 127.166 154.016 127.358 153.904L127.838 155.552C127.326 155.92 126.734 156.096 126.174 156.096C125.198 156.096 124.318 155.568 124.094 154.56C123.566 155.536 122.526 156.096 121.182 156.096C118.814 156.096 117.326 154.24 117.326 151.856C117.326 149.488 118.75 147.584 121.198 147.584C122.462 147.584 123.374 148.096 123.79 148.896V147.776H125.982V153.232ZM119.598 151.84C119.598 153.168 120.414 154.096 121.63 154.096C122.878 154.096 123.726 153.184 123.726 151.84C123.726 150.512 122.878 149.584 121.63 149.584C120.35 149.584 119.598 150.56 119.598 151.84ZM128.689 147.776H130.897V149.024C131.265 148.08 132.097 147.68 133.073 147.68C133.409 147.68 133.777 147.728 134.145 147.824L133.825 149.936C133.489 149.824 133.153 149.776 132.865 149.776C131.745 149.776 130.961 150.48 130.961 151.824V156H128.689V147.776ZM140.529 147.776H142.785V155.52C142.785 158.304 140.737 159.76 138.465 159.76C136.609 159.76 135.073 158.896 134.401 157.136L136.385 156.208C136.721 157.248 137.553 157.728 138.529 157.728C139.633 157.728 140.529 157.072 140.529 155.792V154.464C140.113 155.296 139.201 155.776 138.049 155.776C136.321 155.776 134.977 154.704 134.977 152.544V147.776H137.233V152.176C137.233 153.2 137.841 153.76 138.769 153.76C139.745 153.76 140.529 153.088 140.529 151.856V147.776Z" fill="white"/>
<rect x="187" y="123" width="144" height="54" rx="27" stroke="#144A38" stroke-width="2"/>
<path d="M225.193 147.84C224.681 147.152 223.737 146.768 222.905 146.768C222.041 146.768 221.369 147.152 221.369 147.904C221.369 148.816 222.377 149.104 223.433 149.392C225.593 149.952 226.969 150.608 226.969 152.64C226.969 155.056 225.113 156.256 222.969 156.256C221.481 156.256 219.865 155.632 218.777 154.256L220.361 152.608C221.017 153.552 222.137 154 223.081 154C223.993 154 224.633 153.584 224.633 152.896C224.633 152.096 223.673 151.808 222.649 151.52C220.409 150.896 219.049 150.176 219.049 148.208C219.049 145.856 220.873 144.544 222.985 144.544C224.345 144.544 225.753 145.104 226.697 146.256L225.193 147.84ZM235.658 152.624H230.058C230.298 153.648 231.018 154.144 232.122 154.144C233.082 154.144 233.77 153.744 234.25 153.2L235.402 154.592C234.506 155.552 233.386 156.096 231.946 156.096C229.434 156.096 227.754 154.464 227.754 151.952C227.754 149.456 229.402 147.584 231.978 147.584C234.218 147.584 235.658 148.976 235.658 151.744V152.624ZM230.026 150.992H233.418C233.402 150.08 232.938 149.456 231.85 149.456C230.842 149.456 230.218 150.016 230.026 150.992ZM244.29 153.968C243.458 155.312 242.162 156.096 240.61 156.096C237.97 156.096 236.45 154.272 236.45 151.888C236.45 149.456 238.178 147.584 240.674 147.584C242.098 147.584 243.282 148.176 244.066 149.296L242.45 150.608C242.002 149.936 241.426 149.616 240.69 149.616C239.442 149.616 238.706 150.528 238.706 151.808C238.706 153.104 239.538 154.064 240.802 154.064C241.57 154.064 242.338 153.632 242.77 152.864L244.29 153.968ZM249.011 147.584C251.459 147.584 253.267 149.408 253.267 151.84C253.267 154.272 251.459 156.096 249.011 156.096C246.547 156.096 244.739 154.272 244.739 151.84C244.739 149.408 246.547 147.584 249.011 147.584ZM247.011 151.84C247.011 153.152 247.795 154.064 249.011 154.064C250.227 154.064 251.011 153.152 251.011 151.84C251.011 150.528 250.227 149.616 249.011 149.616C247.795 149.616 247.011 150.528 247.011 151.84ZM254.524 147.776H256.732V148.88C257.228 148.144 257.932 147.584 259.212 147.584C260.892 147.584 262.14 148.576 262.14 150.608V156H259.868V151.088C259.868 150.08 259.308 149.6 258.46 149.6C257.548 149.6 256.796 150.24 256.796 151.52V156H254.524V147.776ZM272.036 156H269.892V154.864C269.428 155.616 268.42 156.096 267.236 156.096C264.804 156.096 263.38 154.192 263.38 151.856C263.38 149.504 264.804 147.584 267.252 147.584C268.436 147.584 269.364 148.064 269.764 148.768V144.8H272.036V156ZM265.652 151.84C265.652 153.168 266.468 154.096 267.684 154.096C268.932 154.096 269.78 153.168 269.78 151.84C269.78 150.512 268.932 149.584 267.684 149.584C266.42 149.584 265.652 150.56 265.652 151.84ZM281.935 153.232C281.935 153.824 282.319 154.064 282.719 154.064C282.927 154.064 283.119 154.016 283.311 153.904L283.791 155.552C283.279 155.92 282.687 156.096 282.127 156.096C281.151 156.096 280.271 155.568 280.047 154.56C279.519 155.536 278.479 156.096 277.135 156.096C274.767 156.096 273.279 154.24 273.279 151.856C273.279 149.488 274.703 147.584 277.151 147.584C278.415 147.584 279.327 148.096 279.743 148.896V147.776H281.935V153.232ZM275.551 151.84C275.551 153.168 276.367 154.096 277.583 154.096C278.831 154.096 279.679 153.184 279.679 151.84C279.679 150.512 278.831 149.584 277.583 149.584C276.303 149.584 275.551 150.56 275.551 151.84ZM284.642 147.776H286.85V149.024C287.218 148.08 288.05 147.68 289.026 147.68C289.362 147.68 289.73 147.728 290.098 147.824L289.778 149.936C289.442 149.824 289.106 149.776 288.818 149.776C287.698 149.776 286.914 150.48 286.914 151.824V156H284.642V147.776ZM296.482 147.776H298.738V155.52C298.738 158.304 296.69 159.76 294.418 159.76C292.562 159.76 291.026 158.896 290.354 157.136L292.338 156.208C292.674 157.248 293.506 157.728 294.482 157.728C295.586 157.728 296.482 157.072 296.482 155.792V154.464C296.066 155.296 295.154 155.776 294.002 155.776C292.274 155.776 290.93 154.704 290.93 152.544V147.776H293.186V152.176C293.186 153.2 293.794 153.76 294.722 153.76C295.698 153.76 296.482 153.088 296.482 151.856V147.776Z" fill="#144A38"/>
<path d="M380.472 147.008V156H378.152V147.008H374.68V144.8H383.928V147.008H380.472ZM391.475 152.624H385.875C386.115 153.648 386.835 154.144 387.939 154.144C388.899 154.144 389.587 153.744 390.067 153.2L391.219 154.592C390.323 155.552 389.203 156.096 387.763 156.096C385.251 156.096 383.571 154.464 383.571 151.952C383.571 149.456 385.219 147.584 387.795 147.584C390.035 147.584 391.475 148.976 391.475 151.744V152.624ZM385.843 150.992H389.235C389.219 150.08 388.755 149.456 387.667 149.456C386.659 149.456 386.035 150.016 385.843 150.992ZM392.746 147.776H394.954V149.024C395.322 148.08 396.154 147.68 397.13 147.68C397.466 147.68 397.834 147.728 398.202 147.824L397.882 149.936C397.546 149.824 397.21 149.776 396.922 149.776C395.802 149.776 395.018 150.48 395.018 151.824V156H392.746V147.776ZM398.451 147.776H400.083V145.76H402.355V147.776H404.707V149.808H402.355V152.8C402.355 153.664 402.899 154.064 403.603 154.064C403.971 154.064 404.403 153.952 404.803 153.696L405.363 155.376C404.595 155.856 403.795 156.096 402.995 156.096C401.299 156.096 400.083 155.04 400.083 153.2V149.808H398.451V147.776ZM407.558 144.016C408.422 144.016 409.03 144.64 409.03 145.44C409.03 146.224 408.422 146.848 407.558 146.848C406.694 146.848 406.07 146.224 406.07 145.44C406.07 144.64 406.694 144.016 407.558 144.016ZM406.422 156V147.776H408.694V156H406.422ZM418.712 153.232C418.712 153.824 419.096 154.064 419.496 154.064C419.704 154.064 419.896 154.016 420.088 153.904L420.568 155.552C420.056 155.92 419.464 156.096 418.904 156.096C417.928 156.096 417.048 155.568 416.824 154.56C416.296 155.536 415.256 156.096 413.912 156.096C411.544 156.096 410.056 154.24 410.056 151.856C410.056 149.488 411.48 147.584 413.928 147.584C415.192 147.584 416.104 148.096 416.52 148.896V147.776H418.712V153.232ZM412.328 151.84C412.328 153.168 413.144 154.096 414.36 154.096C415.608 154.096 416.456 153.184 416.456 151.84C416.456 150.512 415.608 149.584 414.36 149.584C413.08 149.584 412.328 150.56 412.328 151.84ZM421.419 147.776H423.627V149.024C423.995 148.08 424.827 147.68 425.803 147.68C426.139 147.68 426.507 147.728 426.875 147.824L426.555 149.936C426.219 149.824 425.883 149.776 425.595 149.776C424.475 149.776 423.691 150.48 423.691 151.824V156H421.419V147.776ZM433.259 147.776H435.515V155.52C435.515 158.304 433.467 159.76 431.195 159.76C429.339 159.76 427.803 158.896 427.131 157.136L429.115 156.208C429.451 157.248 430.283 157.728 431.259 157.728C432.363 157.728 433.259 157.072 433.259 155.792V154.464C432.843 155.296 431.931 155.776 430.779 155.776C429.051 155.776 427.707 154.704 427.707 152.544V147.776H429.963V152.176C429.963 153.2 430.571 153.76 431.499 153.76C432.475 153.76 433.259 153.088 433.259 151.856V147.776Z" fill="#144A38"/>
</svg>
