<svg width="520" height="300" viewBox="0 0 520 300" fill="none" xmlns="http://www.w3.org/2000/svg">
<rect width="520" height="300" fill="white"/>
<rect x="120" y="122" width="116" height="56" rx="28" fill="#144A38"/>
<path d="M158.05 144.8C160.098 144.8 161.202 146.16 161.202 147.536C161.202 148.544 160.626 149.616 159.362 149.968C160.914 150.368 161.602 151.44 161.602 152.656C161.602 154.384 160.194 156 157.81 156H153.57V144.8H158.05ZM155.874 153.872H157.682C158.674 153.872 159.282 153.344 159.282 152.464C159.282 151.632 158.69 151.088 157.714 151.088H155.874V153.872ZM155.874 149.328H157.474C158.37 149.328 158.882 148.784 158.882 148.064C158.882 147.36 158.37 146.928 157.522 146.928H155.874V149.328ZM170.356 147.776V156H168.164V154.8C167.668 155.536 166.996 156.096 165.764 156.096C164.196 156.096 162.852 155.2 162.852 153.04V147.776H165.124V152.576C165.124 153.616 165.636 154.08 166.436 154.08C167.428 154.08 168.1 153.36 168.1 152.176V147.776H170.356ZM171.138 147.776H172.77V145.76H175.042V147.776H177.394V149.808H175.042V152.8C175.042 153.664 175.586 154.064 176.29 154.064C176.658 154.064 177.09 153.952 177.49 153.696L178.05 155.376C177.282 155.856 176.482 156.096 175.682 156.096C173.986 156.096 172.77 155.04 172.77 153.2V149.808H171.138V147.776ZM178.021 147.776H179.653V145.76H181.925V147.776H184.277V149.808H181.925V152.8C181.925 153.664 182.469 154.064 183.173 154.064C183.541 154.064 183.973 153.952 184.373 153.696L184.933 155.376C184.165 155.856 183.365 156.096 182.565 156.096C180.869 156.096 179.653 155.04 179.653 153.2V149.808H178.021V147.776ZM189.469 147.584C191.917 147.584 193.725 149.408 193.725 151.84C193.725 154.272 191.917 156.096 189.469 156.096C187.005 156.096 185.197 154.272 185.197 151.84C185.197 149.408 187.005 147.584 189.469 147.584ZM187.469 151.84C187.469 153.152 188.253 154.064 189.469 154.064C190.685 154.064 191.469 153.152 191.469 151.84C191.469 150.528 190.685 149.616 189.469 149.616C188.253 149.616 187.469 150.528 187.469 151.84ZM194.982 147.776H197.19V148.88C197.686 148.144 198.39 147.584 199.67 147.584C201.35 147.584 202.598 148.576 202.598 150.608V156H200.326V151.088C200.326 150.08 199.766 149.6 198.918 149.6C198.006 149.6 197.254 150.24 197.254 151.52V156H194.982V147.776Z" fill="white"/>
<rect x="285" y="123" width="114" height="54" rx="27" stroke="#144A38" stroke-width="2"/>
<path d="M322.05 144.8C324.098 144.8 325.202 146.16 325.202 147.536C325.202 148.544 324.626 149.616 323.362 149.968C324.914 150.368 325.602 151.44 325.602 152.656C325.602 154.384 324.194 156 321.81 156H317.57V144.8H322.05ZM319.874 153.872H321.682C322.674 153.872 323.282 153.344 323.282 152.464C323.282 151.632 322.69 151.088 321.714 151.088H319.874V153.872ZM319.874 149.328H321.474C322.37 149.328 322.882 148.784 322.882 148.064C322.882 147.36 322.37 146.928 321.522 146.928H319.874V149.328ZM334.356 147.776V156H332.164V154.8C331.668 155.536 330.996 156.096 329.764 156.096C328.196 156.096 326.852 155.2 326.852 153.04V147.776H329.124V152.576C329.124 153.616 329.636 154.08 330.436 154.08C331.428 154.08 332.1 153.36 332.1 152.176V147.776H334.356ZM335.138 147.776H336.77V145.76H339.042V147.776H341.394V149.808H339.042V152.8C339.042 153.664 339.586 154.064 340.29 154.064C340.658 154.064 341.09 153.952 341.49 153.696L342.05 155.376C341.282 155.856 340.482 156.096 339.682 156.096C337.986 156.096 336.77 155.04 336.77 153.2V149.808H335.138V147.776ZM342.021 147.776H343.653V145.76H345.925V147.776H348.277V149.808H345.925V152.8C345.925 153.664 346.469 154.064 347.173 154.064C347.541 154.064 347.973 153.952 348.373 153.696L348.933 155.376C348.165 155.856 347.365 156.096 346.565 156.096C344.869 156.096 343.653 155.04 343.653 153.2V149.808H342.021V147.776ZM353.469 147.584C355.917 147.584 357.725 149.408 357.725 151.84C357.725 154.272 355.917 156.096 353.469 156.096C351.005 156.096 349.197 154.272 349.197 151.84C349.197 149.408 351.005 147.584 353.469 147.584ZM351.469 151.84C351.469 153.152 352.253 154.064 353.469 154.064C354.685 154.064 355.469 153.152 355.469 151.84C355.469 150.528 354.685 149.616 353.469 149.616C352.253 149.616 351.469 150.528 351.469 151.84ZM358.982 147.776H361.19V148.88C361.686 148.144 362.39 147.584 363.67 147.584C365.35 147.584 366.598 148.576 366.598 150.608V156H364.326V151.088C364.326 150.08 363.766 149.6 362.918 149.6C362.006 149.6 361.254 150.24 361.254 151.52V156H358.982V147.776Z" fill="#144A38"/>
</svg>
