<svg width="520" height="300" viewBox="0 0 520 300" fill="none" xmlns="http://www.w3.org/2000/svg">
<rect width="520" height="300" fill="white"/>
<g clip-path="url(#clip0_138_3549)">
<rect x="127" y="46" width="265" height="207.2" rx="5.3" fill="white"/>
<path d="M154.671 79.5307C156.182 79.5307 157.311 78.6721 157.883 77.2093L159.632 77.9725C158.694 80.1985 156.929 81.4546 154.512 81.4546C151.078 81.4546 149.011 78.9583 149.011 75.7624C149.011 72.4234 151.301 69.8158 154.735 69.8158C156.723 69.8158 158.281 70.6585 159.282 72.2644L157.692 73.4251C157.041 72.328 155.943 71.7238 154.64 71.7238C152.509 71.7238 151.046 73.3456 151.046 75.6352C151.046 78.0679 152.652 79.5307 154.671 79.5307ZM168.838 78.6562C168.838 79.2763 169.22 79.5466 169.665 79.5466C169.872 79.5466 170.094 79.483 170.285 79.3717L170.73 80.8027C170.238 81.1366 169.681 81.2956 169.172 81.2956C168.202 81.2956 167.344 80.7391 167.169 79.7215C166.628 80.7391 165.579 81.2956 164.227 81.2956C161.826 81.2956 160.411 79.4194 160.411 77.1298C160.411 74.8561 161.779 72.9163 164.227 72.9163C165.531 72.9163 166.485 73.4569 166.93 74.3155V73.1071H168.838V78.6562ZM162.351 77.1139C162.351 78.5608 163.257 79.5625 164.593 79.5625C165.96 79.5625 166.883 78.5767 166.883 77.1139C166.883 75.6511 165.96 74.6494 164.577 74.6494C163.146 74.6494 162.351 75.7465 162.351 77.1139ZM171.688 73.1071H173.58V74.3791C173.962 73.4251 174.788 73.0117 175.758 73.0117C176.124 73.0117 176.49 73.0753 176.871 73.1866L176.569 74.9992C176.235 74.872 175.886 74.8084 175.583 74.8084C174.455 74.8084 173.628 75.5398 173.628 76.9708V81.2002H171.688V73.1071ZM185.577 81.2002H183.717V79.9441C183.224 80.7868 182.207 81.2956 180.951 81.2956C178.518 81.2956 177.15 79.3876 177.15 77.1139C177.15 74.8561 178.518 72.9163 180.966 72.9163C182.207 72.9163 183.177 73.4251 183.622 74.2201V70.0702H185.577V81.2002ZM179.09 77.1139C179.09 78.5608 179.981 79.5625 181.332 79.5625C182.7 79.5625 183.622 78.5608 183.622 77.1139C183.622 75.6511 182.7 74.6494 181.316 74.6494C179.901 74.6494 179.09 75.7465 179.09 77.1139ZM191.187 81.2002V70.0702H193.191V74.6653H198.215V70.0702H200.218V81.2002H198.215V76.5574H193.191V81.2002H191.187ZM209.419 77.7658H203.695C203.917 78.9901 204.728 79.6102 205.968 79.6102C206.97 79.6102 207.686 79.1809 208.178 78.5608L209.196 79.7533C208.337 80.7391 207.24 81.2956 205.809 81.2956C203.329 81.2956 201.739 79.6261 201.739 77.2093C201.739 74.8243 203.281 72.9163 205.841 72.9163C208.035 72.9163 209.419 74.3155 209.419 76.939V77.7658ZM203.679 76.3507H207.495C207.479 75.2377 206.938 74.5381 205.746 74.5381C204.585 74.5381 203.87 75.2059 203.679 76.3507ZM218.73 78.6562C218.73 79.2763 219.111 79.5466 219.556 79.5466C219.763 79.5466 219.986 79.483 220.177 79.3717L220.622 80.8027C220.129 81.1366 219.572 81.2956 219.064 81.2956C218.094 81.2956 217.235 80.7391 217.06 79.7215C216.52 80.7391 215.47 81.2956 214.119 81.2956C211.718 81.2956 210.303 79.4194 210.303 77.1298C210.303 74.8561 211.67 72.9163 214.119 72.9163C215.422 72.9163 216.376 73.4569 216.822 74.3155V73.1071H218.73V78.6562ZM212.242 77.1139C212.242 78.5608 213.149 79.5625 214.484 79.5625C215.852 79.5625 216.774 78.5767 216.774 77.1139C216.774 75.6511 215.852 74.6494 214.468 74.6494C213.037 74.6494 212.242 75.7465 212.242 77.1139ZM229.374 81.2002H227.514V79.9441C227.021 80.7868 226.003 81.2956 224.747 81.2956C222.314 81.2956 220.947 79.3876 220.947 77.1139C220.947 74.8561 222.314 72.9163 224.763 72.9163C226.003 72.9163 226.973 73.4251 227.418 74.2201V70.0702H229.374V81.2002ZM222.887 77.1139C222.887 78.5608 223.777 79.5625 225.129 79.5625C226.496 79.5625 227.418 78.5608 227.418 77.1139C227.418 75.6511 226.496 74.6494 225.113 74.6494C223.698 74.6494 222.887 75.7465 222.887 77.1139ZM232.296 69.4024C233.075 69.4024 233.615 69.9589 233.615 70.6744C233.615 71.374 233.075 71.9305 232.296 71.9305C231.533 71.9305 230.992 71.374 230.992 70.6744C230.992 69.9589 231.533 69.4024 232.296 69.4024ZM231.326 81.2002V73.1071H233.266V81.2002H231.326ZM235.244 73.1071H237.136V74.3314C237.629 73.5205 238.408 72.9163 239.744 72.9163C241.429 72.9163 242.606 73.9339 242.606 75.8896V81.2002H240.666V76.3189C240.666 75.2218 240.062 74.6494 239.123 74.6494C238.058 74.6494 237.184 75.4126 237.184 76.8595V81.2002H235.244V73.1071ZM250.677 73.1071H252.569V80.8186C252.569 83.3467 250.693 84.9367 248.212 84.9367C246.225 84.9367 244.619 83.9032 243.999 82.2973L245.7 81.4546C246.098 82.5358 247.115 83.1718 248.276 83.1718C249.675 83.1718 250.629 82.3609 250.629 81.0094V79.7533C250.136 80.596 249.214 81.0253 247.958 81.0253C245.621 81.0253 244.047 79.3717 244.047 76.9867C244.047 74.7289 245.509 72.9163 247.958 72.9163C249.262 72.9163 250.279 73.4092 250.677 74.2201V73.1071ZM245.986 76.9708C245.986 78.3223 246.877 79.3081 248.308 79.3081C249.675 79.3081 250.645 78.4177 250.645 76.9708C250.645 75.5239 249.691 74.6494 248.308 74.6494C246.972 74.6494 245.986 75.5239 245.986 76.9708Z" fill="#434343"/>
<path d="M149.069 116.4V108.98H150.14V112.16H153.882V108.98H154.952V116.4H153.882V113.178H150.14V116.4H149.069ZM161.045 114.058H157.091C157.218 115.044 157.854 115.542 158.787 115.542C159.487 115.542 159.995 115.234 160.335 114.757L160.918 115.383C160.366 116.072 159.656 116.464 158.702 116.464C157.049 116.464 156.052 115.309 156.052 113.772C156.052 112.245 157.027 110.952 158.713 110.952C160.154 110.952 161.045 111.885 161.045 113.538V114.058ZM157.091 113.263H160.006C160.006 112.351 159.561 111.832 158.67 111.832C157.769 111.832 157.218 112.372 157.091 113.263ZM162.038 111.079H163.055V111.948C163.31 111.302 163.882 111.005 164.529 111.005C164.783 111.005 165.048 111.047 165.292 111.143L165.122 112.107C164.889 112.012 164.645 111.97 164.433 111.97C163.67 111.97 163.077 112.478 163.077 113.528V116.4H162.038V111.079ZM170.517 114.058H166.563C166.69 115.044 167.326 115.542 168.259 115.542C168.959 115.542 169.467 115.234 169.807 114.757L170.39 115.383C169.838 116.072 169.128 116.464 168.174 116.464C166.521 116.464 165.524 115.309 165.524 113.772C165.524 112.245 166.499 110.952 168.185 110.952C169.626 110.952 170.517 111.885 170.517 113.538V114.058ZM166.563 113.263H169.478C169.478 112.351 169.033 111.832 168.142 111.832C167.241 111.832 166.69 112.372 166.563 113.263ZM170.98 111.461L172.061 108.493L173.1 108.906L171.828 111.8L170.98 111.461ZM176.994 112.394C176.634 112.023 176.072 111.853 175.616 111.853C175.076 111.853 174.705 112.097 174.705 112.521C174.705 113.008 175.213 113.125 175.955 113.284C176.825 113.464 177.863 113.655 177.863 114.779C177.863 115.849 176.92 116.464 175.754 116.464C174.885 116.464 173.994 116.104 173.411 115.425L174.037 114.704C174.471 115.287 175.235 115.542 175.849 115.542C176.39 115.542 176.825 115.34 176.825 114.906C176.825 114.45 176.379 114.323 175.701 114.185C174.811 114.005 173.676 113.782 173.676 112.584C173.676 111.482 174.599 110.952 175.627 110.952C176.326 110.952 177.058 111.196 177.556 111.705L176.994 112.394ZM186.201 114.885C186.201 115.33 186.477 115.521 186.805 115.521C186.954 115.521 187.113 115.478 187.261 115.393L187.516 116.167C187.208 116.369 186.869 116.464 186.551 116.464C185.915 116.464 185.353 116.072 185.279 115.372C184.897 116.093 184.187 116.464 183.276 116.464C181.643 116.464 180.732 115.192 180.732 113.729C180.732 112.266 181.622 110.952 183.276 110.952C184.177 110.952 184.844 111.323 185.184 111.97V111.079H186.201V114.885ZM181.77 113.708C181.77 114.779 182.449 115.531 183.456 115.531C184.452 115.531 185.162 114.789 185.162 113.708C185.162 112.627 184.463 111.885 183.435 111.885C182.343 111.885 181.77 112.722 181.77 113.708ZM195.123 115.171C194.582 115.987 193.819 116.464 192.822 116.464C191.095 116.464 190.183 115.203 190.183 113.74C190.183 112.245 191.19 110.952 192.865 110.952C193.766 110.952 194.465 111.302 194.974 111.991L194.232 112.616C193.904 112.129 193.469 111.895 192.875 111.895C191.773 111.895 191.222 112.712 191.222 113.676C191.222 114.651 191.826 115.521 192.907 115.521C193.533 115.521 194.094 115.192 194.412 114.651L195.123 115.171ZM198.284 110.952C199.864 110.952 200.987 112.118 200.987 113.708C200.987 115.287 199.864 116.464 198.284 116.464C196.705 116.464 195.581 115.287 195.581 113.708C195.581 112.118 196.705 110.952 198.284 110.952ZM196.62 113.708C196.62 114.768 197.288 115.521 198.284 115.521C199.281 115.521 199.949 114.768 199.949 113.708C199.949 112.648 199.281 111.895 198.284 111.895C197.288 111.895 196.62 112.648 196.62 113.708ZM204.652 116.146C204.281 116.358 203.9 116.464 203.539 116.464C202.681 116.464 201.981 115.87 201.981 114.789V108.98H203.02V114.673C203.02 115.224 203.349 115.521 203.762 115.521C203.963 115.521 204.175 115.468 204.387 115.351L204.652 116.146ZM207.846 116.146C207.475 116.358 207.093 116.464 206.733 116.464C205.874 116.464 205.175 115.87 205.175 114.789V108.98H206.214V114.673C206.214 115.224 206.542 115.521 206.956 115.521C207.157 115.521 207.369 115.468 207.581 115.351L207.846 116.146ZM213.147 114.058H209.193C209.32 115.044 209.956 115.542 210.889 115.542C211.588 115.542 212.097 115.234 212.436 114.757L213.019 115.383C212.468 116.072 211.758 116.464 210.804 116.464C209.15 116.464 208.154 115.309 208.154 113.772C208.154 112.245 209.129 110.952 210.815 110.952C212.256 110.952 213.147 111.885 213.147 113.538V114.058ZM209.193 113.263H212.108C212.108 112.351 211.663 111.832 210.772 111.832C209.871 111.832 209.32 112.372 209.193 113.263ZM218.761 115.171C218.221 115.987 217.458 116.464 216.461 116.464C214.733 116.464 213.822 115.203 213.822 113.74C213.822 112.245 214.829 110.952 216.504 110.952C217.405 110.952 218.104 111.302 218.613 111.991L217.871 112.616C217.542 112.129 217.108 111.895 216.514 111.895C215.412 111.895 214.861 112.712 214.861 113.676C214.861 114.651 215.465 115.521 216.546 115.521C217.171 115.521 217.733 115.192 218.051 114.651L218.761 115.171ZM218.902 111.079H220.015V109.659H221.065V111.079H222.697V112.012H221.065V114.598C221.065 115.234 221.478 115.521 221.976 115.521C222.262 115.521 222.591 115.425 222.867 115.245L223.163 115.998C222.708 116.316 222.209 116.464 221.722 116.464C220.757 116.464 220.015 115.849 220.015 114.736V112.012H218.902V111.079ZM224.558 108.631C224.992 108.631 225.3 108.949 225.3 109.362C225.3 109.765 224.992 110.072 224.558 110.072C224.123 110.072 223.816 109.765 223.816 109.362C223.816 108.949 224.123 108.631 224.558 108.631ZM224.038 116.4V111.079H225.077V116.4H224.038ZM228.87 110.952C230.449 110.952 231.573 112.118 231.573 113.708C231.573 115.287 230.449 116.464 228.87 116.464C227.29 116.464 226.167 115.287 226.167 113.708C226.167 112.118 227.29 110.952 228.87 110.952ZM227.205 113.708C227.205 114.768 227.873 115.521 228.87 115.521C229.866 115.521 230.534 114.768 230.534 113.708C230.534 112.648 229.866 111.895 228.87 111.895C227.873 111.895 227.205 112.648 227.205 113.708ZM232.566 111.079H233.584V111.991C233.913 111.387 234.496 110.952 235.428 110.952C236.573 110.952 237.326 111.652 237.326 112.892V116.4H236.287V113.157C236.287 112.341 235.842 111.885 235.121 111.885C234.305 111.885 233.605 112.5 233.605 113.613V116.4H232.566V111.079ZM243.274 110.952C244.854 110.952 245.977 112.118 245.977 113.708C245.977 115.287 244.854 116.464 243.274 116.464C241.695 116.464 240.571 115.287 240.571 113.708C240.571 112.118 241.695 110.952 243.274 110.952ZM241.61 113.708C241.61 114.768 242.278 115.521 243.274 115.521C244.271 115.521 244.939 114.768 244.939 113.708C244.939 112.648 244.271 111.895 243.274 111.895C242.278 111.895 241.61 112.648 241.61 113.708ZM246.335 111.079H247.374V110.623C247.374 109.426 248.084 108.715 249.155 108.715C249.674 108.715 250.119 108.864 250.543 109.203L250.077 109.977C249.833 109.754 249.558 109.659 249.261 109.659C248.752 109.659 248.413 109.987 248.413 110.613V111.079H249.844V112.012H248.413V116.4H247.374V112.012H246.335V111.079ZM259.97 111.079H261.136L259.164 116.4H258.189L256.822 112.584L255.444 116.4H254.479L252.508 111.079H253.621L254.967 115.001L256.313 111.079H257.331L258.677 114.991L259.97 111.079ZM264.103 110.952C265.682 110.952 266.806 112.118 266.806 113.708C266.806 115.287 265.682 116.464 264.103 116.464C262.523 116.464 261.4 115.287 261.4 113.708C261.4 112.118 262.523 110.952 264.103 110.952ZM262.438 113.708C262.438 114.768 263.106 115.521 264.103 115.521C265.099 115.521 265.767 114.768 265.767 113.708C265.767 112.648 265.099 111.895 264.103 111.895C263.106 111.895 262.438 112.648 262.438 113.708ZM267.799 111.079H268.817V111.948C269.071 111.302 269.644 111.005 270.29 111.005C270.545 111.005 270.81 111.047 271.054 111.143L270.884 112.107C270.651 112.012 270.407 111.97 270.195 111.97C269.432 111.97 268.838 112.478 268.838 113.528V116.4H267.799V111.079ZM276.755 116.4H275.748V115.468C275.399 116.093 274.699 116.464 273.819 116.464C272.166 116.464 271.286 115.171 271.286 113.719C271.286 112.266 272.176 110.952 273.83 110.952C274.699 110.952 275.377 111.312 275.706 111.917V108.98H276.755V116.4ZM272.325 113.708C272.325 114.779 272.992 115.531 273.999 115.531C275.017 115.531 275.717 114.779 275.717 113.708C275.717 112.637 275.017 111.885 273.989 111.885C272.908 111.885 272.325 112.722 272.325 113.708ZM281.28 112.394C280.92 112.023 280.358 111.853 279.902 111.853C279.362 111.853 278.991 112.097 278.991 112.521C278.991 113.008 279.499 113.125 280.241 113.284C281.111 113.464 282.149 113.655 282.149 114.779C282.149 115.849 281.206 116.464 280.04 116.464C279.171 116.464 278.28 116.104 277.697 115.425L278.323 114.704C278.757 115.287 279.521 115.542 280.135 115.542C280.676 115.542 281.111 115.34 281.111 114.906C281.111 114.45 280.665 114.323 279.987 114.185C279.097 114.005 277.962 113.782 277.962 112.584C277.962 111.482 278.885 110.952 279.913 110.952C280.612 110.952 281.344 111.196 281.842 111.705L281.28 112.394ZM285.649 116.4V108.98H286.719V116.4H285.649ZM293.52 110.952C295.185 110.952 296.054 112.266 296.054 113.687C296.054 115.107 295.163 116.4 293.51 116.4C292.662 116.4 292.005 116.051 291.634 115.468V118.743H290.595V111.079H291.612V111.959C291.952 111.334 292.651 110.952 293.52 110.952ZM291.634 113.676C291.634 114.715 292.323 115.468 293.351 115.468C294.347 115.468 295.015 114.715 295.015 113.676C295.015 112.722 294.443 111.885 293.351 111.885C292.323 111.885 291.634 112.637 291.634 113.676ZM297.049 111.079H298.067V111.948C298.321 111.302 298.894 111.005 299.54 111.005C299.795 111.005 300.06 111.047 300.303 111.143L300.134 112.107C299.901 112.012 299.657 111.97 299.445 111.97C298.682 111.97 298.088 112.478 298.088 113.528V116.4H297.049V111.079ZM305.528 114.058H301.574C301.702 115.044 302.338 115.542 303.27 115.542C303.97 115.542 304.479 115.234 304.818 114.757L305.401 115.383C304.85 116.072 304.14 116.464 303.186 116.464C301.532 116.464 300.536 115.309 300.536 113.772C300.536 112.245 301.511 110.952 303.196 110.952C304.638 110.952 305.528 111.885 305.528 113.538V114.058ZM301.574 113.263H304.489C304.489 112.351 304.044 111.832 303.154 111.832C302.253 111.832 301.702 112.372 301.574 113.263ZM309.447 110.952C311.111 110.952 311.98 112.266 311.98 113.687C311.98 115.107 311.09 116.4 309.436 116.4C308.588 116.4 307.931 116.051 307.56 115.468V118.743H306.521V111.079H307.539V111.959C307.878 111.334 308.578 110.952 309.447 110.952ZM307.56 113.676C307.56 114.715 308.249 115.468 309.277 115.468C310.274 115.468 310.941 114.715 310.941 113.676C310.941 112.722 310.369 111.885 309.277 111.885C308.249 111.885 307.56 112.637 307.56 113.676ZM318.127 114.885C318.127 115.33 318.403 115.521 318.731 115.521C318.88 115.521 319.039 115.478 319.187 115.393L319.442 116.167C319.134 116.369 318.795 116.464 318.477 116.464C317.841 116.464 317.279 116.072 317.205 115.372C316.823 116.093 316.113 116.464 315.202 116.464C313.569 116.464 312.658 115.192 312.658 113.729C312.658 112.266 313.548 110.952 315.202 110.952C316.103 110.952 316.77 111.323 317.11 111.97V111.079H318.127V114.885ZM313.696 113.708C313.696 114.779 314.375 115.531 315.382 115.531C316.378 115.531 317.088 114.789 317.088 113.708C317.088 112.627 316.389 111.885 315.361 111.885C314.269 111.885 313.696 112.722 313.696 113.708ZM320.175 111.079H321.193V111.948C321.447 111.302 322.02 111.005 322.666 111.005C322.921 111.005 323.186 111.047 323.43 111.143L323.26 112.107C323.027 112.012 322.783 111.97 322.571 111.97C321.808 111.97 321.214 112.478 321.214 113.528V116.4H320.175V111.079ZM328.654 114.058H324.701C324.828 115.044 325.464 115.542 326.397 115.542C327.096 115.542 327.605 115.234 327.944 114.757L328.527 115.383C327.976 116.072 327.266 116.464 326.312 116.464C324.658 116.464 323.662 115.309 323.662 113.772C323.662 112.245 324.637 110.952 326.322 110.952C327.764 110.952 328.654 111.885 328.654 113.538V114.058ZM324.701 113.263H327.616C327.616 112.351 327.17 111.832 326.28 111.832C325.379 111.832 324.828 112.372 324.701 113.263ZM334.799 116.4H333.792V115.468C333.442 116.093 332.743 116.464 331.863 116.464C330.209 116.464 329.329 115.171 329.329 113.719C329.329 112.266 330.22 110.952 331.873 110.952C332.743 110.952 333.421 111.312 333.75 111.917V108.98H334.799V116.4ZM330.368 113.708C330.368 114.779 331.036 115.531 332.043 115.531C333.061 115.531 333.76 114.779 333.76 113.708C333.76 112.637 333.061 111.885 332.032 111.885C330.951 111.885 330.368 112.722 330.368 113.708ZM153.638 130.058H149.684C149.811 131.044 150.447 131.542 151.38 131.542C152.08 131.542 152.589 131.234 152.928 130.757L153.511 131.383C152.96 132.072 152.249 132.464 151.295 132.464C149.642 132.464 148.645 131.309 148.645 129.772C148.645 128.245 149.621 126.952 151.306 126.952C152.748 126.952 153.638 127.885 153.638 129.538V130.058ZM149.684 129.263H152.599C152.599 128.351 152.154 127.832 151.264 127.832C150.363 127.832 149.811 128.372 149.684 129.263ZM159.783 130.885C159.783 131.33 160.058 131.521 160.387 131.521C160.535 131.521 160.694 131.478 160.843 131.393L161.097 132.167C160.79 132.369 160.45 132.464 160.132 132.464C159.496 132.464 158.935 132.072 158.86 131.372C158.479 132.093 157.769 132.464 156.857 132.464C155.225 132.464 154.313 131.192 154.313 129.729C154.313 128.266 155.203 126.952 156.857 126.952C157.758 126.952 158.426 127.323 158.765 127.97V127.079H159.783V130.885ZM155.352 129.708C155.352 130.779 156.03 131.531 157.037 131.531C158.034 131.531 158.744 130.789 158.744 129.708C158.744 128.627 158.044 127.885 157.016 127.885C155.924 127.885 155.352 128.722 155.352 129.708ZM161.831 127.079H162.848V127.948C163.103 127.302 163.675 127.005 164.322 127.005C164.576 127.005 164.841 127.047 165.085 127.143L164.915 128.107C164.682 128.012 164.438 127.97 164.226 127.97C163.463 127.97 162.87 128.478 162.87 129.528V132.4H161.831V127.079ZM168.472 132.146C168.101 132.358 167.719 132.464 167.359 132.464C166.5 132.464 165.801 131.87 165.801 130.789V124.98H166.84V130.673C166.84 131.224 167.168 131.521 167.582 131.521C167.783 131.521 167.995 131.468 168.207 131.351L168.472 132.146ZM169.816 124.631C170.251 124.631 170.558 124.949 170.558 125.362C170.558 125.765 170.251 126.072 169.816 126.072C169.382 126.072 169.074 125.765 169.074 125.362C169.074 124.949 169.382 124.631 169.816 124.631ZM169.297 132.4V127.079H170.336V132.4H169.297ZM176.418 130.058H172.464C172.591 131.044 173.227 131.542 174.16 131.542C174.859 131.542 175.368 131.234 175.707 130.757L176.29 131.383C175.739 132.072 175.029 132.464 174.075 132.464C172.421 132.464 171.425 131.309 171.425 129.772C171.425 128.245 172.4 126.952 174.086 126.952C175.527 126.952 176.418 127.885 176.418 129.538V130.058ZM172.464 129.263H175.379C175.379 128.351 174.934 127.832 174.043 127.832C173.142 127.832 172.591 128.372 172.464 129.263ZM177.411 127.079H178.428V127.948C178.683 127.302 179.255 127.005 179.902 127.005C180.156 127.005 180.421 127.047 180.665 127.143L180.495 128.107C180.262 128.012 180.018 127.97 179.806 127.97C179.043 127.97 178.45 128.478 178.45 129.528V132.4H177.411V127.079ZM180.644 133.874L181.725 130.906L182.764 131.319L181.492 134.213L180.644 133.874ZM192.63 127.079H193.796L191.825 132.4H190.849L189.482 128.584L188.104 132.4H187.139L185.168 127.079H186.281L187.627 131.001L188.973 127.079H189.991L191.337 130.991L192.63 127.079ZM195.2 124.631C195.634 124.631 195.942 124.949 195.942 125.362C195.942 125.765 195.634 126.072 195.2 126.072C194.765 126.072 194.458 125.765 194.458 125.362C194.458 124.949 194.765 124.631 195.2 124.631ZM194.68 132.4V127.079H195.719V132.4H194.68ZM196.49 127.079H197.603V125.659H198.653V127.079H200.285V128.012H198.653V130.598C198.653 131.234 199.066 131.521 199.564 131.521C199.851 131.521 200.179 131.425 200.455 131.245L200.752 131.998C200.296 132.316 199.798 132.464 199.31 132.464C198.345 132.464 197.603 131.849 197.603 130.736V128.012H196.49V127.079ZM201.531 124.98H202.57V127.97C202.899 127.365 203.482 126.952 204.393 126.952C205.538 126.952 206.291 127.652 206.291 128.892V132.4H205.252V129.157C205.252 128.341 204.807 127.885 204.086 127.885C203.27 127.885 202.57 128.489 202.57 129.591V132.4H201.531V124.98ZM209.988 126.952C211.567 126.952 212.691 128.118 212.691 129.708C212.691 131.287 211.567 132.464 209.988 132.464C208.408 132.464 207.285 131.287 207.285 129.708C207.285 128.118 208.408 126.952 209.988 126.952ZM208.323 129.708C208.323 130.768 208.991 131.521 209.988 131.521C210.984 131.521 211.652 130.768 211.652 129.708C211.652 128.648 210.984 127.895 209.988 127.895C208.991 127.895 208.323 128.648 208.323 129.708ZM218.306 127.079V132.4H217.288V131.425C216.949 132.029 216.408 132.464 215.507 132.464C214.373 132.464 213.578 131.775 213.578 130.45V127.079H214.617V130.227C214.617 131.086 215.052 131.531 215.762 131.531C216.61 131.531 217.267 130.885 217.267 129.803V127.079H218.306ZM218.985 127.079H220.098V125.659H221.147V127.079H222.78V128.012H221.147V130.598C221.147 131.234 221.561 131.521 222.059 131.521C222.345 131.521 222.674 131.425 222.949 131.245L223.246 131.998C222.79 132.316 222.292 132.464 221.805 132.464C220.84 132.464 220.098 131.849 220.098 130.736V128.012H218.985V127.079ZM231.326 130.885C231.326 131.33 231.601 131.521 231.93 131.521C232.078 131.521 232.237 131.478 232.386 131.393L232.64 132.167C232.333 132.369 231.993 132.464 231.675 132.464C231.039 132.464 230.478 132.072 230.403 131.372C230.022 132.093 229.312 132.464 228.4 132.464C226.768 132.464 225.856 131.192 225.856 129.729C225.856 128.266 226.746 126.952 228.4 126.952C229.301 126.952 229.969 127.323 230.308 127.97V127.079H231.326V130.885ZM226.895 129.708C226.895 130.779 227.573 131.531 228.58 131.531C229.577 131.531 230.287 130.789 230.287 129.708C230.287 128.627 229.587 127.885 228.559 127.885C227.467 127.885 226.895 128.722 226.895 129.708ZM238.758 126.952C240.422 126.952 241.291 128.266 241.291 129.687C241.291 131.107 240.401 132.4 238.747 132.4C237.899 132.4 237.242 132.051 236.871 131.468V134.743H235.832V127.079H236.85V127.959C237.189 127.334 237.889 126.952 238.758 126.952ZM236.871 129.676C236.871 130.715 237.56 131.468 238.588 131.468C239.585 131.468 240.253 130.715 240.253 129.676C240.253 128.722 239.68 127.885 238.588 127.885C237.56 127.885 236.871 128.637 236.871 129.676ZM247.438 130.885C247.438 131.33 247.714 131.521 248.043 131.521C248.191 131.521 248.35 131.478 248.498 131.393L248.753 132.167C248.445 132.369 248.106 132.464 247.788 132.464C247.152 132.464 246.59 132.072 246.516 131.372C246.135 132.093 245.424 132.464 244.513 132.464C242.88 132.464 241.969 131.192 241.969 129.729C241.969 128.266 242.859 126.952 244.513 126.952C245.414 126.952 246.082 127.323 246.421 127.97V127.079H247.438V130.885ZM243.008 129.708C243.008 130.779 243.686 131.531 244.693 131.531C245.689 131.531 246.4 130.789 246.4 129.708C246.4 128.627 245.7 127.885 244.672 127.885C243.58 127.885 243.008 128.722 243.008 129.708ZM249.487 127.079H250.504V127.948C250.759 127.302 251.331 127.005 251.978 127.005C252.232 127.005 252.497 127.047 252.741 127.143L252.571 128.107C252.338 128.012 252.094 127.97 251.882 127.97C251.119 127.97 250.525 128.478 250.525 129.528V132.4H249.487V127.079ZM253.028 127.079H254.141V125.659H255.19V127.079H256.822V128.012H255.19V130.598C255.19 131.234 255.603 131.521 256.102 131.521C256.388 131.521 256.716 131.425 256.992 131.245L257.289 131.998C256.833 132.316 256.335 132.464 255.847 132.464C254.883 132.464 254.141 131.849 254.141 130.736V128.012H253.028V127.079ZM258.683 124.631C259.118 124.631 259.425 124.949 259.425 125.362C259.425 125.765 259.118 126.072 258.683 126.072C258.249 126.072 257.941 125.765 257.941 125.362C257.941 124.949 258.249 124.631 258.683 124.631ZM258.164 132.4V127.079H259.203V132.4H258.164ZM265.232 131.171C264.691 131.987 263.928 132.464 262.931 132.464C261.204 132.464 260.292 131.203 260.292 129.74C260.292 128.245 261.299 126.952 262.974 126.952C263.875 126.952 264.574 127.302 265.083 127.991L264.341 128.616C264.013 128.129 263.578 127.895 262.984 127.895C261.882 127.895 261.331 128.712 261.331 129.676C261.331 130.651 261.935 131.521 263.016 131.521C263.642 131.521 264.203 131.192 264.521 130.651L265.232 131.171ZM270.63 127.079V132.4H269.613V131.425C269.273 132.029 268.733 132.464 267.832 132.464C266.698 132.464 265.903 131.775 265.903 130.45V127.079H266.941V130.227C266.941 131.086 267.376 131.531 268.086 131.531C268.934 131.531 269.591 130.885 269.591 129.803V127.079H270.63ZM274.617 132.146C274.246 132.358 273.864 132.464 273.504 132.464C272.645 132.464 271.945 131.87 271.945 130.789V124.98H272.984V130.673C272.984 131.224 273.313 131.521 273.726 131.521C273.928 131.521 274.14 131.468 274.352 131.351L274.617 132.146ZM280.394 130.885C280.394 131.33 280.67 131.521 280.998 131.521C281.147 131.521 281.306 131.478 281.454 131.393L281.709 132.167C281.401 132.369 281.062 132.464 280.744 132.464C280.108 132.464 279.546 132.072 279.472 131.372C279.09 132.093 278.38 132.464 277.469 132.464C275.836 132.464 274.925 131.192 274.925 129.729C274.925 128.266 275.815 126.952 277.469 126.952C278.37 126.952 279.037 127.323 279.377 127.97V127.079H280.394V130.885ZM275.963 129.708C275.963 130.779 276.642 131.531 277.649 131.531C278.645 131.531 279.355 130.789 279.355 129.708C279.355 128.627 278.656 127.885 277.628 127.885C276.536 127.885 275.963 128.722 275.963 129.708ZM282.442 127.079H283.46V127.948C283.714 127.302 284.287 127.005 284.933 127.005C285.188 127.005 285.453 127.047 285.696 127.143L285.527 128.107C285.294 128.012 285.05 127.97 284.838 127.97C284.075 127.97 283.481 128.478 283.481 129.528V132.4H282.442V127.079ZM287.811 127.079H288.924V125.659H289.973V127.079H291.605V128.012H289.973V130.598C289.973 131.234 290.386 131.521 290.885 131.521C291.171 131.521 291.499 131.425 291.775 131.245L292.072 131.998C291.616 132.316 291.118 132.464 290.63 132.464C289.666 132.464 288.924 131.849 288.924 130.736V128.012H287.811V127.079ZM292.851 124.98H293.89V127.97C294.219 127.365 294.802 126.952 295.713 126.952C296.858 126.952 297.611 127.652 297.611 128.892V132.4H296.572V129.157C296.572 128.341 296.127 127.885 295.406 127.885C294.59 127.885 293.89 128.489 293.89 129.591V132.4H292.851V124.98ZM303.597 130.058H299.644C299.771 131.044 300.407 131.542 301.34 131.542C302.039 131.542 302.548 131.234 302.887 130.757L303.47 131.383C302.919 132.072 302.209 132.464 301.255 132.464C299.601 132.464 298.605 131.309 298.605 129.772C298.605 128.245 299.58 126.952 301.265 126.952C302.707 126.952 303.597 127.885 303.597 129.538V130.058ZM299.644 129.263H302.559C302.559 128.351 302.113 127.832 301.223 127.832C300.322 127.832 299.771 128.372 299.644 129.263ZM304.59 127.079H305.608V127.97C305.905 127.344 306.435 126.952 307.23 126.952C308.067 126.952 308.65 127.344 308.883 128.054C309.212 127.365 309.827 126.952 310.664 126.952C311.798 126.952 312.466 127.673 312.466 128.934V132.4H311.427V129.136C311.427 128.351 311.067 127.885 310.357 127.885C309.647 127.885 309.042 128.394 309.042 129.528V132.4H308.004V129.136C308.004 128.351 307.654 127.885 306.944 127.885C306.233 127.885 305.629 128.394 305.629 129.528V132.4H304.59V127.079ZM318.442 130.058H314.488C314.615 131.044 315.251 131.542 316.184 131.542C316.884 131.542 317.393 131.234 317.732 130.757L318.315 131.383C317.764 132.072 317.053 132.464 316.099 132.464C314.446 132.464 313.449 131.309 313.449 129.772C313.449 128.245 314.425 126.952 316.11 126.952C317.552 126.952 318.442 127.885 318.442 129.538V130.058ZM314.488 129.263H317.403C317.403 128.351 316.958 127.832 316.068 127.832C315.167 127.832 314.615 128.372 314.488 129.263ZM323.865 126.952C325.444 126.952 326.568 128.118 326.568 129.708C326.568 131.287 325.444 132.464 323.865 132.464C322.285 132.464 321.162 131.287 321.162 129.708C321.162 128.118 322.285 126.952 323.865 126.952ZM322.2 129.708C322.2 130.768 322.868 131.521 323.865 131.521C324.861 131.521 325.529 130.768 325.529 129.708C325.529 128.648 324.861 127.895 323.865 127.895C322.868 127.895 322.2 128.648 322.2 129.708ZM327.561 127.079H328.579V127.948C328.833 127.302 329.406 127.005 330.052 127.005C330.307 127.005 330.572 127.047 330.816 127.143L330.646 128.107C330.413 128.012 330.169 127.97 329.957 127.97C329.194 127.97 328.6 128.478 328.6 129.528V132.4H327.561V127.079ZM154.115 148.4H153.108V147.468C152.758 148.093 152.059 148.464 151.179 148.464C149.525 148.464 148.645 147.171 148.645 145.719C148.645 144.266 149.536 142.952 151.189 142.952C152.059 142.952 152.737 143.312 153.066 143.917V140.98H154.115V148.4ZM149.684 145.708C149.684 146.779 150.352 147.531 151.359 147.531C152.377 147.531 153.076 146.779 153.076 145.708C153.076 144.637 152.377 143.885 151.348 143.885C150.267 143.885 149.684 144.722 149.684 145.708ZM156.043 140.631C156.478 140.631 156.785 140.949 156.785 141.362C156.785 141.765 156.478 142.072 156.043 142.072C155.608 142.072 155.301 141.765 155.301 141.362C155.301 140.949 155.608 140.631 156.043 140.631ZM155.524 148.4V143.079H156.562V148.4H155.524ZM157.97 143.079H158.987V143.948C159.242 143.302 159.814 143.005 160.461 143.005C160.715 143.005 160.98 143.047 161.224 143.143L161.054 144.107C160.821 144.012 160.577 143.97 160.365 143.97C159.602 143.97 159.008 144.478 159.008 145.528V148.4H157.97V143.079ZM166.449 146.058H162.495C162.622 147.044 163.258 147.542 164.191 147.542C164.89 147.542 165.399 147.234 165.738 146.757L166.321 147.383C165.77 148.072 165.06 148.464 164.106 148.464C162.452 148.464 161.456 147.309 161.456 145.772C161.456 144.245 162.431 142.952 164.117 142.952C165.558 142.952 166.449 143.885 166.449 145.538V146.058ZM162.495 145.263H165.41C165.41 144.351 164.965 143.832 164.074 143.832C163.173 143.832 162.622 144.372 162.495 145.263ZM172.063 147.171C171.523 147.987 170.76 148.464 169.763 148.464C168.035 148.464 167.124 147.203 167.124 145.74C167.124 144.245 168.131 142.952 169.806 142.952C170.707 142.952 171.406 143.302 171.915 143.991L171.173 144.616C170.844 144.129 170.41 143.895 169.816 143.895C168.714 143.895 168.163 144.712 168.163 145.676C168.163 146.651 168.767 147.521 169.848 147.521C170.473 147.521 171.035 147.192 171.353 146.651L172.063 147.171ZM172.204 143.079H173.317V141.659H174.367V143.079H175.999V144.012H174.367V146.598C174.367 147.234 174.78 147.521 175.278 147.521C175.565 147.521 175.893 147.425 176.169 147.245L176.466 147.998C176.01 148.316 175.512 148.464 175.024 148.464C174.059 148.464 173.317 147.849 173.317 146.736V144.012H172.204V143.079ZM177.86 140.631C178.295 140.631 178.602 140.949 178.602 141.362C178.602 141.765 178.295 142.072 177.86 142.072C177.425 142.072 177.118 141.765 177.118 141.362C177.118 140.949 177.425 140.631 177.86 140.631ZM177.341 148.4V143.079H178.379V148.4H177.341ZM182.172 142.952C183.751 142.952 184.875 144.118 184.875 145.708C184.875 147.287 183.751 148.464 182.172 148.464C180.592 148.464 179.469 147.287 179.469 145.708C179.469 144.118 180.592 142.952 182.172 142.952ZM180.507 145.708C180.507 146.768 181.175 147.521 182.172 147.521C183.168 147.521 183.836 146.768 183.836 145.708C183.836 144.648 183.168 143.895 182.172 143.895C181.175 143.895 180.507 144.648 180.507 145.708ZM185.868 143.079H186.886V143.991C187.215 143.387 187.798 142.952 188.73 142.952C189.875 142.952 190.628 143.652 190.628 144.892V148.4H189.589V145.157C189.589 144.341 189.144 143.885 188.423 143.885C187.607 143.885 186.907 144.5 186.907 145.613V148.4H185.868V143.079ZM192.353 146.991C192.798 146.991 193.106 147.319 193.106 147.733C193.106 148.146 192.798 148.464 192.353 148.464C191.908 148.464 191.601 148.146 191.601 147.733C191.601 147.319 191.908 146.991 192.353 146.991Z" fill="#434343"/>
<rect x="358.875" y="51.2998" width="27.6" height="19.3" rx="2.65" fill="#144A38"/>
<path d="M367.477 58.3481V63.9502H366.54V58.3481H364.379V57.4577H369.638V58.3481H367.477ZM374.319 62.6239C374.319 63.0134 374.56 63.1804 374.847 63.1804C374.977 63.1804 375.116 63.1433 375.246 63.0691L375.469 63.7461C375.2 63.9224 374.903 64.0058 374.625 64.0058C374.068 64.0058 373.577 63.6627 373.512 63.0505C373.178 63.6812 372.556 64.0058 371.759 64.0058C370.33 64.0058 369.533 62.8928 369.533 61.6129C369.533 60.3329 370.312 59.1828 371.759 59.1828C372.547 59.1828 373.131 59.5075 373.428 60.0732V59.2941H374.319V62.6239ZM370.442 61.5943C370.442 62.5311 371.035 63.1896 371.916 63.1896C372.788 63.1896 373.41 62.5404 373.41 61.5943C373.41 60.6483 372.797 59.999 371.898 59.999C370.942 59.999 370.442 60.7318 370.442 61.5943ZM379.712 59.2941H380.602V63.7832C380.602 65.2209 379.591 66.1298 378.181 66.1298C377.022 66.1298 376.104 65.5177 375.77 64.5623L376.586 64.1821C376.818 64.887 377.448 65.3043 378.209 65.3043C379.109 65.3043 379.693 64.7664 379.693 63.8853V63.0227C379.378 63.5792 378.821 63.8574 378.033 63.8574C376.679 63.8574 375.77 62.9114 375.77 61.5294C375.77 60.2587 376.586 59.1828 378.033 59.1828C378.821 59.1828 379.424 59.4611 379.712 59.9898V59.2941ZM376.688 61.5109C376.688 62.3642 377.217 63.0505 378.181 63.0505C379.072 63.0505 379.693 62.4476 379.693 61.5109C379.693 60.5834 379.081 59.9898 378.172 59.9898C377.3 59.9898 376.688 60.5834 376.688 61.5109Z" fill="white"/>
<rect x="148.2" y="194.8" width="76.4" height="37.2" rx="18.6" fill="#82E578"/>
<path d="M173.183 209.98C174.54 209.98 175.272 210.881 175.272 211.793C175.272 212.46 174.89 213.171 174.053 213.404C175.081 213.669 175.537 214.379 175.537 215.185C175.537 216.329 174.604 217.4 173.024 217.4H170.215V209.98H173.183ZM171.742 215.99H172.94C173.597 215.99 174 215.64 174 215.057C174 214.506 173.607 214.146 172.961 214.146H171.742V215.99ZM171.742 212.98H172.802C173.395 212.98 173.735 212.619 173.735 212.142C173.735 211.676 173.395 211.39 172.834 211.39H171.742V212.98ZM181.336 211.952V217.4H179.884V216.605C179.555 217.093 179.11 217.464 178.294 217.464C177.255 217.464 176.365 216.87 176.365 215.439V211.952H177.87V215.132C177.87 215.821 178.209 216.128 178.739 216.128C179.396 216.128 179.842 215.651 179.842 214.867V211.952H181.336ZM181.854 211.952H182.936V210.616H184.441V211.952H185.999V213.298H184.441V215.28C184.441 215.852 184.801 216.117 185.268 216.117C185.511 216.117 185.798 216.043 186.063 215.874L186.434 216.987C185.925 217.305 185.395 217.464 184.865 217.464C183.741 217.464 182.936 216.764 182.936 215.545V213.298H181.854V211.952ZM186.414 211.952H187.496V210.616H189.001V211.952H190.559V213.298H189.001V215.28C189.001 215.852 189.361 216.117 189.828 216.117C190.071 216.117 190.358 216.043 190.623 215.874L190.994 216.987C190.485 217.305 189.955 217.464 189.425 217.464C188.301 217.464 187.496 216.764 187.496 215.545V213.298H186.414V211.952ZM193.998 211.824C195.62 211.824 196.818 213.033 196.818 214.644C196.818 216.255 195.62 217.464 193.998 217.464C192.366 217.464 191.168 216.255 191.168 214.644C191.168 213.033 192.366 211.824 193.998 211.824ZM192.673 214.644C192.673 215.513 193.193 216.117 193.998 216.117C194.804 216.117 195.323 215.513 195.323 214.644C195.323 213.775 194.804 213.171 193.998 213.171C193.193 213.171 192.673 213.775 192.673 214.644ZM197.651 211.952H199.114V212.683C199.442 212.195 199.909 211.824 200.757 211.824C201.87 211.824 202.696 212.482 202.696 213.828V217.4H201.191V214.146C201.191 213.478 200.82 213.16 200.258 213.16C199.654 213.16 199.156 213.584 199.156 214.432V217.4H197.651V211.952Z" fill="#144A38"/>
</g>
<rect x="126.669" y="45.6687" width="265.663" height="207.863" rx="5.63125" stroke="#E4E4E4" stroke-width="0.6625"/>
<defs>
<clipPath id="clip0_138_3549">
<rect x="127" y="46" width="265" height="207.2" rx="5.3" fill="white"/>
</clipPath>
</defs>
</svg>
