<svg width="520" height="300" viewBox="0 0 520 300" fill="none" xmlns="http://www.w3.org/2000/svg">
<rect width="520" height="300" fill="white"/>
<path d="M74.184 116V104.8H78.12C81.912 104.8 83.784 107.52 83.784 110.288C83.784 113.12 81.8 116 77.896 116H74.184ZM76.504 113.792H78.056C80.328 113.792 81.448 112.112 81.448 110.368C81.448 108.656 80.328 107.008 78.136 107.008H76.504V113.792ZM88.9804 107.584C91.4284 107.584 93.2364 109.408 93.2364 111.84C93.2364 114.272 91.4284 116.096 88.9804 116.096C86.5164 116.096 84.7084 114.272 84.7084 111.84C84.7084 109.408 86.5164 107.584 88.9804 107.584ZM86.9804 111.84C86.9804 113.152 87.7644 114.064 88.9804 114.064C90.1964 114.064 90.9804 113.152 90.9804 111.84C90.9804 110.528 90.1964 109.616 88.9804 109.616C87.7644 109.616 86.9804 110.528 86.9804 111.84ZM102.943 107.776H105.199V115.52C105.199 118.304 103.151 119.76 100.879 119.76C99.0226 119.76 97.4866 118.896 96.8146 117.136L98.7986 116.208C99.1346 117.248 99.9666 117.728 100.943 117.728C102.047 117.728 102.943 117.072 102.943 115.792V114.464C102.527 115.296 101.615 115.776 100.463 115.776C98.7346 115.776 97.3906 114.704 97.3906 112.544V107.776H99.6466V112.176C99.6466 113.2 100.255 113.76 101.183 113.76C102.159 113.76 102.943 113.088 102.943 111.856V107.776ZM110.724 107.584C113.172 107.584 114.98 109.408 114.98 111.84C114.98 114.272 113.172 116.096 110.724 116.096C108.26 116.096 106.452 114.272 106.452 111.84C106.452 109.408 108.26 107.584 110.724 107.584ZM108.724 111.84C108.724 113.152 109.508 114.064 110.724 114.064C111.94 114.064 112.724 113.152 112.724 111.84C112.724 110.528 111.94 109.616 110.724 109.616C109.508 109.616 108.724 110.528 108.724 111.84ZM123.581 107.776V116H121.389V114.8C120.893 115.536 120.221 116.096 118.989 116.096C117.421 116.096 116.077 115.2 116.077 113.04V107.776H118.349V112.576C118.349 113.616 118.861 114.08 119.661 114.08C120.653 114.08 121.325 113.36 121.325 112.176V107.776H123.581ZM136.772 113.232C136.772 113.824 137.156 114.064 137.556 114.064C137.764 114.064 137.956 114.016 138.148 113.904L138.628 115.552C138.116 115.92 137.524 116.096 136.964 116.096C135.988 116.096 135.108 115.568 134.884 114.56C134.356 115.536 133.316 116.096 131.972 116.096C129.604 116.096 128.116 114.24 128.116 111.856C128.116 109.488 129.54 107.584 131.988 107.584C133.252 107.584 134.164 108.096 134.58 108.896V107.776H136.772V113.232ZM130.388 111.84C130.388 113.168 131.204 114.096 132.42 114.096C133.668 114.096 134.516 113.184 134.516 111.84C134.516 110.512 133.668 109.584 132.42 109.584C131.14 109.584 130.388 110.56 130.388 111.84ZM145.547 107.776H147.739V115.52C147.739 118.144 145.739 119.76 143.163 119.76C141.163 119.76 139.531 118.72 138.875 117.152L140.827 116.144C141.227 117.136 142.187 117.728 143.243 117.728C144.555 117.728 145.483 116.992 145.483 115.744V114.672C145.019 115.424 144.123 115.824 142.907 115.824C140.555 115.824 138.955 114.128 138.955 111.712C138.955 109.36 140.475 107.584 142.923 107.584C144.203 107.584 145.195 108.064 145.547 108.832V107.776ZM141.227 111.696C141.227 112.976 142.091 113.824 143.355 113.824C144.619 113.824 145.483 113.024 145.483 111.696C145.483 110.368 144.619 109.584 143.355 109.584C142.139 109.584 141.227 110.368 141.227 111.696ZM149.3 107.776H151.508V109.024C151.876 108.08 152.708 107.68 153.684 107.68C154.02 107.68 154.388 107.728 154.756 107.824L154.436 109.936C154.1 109.824 153.764 109.776 153.476 109.776C152.356 109.776 151.572 110.48 151.572 111.824V116H149.3V107.776ZM162.889 112.624H157.289C157.529 113.648 158.249 114.144 159.353 114.144C160.313 114.144 161.001 113.744 161.481 113.2L162.633 114.592C161.737 115.552 160.617 116.096 159.177 116.096C156.665 116.096 154.985 114.464 154.985 111.952C154.985 109.456 156.633 107.584 159.209 107.584C161.449 107.584 162.889 108.976 162.889 111.744V112.624ZM157.257 110.992H160.649C160.633 110.08 160.169 109.456 159.081 109.456C158.073 109.456 157.449 110.016 157.257 110.992ZM171.584 112.624H165.984C166.224 113.648 166.944 114.144 168.048 114.144C169.008 114.144 169.696 113.744 170.176 113.2L171.328 114.592C170.432 115.552 169.312 116.096 167.872 116.096C165.36 116.096 163.68 114.464 163.68 111.952C163.68 109.456 165.328 107.584 167.904 107.584C170.144 107.584 171.584 108.976 171.584 111.744V112.624ZM165.952 110.992H169.344C169.328 110.08 168.864 109.456 167.776 109.456C166.768 109.456 166.144 110.016 165.952 110.992ZM175.013 107.776H176.645V105.76H178.917V107.776H181.269V109.808H178.917V112.8C178.917 113.664 179.461 114.064 180.165 114.064C180.533 114.064 180.965 113.952 181.365 113.696L181.925 115.376C181.157 115.856 180.357 116.096 179.557 116.096C177.861 116.096 176.645 115.04 176.645 113.2V109.808H175.013V107.776ZM186.461 107.584C188.909 107.584 190.717 109.408 190.717 111.84C190.717 114.272 188.909 116.096 186.461 116.096C183.997 116.096 182.189 114.272 182.189 111.84C182.189 109.408 183.997 107.584 186.461 107.584ZM184.461 111.84C184.461 113.152 185.245 114.064 186.461 114.064C187.677 114.064 188.461 113.152 188.461 111.84C188.461 110.528 187.677 109.616 186.461 109.616C185.245 109.616 184.461 110.528 184.461 111.84ZM194.131 107.776H195.763V105.76H198.035V107.776H200.387V109.808H198.035V112.8C198.035 113.664 198.579 114.064 199.283 114.064C199.651 114.064 200.083 113.952 200.483 113.696L201.043 115.376C200.275 115.856 199.475 116.096 198.675 116.096C196.979 116.096 195.763 115.04 195.763 113.2V109.808H194.131V107.776ZM201.975 104.8H204.247V108.816C204.727 108.112 205.431 107.584 206.663 107.584C208.343 107.584 209.591 108.576 209.591 110.608V116H207.319V111.088C207.319 110.08 206.759 109.6 205.911 109.6C204.999 109.6 204.247 110.224 204.247 111.504V116H201.975V104.8ZM218.735 112.624H213.135C213.375 113.648 214.095 114.144 215.199 114.144C216.159 114.144 216.847 113.744 217.327 113.2L218.479 114.592C217.583 115.552 216.463 116.096 215.023 116.096C212.511 116.096 210.831 114.464 210.831 111.952C210.831 109.456 212.479 107.584 215.055 107.584C217.295 107.584 218.735 108.976 218.735 111.744V112.624ZM213.103 110.992H216.495C216.479 110.08 216.015 109.456 214.927 109.456C213.919 109.456 213.295 110.016 213.103 110.992ZM222.164 107.776H223.796V105.76H226.068V107.776H228.42V109.808H226.068V112.8C226.068 113.664 226.612 114.064 227.316 114.064C227.684 114.064 228.116 113.952 228.516 113.696L229.076 115.376C228.308 115.856 227.508 116.096 226.708 116.096C225.012 116.096 223.796 115.04 223.796 113.2V109.808H222.164V107.776ZM237.244 112.624H231.644C231.884 113.648 232.604 114.144 233.708 114.144C234.668 114.144 235.356 113.744 235.836 113.2L236.988 114.592C236.092 115.552 234.972 116.096 233.532 116.096C231.02 116.096 229.34 114.464 229.34 111.952C229.34 109.456 230.988 107.584 233.564 107.584C235.804 107.584 237.244 108.976 237.244 111.744V112.624ZM231.612 110.992H235.004C234.988 110.08 234.524 109.456 233.436 109.456C232.428 109.456 231.804 110.016 231.612 110.992ZM238.515 107.776H240.723V109.024C241.091 108.08 241.923 107.68 242.899 107.68C243.235 107.68 243.603 107.728 243.971 107.824L243.651 109.936C243.315 109.824 242.979 109.776 242.691 109.776C241.571 109.776 240.787 110.48 240.787 111.824V116H238.515V107.776ZM244.867 107.776H247.075V108.88C247.539 108.048 248.259 107.584 249.331 107.584C250.467 107.584 251.299 108.08 251.715 109.088C252.195 108.128 253.059 107.584 254.243 107.584C255.955 107.584 256.931 108.672 256.931 110.72V116H254.675V111.088C254.675 110.208 254.371 109.6 253.459 109.6C252.611 109.6 252.035 110.144 252.035 111.44V116H249.763V111.088C249.763 110.208 249.475 109.6 248.563 109.6C247.715 109.6 247.139 110.144 247.139 111.44V116H244.867V107.776ZM263.713 110.224C263.153 109.712 262.369 109.488 261.793 109.488C261.201 109.488 260.817 109.728 260.817 110.144C260.817 110.592 261.233 110.704 262.305 110.912C263.601 111.152 265.297 111.472 265.297 113.312C265.297 115.024 263.825 116.096 261.841 116.096C260.433 116.096 259.057 115.536 258.097 114.576L259.297 112.992C260.017 113.792 261.201 114.144 262.049 114.144C262.657 114.144 263.057 113.952 263.057 113.552C263.057 113.152 262.673 112.992 261.729 112.8C260.433 112.56 258.593 112.224 258.593 110.256C258.593 108.464 260.081 107.584 261.745 107.584C262.913 107.584 264.081 107.984 264.865 108.768L263.713 110.224ZM277.911 113.232C277.911 113.824 278.295 114.064 278.695 114.064C278.903 114.064 279.095 114.016 279.287 113.904L279.767 115.552C279.255 115.92 278.663 116.096 278.103 116.096C277.127 116.096 276.247 115.568 276.023 114.56C275.495 115.536 274.455 116.096 273.111 116.096C270.743 116.096 269.255 114.24 269.255 111.856C269.255 109.488 270.679 107.584 273.127 107.584C274.391 107.584 275.303 108.096 275.719 108.896V107.776H277.911V113.232ZM271.527 111.84C271.527 113.168 272.343 114.096 273.559 114.096C274.807 114.096 275.655 113.184 275.655 111.84C275.655 110.512 274.807 109.584 273.559 109.584C272.279 109.584 271.527 110.56 271.527 111.84ZM280.618 107.776H282.826V108.88C283.322 108.144 284.026 107.584 285.306 107.584C286.986 107.584 288.234 108.576 288.234 110.608V116H285.962V111.088C285.962 110.08 285.402 109.6 284.554 109.6C283.642 109.6 282.89 110.24 282.89 111.52V116H280.618V107.776ZM298.131 116H295.987V114.864C295.523 115.616 294.515 116.096 293.331 116.096C290.899 116.096 289.475 114.192 289.475 111.856C289.475 109.504 290.899 107.584 293.347 107.584C294.531 107.584 295.459 108.064 295.859 108.768V104.8H298.131V116ZM291.747 111.84C291.747 113.168 292.563 114.096 293.779 114.096C295.027 114.096 295.875 113.168 295.875 111.84C295.875 110.512 295.027 109.584 293.779 109.584C292.515 109.584 291.747 110.56 291.747 111.84ZM310.487 113.968C309.655 115.312 308.359 116.096 306.807 116.096C304.167 116.096 302.647 114.272 302.647 111.888C302.647 109.456 304.375 107.584 306.871 107.584C308.295 107.584 309.479 108.176 310.263 109.296L308.647 110.608C308.199 109.936 307.623 109.616 306.887 109.616C305.639 109.616 304.903 110.528 304.903 111.808C304.903 113.104 305.735 114.064 306.999 114.064C307.767 114.064 308.535 113.632 308.967 112.864L310.487 113.968ZM315.209 107.584C317.657 107.584 319.465 109.408 319.465 111.84C319.465 114.272 317.657 116.096 315.209 116.096C312.745 116.096 310.937 114.272 310.937 111.84C310.937 109.408 312.745 107.584 315.209 107.584ZM313.209 111.84C313.209 113.152 313.993 114.064 315.209 114.064C316.425 114.064 317.209 113.152 317.209 111.84C317.209 110.528 316.425 109.616 315.209 109.616C313.993 109.616 313.209 110.528 313.209 111.84ZM320.721 107.776H322.929V108.88C323.425 108.144 324.129 107.584 325.409 107.584C327.089 107.584 328.337 108.576 328.337 110.608V116H326.065V111.088C326.065 110.08 325.505 109.6 324.657 109.6C323.745 109.6 322.993 110.24 322.993 111.52V116H320.721V107.776ZM338.234 116H336.09V114.864C335.626 115.616 334.618 116.096 333.434 116.096C331.002 116.096 329.578 114.192 329.578 111.856C329.578 109.504 331.002 107.584 333.45 107.584C334.634 107.584 335.562 108.064 335.962 108.768V104.8H338.234V116ZM331.85 111.84C331.85 113.168 332.666 114.096 333.882 114.096C335.13 114.096 335.978 113.168 335.978 111.84C335.978 110.512 335.13 109.584 333.882 109.584C332.618 109.584 331.85 110.56 331.85 111.84ZM341.22 104.016C342.084 104.016 342.692 104.64 342.692 105.44C342.692 106.224 342.084 106.848 341.22 106.848C340.356 106.848 339.732 106.224 339.732 105.44C339.732 104.64 340.356 104.016 341.22 104.016ZM340.084 116V107.776H342.356V116H340.084ZM343.239 107.776H344.871V105.76H347.143V107.776H349.495V109.808H347.143V112.8C347.143 113.664 347.687 114.064 348.391 114.064C348.759 114.064 349.191 113.952 349.591 113.696L350.151 115.376C349.383 115.856 348.583 116.096 347.783 116.096C346.087 116.096 344.871 115.04 344.871 113.2V109.808H343.239V107.776ZM352.346 104.016C353.21 104.016 353.818 104.64 353.818 105.44C353.818 106.224 353.21 106.848 352.346 106.848C351.482 106.848 350.858 106.224 350.858 105.44C350.858 104.64 351.482 104.016 352.346 104.016ZM351.21 116V107.776H353.482V116H351.21ZM359.117 107.584C361.565 107.584 363.373 109.408 363.373 111.84C363.373 114.272 361.565 116.096 359.117 116.096C356.653 116.096 354.845 114.272 354.845 111.84C354.845 109.408 356.653 107.584 359.117 107.584ZM357.117 111.84C357.117 113.152 357.901 114.064 359.117 114.064C360.333 114.064 361.117 113.152 361.117 111.84C361.117 110.528 360.333 109.616 359.117 109.616C357.901 109.616 357.117 110.528 357.117 111.84ZM364.63 107.776H366.838V108.88C367.334 108.144 368.038 107.584 369.318 107.584C370.998 107.584 372.246 108.576 372.246 110.608V116H369.974V111.088C369.974 110.08 369.414 109.6 368.566 109.6C367.654 109.6 366.902 110.24 366.902 111.52V116H364.63V107.776ZM379.022 110.224C378.462 109.712 377.678 109.488 377.102 109.488C376.51 109.488 376.126 109.728 376.126 110.144C376.126 110.592 376.542 110.704 377.614 110.912C378.91 111.152 380.606 111.472 380.606 113.312C380.606 115.024 379.134 116.096 377.15 116.096C375.742 116.096 374.366 115.536 373.406 114.576L374.606 112.992C375.326 113.792 376.51 114.144 377.358 114.144C377.966 114.144 378.366 113.952 378.366 113.552C378.366 113.152 377.982 112.992 377.038 112.8C375.742 112.56 373.902 112.224 373.902 110.256C373.902 108.464 375.39 107.584 377.054 107.584C378.222 107.584 379.39 107.984 380.174 108.768L379.022 110.224ZM385.835 110.976V112.416H383.531V109.552C385.675 109.552 386.587 109.12 386.587 107.968C386.587 107.072 385.931 106.672 385.147 106.672C384.315 106.672 383.371 107.104 382.875 107.872L381.451 106.592C382.395 105.216 383.883 104.544 385.355 104.544C387.259 104.544 388.923 105.728 388.923 107.76C388.923 109.488 387.691 110.784 385.835 110.976ZM383.195 114.688C383.195 113.888 383.819 113.28 384.683 113.28C385.547 113.28 386.171 113.888 386.171 114.688C386.171 115.488 385.547 116.096 384.683 116.096C383.819 116.096 383.195 115.488 383.195 114.688Z" fill="#144A38"/>
<rect x="72" y="137" width="377" height="66" fill="white"/>
<rect x="72" y="137" width="377" height="66" stroke="#144A38" stroke-width="2"/>
<rect x="90" y="155" width="30" height="30" rx="1" stroke="#144A38" stroke-width="2"/>
<g clip-path="url(#clip0_138_747)">
<path d="M94.2821 169.836C94.0057 169.527 93.5315 169.501 93.2231 169.778C92.9146 170.054 92.8887 170.528 93.1651 170.837L100.841 179.4C101.145 179.74 101.68 179.731 101.974 179.382L116.609 161.94C116.876 161.623 116.834 161.149 116.517 160.883C116.2 160.617 115.726 160.658 115.46 160.976L101.381 177.755L94.2821 169.836Z" fill="#144A38"/>
</g>
<path d="M147.144 164.8L142.984 171.216V176H141.352V171.216L137.192 164.8H139.16L142.168 169.76L145.176 164.8H147.144ZM153.794 172.464H147.826C148.018 173.952 148.978 174.704 150.386 174.704C151.442 174.704 152.21 174.24 152.722 173.52L153.602 174.464C152.77 175.504 151.698 176.096 150.258 176.096C147.762 176.096 146.258 174.352 146.258 172.032C146.258 169.728 147.73 167.776 150.274 167.776C152.45 167.776 153.794 169.184 153.794 171.68V172.464ZM147.826 171.264H152.226C152.226 169.888 151.554 169.104 150.21 169.104C148.85 169.104 148.018 169.92 147.826 171.264ZM160.141 169.952C159.597 169.392 158.749 169.136 158.061 169.136C157.245 169.136 156.685 169.504 156.685 170.144C156.685 170.88 157.453 171.056 158.573 171.296C159.885 171.568 161.453 171.856 161.453 173.552C161.453 175.168 160.029 176.096 158.269 176.096C156.957 176.096 155.613 175.552 154.733 174.528L155.677 173.44C156.333 174.32 157.485 174.704 158.413 174.704C159.229 174.704 159.885 174.4 159.885 173.744C159.885 173.056 159.213 172.864 158.189 172.656C156.845 172.384 155.133 172.048 155.133 170.24C155.133 168.576 156.525 167.776 158.077 167.776C159.133 167.776 160.237 168.144 160.989 168.912L160.141 169.952ZM162.064 178.224L163.696 173.744L165.264 174.368L163.344 178.736L162.064 178.224ZM170.165 176V164.8H171.781V176H170.165ZM185.094 173.712C185.094 174.384 185.51 174.672 186.006 174.672C186.23 174.672 186.47 174.608 186.694 174.48L187.078 175.648C186.614 175.952 186.102 176.096 185.622 176.096C184.662 176.096 183.814 175.504 183.702 174.448C183.126 175.536 182.054 176.096 180.678 176.096C178.214 176.096 176.838 174.176 176.838 171.968C176.838 169.76 178.182 167.776 180.678 167.776C182.038 167.776 183.046 168.336 183.558 169.312V167.968H185.094V173.712ZM178.406 171.936C178.406 173.552 179.43 174.688 180.95 174.688C182.454 174.688 183.526 173.568 183.526 171.936C183.526 170.304 182.47 169.184 180.918 169.184C179.27 169.184 178.406 170.448 178.406 171.936ZM194.397 167.968H195.933V175.712C195.933 178.192 194.189 179.76 191.757 179.76C189.757 179.76 188.173 178.704 187.597 177.056L189.005 176.4C189.405 177.616 190.493 178.336 191.805 178.336C193.357 178.336 194.365 177.408 194.365 175.888V174.4C193.821 175.36 192.861 175.84 191.501 175.84C189.165 175.84 187.597 174.208 187.597 171.824C187.597 169.632 189.005 167.776 191.501 167.776C192.861 167.776 193.901 168.256 194.397 169.168V167.968ZM189.181 171.792C189.181 173.264 190.093 174.448 191.757 174.448C193.293 174.448 194.365 173.408 194.365 171.792C194.365 170.192 193.309 169.168 191.741 169.168C190.237 169.168 189.181 170.192 189.181 171.792ZM197.741 167.968H199.277V169.28C199.661 168.304 200.525 167.856 201.501 167.856C201.885 167.856 202.285 167.92 202.653 168.064L202.397 169.52C202.045 169.376 201.677 169.312 201.357 169.312C200.205 169.312 199.309 170.08 199.309 171.664V176H197.741V167.968ZM210.539 172.464H204.571C204.763 173.952 205.723 174.704 207.131 174.704C208.187 174.704 208.955 174.24 209.467 173.52L210.347 174.464C209.515 175.504 208.443 176.096 207.003 176.096C204.507 176.096 203.003 174.352 203.003 172.032C203.003 169.728 204.475 167.776 207.019 167.776C209.195 167.776 210.539 169.184 210.539 171.68V172.464ZM204.571 171.264H208.971C208.971 169.888 208.299 169.104 206.955 169.104C205.595 169.104 204.763 169.92 204.571 171.264ZM219.094 172.464H213.126C213.318 173.952 214.278 174.704 215.686 174.704C216.742 174.704 217.51 174.24 218.022 173.52L218.902 174.464C218.07 175.504 216.998 176.096 215.558 176.096C213.062 176.096 211.558 174.352 211.558 172.032C211.558 169.728 213.03 167.776 215.574 167.776C217.75 167.776 219.094 169.184 219.094 171.68V172.464ZM213.126 171.264H217.526C217.526 169.888 216.854 169.104 215.51 169.104C214.15 169.104 213.318 169.92 213.126 171.264ZM222.876 167.968H224.556V165.824H226.14V167.968H228.604V169.376H226.14V173.28C226.14 174.24 226.764 174.672 227.516 174.672C227.948 174.672 228.444 174.528 228.86 174.256L229.308 175.392C228.62 175.872 227.868 176.096 227.132 176.096C225.676 176.096 224.556 175.168 224.556 173.488V169.376H222.876V167.968ZM233.834 167.776C236.218 167.776 237.914 169.536 237.914 171.936C237.914 174.32 236.218 176.096 233.834 176.096C231.45 176.096 229.754 174.32 229.754 171.936C229.754 169.536 231.45 167.776 233.834 167.776ZM231.322 171.936C231.322 173.536 232.33 174.672 233.834 174.672C235.338 174.672 236.346 173.536 236.346 171.936C236.346 170.336 235.338 169.2 233.834 169.2C232.33 169.2 231.322 170.336 231.322 171.936ZM241.697 167.968H243.377V165.824H244.961V167.968H247.425V169.376H244.961V173.28C244.961 174.24 245.585 174.672 246.337 174.672C246.769 174.672 247.265 174.528 247.681 174.256L248.129 175.392C247.441 175.872 246.689 176.096 245.953 176.096C244.497 176.096 243.377 175.168 243.377 173.488V169.376H241.697V167.968ZM249.306 164.8H250.874V169.312C251.37 168.4 252.25 167.776 253.626 167.776C255.354 167.776 256.49 168.832 256.49 170.704V176H254.922V171.104C254.922 169.872 254.25 169.184 253.162 169.184C251.93 169.184 250.874 170.096 250.874 171.76V176H249.306V164.8ZM265.526 172.464H259.558C259.75 173.952 260.71 174.704 262.118 174.704C263.174 174.704 263.942 174.24 264.454 173.52L265.334 174.464C264.502 175.504 263.43 176.096 261.99 176.096C259.494 176.096 257.99 174.352 257.99 172.032C257.99 169.728 259.462 167.776 262.006 167.776C264.182 167.776 265.526 169.184 265.526 171.68V172.464ZM259.558 171.264H263.958C263.958 169.888 263.286 169.104 261.942 169.104C260.582 169.104 259.75 169.92 259.558 171.264ZM269.308 167.968H270.988V165.824H272.572V167.968H275.036V169.376H272.572V173.28C272.572 174.24 273.196 174.672 273.948 174.672C274.38 174.672 274.876 174.528 275.292 174.256L275.74 175.392C275.052 175.872 274.3 176.096 273.564 176.096C272.108 176.096 270.988 175.168 270.988 173.488V169.376H269.308V167.968ZM283.722 172.464H277.754C277.946 173.952 278.906 174.704 280.314 174.704C281.37 174.704 282.138 174.24 282.65 173.52L283.53 174.464C282.698 175.504 281.626 176.096 280.186 176.096C277.69 176.096 276.186 174.352 276.186 172.032C276.186 169.728 277.658 167.776 280.202 167.776C282.378 167.776 283.722 169.184 283.722 171.68V172.464ZM277.754 171.264H282.154C282.154 169.888 281.482 169.104 280.138 169.104C278.778 169.104 277.946 169.92 277.754 171.264ZM285.221 167.968H286.757V169.28C287.141 168.304 288.005 167.856 288.981 167.856C289.365 167.856 289.765 167.92 290.133 168.064L289.877 169.52C289.525 169.376 289.157 169.312 288.837 169.312C287.685 169.312 286.789 170.08 286.789 171.664V176H285.221V167.968ZM291.214 167.968H292.75V169.312C293.198 168.368 293.998 167.776 295.198 167.776C296.462 167.776 297.342 168.368 297.694 169.44C298.19 168.4 299.118 167.776 300.382 167.776C302.094 167.776 303.102 168.864 303.102 170.768V176H301.534V171.072C301.534 169.888 300.99 169.184 299.918 169.184C298.846 169.184 297.934 169.952 297.934 171.664V176H296.366V171.072C296.366 169.888 295.838 169.184 294.766 169.184C293.694 169.184 292.782 169.952 292.782 171.664V176H291.214V167.968ZM309.914 169.952C309.37 169.392 308.522 169.136 307.834 169.136C307.018 169.136 306.458 169.504 306.458 170.144C306.458 170.88 307.226 171.056 308.346 171.296C309.658 171.568 311.226 171.856 311.226 173.552C311.226 175.168 309.802 176.096 308.042 176.096C306.73 176.096 305.386 175.552 304.506 174.528L305.45 173.44C306.106 174.32 307.258 174.704 308.186 174.704C309.002 174.704 309.658 174.4 309.658 173.744C309.658 173.056 308.986 172.864 307.962 172.656C306.618 172.384 304.906 172.048 304.906 170.24C304.906 168.576 306.298 167.776 307.85 167.776C308.906 167.776 310.01 168.144 310.762 168.912L309.914 169.952ZM323.811 173.712C323.811 174.384 324.227 174.672 324.723 174.672C324.947 174.672 325.187 174.608 325.411 174.48L325.795 175.648C325.331 175.952 324.819 176.096 324.339 176.096C323.379 176.096 322.531 175.504 322.419 174.448C321.843 175.536 320.771 176.096 319.395 176.096C316.931 176.096 315.555 174.176 315.555 171.968C315.555 169.76 316.899 167.776 319.395 167.776C320.755 167.776 321.763 168.336 322.275 169.312V167.968H323.811V173.712ZM317.123 171.936C317.123 173.552 318.147 174.688 319.667 174.688C321.171 174.688 322.243 173.568 322.243 171.936C322.243 170.304 321.187 169.184 319.635 169.184C317.987 169.184 317.123 170.448 317.123 171.936ZM326.903 167.968H328.439V169.344C328.935 168.432 329.815 167.776 331.223 167.776C332.951 167.776 334.087 168.832 334.087 170.704V176H332.519V171.104C332.519 169.872 331.847 169.184 330.759 169.184C329.527 169.184 328.471 170.112 328.471 171.792V176H326.903V167.968ZM343.843 176H342.323V174.592C341.795 175.536 340.739 176.096 339.411 176.096C336.915 176.096 335.587 174.144 335.587 171.952C335.587 169.76 336.931 167.776 339.427 167.776C340.739 167.776 341.763 168.32 342.259 169.232V164.8H343.843V176ZM337.155 171.936C337.155 173.552 338.163 174.688 339.683 174.688C341.219 174.688 342.275 173.552 342.275 171.936C342.275 170.32 341.219 169.184 339.667 169.184C338.035 169.184 337.155 170.448 337.155 171.936ZM356.2 174.144C355.384 175.376 354.232 176.096 352.728 176.096C350.12 176.096 348.744 174.192 348.744 171.984C348.744 169.728 350.264 167.776 352.792 167.776C354.152 167.776 355.208 168.304 355.976 169.344L354.856 170.288C354.36 169.552 353.704 169.2 352.808 169.2C351.144 169.2 350.312 170.432 350.312 171.888C350.312 173.36 351.224 174.672 352.856 174.672C353.8 174.672 354.648 174.176 355.128 173.36L356.2 174.144ZM360.973 167.776C363.357 167.776 365.053 169.536 365.053 171.936C365.053 174.32 363.357 176.096 360.973 176.096C358.589 176.096 356.893 174.32 356.893 171.936C356.893 169.536 358.589 167.776 360.973 167.776ZM358.461 171.936C358.461 173.536 359.469 174.672 360.973 174.672C362.477 174.672 363.485 173.536 363.485 171.936C363.485 170.336 362.477 169.2 360.973 169.2C359.469 169.2 358.461 170.336 358.461 171.936ZM366.553 167.968H368.089V169.344C368.585 168.432 369.465 167.776 370.873 167.776C372.601 167.776 373.737 168.832 373.737 170.704V176H372.169V171.104C372.169 169.872 371.497 169.184 370.409 169.184C369.177 169.184 368.121 170.112 368.121 171.792V176H366.553V167.968ZM383.493 176H381.973V174.592C381.445 175.536 380.389 176.096 379.061 176.096C376.565 176.096 375.237 174.144 375.237 171.952C375.237 169.76 376.581 167.776 379.077 167.776C380.389 167.776 381.413 168.32 381.909 169.232V164.8H383.493V176ZM376.805 171.936C376.805 173.552 377.813 174.688 379.333 174.688C380.869 174.688 381.925 173.552 381.925 171.936C381.925 170.32 380.869 169.184 379.317 169.184C377.685 169.184 376.805 170.448 376.805 171.936ZM386.403 164.272C387.059 164.272 387.523 164.752 387.523 165.376C387.523 165.984 387.059 166.448 386.403 166.448C385.747 166.448 385.283 165.984 385.283 165.376C385.283 164.752 385.747 164.272 386.403 164.272ZM385.619 176V167.968H387.187V176H385.619ZM388.351 167.968H390.031V165.824H391.615V167.968H394.079V169.376H391.615V173.28C391.615 174.24 392.239 174.672 392.991 174.672C393.423 174.672 393.919 174.528 394.335 174.256L394.783 175.392C394.095 175.872 393.343 176.096 392.607 176.096C391.151 176.096 390.031 175.168 390.031 173.488V169.376H388.351V167.968ZM396.888 164.272C397.544 164.272 398.008 164.752 398.008 165.376C398.008 165.984 397.544 166.448 396.888 166.448C396.232 166.448 395.768 165.984 395.768 165.376C395.768 164.752 396.232 164.272 396.888 164.272ZM396.104 176V167.968H397.672V176H396.104ZM403.396 167.776C405.78 167.776 407.476 169.536 407.476 171.936C407.476 174.32 405.78 176.096 403.396 176.096C401.012 176.096 399.316 174.32 399.316 171.936C399.316 169.536 401.012 167.776 403.396 167.776ZM400.884 171.936C400.884 173.536 401.892 174.672 403.396 174.672C404.9 174.672 405.908 173.536 405.908 171.936C405.908 170.336 404.9 169.2 403.396 169.2C401.892 169.2 400.884 170.336 400.884 171.936ZM408.976 167.968H410.512V169.344C411.008 168.432 411.888 167.776 413.296 167.776C415.024 167.776 416.16 168.832 416.16 170.704V176H414.592V171.104C414.592 169.872 413.92 169.184 412.832 169.184C411.6 169.184 410.544 170.112 410.544 171.792V176H408.976V167.968ZM422.989 169.952C422.445 169.392 421.597 169.136 420.909 169.136C420.093 169.136 419.533 169.504 419.533 170.144C419.533 170.88 420.301 171.056 421.421 171.296C422.733 171.568 424.301 171.856 424.301 173.552C424.301 175.168 422.877 176.096 421.117 176.096C419.805 176.096 418.461 175.552 417.581 174.528L418.525 173.44C419.181 174.32 420.333 174.704 421.261 174.704C422.077 174.704 422.733 174.4 422.733 173.744C422.733 173.056 422.061 172.864 421.037 172.656C419.693 172.384 417.981 172.048 417.981 170.24C417.981 168.576 419.373 167.776 420.925 167.776C421.981 167.776 423.085 168.144 423.837 168.912L422.989 169.952Z" fill="#434343"/>
<defs>
<clipPath id="clip0_138_747">
<rect width="24" height="24" fill="white" transform="translate(93 158)"/>
</clipPath>
</defs>
</svg>
