<svg width="520" height="300" viewBox="0 0 520 300" fill="none" xmlns="http://www.w3.org/2000/svg">
<rect width="520" height="300" fill="white"/>
<path d="M61.776 104.8H64.256L60.672 116H58.448L56.224 108.944L54 116H51.76L48.192 104.8H50.672L52.896 112.336L55.104 104.8H57.328L59.552 112.336L61.776 104.8ZM65.1571 104.8H67.4291V108.816C67.9091 108.112 68.6131 107.584 69.8451 107.584C71.5251 107.584 72.7731 108.576 72.7731 110.608V116H70.5011V111.088C70.5011 110.08 69.9411 109.6 69.0931 109.6C68.1811 109.6 67.4291 110.224 67.4291 111.504V116H65.1571V104.8ZM78.2854 107.584C80.7334 107.584 82.5414 109.408 82.5414 111.84C82.5414 114.272 80.7334 116.096 78.2854 116.096C75.8214 116.096 74.0134 114.272 74.0134 111.84C74.0134 109.408 75.8214 107.584 78.2854 107.584ZM76.2854 111.84C76.2854 113.152 77.0694 114.064 78.2854 114.064C79.5014 114.064 80.2854 113.152 80.2854 111.84C80.2854 110.528 79.5014 109.616 78.2854 109.616C77.0694 109.616 76.2854 110.528 76.2854 111.84ZM88.3361 104.016C89.2001 104.016 89.8081 104.64 89.8081 105.44C89.8081 106.224 89.2001 106.848 88.3361 106.848C87.4721 106.848 86.8481 106.224 86.8481 105.44C86.8481 104.64 87.4721 104.016 88.3361 104.016ZM87.2001 116V107.776H89.4721V116H87.2001ZM96.3706 110.224C95.8106 109.712 95.0266 109.488 94.4506 109.488C93.8586 109.488 93.4746 109.728 93.4746 110.144C93.4746 110.592 93.8906 110.704 94.9626 110.912C96.2586 111.152 97.9546 111.472 97.9546 113.312C97.9546 115.024 96.4826 116.096 94.4986 116.096C93.0906 116.096 91.7146 115.536 90.7546 114.576L91.9546 112.992C92.6746 113.792 93.8586 114.144 94.7066 114.144C95.3146 114.144 95.7146 113.952 95.7146 113.552C95.7146 113.152 95.3306 112.992 94.3866 112.8C93.0906 112.56 91.2506 112.224 91.2506 110.256C91.2506 108.464 92.7386 107.584 94.4026 107.584C95.5706 107.584 96.7386 107.984 97.5226 108.768L96.3706 110.224ZM101.59 107.776H103.222V105.76H105.494V107.776H107.846V109.808H105.494V112.8C105.494 113.664 106.038 114.064 106.742 114.064C107.11 114.064 107.542 113.952 107.942 113.696L108.502 115.376C107.734 115.856 106.934 116.096 106.134 116.096C104.438 116.096 103.222 115.04 103.222 113.2V109.808H101.59V107.776ZM109.433 104.8H111.705V108.816C112.185 108.112 112.889 107.584 114.121 107.584C115.801 107.584 117.049 108.576 117.049 110.608V116H114.777V111.088C114.777 110.08 114.217 109.6 113.369 109.6C112.457 109.6 111.705 110.224 111.705 111.504V116H109.433V104.8ZM120.033 104.016C120.897 104.016 121.505 104.64 121.505 105.44C121.505 106.224 120.897 106.848 120.033 106.848C119.169 106.848 118.545 106.224 118.545 105.44C118.545 104.64 119.169 104.016 120.033 104.016ZM118.897 116V107.776H121.169V116H118.897ZM128.068 110.224C127.508 109.712 126.724 109.488 126.148 109.488C125.556 109.488 125.172 109.728 125.172 110.144C125.172 110.592 125.588 110.704 126.66 110.912C127.956 111.152 129.652 111.472 129.652 113.312C129.652 115.024 128.18 116.096 126.196 116.096C124.788 116.096 123.412 115.536 122.452 114.576L123.652 112.992C124.372 113.792 125.556 114.144 126.404 114.144C127.012 114.144 127.412 113.952 127.412 113.552C127.412 113.152 127.028 112.992 126.084 112.8C124.788 112.56 122.948 112.224 122.948 110.256C122.948 108.464 124.436 107.584 126.1 107.584C127.268 107.584 128.436 107.984 129.22 108.768L128.068 110.224ZM141.45 113.968C140.618 115.312 139.322 116.096 137.77 116.096C135.13 116.096 133.61 114.272 133.61 111.888C133.61 109.456 135.338 107.584 137.834 107.584C139.258 107.584 140.442 108.176 141.226 109.296L139.61 110.608C139.162 109.936 138.586 109.616 137.85 109.616C136.602 109.616 135.866 110.528 135.866 111.808C135.866 113.104 136.698 114.064 137.962 114.064C138.73 114.064 139.498 113.632 139.93 112.864L141.45 113.968ZM146.172 107.584C148.62 107.584 150.428 109.408 150.428 111.84C150.428 114.272 148.62 116.096 146.172 116.096C143.708 116.096 141.9 114.272 141.9 111.84C141.9 109.408 143.708 107.584 146.172 107.584ZM144.172 111.84C144.172 113.152 144.956 114.064 146.172 114.064C147.388 114.064 148.172 113.152 148.172 111.84C148.172 110.528 147.388 109.616 146.172 109.616C144.956 109.616 144.172 110.528 144.172 111.84ZM156.84 107.776H159.288L156.008 116H154.024L150.728 107.776H153.192L155.016 112.944L156.84 107.776ZM167.351 112.624H161.751C161.991 113.648 162.711 114.144 163.815 114.144C164.775 114.144 165.463 113.744 165.943 113.2L167.095 114.592C166.199 115.552 165.079 116.096 163.639 116.096C161.127 116.096 159.447 114.464 159.447 111.952C159.447 109.456 161.095 107.584 163.671 107.584C165.911 107.584 167.351 108.976 167.351 111.744V112.624ZM161.719 110.992H165.111C165.095 110.08 164.631 109.456 163.543 109.456C162.535 109.456 161.911 110.016 161.719 110.992ZM168.623 107.776H170.831V109.024C171.199 108.08 172.031 107.68 173.007 107.68C173.343 107.68 173.711 107.728 174.079 107.824L173.759 109.936C173.423 109.824 173.087 109.776 172.799 109.776C171.679 109.776 170.895 110.48 170.895 111.824V116H168.623V107.776ZM176.96 107.776H178.48V107.376C178.48 105.392 179.776 104.256 181.552 104.256C182.352 104.256 183.136 104.48 183.84 104.944L183.008 106.672C182.672 106.432 182.272 106.304 181.888 106.304C181.248 106.304 180.736 106.64 180.736 107.376V107.776H182.736V109.808H180.736V116H178.48V109.808H176.96V107.776ZM187.627 107.584C190.075 107.584 191.883 109.408 191.883 111.84C191.883 114.272 190.075 116.096 187.627 116.096C185.163 116.096 183.355 114.272 183.355 111.84C183.355 109.408 185.163 107.584 187.627 107.584ZM185.627 111.84C185.627 113.152 186.411 114.064 187.627 114.064C188.843 114.064 189.627 113.152 189.627 111.84C189.627 110.528 188.843 109.616 187.627 109.616C186.411 109.616 185.627 110.528 185.627 111.84ZM193.14 107.776H195.348V109.024C195.716 108.08 196.548 107.68 197.524 107.68C197.86 107.68 198.228 107.728 198.596 107.824L198.276 109.936C197.94 109.824 197.604 109.776 197.316 109.776C196.196 109.776 195.412 110.48 195.412 111.824V116H193.14V107.776ZM203.555 110.976V112.416H201.251V109.552C203.395 109.552 204.307 109.12 204.307 107.968C204.307 107.072 203.651 106.672 202.867 106.672C202.035 106.672 201.091 107.104 200.595 107.872L199.171 106.592C200.115 105.216 201.603 104.544 203.075 104.544C204.979 104.544 206.643 105.728 206.643 107.76C206.643 109.488 205.411 110.784 203.555 110.976ZM200.915 114.688C200.915 113.888 201.539 113.28 202.403 113.28C203.267 113.28 203.891 113.888 203.891 114.688C203.891 115.488 203.267 116.096 202.403 116.096C201.539 116.096 200.915 115.488 200.915 114.688Z" fill="#144A38"/>
<rect x="47" y="137" width="128" height="66" fill="white"/>
<rect x="47" y="137" width="128" height="66" stroke="#144A38" stroke-width="2"/>
<rect x="65" y="155" width="30" height="30" rx="1" stroke="#144A38" stroke-width="2"/>
<g clip-path="url(#clip0_138_509)">
<path d="M69.2821 169.836C69.0057 169.527 68.5315 169.501 68.2231 169.778C67.9146 170.054 67.8887 170.528 68.1651 170.837L75.8407 179.4C76.1453 179.74 76.6804 179.731 76.9737 179.382L91.6093 161.94C91.8755 161.623 91.8341 161.149 91.5168 160.883C91.1995 160.617 90.7265 160.658 90.4602 160.976L76.3805 177.755L69.2821 169.836Z" fill="#144A38"/>
</g>
<path d="M118.944 167.232C118.352 166.496 117.408 166.096 116.496 166.096C115.376 166.096 114.528 166.672 114.528 167.712C114.528 168.944 115.744 169.328 116.976 169.712C118.88 170.272 120.384 170.864 120.384 172.88C120.384 175.088 118.656 176.256 116.624 176.256C115.232 176.256 113.696 175.68 112.672 174.384L113.824 173.216C114.544 174.208 115.68 174.688 116.72 174.688C117.936 174.688 118.736 174.016 118.736 173.072C118.736 171.952 117.584 171.568 116.352 171.184C114.416 170.592 112.896 169.936 112.896 167.952C112.896 165.808 114.544 164.544 116.576 164.544C117.856 164.544 119.136 165.072 120.016 166.112L118.944 167.232ZM122.823 164.272C123.479 164.272 123.943 164.752 123.943 165.376C123.943 165.984 123.479 166.448 122.823 166.448C122.167 166.448 121.703 165.984 121.703 165.376C121.703 164.752 122.167 164.272 122.823 164.272ZM122.039 176V167.968H123.607V176H122.039ZM125.731 167.968H127.267V169.344C127.763 168.432 128.643 167.776 130.051 167.776C131.779 167.776 132.915 168.832 132.915 170.704V176H131.347V171.104C131.347 169.872 130.675 169.184 129.587 169.184C128.355 169.184 127.299 170.112 127.299 171.792V176H125.731V167.968ZM141.263 167.968H142.799V175.712C142.799 178.192 141.055 179.76 138.623 179.76C136.623 179.76 135.039 178.704 134.463 177.056L135.871 176.4C136.271 177.616 137.359 178.336 138.671 178.336C140.223 178.336 141.231 177.408 141.231 175.888V174.4C140.687 175.36 139.727 175.84 138.367 175.84C136.031 175.84 134.463 174.208 134.463 171.824C134.463 169.632 135.871 167.776 138.367 167.776C139.727 167.776 140.767 168.256 141.263 169.168V167.968ZM136.047 171.792C136.047 173.264 136.959 174.448 138.623 174.448C140.159 174.448 141.231 173.408 141.231 171.792C141.231 170.192 140.175 169.168 138.607 169.168C137.103 169.168 136.047 170.192 136.047 171.792ZM148.638 175.616C148.078 175.936 147.502 176.096 146.958 176.096C145.662 176.096 144.606 175.2 144.606 173.568V164.8H146.174V173.392C146.174 174.224 146.67 174.672 147.294 174.672C147.598 174.672 147.918 174.592 148.238 174.416L148.638 175.616ZM156.639 172.464H150.671C150.863 173.952 151.823 174.704 153.231 174.704C154.287 174.704 155.055 174.24 155.567 173.52L156.447 174.464C155.615 175.504 154.543 176.096 153.103 176.096C150.607 176.096 149.103 174.352 149.103 172.032C149.103 169.728 150.575 167.776 153.119 167.776C155.295 167.776 156.639 169.184 156.639 171.68V172.464ZM150.671 171.264H155.071C155.071 169.888 154.399 169.104 153.055 169.104C151.695 169.104 150.863 169.92 150.671 171.264Z" fill="#434343"/>
<rect width="134" height="64" transform="translate(190 138)" fill="white"/>
<rect x="207" y="155" width="30" height="30" rx="1" stroke="#C7C7C7" stroke-width="2"/>
<path d="M260.528 174.688C262.112 174.688 263.344 173.792 263.968 172.256L265.392 172.896C264.464 175.072 262.688 176.256 260.384 176.256C257.056 176.256 254.928 173.808 254.928 170.496C254.928 166.928 257.392 164.544 260.608 164.544C262.48 164.544 264.064 165.344 265.056 166.912L263.728 167.872C263.04 166.72 261.872 166.096 260.528 166.096C258.304 166.096 256.576 167.728 256.576 170.4C256.576 173.168 258.416 174.688 260.528 174.688ZM270.432 167.776C272.816 167.776 274.512 169.536 274.512 171.936C274.512 174.32 272.816 176.096 270.432 176.096C268.048 176.096 266.352 174.32 266.352 171.936C266.352 169.536 268.048 167.776 270.432 167.776ZM267.92 171.936C267.92 173.536 268.928 174.672 270.432 174.672C271.936 174.672 272.944 173.536 272.944 171.936C272.944 170.336 271.936 169.2 270.432 169.2C268.928 169.2 267.92 170.336 267.92 171.936ZM282.988 167.968V176H281.452V174.528C280.94 175.44 280.124 176.096 278.764 176.096C277.052 176.096 275.852 175.056 275.852 173.056V167.968H277.42V172.72C277.42 174.016 278.076 174.688 279.148 174.688C280.428 174.688 281.42 173.712 281.42 172.08V167.968H282.988ZM289.389 167.776C291.901 167.776 293.213 169.76 293.213 171.904C293.213 174.048 291.869 176 289.373 176C288.093 176 287.101 175.472 286.541 174.592V179.536H284.973V167.968H286.509V169.296C287.021 168.352 288.077 167.776 289.389 167.776ZM286.541 171.888C286.541 173.456 287.581 174.592 289.133 174.592C290.637 174.592 291.645 173.456 291.645 171.888C291.645 170.448 290.781 169.184 289.133 169.184C287.581 169.184 286.541 170.32 286.541 171.888ZM298.748 175.616C298.188 175.936 297.612 176.096 297.068 176.096C295.772 176.096 294.716 175.2 294.716 173.568V164.8H296.284V173.392C296.284 174.224 296.78 174.672 297.404 174.672C297.708 174.672 298.028 174.592 298.348 174.416L298.748 175.616ZM306.749 172.464H300.781C300.973 173.952 301.933 174.704 303.341 174.704C304.397 174.704 305.165 174.24 305.677 173.52L306.557 174.464C305.725 175.504 304.653 176.096 303.213 176.096C300.717 176.096 299.213 174.352 299.213 172.032C299.213 169.728 300.685 167.776 303.229 167.776C305.405 167.776 306.749 169.184 306.749 171.68V172.464ZM300.781 171.264H305.181C305.181 169.888 304.509 169.104 303.165 169.104C301.805 169.104 300.973 169.92 300.781 171.264Z" fill="#434343"/>
<rect width="132" height="64" transform="translate(340 138)" fill="white"/>
<rect x="357" y="155" width="30" height="30" rx="1" stroke="#C7C7C7" stroke-width="2"/>
<path d="M411.456 171.216H406.928V176H405.312V164.8H412.288V166.336H406.928V169.68H411.456V171.216ZM420.983 173.712C420.983 174.384 421.399 174.672 421.895 174.672C422.119 174.672 422.359 174.608 422.583 174.48L422.967 175.648C422.503 175.952 421.991 176.096 421.511 176.096C420.551 176.096 419.703 175.504 419.591 174.448C419.015 175.536 417.943 176.096 416.567 176.096C414.103 176.096 412.727 174.176 412.727 171.968C412.727 169.76 414.071 167.776 416.567 167.776C417.927 167.776 418.935 168.336 419.447 169.312V167.968H420.983V173.712ZM414.295 171.936C414.295 173.552 415.319 174.688 416.839 174.688C418.343 174.688 419.415 173.568 419.415 171.936C419.415 170.304 418.359 169.184 416.807 169.184C415.159 169.184 414.295 170.448 414.295 171.936ZM424.075 167.968H425.611V169.312C426.059 168.368 426.859 167.776 428.059 167.776C429.323 167.776 430.203 168.368 430.555 169.44C431.051 168.4 431.979 167.776 433.243 167.776C434.955 167.776 435.963 168.864 435.963 170.768V176H434.395V171.072C434.395 169.888 433.851 169.184 432.779 169.184C431.707 169.184 430.795 169.952 430.795 171.664V176H429.227V171.072C429.227 169.888 428.699 169.184 427.627 169.184C426.555 169.184 425.643 169.952 425.643 171.664V176H424.075V167.968ZM438.854 164.272C439.51 164.272 439.974 164.752 439.974 165.376C439.974 165.984 439.51 166.448 438.854 166.448C438.198 166.448 437.734 165.984 437.734 165.376C437.734 164.752 438.198 164.272 438.854 164.272ZM438.07 176V167.968H439.638V176H438.07ZM445.795 175.616C445.235 175.936 444.659 176.096 444.115 176.096C442.819 176.096 441.763 175.2 441.763 173.568V164.8H443.331V173.392C443.331 174.224 443.827 174.672 444.451 174.672C444.755 174.672 445.075 174.592 445.395 174.416L445.795 175.616ZM452.372 167.968H453.94V175.712C453.94 178.304 452.244 179.744 449.988 179.744C448.116 179.744 446.66 178.816 446.1 177.056L447.524 176.448C447.908 177.728 448.804 178.32 450.036 178.32C451.444 178.32 452.372 177.488 452.372 175.904V174.272C451.892 175.232 450.916 175.808 449.684 175.808C448.068 175.808 446.596 174.768 446.596 172.72V167.968H448.164V172.384C448.164 173.648 448.932 174.384 450.068 174.384C451.38 174.384 452.372 173.36 452.372 171.792V167.968Z" fill="#434343"/>
<defs>
<clipPath id="clip0_138_509">
<rect width="24" height="24" fill="white" transform="translate(68 158)"/>
</clipPath>
</defs>
</svg>
