<svg width="520" height="300" viewBox="0 0 520 300" fill="none" xmlns="http://www.w3.org/2000/svg">
<rect width="520" height="300" fill="white"/>
<path d="M42.776 104.8H45.256L41.672 116H39.448L37.224 108.944L35 116H32.76L29.192 104.8H31.672L33.896 112.336L36.104 104.8H38.328L40.552 112.336L42.776 104.8ZM46.1571 104.8H48.4291V108.816C48.9091 108.112 49.6131 107.584 50.8451 107.584C52.5251 107.584 53.7731 108.576 53.7731 110.608V116H51.5011V111.088C51.5011 110.08 50.9411 109.6 50.0931 109.6C49.1811 109.6 48.4291 110.224 48.4291 111.504V116H46.1571V104.8ZM63.6694 113.232C63.6694 113.824 64.0534 114.064 64.4534 114.064C64.6614 114.064 64.8534 114.016 65.0454 113.904L65.5254 115.552C65.0134 115.92 64.4214 116.096 63.8614 116.096C62.8854 116.096 62.0054 115.568 61.7814 114.56C61.2534 115.536 60.2134 116.096 58.8694 116.096C56.5014 116.096 55.0134 114.24 55.0134 111.856C55.0134 109.488 56.4374 107.584 58.8854 107.584C60.1494 107.584 61.0614 108.096 61.4774 108.896V107.776H63.6694V113.232ZM57.2854 111.84C57.2854 113.168 58.1014 114.096 59.3174 114.096C60.5654 114.096 61.4134 113.184 61.4134 111.84C61.4134 110.512 60.5654 109.584 59.3174 109.584C58.0374 109.584 57.2854 110.56 57.2854 111.84ZM65.104 107.776H66.736V105.76H69.008V107.776H71.36V109.808H69.008V112.8C69.008 113.664 69.552 114.064 70.256 114.064C70.624 114.064 71.056 113.952 71.456 113.696L72.016 115.376C71.248 115.856 70.448 116.096 69.648 116.096C67.952 116.096 66.736 115.04 66.736 113.2V109.808H65.104V107.776ZM79.8566 107.584C82.3046 107.584 84.1126 109.408 84.1126 111.84C84.1126 114.272 82.3046 116.096 79.8566 116.096C77.3926 116.096 75.5846 114.272 75.5846 111.84C75.5846 109.408 77.3926 107.584 79.8566 107.584ZM77.8566 111.84C77.8566 113.152 78.6406 114.064 79.8566 114.064C81.0726 114.064 81.8566 113.152 81.8566 111.84C81.8566 110.528 81.0726 109.616 79.8566 109.616C78.6406 109.616 77.8566 110.528 77.8566 111.84ZM90.1536 107.584C92.6016 107.584 94.0096 109.504 94.0096 111.808C94.0096 114.096 92.5856 116 90.1696 116C89.0656 116 88.1376 115.6 87.6416 114.928V119.536H85.3696V107.776H87.5776V108.816C87.9776 108.08 88.9536 107.584 90.1536 107.584ZM87.6256 111.792C87.6256 113.072 88.4576 114 89.7216 114C90.9376 114 91.7536 113.072 91.7536 111.792C91.7536 110.56 90.9856 109.584 89.7216 109.584C88.4576 109.584 87.6256 110.512 87.6256 111.792ZM94.2771 107.776H95.9091V105.76H98.1811V107.776H100.533V109.808H98.1811V112.8C98.1811 113.664 98.7251 114.064 99.4291 114.064C99.7971 114.064 100.229 113.952 100.629 113.696L101.189 115.376C100.421 115.856 99.6211 116.096 98.8211 116.096C97.1251 116.096 95.9091 115.04 95.9091 113.2V109.808H94.2771V107.776ZM103.384 104.016C104.248 104.016 104.856 104.64 104.856 105.44C104.856 106.224 104.248 106.848 103.384 106.848C102.52 106.848 101.896 106.224 101.896 105.44C101.896 104.64 102.52 104.016 103.384 104.016ZM102.248 116V107.776H104.52V116H102.248ZM110.155 107.584C112.603 107.584 114.411 109.408 114.411 111.84C114.411 114.272 112.603 116.096 110.155 116.096C107.691 116.096 105.883 114.272 105.883 111.84C105.883 109.408 107.691 107.584 110.155 107.584ZM108.155 111.84C108.155 113.152 108.939 114.064 110.155 114.064C111.371 114.064 112.155 113.152 112.155 111.84C112.155 110.528 111.371 109.616 110.155 109.616C108.939 109.616 108.155 110.528 108.155 111.84ZM115.668 107.776H117.876V108.88C118.372 108.144 119.076 107.584 120.356 107.584C122.036 107.584 123.284 108.576 123.284 110.608V116H121.012V111.088C121.012 110.08 120.452 109.6 119.604 109.6C118.692 109.6 117.94 110.24 117.94 111.52V116H115.668V107.776ZM130.06 110.224C129.5 109.712 128.716 109.488 128.14 109.488C127.548 109.488 127.164 109.728 127.164 110.144C127.164 110.592 127.58 110.704 128.652 110.912C129.948 111.152 131.644 111.472 131.644 113.312C131.644 115.024 130.172 116.096 128.188 116.096C126.78 116.096 125.404 115.536 124.444 114.576L125.644 112.992C126.364 113.792 127.548 114.144 128.396 114.144C129.004 114.144 129.404 113.952 129.404 113.552C129.404 113.152 129.02 112.992 128.076 112.8C126.78 112.56 124.94 112.224 124.94 110.256C124.94 108.464 126.428 107.584 128.092 107.584C129.26 107.584 130.428 107.984 131.212 108.768L130.06 110.224ZM141.451 110.224C140.891 109.712 140.107 109.488 139.531 109.488C138.939 109.488 138.555 109.728 138.555 110.144C138.555 110.592 138.971 110.704 140.043 110.912C141.339 111.152 143.035 111.472 143.035 113.312C143.035 115.024 141.563 116.096 139.579 116.096C138.171 116.096 136.795 115.536 135.835 114.576L137.035 112.992C137.755 113.792 138.939 114.144 139.787 114.144C140.395 114.144 140.795 113.952 140.795 113.552C140.795 113.152 140.411 112.992 139.467 112.8C138.171 112.56 136.331 112.224 136.331 110.256C136.331 108.464 137.819 107.584 139.483 107.584C140.651 107.584 141.819 107.984 142.603 108.768L141.451 110.224ZM151.544 107.776V116H149.352V114.8C148.856 115.536 148.184 116.096 146.952 116.096C145.384 116.096 144.04 115.2 144.04 113.04V107.776H146.312V112.576C146.312 113.616 146.824 114.08 147.624 114.08C148.616 114.08 149.288 113.36 149.288 112.176V107.776H151.544ZM154.55 104.016C155.414 104.016 156.022 104.64 156.022 105.44C156.022 106.224 155.414 106.848 154.55 106.848C153.686 106.848 153.062 106.224 153.062 105.44C153.062 104.64 153.686 104.016 154.55 104.016ZM153.414 116V107.776H155.686V116H153.414ZM156.569 107.776H158.201V105.76H160.473V107.776H162.825V109.808H160.473V112.8C160.473 113.664 161.017 114.064 161.721 114.064C162.089 114.064 162.521 113.952 162.921 113.696L163.481 115.376C162.713 115.856 161.913 116.096 161.113 116.096C159.417 116.096 158.201 115.04 158.201 113.2V109.808H156.569V107.776ZM173.018 107.776H175.274V115.52C175.274 118.304 173.226 119.76 170.954 119.76C169.098 119.76 167.562 118.896 166.89 117.136L168.874 116.208C169.21 117.248 170.042 117.728 171.018 117.728C172.122 117.728 173.018 117.072 173.018 115.792V114.464C172.602 115.296 171.69 115.776 170.538 115.776C168.81 115.776 167.466 114.704 167.466 112.544V107.776H169.722V112.176C169.722 113.2 170.33 113.76 171.258 113.76C172.234 113.76 173.018 113.088 173.018 111.856V107.776ZM180.798 107.584C183.246 107.584 185.054 109.408 185.054 111.84C185.054 114.272 183.246 116.096 180.798 116.096C178.334 116.096 176.526 114.272 176.526 111.84C176.526 109.408 178.334 107.584 180.798 107.584ZM178.798 111.84C178.798 113.152 179.582 114.064 180.798 114.064C182.014 114.064 182.798 113.152 182.798 111.84C182.798 110.528 182.014 109.616 180.798 109.616C179.582 109.616 178.798 110.528 178.798 111.84ZM193.656 107.776V116H191.464V114.8C190.968 115.536 190.296 116.096 189.064 116.096C187.496 116.096 186.152 115.2 186.152 113.04V107.776H188.424V112.576C188.424 113.616 188.936 114.08 189.736 114.08C190.728 114.08 191.4 113.36 191.4 112.176V107.776H193.656ZM203.768 107.584C206.216 107.584 207.624 109.504 207.624 111.856C207.624 114.192 206.2 116.096 203.784 116.096C202.584 116.096 201.576 115.616 201.128 114.864V116H198.984V104.8H201.256V108.784C201.656 108.08 202.584 107.584 203.768 107.584ZM201.24 111.84C201.24 113.168 202.072 114.096 203.336 114.096C204.552 114.096 205.368 113.168 205.368 111.84C205.368 110.56 204.6 109.584 203.336 109.584C202.072 109.584 201.24 110.512 201.24 111.84ZM216.307 112.624H210.707C210.947 113.648 211.667 114.144 212.771 114.144C213.731 114.144 214.419 113.744 214.899 113.2L216.051 114.592C215.155 115.552 214.035 116.096 212.595 116.096C210.083 116.096 208.403 114.464 208.403 111.952C208.403 109.456 210.051 107.584 212.627 107.584C214.867 107.584 216.307 108.976 216.307 111.744V112.624ZM210.675 110.992H214.067C214.051 110.08 213.587 109.456 212.499 109.456C211.491 109.456 210.867 110.016 210.675 110.992ZM222.634 110.224C222.074 109.712 221.29 109.488 220.714 109.488C220.122 109.488 219.738 109.728 219.738 110.144C219.738 110.592 220.154 110.704 221.226 110.912C222.522 111.152 224.218 111.472 224.218 113.312C224.218 115.024 222.746 116.096 220.762 116.096C219.354 116.096 217.978 115.536 217.018 114.576L218.218 112.992C218.938 113.792 220.122 114.144 220.97 114.144C221.578 114.144 221.978 113.952 221.978 113.552C221.978 113.152 221.594 112.992 220.65 112.8C219.354 112.56 217.514 112.224 217.514 110.256C217.514 108.464 219.002 107.584 220.666 107.584C221.834 107.584 223.002 107.984 223.786 108.768L222.634 110.224ZM224.423 107.776H226.055V105.76H228.327V107.776H230.679V109.808H228.327V112.8C228.327 113.664 228.871 114.064 229.575 114.064C229.943 114.064 230.375 113.952 230.775 113.696L231.335 115.376C230.567 115.856 229.767 116.096 228.967 116.096C227.271 116.096 226.055 115.04 226.055 113.2V109.808H224.423V107.776Z" fill="#144A38"/>
<rect x="28" y="137" width="143" height="66" fill="#F1F1F1"/>
<rect x="28" y="137" width="143" height="66" stroke="#144A38" stroke-width="2"/>
<rect x="46" y="155" width="30" height="30" rx="1" stroke="#144A38" stroke-width="2"/>
<g clip-path="url(#clip0_138_509)">
<path d="M50.2821 169.836C50.0057 169.527 49.5315 169.501 49.2231 169.778C48.9146 170.054 48.8887 170.528 49.1651 170.837L56.8407 179.401C57.1453 179.74 57.6804 179.732 57.9737 179.382L72.6093 161.94C72.8755 161.623 72.8341 161.15 72.5168 160.883C72.1995 160.617 71.7265 160.659 71.4602 160.976L57.3805 177.755L50.2821 169.836Z" fill="#144A38"/>
</g>
<path d="M99.512 164.544C102.792 164.544 105.192 167.04 105.192 170.4C105.192 173.76 102.792 176.256 99.512 176.256C96.248 176.256 93.832 173.76 93.832 170.4C93.832 167.04 96.248 164.544 99.512 164.544ZM95.48 170.4C95.48 172.88 97.176 174.704 99.512 174.704C101.848 174.704 103.544 172.88 103.544 170.4C103.544 167.92 101.848 166.096 99.512 166.096C97.176 166.096 95.48 167.92 95.48 170.4ZM111.279 167.776C113.791 167.776 115.103 169.76 115.103 171.904C115.103 174.048 113.759 176 111.263 176C109.983 176 108.991 175.472 108.431 174.592V179.536H106.863V167.968H108.399V169.296C108.911 168.352 109.967 167.776 111.279 167.776ZM108.431 171.888C108.431 173.456 109.471 174.592 111.023 174.592C112.527 174.592 113.535 173.456 113.535 171.888C113.535 170.448 112.671 169.184 111.023 169.184C109.471 169.184 108.431 170.32 108.431 171.888ZM115.552 167.968H117.232V165.824H118.816V167.968H121.28V169.376H118.816V173.28C118.816 174.24 119.44 174.672 120.192 174.672C120.624 174.672 121.12 174.528 121.536 174.256L121.984 175.392C121.296 175.872 120.544 176.096 119.808 176.096C118.352 176.096 117.232 175.168 117.232 173.488V169.376H115.552V167.968ZM124.089 164.272C124.745 164.272 125.209 164.752 125.209 165.376C125.209 165.984 124.745 166.448 124.089 166.448C123.433 166.448 122.969 165.984 122.969 165.376C122.969 164.752 123.433 164.272 124.089 164.272ZM123.305 176V167.968H124.873V176H123.305ZM130.597 167.776C132.981 167.776 134.677 169.536 134.677 171.936C134.677 174.32 132.981 176.096 130.597 176.096C128.213 176.096 126.517 174.32 126.517 171.936C126.517 169.536 128.213 167.776 130.597 167.776ZM128.085 171.936C128.085 173.536 129.093 174.672 130.597 174.672C132.101 174.672 133.109 173.536 133.109 171.936C133.109 170.336 132.101 169.2 130.597 169.2C129.093 169.2 128.085 170.336 128.085 171.936ZM136.177 167.968H137.713V169.344C138.209 168.432 139.089 167.776 140.497 167.776C142.225 167.776 143.361 168.832 143.361 170.704V176H141.793V171.104C141.793 169.872 141.121 169.184 140.033 169.184C138.801 169.184 137.745 170.112 137.745 171.792V176H136.177V167.968ZM150.084 176V166.448H148.42V164.96H151.684V176H150.084Z" fill="#434343"/>
<rect width="145" height="64" transform="translate(186 138)" fill="#F1F1F1"/>
<rect x="203" y="155" width="30" height="30" rx="1" stroke="#C7C7C7" stroke-width="2"/>
<path d="M256.512 164.544C259.792 164.544 262.192 167.04 262.192 170.4C262.192 173.76 259.792 176.256 256.512 176.256C253.248 176.256 250.832 173.76 250.832 170.4C250.832 167.04 253.248 164.544 256.512 164.544ZM252.48 170.4C252.48 172.88 254.176 174.704 256.512 174.704C258.848 174.704 260.544 172.88 260.544 170.4C260.544 167.92 258.848 166.096 256.512 166.096C254.176 166.096 252.48 167.92 252.48 170.4ZM268.279 167.776C270.791 167.776 272.103 169.76 272.103 171.904C272.103 174.048 270.759 176 268.263 176C266.983 176 265.991 175.472 265.431 174.592V179.536H263.863V167.968H265.399V169.296C265.911 168.352 266.967 167.776 268.279 167.776ZM265.431 171.888C265.431 173.456 266.471 174.592 268.023 174.592C269.527 174.592 270.535 173.456 270.535 171.888C270.535 170.448 269.671 169.184 268.023 169.184C266.471 169.184 265.431 170.32 265.431 171.888ZM272.552 167.968H274.232V165.824H275.816V167.968H278.28V169.376H275.816V173.28C275.816 174.24 276.44 174.672 277.192 174.672C277.624 174.672 278.12 174.528 278.536 174.256L278.984 175.392C278.296 175.872 277.544 176.096 276.808 176.096C275.352 176.096 274.232 175.168 274.232 173.488V169.376H272.552V167.968ZM281.089 164.272C281.745 164.272 282.209 164.752 282.209 165.376C282.209 165.984 281.745 166.448 281.089 166.448C280.433 166.448 279.969 165.984 279.969 165.376C279.969 164.752 280.433 164.272 281.089 164.272ZM280.305 176V167.968H281.873V176H280.305ZM287.597 167.776C289.981 167.776 291.677 169.536 291.677 171.936C291.677 174.32 289.981 176.096 287.597 176.096C285.213 176.096 283.517 174.32 283.517 171.936C283.517 169.536 285.213 167.776 287.597 167.776ZM285.085 171.936C285.085 173.536 286.093 174.672 287.597 174.672C289.101 174.672 290.109 173.536 290.109 171.936C290.109 170.336 289.101 169.2 287.597 169.2C286.093 169.2 285.085 170.336 285.085 171.936ZM293.177 167.968H294.713V169.344C295.209 168.432 296.089 167.776 297.497 167.776C299.225 167.776 300.361 168.832 300.361 170.704V176H298.793V171.104C298.793 169.872 298.121 169.184 297.033 169.184C295.801 169.184 294.745 170.112 294.745 171.792V176H293.177V167.968ZM307.861 174.512H313.397V176H305.813V174.576L309.525 171.168C310.293 170.48 311.333 169.504 311.333 168.208C311.333 166.96 310.421 166.288 309.381 166.288C308.245 166.288 307.141 167.04 307.061 168.656L305.573 168.56C305.685 166.016 307.589 164.8 309.477 164.8C311.413 164.8 312.949 166.032 312.949 168.096C312.949 169.824 311.829 170.96 311.061 171.648L307.861 174.512Z" fill="#434343"/>
<rect width="144" height="64" transform="translate(347 138)" fill="#F1F1F1"/>
<rect x="364" y="155" width="30" height="30" rx="1" stroke="#C7C7C7" stroke-width="2"/>
<path d="M417.512 164.544C420.792 164.544 423.192 167.04 423.192 170.4C423.192 173.76 420.792 176.256 417.512 176.256C414.248 176.256 411.832 173.76 411.832 170.4C411.832 167.04 414.248 164.544 417.512 164.544ZM413.48 170.4C413.48 172.88 415.176 174.704 417.512 174.704C419.848 174.704 421.544 172.88 421.544 170.4C421.544 167.92 419.848 166.096 417.512 166.096C415.176 166.096 413.48 167.92 413.48 170.4ZM429.279 167.776C431.791 167.776 433.103 169.76 433.103 171.904C433.103 174.048 431.759 176 429.263 176C427.983 176 426.991 175.472 426.431 174.592V179.536H424.863V167.968H426.399V169.296C426.911 168.352 427.967 167.776 429.279 167.776ZM426.431 171.888C426.431 173.456 427.471 174.592 429.023 174.592C430.527 174.592 431.535 173.456 431.535 171.888C431.535 170.448 430.671 169.184 429.023 169.184C427.471 169.184 426.431 170.32 426.431 171.888ZM433.552 167.968H435.232V165.824H436.816V167.968H439.28V169.376H436.816V173.28C436.816 174.24 437.44 174.672 438.192 174.672C438.624 174.672 439.12 174.528 439.536 174.256L439.984 175.392C439.296 175.872 438.544 176.096 437.808 176.096C436.352 176.096 435.232 175.168 435.232 173.488V169.376H433.552V167.968ZM442.089 164.272C442.745 164.272 443.209 164.752 443.209 165.376C443.209 165.984 442.745 166.448 442.089 166.448C441.433 166.448 440.969 165.984 440.969 165.376C440.969 164.752 441.433 164.272 442.089 164.272ZM441.305 176V167.968H442.873V176H441.305ZM448.597 167.776C450.981 167.776 452.677 169.536 452.677 171.936C452.677 174.32 450.981 176.096 448.597 176.096C446.213 176.096 444.517 174.32 444.517 171.936C444.517 169.536 446.213 167.776 448.597 167.776ZM446.085 171.936C446.085 173.536 447.093 174.672 448.597 174.672C450.101 174.672 451.109 173.536 451.109 171.936C451.109 170.336 450.101 169.2 448.597 169.2C447.093 169.2 446.085 170.336 446.085 171.936ZM454.177 167.968H455.713V169.344C456.209 168.432 457.089 167.776 458.497 167.776C460.225 167.776 461.361 168.832 461.361 170.704V176H459.793V171.104C459.793 169.872 459.121 169.184 458.033 169.184C456.801 169.184 455.745 170.112 455.745 171.792V176H454.177V167.968ZM471.104 170.208C472.8 170.528 473.792 171.504 473.792 172.944C473.792 174.864 472.08 176.096 470.112 176.096C468.512 176.096 466.992 175.28 466.256 173.712L467.68 172.944C468.176 174.096 469.136 174.64 470.192 174.64C471.264 174.64 472.192 174.048 472.192 172.976C472.192 171.744 471.136 171.024 469.248 171.024H468.784V169.712C470.656 169.712 471.728 169.024 471.728 167.808C471.728 166.8 470.928 166.288 469.952 166.288C469.072 166.288 468.144 166.752 467.616 167.632L466.464 166.896C467.184 165.52 468.592 164.8 470.08 164.8C471.856 164.8 473.344 165.84 473.344 167.456C473.344 168.72 472.448 169.824 471.104 170.208Z" fill="#434343"/>
<defs>
<clipPath id="clip0_138_509">
<rect width="24" height="24" fill="white" transform="translate(49 158)"/>
</clipPath>
</defs>
</svg>
