<svg width="520" height="300" viewBox="0 0 520 300" fill="none" xmlns="http://www.w3.org/2000/svg">
<rect width="520" height="300" fill="white"/>
<path d="M90.696 134.336V144H89.08V134.336H85.352V132.8H94.424V134.336H90.696ZM95.6133 132.8H97.1813V137.312C97.6773 136.4 98.5573 135.776 99.9333 135.776C101.661 135.776 102.797 136.832 102.797 138.704V144H101.229V139.104C101.229 137.872 100.557 137.184 99.4693 137.184C98.2373 137.184 97.1813 138.096 97.1813 139.76V144H95.6133V132.8ZM105.706 132.272C106.362 132.272 106.826 132.752 106.826 133.376C106.826 133.984 106.362 134.448 105.706 134.448C105.05 134.448 104.586 133.984 104.586 133.376C104.586 132.752 105.05 132.272 105.706 132.272ZM104.922 144V135.968H106.49V144H104.922ZM113.462 137.952C112.918 137.392 112.07 137.136 111.382 137.136C110.566 137.136 110.006 137.504 110.006 138.144C110.006 138.88 110.774 139.056 111.894 139.296C113.206 139.568 114.774 139.856 114.774 141.552C114.774 143.168 113.35 144.096 111.59 144.096C110.278 144.096 108.934 143.552 108.054 142.528L108.998 141.44C109.654 142.32 110.806 142.704 111.734 142.704C112.55 142.704 113.206 142.4 113.206 141.744C113.206 141.056 112.534 140.864 111.51 140.656C110.166 140.384 108.454 140.048 108.454 138.24C108.454 136.576 109.846 135.776 111.398 135.776C112.454 135.776 113.558 136.144 114.31 136.912L113.462 137.952ZM120.824 132.272C121.48 132.272 121.944 132.752 121.944 133.376C121.944 133.984 121.48 134.448 120.824 134.448C120.168 134.448 119.704 133.984 119.704 133.376C119.704 132.752 120.168 132.272 120.824 132.272ZM120.04 144V135.968H121.608V144H120.04ZM128.58 137.952C128.036 137.392 127.188 137.136 126.5 137.136C125.684 137.136 125.124 137.504 125.124 138.144C125.124 138.88 125.892 139.056 127.012 139.296C128.324 139.568 129.892 139.856 129.892 141.552C129.892 143.168 128.468 144.096 126.708 144.096C125.396 144.096 124.052 143.552 123.172 142.528L124.116 141.44C124.772 142.32 125.924 142.704 126.852 142.704C127.668 142.704 128.324 142.4 128.324 141.744C128.324 141.056 127.652 140.864 126.628 140.656C125.284 140.384 123.572 140.048 123.572 138.24C123.572 136.576 124.964 135.776 126.516 135.776C127.572 135.776 128.676 136.144 129.428 136.912L128.58 137.952ZM145.165 135.968H146.925L143.949 144H142.477L140.413 138.24L138.333 144H136.877L133.901 135.968H135.581L137.613 141.888L139.645 135.968H141.181L143.213 141.872L145.165 135.968ZM148.116 132.8H149.684V137.312C150.18 136.4 151.06 135.776 152.436 135.776C154.164 135.776 155.3 136.832 155.3 138.704V144H153.732V139.104C153.732 137.872 153.06 137.184 151.972 137.184C150.74 137.184 149.684 138.096 149.684 139.76V144H148.116V132.8ZM165.056 141.712C165.056 142.384 165.472 142.672 165.968 142.672C166.192 142.672 166.432 142.608 166.656 142.48L167.04 143.648C166.576 143.952 166.064 144.096 165.584 144.096C164.624 144.096 163.776 143.504 163.664 142.448C163.088 143.536 162.016 144.096 160.64 144.096C158.176 144.096 156.8 142.176 156.8 139.968C156.8 137.76 158.144 135.776 160.64 135.776C162 135.776 163.008 136.336 163.52 137.312V135.968H165.056V141.712ZM158.368 139.936C158.368 141.552 159.392 142.688 160.912 142.688C162.416 142.688 163.488 141.568 163.488 139.936C163.488 138.304 162.432 137.184 160.88 137.184C159.232 137.184 158.368 138.448 158.368 139.936ZM166.875 135.968H168.555V133.824H170.139V135.968H172.603V137.376H170.139V141.28C170.139 142.24 170.763 142.672 171.515 142.672C171.947 142.672 172.443 142.528 172.859 142.256L173.307 143.392C172.619 143.872 171.867 144.096 171.131 144.096C169.675 144.096 168.555 143.168 168.555 141.488V137.376H166.875V135.968ZM185.502 141.712C185.502 142.384 185.918 142.672 186.414 142.672C186.638 142.672 186.878 142.608 187.102 142.48L187.486 143.648C187.022 143.952 186.51 144.096 186.03 144.096C185.07 144.096 184.222 143.504 184.11 142.448C183.534 143.536 182.462 144.096 181.086 144.096C178.622 144.096 177.246 142.176 177.246 139.968C177.246 137.76 178.59 135.776 181.086 135.776C182.446 135.776 183.454 136.336 183.966 137.312V135.968H185.502V141.712ZM178.814 139.936C178.814 141.552 179.838 142.688 181.358 142.688C182.862 142.688 183.934 141.568 183.934 139.936C183.934 138.304 182.878 137.184 181.326 137.184C179.678 137.184 178.814 138.448 178.814 139.936ZM192.305 135.968H193.841V137.344C194.337 136.432 195.217 135.776 196.625 135.776C198.353 135.776 199.489 136.832 199.489 138.704V144H197.921V139.104C197.921 137.872 197.249 137.184 196.161 137.184C194.929 137.184 193.873 138.112 193.873 139.792V144H192.305V135.968ZM202.397 132.272C203.053 132.272 203.517 132.752 203.517 133.376C203.517 133.984 203.053 134.448 202.397 134.448C201.741 134.448 201.277 133.984 201.277 133.376C201.277 132.752 201.741 132.272 202.397 132.272ZM201.613 144V135.968H203.181V144H201.613ZM212.282 142.144C211.466 143.376 210.314 144.096 208.81 144.096C206.202 144.096 204.826 142.192 204.826 139.984C204.826 137.728 206.346 135.776 208.874 135.776C210.234 135.776 211.29 136.304 212.058 137.344L210.938 138.288C210.442 137.552 209.786 137.2 208.89 137.2C207.226 137.2 206.394 138.432 206.394 139.888C206.394 141.36 207.306 142.672 208.938 142.672C209.882 142.672 210.73 142.176 211.21 141.36L212.282 142.144ZM220.51 140.464H214.542C214.734 141.952 215.694 142.704 217.102 142.704C218.158 142.704 218.926 142.24 219.438 141.52L220.318 142.464C219.486 143.504 218.414 144.096 216.974 144.096C214.478 144.096 212.974 142.352 212.974 140.032C212.974 137.728 214.446 135.776 216.99 135.776C219.166 135.776 220.51 137.184 220.51 139.68V140.464ZM214.542 139.264H218.942C218.942 137.888 218.27 137.104 216.926 137.104C215.566 137.104 214.734 137.92 214.542 139.264ZM229.824 135.776C232.336 135.776 233.648 137.76 233.648 139.904C233.648 142.048 232.304 144 229.808 144C228.528 144 227.536 143.472 226.976 142.592V147.536H225.408V135.968H226.944V137.296C227.456 136.352 228.512 135.776 229.824 135.776ZM226.976 139.888C226.976 141.456 228.016 142.592 229.568 142.592C231.072 142.592 232.08 141.456 232.08 139.888C232.08 138.448 231.216 137.184 229.568 137.184C228.016 137.184 226.976 138.32 226.976 139.888ZM242.927 141.712C242.927 142.384 243.343 142.672 243.839 142.672C244.063 142.672 244.303 142.608 244.527 142.48L244.911 143.648C244.447 143.952 243.935 144.096 243.455 144.096C242.495 144.096 241.647 143.504 241.535 142.448C240.959 143.536 239.887 144.096 238.511 144.096C236.047 144.096 234.671 142.176 234.671 139.968C234.671 137.76 236.015 135.776 238.511 135.776C239.871 135.776 240.879 136.336 241.391 137.312V135.968H242.927V141.712ZM236.239 139.936C236.239 141.552 237.263 142.688 238.783 142.688C240.287 142.688 241.359 141.568 241.359 139.936C241.359 138.304 240.303 137.184 238.751 137.184C237.103 137.184 236.239 138.448 236.239 139.936ZM246.018 135.968H247.554V137.28C247.938 136.304 248.802 135.856 249.778 135.856C250.162 135.856 250.562 135.92 250.93 136.064L250.674 137.52C250.322 137.376 249.954 137.312 249.634 137.312C248.482 137.312 247.586 138.08 247.586 139.664V144H246.018V135.968ZM259.537 141.712C259.537 142.384 259.953 142.672 260.449 142.672C260.673 142.672 260.913 142.608 261.137 142.48L261.521 143.648C261.057 143.952 260.545 144.096 260.065 144.096C259.105 144.096 258.257 143.504 258.145 142.448C257.569 143.536 256.497 144.096 255.121 144.096C252.657 144.096 251.281 142.176 251.281 139.968C251.281 137.76 252.625 135.776 255.121 135.776C256.481 135.776 257.489 136.336 258.001 137.312V135.968H259.537V141.712ZM252.849 139.936C252.849 141.552 253.873 142.688 255.393 142.688C256.897 142.688 257.969 141.568 257.969 139.936C257.969 138.304 256.913 137.184 255.361 137.184C253.713 137.184 252.849 138.448 252.849 139.936ZM268.84 135.968H270.376V143.712C270.376 146.192 268.632 147.76 266.2 147.76C264.2 147.76 262.616 146.704 262.04 145.056L263.448 144.4C263.848 145.616 264.936 146.336 266.248 146.336C267.8 146.336 268.808 145.408 268.808 143.888V142.4C268.264 143.36 267.304 143.84 265.944 143.84C263.608 143.84 262.04 142.208 262.04 139.824C262.04 137.632 263.448 135.776 265.944 135.776C267.304 135.776 268.344 136.256 268.84 137.168V135.968ZM263.624 139.792C263.624 141.264 264.536 142.448 266.2 142.448C267.736 142.448 268.808 141.408 268.808 139.792C268.808 138.192 267.752 137.168 266.184 137.168C264.68 137.168 263.624 138.192 263.624 139.792ZM272.183 135.968H273.719V137.28C274.103 136.304 274.967 135.856 275.943 135.856C276.327 135.856 276.727 135.92 277.095 136.064L276.839 137.52C276.487 137.376 276.119 137.312 275.799 137.312C274.647 137.312 273.751 138.08 273.751 139.664V144H272.183V135.968ZM285.702 141.712C285.702 142.384 286.118 142.672 286.614 142.672C286.838 142.672 287.078 142.608 287.302 142.48L287.686 143.648C287.222 143.952 286.71 144.096 286.23 144.096C285.27 144.096 284.422 143.504 284.31 142.448C283.734 143.536 282.662 144.096 281.286 144.096C278.822 144.096 277.446 142.176 277.446 139.968C277.446 137.76 278.79 135.776 281.286 135.776C282.646 135.776 283.654 136.336 284.166 137.312V135.968H285.702V141.712ZM279.014 139.936C279.014 141.552 280.038 142.688 281.558 142.688C283.062 142.688 284.134 141.568 284.134 139.936C284.134 138.304 283.078 137.184 281.526 137.184C279.878 137.184 279.014 138.448 279.014 139.936ZM293.209 135.776C295.721 135.776 297.033 137.76 297.033 139.904C297.033 142.048 295.689 144 293.193 144C291.913 144 290.921 143.472 290.361 142.592V147.536H288.793V135.968H290.329V137.296C290.841 136.352 291.897 135.776 293.209 135.776ZM290.361 139.888C290.361 141.456 291.401 142.592 292.953 142.592C294.457 142.592 295.465 141.456 295.465 139.888C295.465 138.448 294.601 137.184 292.953 137.184C291.401 137.184 290.361 138.32 290.361 139.888ZM298.536 132.8H300.104V137.312C300.6 136.4 301.48 135.776 302.856 135.776C304.584 135.776 305.72 136.832 305.72 138.704V144H304.152V139.104C304.152 137.872 303.48 137.184 302.392 137.184C301.16 137.184 300.104 138.096 300.104 139.76V144H298.536V132.8ZM314.699 135.776C317.083 135.776 318.779 137.536 318.779 139.936C318.779 142.32 317.083 144.096 314.699 144.096C312.315 144.096 310.619 142.32 310.619 139.936C310.619 137.536 312.315 135.776 314.699 135.776ZM312.187 139.936C312.187 141.536 313.195 142.672 314.699 142.672C316.203 142.672 317.211 141.536 317.211 139.936C317.211 138.336 316.203 137.2 314.699 137.2C313.195 137.2 312.187 138.336 312.187 139.936ZM319.319 135.968H320.887V135.28C320.887 133.472 321.959 132.4 323.575 132.4C324.359 132.4 325.031 132.624 325.671 133.136L324.967 134.304C324.599 133.968 324.183 133.824 323.735 133.824C322.967 133.824 322.455 134.32 322.455 135.264V135.968H324.615V137.376H322.455V144H320.887V137.376H319.319V135.968ZM328.632 135.968H330.312V133.824H331.896V135.968H334.36V137.376H331.896V141.28C331.896 142.24 332.52 142.672 333.272 142.672C333.704 142.672 334.2 142.528 334.616 142.256L335.064 143.392C334.376 143.872 333.624 144.096 332.888 144.096C331.432 144.096 330.312 143.168 330.312 141.488V137.376H328.632V135.968ZM343.047 140.464H337.079C337.271 141.952 338.231 142.704 339.639 142.704C340.695 142.704 341.463 142.24 341.975 141.52L342.855 142.464C342.023 143.504 340.951 144.096 339.511 144.096C337.015 144.096 335.511 142.352 335.511 140.032C335.511 137.728 336.983 135.776 339.527 135.776C341.703 135.776 343.047 137.184 343.047 139.68V140.464ZM337.079 139.264H341.479C341.479 137.888 340.807 137.104 339.463 137.104C338.103 137.104 337.271 137.92 337.079 139.264ZM351.717 144H349.749L347.589 141.104L345.397 144H343.429L346.629 139.888L343.589 135.968H345.541L347.589 138.688L349.605 135.968H351.557L348.517 139.888L351.717 144ZM351.781 135.968H353.461V133.824H355.045V135.968H357.509V137.376H355.045V141.28C355.045 142.24 355.669 142.672 356.421 142.672C356.853 142.672 357.349 142.528 357.765 142.256L358.213 143.392C357.525 143.872 356.773 144.096 356.037 144.096C354.581 144.096 353.461 143.168 353.461 141.488V137.376H351.781V135.968ZM366.977 143.616C366.417 143.936 365.841 144.096 365.297 144.096C364.001 144.096 362.945 143.2 362.945 141.568V132.8H364.513V141.392C364.513 142.224 365.009 142.672 365.633 142.672C365.937 142.672 366.257 142.592 366.577 142.416L366.977 143.616ZM371.522 135.776C373.906 135.776 375.602 137.536 375.602 139.936C375.602 142.32 373.906 144.096 371.522 144.096C369.138 144.096 367.442 142.32 367.442 139.936C367.442 137.536 369.138 135.776 371.522 135.776ZM369.01 139.936C369.01 141.536 370.018 142.672 371.522 142.672C373.026 142.672 374.034 141.536 374.034 139.936C374.034 138.336 373.026 137.2 371.522 137.2C370.018 137.2 369.01 138.336 369.01 139.936ZM380.702 135.776C383.086 135.776 384.782 137.536 384.782 139.936C384.782 142.32 383.086 144.096 380.702 144.096C378.318 144.096 376.622 142.32 376.622 139.936C376.622 137.536 378.318 135.776 380.702 135.776ZM378.19 139.936C378.19 141.536 379.198 142.672 380.702 142.672C382.206 142.672 383.214 141.536 383.214 139.936C383.214 138.336 382.206 137.2 380.702 137.2C379.198 137.2 378.19 138.336 378.19 139.936ZM386.282 132.8H387.85V139.312L391.418 135.968H393.61L389.466 139.728L394.106 144H391.818L387.85 140.32V144H386.282V132.8ZM399.904 137.952C399.36 137.392 398.512 137.136 397.824 137.136C397.008 137.136 396.448 137.504 396.448 138.144C396.448 138.88 397.216 139.056 398.336 139.296C399.648 139.568 401.216 139.856 401.216 141.552C401.216 143.168 399.792 144.096 398.032 144.096C396.72 144.096 395.376 143.552 394.496 142.528L395.44 141.44C396.096 142.32 397.248 142.704 398.176 142.704C398.992 142.704 399.648 142.4 399.648 141.744C399.648 141.056 398.976 140.864 397.952 140.656C396.608 140.384 394.896 140.048 394.896 138.24C394.896 136.576 396.288 135.776 397.84 135.776C398.896 135.776 400 136.144 400.752 136.912L399.904 137.952ZM90.184 167.616C89.624 167.936 89.048 168.096 88.504 168.096C87.208 168.096 86.152 167.2 86.152 165.568V156.8H87.72V165.392C87.72 166.224 88.216 166.672 88.84 166.672C89.144 166.672 89.464 166.592 89.784 166.416L90.184 167.616ZM92.2131 156.272C92.8691 156.272 93.3331 156.752 93.3331 157.376C93.3331 157.984 92.8691 158.448 92.2131 158.448C91.5571 158.448 91.0931 157.984 91.0931 157.376C91.0931 156.752 91.5571 156.272 92.2131 156.272ZM91.4291 168V159.968H92.9971V168H91.4291ZM95.1214 156.8H96.6894V163.312L100.257 159.968H102.449L98.3054 163.728L102.945 168H100.657L96.6894 164.32V168H95.1214V156.8ZM110.639 164.464H104.671C104.863 165.952 105.823 166.704 107.231 166.704C108.287 166.704 109.055 166.24 109.567 165.52L110.447 166.464C109.615 167.504 108.543 168.096 107.103 168.096C104.607 168.096 103.103 166.352 103.103 164.032C103.103 161.728 104.575 159.776 107.119 159.776C109.295 159.776 110.639 161.184 110.639 163.68V164.464ZM104.671 163.264H109.071C109.071 161.888 108.399 161.104 107.055 161.104C105.695 161.104 104.863 161.92 104.671 163.264ZM111.338 170.224L112.97 165.744L114.538 166.368L112.618 170.736L111.338 170.224ZM129.43 159.968H131.19L128.214 168H126.742L124.678 162.24L122.598 168H121.142L118.166 159.968H119.846L121.878 165.888L123.91 159.968H125.446L127.478 165.872L129.43 159.968ZM132.381 156.8H133.949V161.312C134.445 160.4 135.325 159.776 136.701 159.776C138.429 159.776 139.565 160.832 139.565 162.704V168H137.997V163.104C137.997 161.872 137.325 161.184 136.237 161.184C135.005 161.184 133.949 162.096 133.949 163.76V168H132.381V156.8ZM142.473 156.272C143.129 156.272 143.593 156.752 143.593 157.376C143.593 157.984 143.129 158.448 142.473 158.448C141.817 158.448 141.353 157.984 141.353 157.376C141.353 156.752 141.817 156.272 142.473 156.272ZM141.689 168V159.968H143.257V168H141.689ZM152.357 166.144C151.541 167.376 150.389 168.096 148.885 168.096C146.277 168.096 144.901 166.192 144.901 163.984C144.901 161.728 146.421 159.776 148.949 159.776C150.309 159.776 151.365 160.304 152.133 161.344L151.013 162.288C150.517 161.552 149.861 161.2 148.965 161.2C147.301 161.2 146.469 162.432 146.469 163.888C146.469 165.36 147.381 166.672 149.013 166.672C149.957 166.672 150.805 166.176 151.285 165.36L152.357 166.144ZM153.53 156.8H155.098V161.312C155.594 160.4 156.474 159.776 157.85 159.776C159.578 159.776 160.714 160.832 160.714 162.704V168H159.146V163.104C159.146 161.872 158.474 161.184 157.386 161.184C156.154 161.184 155.098 162.096 155.098 163.76V168H153.53V156.8ZM173.869 168H172.349V166.592C171.821 167.536 170.765 168.096 169.437 168.096C166.941 168.096 165.613 166.144 165.613 163.952C165.613 161.76 166.957 159.776 169.453 159.776C170.765 159.776 171.789 160.32 172.285 161.232V156.8H173.869V168ZM167.181 163.936C167.181 165.552 168.189 166.688 169.709 166.688C171.245 166.688 172.301 165.552 172.301 163.936C172.301 162.32 171.245 161.184 169.693 161.184C168.061 161.184 167.181 162.448 167.181 163.936ZM179.451 159.776C181.835 159.776 183.531 161.536 183.531 163.936C183.531 166.32 181.835 168.096 179.451 168.096C177.067 168.096 175.371 166.32 175.371 163.936C175.371 161.536 177.067 159.776 179.451 159.776ZM176.939 163.936C176.939 165.536 177.947 166.672 179.451 166.672C180.955 166.672 181.963 165.536 181.963 163.936C181.963 162.336 180.955 161.2 179.451 161.2C177.947 161.2 176.939 162.336 176.939 163.936ZM192.087 164.464H186.119C186.311 165.952 187.271 166.704 188.679 166.704C189.735 166.704 190.503 166.24 191.015 165.52L191.895 166.464C191.063 167.504 189.991 168.096 188.551 168.096C186.055 168.096 184.551 166.352 184.551 164.032C184.551 161.728 186.023 159.776 188.567 159.776C190.743 159.776 192.087 161.184 192.087 163.68V164.464ZM186.119 163.264H190.519C190.519 161.888 189.847 161.104 188.503 161.104C187.143 161.104 186.311 161.92 186.119 163.264ZM198.434 161.952C197.89 161.392 197.042 161.136 196.354 161.136C195.538 161.136 194.978 161.504 194.978 162.144C194.978 162.88 195.746 163.056 196.866 163.296C198.178 163.568 199.746 163.856 199.746 165.552C199.746 167.168 198.322 168.096 196.562 168.096C195.25 168.096 193.906 167.552 193.026 166.528L193.97 165.44C194.626 166.32 195.778 166.704 196.706 166.704C197.522 166.704 198.178 166.4 198.178 165.744C198.178 165.056 197.506 164.864 196.482 164.656C195.138 164.384 193.426 164.048 193.426 162.24C193.426 160.576 194.818 159.776 196.37 159.776C197.426 159.776 198.53 160.144 199.282 160.912L198.434 161.952ZM211.612 164.464H205.644C205.836 165.952 206.796 166.704 208.204 166.704C209.26 166.704 210.028 166.24 210.54 165.52L211.42 166.464C210.588 167.504 209.516 168.096 208.076 168.096C205.58 168.096 204.076 166.352 204.076 164.032C204.076 161.728 205.548 159.776 208.092 159.776C210.268 159.776 211.612 161.184 211.612 163.68V164.464ZM205.644 163.264H210.044C210.044 161.888 209.372 161.104 208.028 161.104C206.668 161.104 205.836 161.92 205.644 163.264ZM220.282 168H218.314L216.154 165.104L213.962 168H211.994L215.194 163.888L212.154 159.968H214.106L216.154 162.688L218.17 159.968H220.122L217.082 163.888L220.282 168ZM220.346 159.968H222.026V157.824H223.61V159.968H226.074V161.376H223.61V165.28C223.61 166.24 224.234 166.672 224.986 166.672C225.418 166.672 225.914 166.528 226.33 166.256L226.778 167.392C226.09 167.872 225.338 168.096 224.602 168.096C223.146 168.096 222.026 167.168 222.026 165.488V161.376H220.346V159.968ZM234.761 164.464H228.793C228.985 165.952 229.945 166.704 231.353 166.704C232.409 166.704 233.177 166.24 233.689 165.52L234.569 166.464C233.737 167.504 232.665 168.096 231.225 168.096C228.729 168.096 227.225 166.352 227.225 164.032C227.225 161.728 228.697 159.776 231.241 159.776C233.417 159.776 234.761 161.184 234.761 163.68V164.464ZM228.793 163.264H233.193C233.193 161.888 232.521 161.104 231.177 161.104C229.817 161.104 228.985 161.92 228.793 163.264ZM236.26 159.968H237.796V161.344C238.292 160.432 239.172 159.776 240.58 159.776C242.308 159.776 243.444 160.832 243.444 162.704V168H241.876V163.104C241.876 161.872 241.204 161.184 240.116 161.184C238.884 161.184 237.828 162.112 237.828 163.792V168H236.26V159.968ZM253.201 168H251.681V166.592C251.153 167.536 250.097 168.096 248.769 168.096C246.273 168.096 244.945 166.144 244.945 163.952C244.945 161.76 246.289 159.776 248.785 159.776C250.097 159.776 251.121 160.32 251.617 161.232V156.8H253.201V168ZM246.513 163.936C246.513 165.552 247.521 166.688 249.041 166.688C250.577 166.688 251.633 165.552 251.633 163.936C251.633 162.32 250.577 161.184 249.025 161.184C247.393 161.184 246.513 162.448 246.513 163.936ZM262.181 159.776C264.565 159.776 266.261 161.536 266.261 163.936C266.261 166.32 264.565 168.096 262.181 168.096C259.797 168.096 258.101 166.32 258.101 163.936C258.101 161.536 259.797 159.776 262.181 159.776ZM259.669 163.936C259.669 165.536 260.677 166.672 262.181 166.672C263.685 166.672 264.693 165.536 264.693 163.936C264.693 162.336 263.685 161.2 262.181 161.2C260.677 161.2 259.669 162.336 259.669 163.936ZM273.045 159.968H274.757L271.477 168H270.085L266.805 159.968H268.517L270.789 165.904L273.045 159.968ZM282.669 164.464H276.701C276.893 165.952 277.853 166.704 279.261 166.704C280.317 166.704 281.085 166.24 281.597 165.52L282.477 166.464C281.645 167.504 280.573 168.096 279.133 168.096C276.637 168.096 275.133 166.352 275.133 164.032C275.133 161.728 276.605 159.776 279.149 159.776C281.325 159.776 282.669 161.184 282.669 163.68V164.464ZM276.701 163.264H281.101C281.101 161.888 280.429 161.104 279.085 161.104C277.725 161.104 276.893 161.92 276.701 163.264ZM284.168 159.968H285.704V161.28C286.088 160.304 286.952 159.856 287.928 159.856C288.312 159.856 288.712 159.92 289.08 160.064L288.824 161.52C288.472 161.376 288.104 161.312 287.784 161.312C286.632 161.312 285.736 162.08 285.736 163.664V168H284.168V159.968ZM300.851 165.712C300.851 166.384 301.267 166.672 301.763 166.672C301.987 166.672 302.227 166.608 302.451 166.48L302.835 167.648C302.371 167.952 301.859 168.096 301.379 168.096C300.419 168.096 299.571 167.504 299.459 166.448C298.883 167.536 297.811 168.096 296.435 168.096C293.971 168.096 292.595 166.176 292.595 163.968C292.595 161.76 293.939 159.776 296.435 159.776C297.795 159.776 298.803 160.336 299.315 161.312V159.968H300.851V165.712ZM294.163 163.936C294.163 165.552 295.187 166.688 296.707 166.688C298.211 166.688 299.283 165.568 299.283 163.936C299.283 162.304 298.227 161.184 296.675 161.184C295.027 161.184 294.163 162.448 294.163 163.936ZM314.317 166.144C313.501 167.376 312.349 168.096 310.845 168.096C308.237 168.096 306.861 166.192 306.861 163.984C306.861 161.728 308.381 159.776 310.909 159.776C312.269 159.776 313.325 160.304 314.093 161.344L312.973 162.288C312.477 161.552 311.821 161.2 310.925 161.2C309.261 161.2 308.429 162.432 308.429 163.888C308.429 165.36 309.341 166.672 310.973 166.672C311.917 166.672 312.765 166.176 313.245 165.36L314.317 166.144ZM319.09 159.776C321.474 159.776 323.17 161.536 323.17 163.936C323.17 166.32 321.474 168.096 319.09 168.096C316.706 168.096 315.01 166.32 315.01 163.936C315.01 161.536 316.706 159.776 319.09 159.776ZM316.578 163.936C316.578 165.536 317.586 166.672 319.09 166.672C320.594 166.672 321.602 165.536 321.602 163.936C321.602 162.336 320.594 161.2 319.09 161.2C317.586 161.2 316.578 162.336 316.578 163.936ZM331.646 159.968V168H330.11V166.528C329.598 167.44 328.782 168.096 327.422 168.096C325.71 168.096 324.51 167.056 324.51 165.056V159.968H326.078V164.72C326.078 166.016 326.734 166.688 327.806 166.688C329.086 166.688 330.078 165.712 330.078 164.08V159.968H331.646ZM338.047 159.776C340.559 159.776 341.871 161.76 341.871 163.904C341.871 166.048 340.527 168 338.031 168C336.751 168 335.759 167.472 335.199 166.592V171.536H333.631V159.968H335.167V161.296C335.679 160.352 336.735 159.776 338.047 159.776ZM335.199 163.888C335.199 165.456 336.239 166.592 337.791 166.592C339.295 166.592 340.303 165.456 340.303 163.888C340.303 162.448 339.439 161.184 337.791 161.184C336.239 161.184 335.199 162.32 335.199 163.888ZM347.406 167.616C346.846 167.936 346.27 168.096 345.726 168.096C344.43 168.096 343.374 167.2 343.374 165.568V156.8H344.942V165.392C344.942 166.224 345.438 166.672 346.062 166.672C346.366 166.672 346.686 166.592 347.006 166.416L347.406 167.616ZM355.407 164.464H349.439C349.631 165.952 350.591 166.704 351.999 166.704C353.055 166.704 353.823 166.24 354.335 165.52L355.215 166.464C354.383 167.504 353.311 168.096 351.871 168.096C349.375 168.096 347.871 166.352 347.871 164.032C347.871 161.728 349.343 159.776 351.887 159.776C354.063 159.776 355.407 161.184 355.407 163.68V164.464ZM349.439 163.264H353.839C353.839 161.888 353.167 161.104 351.823 161.104C350.463 161.104 349.631 161.92 349.439 163.264ZM363.592 159.776C365.976 159.776 367.672 161.536 367.672 163.936C367.672 166.32 365.976 168.096 363.592 168.096C361.208 168.096 359.512 166.32 359.512 163.936C359.512 161.536 361.208 159.776 363.592 159.776ZM361.08 163.936C361.08 165.536 362.088 166.672 363.592 166.672C365.096 166.672 366.104 165.536 366.104 163.936C366.104 162.336 365.096 161.2 363.592 161.2C362.088 161.2 361.08 162.336 361.08 163.936ZM368.212 159.968H369.78V159.28C369.78 157.472 370.852 156.4 372.468 156.4C373.252 156.4 373.924 156.624 374.564 157.136L373.86 158.304C373.492 157.968 373.076 157.824 372.628 157.824C371.86 157.824 371.348 158.32 371.348 159.264V159.968H373.508V161.376H371.348V168H369.78V161.376H368.212V159.968ZM382.673 167.616C382.113 167.936 381.537 168.096 380.993 168.096C379.697 168.096 378.641 167.2 378.641 165.568V156.8H380.209V165.392C380.209 166.224 380.705 166.672 381.329 166.672C381.633 166.672 381.953 166.592 382.273 166.416L382.673 167.616ZM384.702 156.272C385.358 156.272 385.822 156.752 385.822 157.376C385.822 157.984 385.358 158.448 384.702 158.448C384.046 158.448 383.582 157.984 383.582 157.376C383.582 156.752 384.046 156.272 384.702 156.272ZM383.918 168V159.968H385.486V168H383.918ZM387.611 159.968H389.147V161.344C389.643 160.432 390.523 159.776 391.931 159.776C393.659 159.776 394.795 160.832 394.795 162.704V168H393.227V163.104C393.227 161.872 392.555 161.184 391.467 161.184C390.235 161.184 389.179 162.112 389.179 163.792V168H387.611V159.968ZM403.831 164.464H397.863C398.055 165.952 399.015 166.704 400.423 166.704C401.479 166.704 402.247 166.24 402.759 165.52L403.639 166.464C402.807 167.504 401.735 168.096 400.295 168.096C397.799 168.096 396.295 166.352 396.295 164.032C396.295 161.728 397.767 159.776 400.311 159.776C402.487 159.776 403.831 161.184 403.831 163.68V164.464ZM397.863 163.264H402.263C402.263 161.888 401.591 161.104 400.247 161.104C398.887 161.104 398.055 161.92 397.863 163.264ZM410.178 161.952C409.634 161.392 408.786 161.136 408.098 161.136C407.282 161.136 406.722 161.504 406.722 162.144C406.722 162.88 407.49 163.056 408.61 163.296C409.922 163.568 411.49 163.856 411.49 165.552C411.49 167.168 410.066 168.096 408.306 168.096C406.994 168.096 405.65 167.552 404.77 166.528L405.714 165.44C406.37 166.32 407.522 166.704 408.45 166.704C409.266 166.704 409.922 166.4 409.922 165.744C409.922 165.056 409.25 164.864 408.226 164.656C406.882 164.384 405.17 164.048 405.17 162.24C405.17 160.576 406.562 159.776 408.114 159.776C409.17 159.776 410.274 160.144 411.026 160.912L410.178 161.952ZM413.525 165.872C414.197 165.872 414.661 166.368 414.661 166.992C414.661 167.616 414.197 168.096 413.525 168.096C412.853 168.096 412.389 167.616 412.389 166.992C412.389 166.368 412.853 165.872 413.525 165.872Z" fill="#434343"/>
</svg>
