<svg width="520" height="300" viewBox="0 0 520 300" fill="none" xmlns="http://www.w3.org/2000/svg">
<rect width="520" height="300" fill="white"/>
<path d="M80.6569 118.368C80.2408 117.809 79.4735 117.496 78.7973 117.496C78.095 117.496 77.5489 117.809 77.5489 118.42C77.5489 119.161 78.3681 119.395 79.2264 119.629C80.982 120.084 82.1004 120.618 82.1004 122.269C82.1004 124.233 80.5919 125.208 78.8493 125.208C77.6399 125.208 76.3264 124.701 75.4421 123.583L76.7296 122.243C77.2628 123.01 78.1731 123.374 78.9403 123.374C79.6816 123.374 80.2018 123.036 80.2018 122.477C80.2018 121.827 79.4215 121.593 78.5892 121.359C76.7686 120.852 75.6632 120.266 75.6632 118.667C75.6632 116.755 77.1457 115.689 78.8623 115.689C79.9677 115.689 81.1121 116.144 81.8793 117.08L80.6569 118.368ZM82.2212 118.316H83.5477V116.677H85.3943V118.316H87.3059V119.967H85.3943V122.399C85.3943 123.101 85.8364 123.426 86.4086 123.426C86.7077 123.426 87.0588 123.335 87.384 123.127L87.8391 124.493C87.2149 124.883 86.5647 125.078 85.9145 125.078C84.536 125.078 83.5477 124.22 83.5477 122.724V119.967H82.2212V118.316ZM95.0888 122.75C95.0888 123.231 95.4009 123.426 95.726 123.426C95.895 123.426 96.0511 123.387 96.2071 123.296L96.5973 124.636C96.1811 124.935 95.7 125.078 95.2448 125.078C94.4515 125.078 93.7363 124.649 93.5542 123.83C93.1251 124.623 92.2798 125.078 91.1874 125.078C89.2628 125.078 88.0534 123.57 88.0534 121.632C88.0534 119.707 89.2108 118.16 91.2004 118.16C92.2278 118.16 92.969 118.576 93.3072 119.226V118.316H95.0888V122.75ZM89.9 121.619C89.9 122.698 90.5632 123.452 91.5516 123.452C92.5659 123.452 93.2551 122.711 93.2551 121.619C93.2551 120.539 92.5659 119.785 91.5516 119.785C90.5112 119.785 89.9 120.579 89.9 121.619ZM97.289 118.316H99.0837V119.33C99.3828 118.563 100.059 118.238 100.852 118.238C101.125 118.238 101.424 118.277 101.724 118.355L101.463 120.071C101.19 119.98 100.917 119.941 100.683 119.941C99.7729 119.941 99.1357 120.513 99.1357 121.606V125H97.289V118.316ZM101.925 118.316H103.252V116.677H105.098V118.316H107.01V119.967H105.098V122.399C105.098 123.101 105.541 123.426 106.113 123.426C106.412 123.426 106.763 123.335 107.088 123.127L107.543 124.493C106.919 124.883 106.269 125.078 105.619 125.078C104.24 125.078 103.252 124.22 103.252 122.724V119.967H101.925V118.316ZM117.479 125H115.737V124.077C115.359 124.688 114.54 125.078 113.578 125.078C111.601 125.078 110.444 123.531 110.444 121.632C110.444 119.72 111.601 118.16 113.591 118.16C114.553 118.16 115.307 118.55 115.633 119.122V115.897H117.479V125ZM112.29 121.619C112.29 122.698 112.954 123.452 113.942 123.452C114.956 123.452 115.646 122.698 115.646 121.619C115.646 120.539 114.956 119.785 113.942 119.785C112.915 119.785 112.29 120.579 112.29 121.619ZM125.525 122.75C125.525 123.231 125.837 123.426 126.162 123.426C126.331 123.426 126.487 123.387 126.643 123.296L127.033 124.636C126.617 124.935 126.136 125.078 125.681 125.078C124.887 125.078 124.172 124.649 123.99 123.83C123.561 124.623 122.716 125.078 121.623 125.078C119.699 125.078 118.489 123.57 118.489 121.632C118.489 119.707 119.647 118.16 121.636 118.16C122.664 118.16 123.405 118.576 123.743 119.226V118.316H125.525V122.75ZM120.336 121.619C120.336 122.698 120.999 123.452 121.987 123.452C123.002 123.452 123.691 122.711 123.691 121.619C123.691 120.539 123.002 119.785 121.987 119.785C120.947 119.785 120.336 120.579 120.336 121.619ZM126.691 118.316H128.017V116.677H129.864V118.316H131.775V119.967H129.864V122.399C129.864 123.101 130.306 123.426 130.878 123.426C131.177 123.426 131.528 123.335 131.853 123.127L132.309 124.493C131.684 124.883 131.034 125.078 130.384 125.078C129.005 125.078 128.017 124.22 128.017 122.724V119.967H126.691V118.316ZM138.947 122.256H134.395C134.591 123.088 135.176 123.491 136.073 123.491C136.853 123.491 137.413 123.166 137.803 122.724L138.739 123.856C138.011 124.636 137.1 125.078 135.93 125.078C133.888 125.078 132.523 123.752 132.523 121.71C132.523 119.681 133.862 118.16 135.956 118.16C137.777 118.16 138.947 119.291 138.947 121.541V122.256ZM134.369 120.93H137.126C137.113 120.188 136.736 119.681 135.852 119.681C135.033 119.681 134.526 120.136 134.369 120.93Z" fill="#144A38"/>
<mask id="path-2-inside-1_138_3688" fill="white">
<path d="M75 143.004H444V190.145H75V143.004Z"/>
</mask>
<path d="M75 143.004H444V190.145H75V143.004Z" fill="#F1F1F1"/>
<path d="M444 188.52H75V191.771H444V188.52Z" fill="#434343" mask="url(#path-2-inside-1_138_3688)"/>
<rect width="369" height="45.5154" transform="translate(75 143.004)" fill="#F1F1F1"/>
<g clip-path="url(#clip0_138_3688)">
<path d="M95.2609 170.762H94.0254V169.618C93.5963 170.385 92.738 170.84 91.6586 170.84C89.6299 170.84 88.5506 169.254 88.5506 167.472C88.5506 165.69 89.6429 164.078 91.6716 164.078C92.738 164.078 93.5703 164.52 93.9734 165.261V161.659H95.2609V170.762ZM89.825 167.459C89.825 168.773 90.6443 169.696 91.8797 169.696C93.1281 169.696 93.9864 168.773 93.9864 167.459C93.9864 166.146 93.1281 165.222 91.8667 165.222C90.5403 165.222 89.825 166.25 89.825 167.459ZM103.192 170.762H101.957V169.618C101.527 170.385 100.669 170.84 99.5898 170.84C97.5611 170.84 96.4817 169.254 96.4817 167.472C96.4817 165.69 97.5741 164.078 99.6028 164.078C100.669 164.078 101.501 164.52 101.905 165.261V161.659H103.192V170.762ZM97.7562 167.459C97.7562 168.773 98.5755 169.696 99.8109 169.696C101.059 169.696 101.918 168.773 101.918 167.459C101.918 166.146 101.059 165.222 99.7979 165.222C98.4714 165.222 97.7562 166.25 97.7562 167.459ZM108.093 170.97L106.883 170.502L110.446 161.451L111.669 161.906L108.093 170.97ZM115.097 164.234H116.345V165.326C116.709 164.559 117.36 164.078 118.335 164.078C119.362 164.078 120.078 164.559 120.364 165.43C120.767 164.585 121.521 164.078 122.548 164.078C123.94 164.078 124.759 164.962 124.759 166.51V170.762H123.485V166.757C123.485 165.795 123.043 165.222 122.171 165.222C121.3 165.222 120.559 165.847 120.559 167.238V170.762H119.284V166.757C119.284 165.795 118.855 165.222 117.984 165.222C117.113 165.222 116.371 165.847 116.371 167.238V170.762H115.097V164.234ZM126.355 164.234H127.604V165.326C127.968 164.559 128.618 164.078 129.593 164.078C130.621 164.078 131.336 164.559 131.622 165.43C132.025 164.585 132.779 164.078 133.807 164.078C135.198 164.078 136.018 164.962 136.018 166.51V170.762H134.743V166.757C134.743 165.795 134.301 165.222 133.43 165.222C132.558 165.222 131.817 165.847 131.817 167.238V170.762H130.543V166.757C130.543 165.795 130.114 165.222 129.242 165.222C128.371 165.222 127.63 165.847 127.63 167.238V170.762H126.355V164.234ZM140.903 170.97L139.694 170.502L143.257 161.451L144.479 161.906L140.903 170.97ZM152.231 164.234H153.506V170.528C153.506 172.635 152.127 173.805 150.293 173.805C148.772 173.805 147.589 173.051 147.133 171.62L148.291 171.126C148.603 172.167 149.331 172.648 150.332 172.648C151.477 172.648 152.231 171.972 152.231 170.684V169.358C151.841 170.138 151.048 170.606 150.046 170.606C148.733 170.606 147.537 169.761 147.537 168.096V164.234H148.811V167.823C148.811 168.851 149.435 169.449 150.358 169.449C151.425 169.449 152.231 168.616 152.231 167.342V164.234ZM159.692 164.234H160.967V170.528C160.967 172.635 159.588 173.805 157.755 173.805C156.233 173.805 155.05 173.051 154.595 171.62L155.752 171.126C156.064 172.167 156.792 172.648 157.794 172.648C158.938 172.648 159.692 171.972 159.692 170.684V169.358C159.302 170.138 158.509 170.606 157.508 170.606C156.194 170.606 154.998 169.761 154.998 168.096V164.234H156.272V167.823C156.272 168.851 156.896 169.449 157.82 169.449C158.886 169.449 159.692 168.616 159.692 167.342V164.234ZM167.154 164.234H168.428V170.528C168.428 172.635 167.05 173.805 165.216 173.805C163.695 173.805 162.511 173.051 162.056 171.62L163.213 171.126C163.525 172.167 164.254 172.648 165.255 172.648C166.399 172.648 167.154 171.972 167.154 170.684V169.358C166.764 170.138 165.97 170.606 164.969 170.606C163.655 170.606 162.459 169.761 162.459 168.096V164.234H163.734V167.823C163.734 168.851 164.358 169.449 165.281 169.449C166.347 169.449 167.154 168.616 167.154 167.342V164.234ZM174.615 164.234H175.889V170.528C175.889 172.635 174.511 173.805 172.677 173.805C171.156 173.805 169.972 173.051 169.517 171.62L170.675 171.126C170.987 172.167 171.715 172.648 172.716 172.648C173.861 172.648 174.615 171.972 174.615 170.684V169.358C174.225 170.138 173.432 170.606 172.43 170.606C171.117 170.606 169.92 169.761 169.92 168.096V164.234H171.195V167.823C171.195 168.851 171.819 169.449 172.742 169.449C173.809 169.449 174.615 168.616 174.615 167.342V164.234Z" fill="#8A8A8A"/>
</g>
<defs>
<clipPath id="clip0_138_3688">
<rect width="342.991" height="20" fill="white" transform="translate(88.0044 155.762)"/>
</clipPath>
</defs>
</svg>
