<svg width="520" height="300" viewBox="0 0 520 300" fill="none" xmlns="http://www.w3.org/2000/svg">
<rect width="520" height="300" fill="white"/>
<path d="M118.882 44.4492C118.596 44.0655 118.07 43.8514 117.606 43.8514C117.124 43.8514 116.749 44.0655 116.749 44.4849C116.749 44.9935 117.311 45.1542 117.9 45.3148C119.105 45.6271 119.872 45.9929 119.872 47.1262C119.872 48.4735 118.837 49.1428 117.641 49.1428C116.811 49.1428 115.91 48.7948 115.303 48.0274L116.187 47.1083C116.553 47.6348 117.177 47.8846 117.704 47.8846C118.212 47.8846 118.569 47.6526 118.569 47.2689C118.569 46.8228 118.034 46.6622 117.463 46.5015C116.214 46.1535 115.455 45.752 115.455 44.6545C115.455 43.3428 116.472 42.6111 117.65 42.6111C118.409 42.6111 119.194 42.9234 119.72 43.5658L118.882 44.4492ZM119.955 44.4135H120.865V43.2892H122.132V44.4135H123.444V45.5468H122.132V47.2154C122.132 47.6972 122.436 47.9203 122.828 47.9203C123.033 47.9203 123.274 47.8578 123.497 47.7151L123.81 48.652C123.381 48.9197 122.935 49.0535 122.489 49.0535C121.543 49.0535 120.865 48.4646 120.865 47.4385V45.5468H119.955V44.4135ZM128.784 47.4563C128.784 47.7865 128.998 47.9203 129.221 47.9203C129.337 47.9203 129.444 47.8935 129.551 47.8311L129.819 48.7502C129.534 48.9554 129.203 49.0535 128.891 49.0535C128.347 49.0535 127.856 48.7591 127.731 48.1969C127.437 48.7412 126.857 49.0535 126.107 49.0535C124.787 49.0535 123.957 48.0185 123.957 46.6889C123.957 45.3683 124.751 44.3065 126.116 44.3065C126.821 44.3065 127.33 44.592 127.562 45.0382V44.4135H128.784V47.4563ZM125.224 46.68C125.224 47.4206 125.679 47.9382 126.357 47.9382C127.053 47.9382 127.526 47.4295 127.526 46.68C127.526 45.9394 127.053 45.4218 126.357 45.4218C125.643 45.4218 125.224 45.9662 125.224 46.68ZM130.294 44.4135H131.525V45.1095C131.73 44.5831 132.194 44.36 132.739 44.36C132.926 44.36 133.131 44.3868 133.337 44.4403L133.158 45.6182C132.971 45.5557 132.783 45.5289 132.623 45.5289C131.998 45.5289 131.561 45.9215 131.561 46.6711V49H130.294V44.4135ZM133.475 44.4135H134.385V43.2892H135.652V44.4135H136.964V45.5468H135.652V47.2154C135.652 47.6972 135.956 47.9203 136.348 47.9203C136.554 47.9203 136.794 47.8578 137.018 47.7151L137.33 48.652C136.902 48.9197 136.455 49.0535 136.009 49.0535C135.063 49.0535 134.385 48.4646 134.385 47.4385V45.5468H133.475V44.4135ZM144.147 49H142.952V48.3665C142.693 48.7858 142.131 49.0535 141.471 49.0535C140.114 49.0535 139.32 47.9917 139.32 46.6889C139.32 45.3772 140.114 44.3065 141.479 44.3065C142.14 44.3065 142.657 44.5742 142.88 44.9668V42.7538H144.147V49ZM140.587 46.68C140.587 47.4206 141.042 47.9382 141.72 47.9382C142.416 47.9382 142.889 47.4206 142.889 46.68C142.889 45.9394 142.416 45.4218 141.72 45.4218C141.015 45.4218 140.587 45.9662 140.587 46.68ZM149.668 47.4563C149.668 47.7865 149.882 47.9203 150.105 47.9203C150.221 47.9203 150.328 47.8935 150.435 47.8311L150.703 48.7502C150.417 48.9554 150.087 49.0535 149.775 49.0535C149.231 49.0535 148.74 48.7591 148.615 48.1969C148.321 48.7412 147.741 49.0535 146.991 49.0535C145.67 49.0535 144.841 48.0185 144.841 46.6889C144.841 45.3683 145.635 44.3065 147 44.3065C147.705 44.3065 148.213 44.592 148.445 45.0382V44.4135H149.668V47.4563ZM146.108 46.68C146.108 47.4206 146.563 47.9382 147.241 47.9382C147.937 47.9382 148.41 47.4295 148.41 46.68C148.41 45.9394 147.937 45.4218 147.241 45.4218C146.527 45.4218 146.108 45.9662 146.108 46.68ZM150.468 44.4135H151.378V43.2892H152.645V44.4135H153.957V45.5468H152.645V47.2154C152.645 47.6972 152.949 47.9203 153.341 47.9203C153.546 47.9203 153.787 47.8578 154.01 47.7151L154.323 48.652C153.894 48.9197 153.448 49.0535 153.002 49.0535C152.056 49.0535 151.378 48.4646 151.378 47.4385V45.5468H150.468V44.4135ZM158.878 47.1172H155.755C155.889 47.6883 156.29 47.9649 156.906 47.9649C157.441 47.9649 157.825 47.7418 158.093 47.4385L158.735 48.2148C158.235 48.7502 157.611 49.0535 156.808 49.0535C155.407 49.0535 154.47 48.1434 154.47 46.7425C154.47 45.3505 155.389 44.3065 156.825 44.3065C158.075 44.3065 158.878 45.0828 158.878 46.6265V47.1172ZM155.737 46.2071H157.629C157.62 45.6985 157.361 45.3505 156.754 45.3505C156.192 45.3505 155.844 45.6628 155.737 46.2071Z" fill="#144A38"/>
<mask id="path-2-inside-1_138_3684" fill="white">
<path d="M115 60.9229H405V93.269H115V60.9229Z"/>
</mask>
<path d="M115 60.9229H405V93.269H115V60.9229Z" fill="white"/>
<path d="M405 92.1536H115V94.3844H405V92.1536Z" fill="#434343" mask="url(#path-2-inside-1_138_3684)"/>
<rect width="290" height="31.2308" transform="translate(115 60.9229)" fill="#F1F1F1"/>
<g clip-path="url(#clip0_138_3684)">
<path d="M128.902 80.0381H128.054V79.2529C127.76 79.7793 127.171 80.0916 126.43 80.0916C125.038 80.0916 124.298 79.003 124.298 77.7805C124.298 76.5581 125.047 75.4516 126.439 75.4516C127.171 75.4516 127.742 75.755 128.019 76.2636V73.7919H128.902V80.0381ZM125.172 77.7716C125.172 78.6729 125.734 79.3064 126.582 79.3064C127.439 79.3064 128.027 78.6729 128.027 77.7716C128.027 76.8704 127.439 76.2369 126.573 76.2369C125.663 76.2369 125.172 76.9418 125.172 77.7716ZM134.344 80.0381H133.496V79.2529C133.202 79.7793 132.613 80.0916 131.872 80.0916C130.48 80.0916 129.74 79.003 129.74 77.7805C129.74 76.5581 130.489 75.4516 131.881 75.4516C132.613 75.4516 133.184 75.755 133.461 76.2636V73.7919H134.344V80.0381ZM130.614 77.7716C130.614 78.6729 131.176 79.3064 132.024 79.3064C132.881 79.3064 133.469 78.6729 133.469 77.7716C133.469 76.8704 132.881 76.2369 132.015 76.2369C131.105 76.2369 130.614 76.9418 130.614 77.7716ZM135.637 80.1809L134.807 79.8596L137.252 73.6492L138.091 73.9615L135.637 80.1809ZM138.46 75.5587H139.317V76.3082C139.567 75.7818 140.013 75.4516 140.682 75.4516C141.387 75.4516 141.878 75.7818 142.074 76.3796C142.351 75.7996 142.868 75.4516 143.573 75.4516C144.528 75.4516 145.09 76.0584 145.09 77.1202V80.0381H144.216V77.2898C144.216 76.6295 143.912 76.2369 143.314 76.2369C142.717 76.2369 142.208 76.6652 142.208 77.6199V80.0381H141.333V77.2898C141.333 76.6295 141.039 76.2369 140.441 76.2369C139.843 76.2369 139.335 76.6652 139.335 77.6199V80.0381H138.46V75.5587ZM146.185 75.5587H147.042V76.3082C147.292 75.7818 147.738 75.4516 148.407 75.4516C149.112 75.4516 149.603 75.7818 149.799 76.3796C150.076 75.7996 150.593 75.4516 151.298 75.4516C152.253 75.4516 152.815 76.0584 152.815 77.1202V80.0381H151.941V77.2898C151.941 76.6295 151.637 76.2369 151.039 76.2369C150.442 76.2369 149.933 76.6652 149.933 77.6199V80.0381H149.059V77.2898C149.059 76.6295 148.764 76.2369 148.166 76.2369C147.568 76.2369 147.06 76.6652 147.06 77.6199V80.0381H146.185V75.5587ZM154.098 80.1809L153.268 79.8596L155.713 73.6492L156.552 73.9615L154.098 80.1809ZM159.879 75.5587H160.754V79.8775C160.754 81.323 159.808 82.1261 158.55 82.1261C157.506 82.1261 156.694 81.6085 156.381 80.627L157.175 80.2879C157.39 81.0018 157.889 81.3319 158.576 81.3319C159.362 81.3319 159.879 80.8679 159.879 79.9845V79.0744C159.611 79.6098 159.067 79.931 158.38 79.931C157.479 79.931 156.658 79.351 156.658 78.2089V75.5587H157.532V78.0215C157.532 78.7264 157.961 79.1369 158.594 79.1369C159.326 79.1369 159.879 78.5658 159.879 77.6913V75.5587ZM164.999 75.5587H165.873V79.8775C165.873 81.323 164.927 82.1261 163.669 82.1261C162.625 82.1261 161.813 81.6085 161.501 80.627L162.295 80.2879C162.509 81.0018 163.009 81.3319 163.696 81.3319C164.481 81.3319 164.999 80.8679 164.999 79.9845V79.0744C164.731 79.6098 164.187 79.931 163.5 79.931C162.598 79.931 161.778 79.351 161.778 78.2089V75.5587H162.652V78.0215C162.652 78.7264 163.08 79.1369 163.714 79.1369C164.446 79.1369 164.999 78.5658 164.999 77.6913V75.5587ZM170.118 75.5587H170.993V79.8775C170.993 81.323 170.047 82.1261 168.789 82.1261C167.745 82.1261 166.933 81.6085 166.621 80.627L167.415 80.2879C167.629 81.0018 168.129 81.3319 168.816 81.3319C169.601 81.3319 170.118 80.8679 170.118 79.9845V79.0744C169.851 79.6098 169.306 79.931 168.619 79.931C167.718 79.931 166.897 79.351 166.897 78.2089V75.5587H167.772V78.0215C167.772 78.7264 168.2 79.1369 168.833 79.1369C169.565 79.1369 170.118 78.5658 170.118 77.6913V75.5587ZM175.238 75.5587H176.112V79.8775C176.112 81.323 175.167 82.1261 173.908 82.1261C172.864 82.1261 172.052 81.6085 171.74 80.627L172.534 80.2879C172.748 81.0018 173.248 81.3319 173.935 81.3319C174.72 81.3319 175.238 80.8679 175.238 79.9845V79.0744C174.97 79.6098 174.426 79.931 173.739 79.931C172.838 79.931 172.017 79.351 172.017 78.2089V75.5587H172.891V78.0215C172.891 78.7264 173.32 79.1369 173.953 79.1369C174.685 79.1369 175.238 78.5658 175.238 77.6913V75.5587Z" fill="#8A8A8A"/>
</g>
<g clip-path="url(#clip1_138_3684)">
<path d="M392.313 69.8457C392.544 69.8457 392.731 70.033 392.731 70.264V71.5188H394.822C395.515 71.5188 396.077 72.0806 396.077 72.7736V81.9755C396.077 82.6685 395.515 83.2303 394.822 83.2303H383.947C383.254 83.2303 382.692 82.6685 382.692 81.9755V72.7736C382.692 72.0806 383.254 71.5188 383.947 71.5188H386.039V70.264C386.039 70.0522 386.196 69.8772 386.4 69.8495L386.457 69.8457C386.688 69.8457 386.875 70.033 386.875 70.264V71.5188H391.894V70.264C391.894 70.0522 392.052 69.8772 392.256 69.8495L392.313 69.8457ZM395.24 75.7015H383.529V81.9755C383.529 82.2065 383.716 82.3938 383.947 82.3938H394.822C395.053 82.3938 395.24 82.2065 395.24 81.9755V75.7015ZM385.829 79.8842C386.176 79.8842 386.457 80.1651 386.457 80.5116C386.457 80.8581 386.176 81.139 385.829 81.139C385.483 81.139 385.202 80.8581 385.202 80.5116C385.202 80.1651 385.483 79.8843 385.829 79.8842ZM389.385 79.8842C389.731 79.8842 390.012 80.1651 390.012 80.5116C390.012 80.8581 389.731 81.139 389.385 81.139C389.038 81.139 388.757 80.8581 388.757 80.5116C388.757 80.1651 389.038 79.8843 389.384 79.8842H389.385ZM392.94 79.8842C393.286 79.8842 393.567 80.1651 393.567 80.5116C393.567 80.8581 393.286 81.139 392.94 81.139C392.593 81.139 392.313 80.8581 392.313 80.5116C392.313 80.1651 392.593 79.8843 392.94 79.8842H392.94ZM385.829 76.9563C386.176 76.9563 386.457 77.2372 386.457 77.5837C386.457 77.9302 386.176 78.2111 385.829 78.2111C385.483 78.2111 385.202 77.9302 385.202 77.5837C385.202 77.2373 385.483 76.9564 385.829 76.9563ZM389.385 76.9563C389.731 76.9563 390.012 77.2372 390.012 77.5837C390.012 77.9302 389.731 78.2111 389.385 78.2111C389.038 78.2111 388.757 77.9302 388.757 77.5837C388.757 77.2373 389.038 76.9564 389.384 76.9563H389.385ZM392.94 76.9563C393.286 76.9563 393.567 77.2372 393.567 77.5837C393.567 77.9302 393.286 78.2111 392.94 78.2111C392.593 78.2111 392.313 77.9302 392.313 77.5837C392.313 77.2373 392.593 76.9564 392.94 76.9563H392.94ZM386.039 72.3553H383.947C383.716 72.3553 383.529 72.5426 383.529 72.7736V74.8649H395.24V72.7736C395.24 72.5426 395.053 72.3553 394.822 72.3553H392.731V73.1919C392.731 73.4036 392.573 73.5786 392.369 73.6063L392.313 73.6101C392.082 73.6101 391.894 73.4229 391.894 73.1919V72.3553H386.875V73.1919C386.875 73.4036 386.718 73.5786 386.514 73.6063L386.457 73.6101C386.226 73.6101 386.039 73.4229 386.039 73.1919V72.3553Z" fill="#434343"/>
</g>
<rect x="113.327" y="59.2494" width="293.346" height="35.6923" stroke="#525199" stroke-width="1.11538"/>
<g filter="url(#filter0_dd_138_3684)">
<rect width="167.308" height="167.308" transform="translate(115 93.269)" fill="#FAFAFA"/>
<path d="M199.211 189.75C204.755 189.75 209.25 185.255 209.25 179.711C209.25 174.167 204.755 169.673 199.211 169.673C193.667 169.673 189.173 174.167 189.173 179.711C189.173 185.255 193.667 189.75 199.211 189.75Z" fill="#FAFAFA"/>
<path d="M175.788 188.216C181.718 188.216 186.524 183.409 186.524 177.48C186.524 171.551 181.718 166.745 175.788 166.745C169.859 166.745 165.053 171.551 165.053 177.48C165.053 183.409 169.859 188.216 175.788 188.216Z" fill="#144A38" stroke="#525199" stroke-width="1.39423"/>
<path d="M124.932 109.634L128.785 113.486C128.924 113.626 128.924 113.852 128.785 113.991C128.645 114.131 128.419 114.131 128.28 113.991L123.923 109.634L128.28 105.277C128.419 105.138 128.645 105.138 128.785 105.277C128.924 105.417 128.924 105.643 128.785 105.782L124.932 109.634Z" fill="#434343"/>
<path d="M183.607 111.278C183.607 112.661 182.786 113.277 181.751 113.277C180.742 113.277 179.895 112.688 179.814 111.617L180.894 111.43C180.939 111.956 181.26 112.215 181.706 112.215C182.161 112.215 182.491 111.93 182.491 111.376V106.888H183.607V111.278ZM188.637 108.592V113.134H187.575V112.403C187.299 112.858 186.888 113.188 186.165 113.188C185.264 113.188 184.55 112.652 184.55 111.484V108.592H185.639V111.26C185.639 111.903 185.96 112.215 186.478 112.215C187.102 112.215 187.548 111.751 187.548 110.975V108.592H188.637ZM192.081 112.911C191.742 113.099 191.403 113.188 191.082 113.188C190.297 113.188 189.672 112.661 189.672 111.68V106.888H190.761V111.564C190.761 111.974 191.01 112.206 191.341 112.206C191.492 112.206 191.653 112.171 191.814 112.072L192.081 112.911ZM195.613 108.592H196.702V112.92C196.702 114.419 195.649 115.231 194.391 115.231C193.347 115.231 192.508 114.732 192.169 113.75L193.133 113.313C193.329 113.946 193.811 114.25 194.418 114.25C195.105 114.25 195.613 113.83 195.613 113.045V112.224C195.372 112.724 194.846 113.018 194.186 113.018C193.249 113.018 192.464 112.429 192.464 111.252V108.592H193.561V111.055C193.561 111.68 193.936 112.046 194.498 112.046C195.132 112.046 195.613 111.582 195.613 110.805V108.592ZM201.01 112.108H203.883V113.134H199.582V112.162L201.572 110.35C202 109.967 202.536 109.467 202.536 108.842C202.536 108.244 202.099 107.923 201.59 107.923C201.01 107.923 200.457 108.307 200.43 109.137L199.413 109.083C199.457 107.602 200.555 106.888 201.652 106.888C202.804 106.888 203.651 107.611 203.651 108.771C203.651 109.708 203.053 110.315 202.616 110.689L201.01 112.108ZM206.724 106.888C208.214 106.888 209.062 108.004 209.062 109.931V110.145C209.062 112.072 208.214 113.188 206.724 113.188C205.234 113.188 204.386 112.072 204.386 110.145V109.931C204.386 108.004 205.234 106.888 206.724 106.888ZM205.502 110.145C205.502 111.528 205.903 112.171 206.724 112.171C207.536 112.171 207.938 111.528 207.938 110.145V109.931C207.938 108.548 207.536 107.905 206.724 107.905C205.903 107.905 205.502 108.548 205.502 109.931V110.145ZM211.241 112.108H214.114V113.134H209.813V112.162L211.803 110.35C212.231 109.967 212.766 109.467 212.766 108.842C212.766 108.244 212.329 107.923 211.821 107.923C211.241 107.923 210.687 108.307 210.661 109.137L209.643 109.083C209.688 107.602 210.785 106.888 211.883 106.888C213.034 106.888 213.882 107.611 213.882 108.771C213.882 109.708 213.284 110.315 212.847 110.689L211.241 112.108ZM215.596 113.134V108.004H214.704V106.977H216.712V113.134H215.596Z" fill="#434343"/>
<path d="M272.375 109.634L268.523 113.486C268.383 113.626 268.383 113.852 268.523 113.991C268.662 114.131 268.888 114.131 269.027 113.991L273.384 109.634L269.027 105.277C268.888 105.138 268.662 105.138 268.523 105.277C268.383 105.417 268.383 105.643 268.523 105.782L272.375 109.634Z" fill="#434343"/>
<path d="M127.795 132.817C127.492 132.424 126.966 132.201 126.484 132.201C125.939 132.201 125.529 132.469 125.529 132.959C125.529 133.548 126.136 133.727 126.769 133.914C127.911 134.226 128.715 134.574 128.715 135.699C128.715 137.002 127.706 137.662 126.537 137.662C125.734 137.662 124.851 137.323 124.262 136.582L125.038 135.779C125.413 136.314 126.047 136.573 126.6 136.573C127.18 136.573 127.572 136.279 127.572 135.833C127.572 135.306 126.992 135.128 126.368 134.94C125.19 134.601 124.396 134.218 124.396 133.111C124.396 131.844 125.368 131.13 126.528 131.13C127.269 131.13 128.019 131.434 128.536 132.049L127.795 132.817ZM133.472 132.977V137.519H132.411V136.787C132.134 137.242 131.724 137.573 131.001 137.573C130.1 137.573 129.386 137.037 129.386 135.868V132.977H130.474V135.645C130.474 136.288 130.796 136.6 131.313 136.6C131.938 136.6 132.384 136.136 132.384 135.36V132.977H133.472Z" fill="#434343"/>
<path d="M127.538 155.731C128.366 155.887 128.85 156.364 128.85 157.066C128.85 158.003 128.015 158.604 127.054 158.604C126.274 158.604 125.532 158.206 125.173 157.441L125.868 157.066C126.11 157.629 126.578 157.894 127.093 157.894C127.617 157.894 128.069 157.605 128.069 157.082C128.069 156.481 127.554 156.129 126.633 156.129H126.406V155.489C127.32 155.489 127.843 155.153 127.843 154.56C127.843 154.068 127.453 153.818 126.976 153.818C126.547 153.818 126.094 154.045 125.836 154.474L125.274 154.115C125.626 153.444 126.313 153.092 127.039 153.092C127.905 153.092 128.632 153.6 128.632 154.388C128.632 155.005 128.194 155.544 127.538 155.731ZM131.418 153.092C132.699 153.092 133.409 154.092 133.409 155.762V155.934C133.409 157.605 132.699 158.604 131.418 158.604C130.13 158.604 129.427 157.605 129.427 155.934V155.762C129.427 154.092 130.13 153.092 131.418 153.092ZM130.224 155.934C130.224 157.215 130.614 157.878 131.418 157.878C132.222 157.878 132.613 157.215 132.613 155.934V155.762C132.613 154.482 132.222 153.818 131.418 153.818C130.614 153.818 130.224 154.482 130.224 155.762V155.934Z" fill="#C7C7C7"/>
<path d="M127.844 180.596L130.179 175.974H127.079V175.209H130.991V175.943L128.703 180.596H127.844Z" fill="#C7C7C7"/>
<path d="M126.641 202.634V197.973H125.829V197.247H127.422V202.634H126.641ZM131.563 200.581H132.539V201.307H131.563V202.634H130.782V201.307H128.315V200.612L130.751 197.247H131.563V200.581ZM129.103 200.581H130.782V198.254L129.103 200.581Z" fill="#434343"/>
<path d="M126.867 223.947H129.569V224.673H125.868V223.978L127.679 222.315C128.054 221.979 128.562 221.503 128.562 220.871C128.562 220.262 128.117 219.934 127.609 219.934C127.055 219.934 126.516 220.301 126.477 221.089L125.751 221.042C125.805 219.801 126.735 219.207 127.656 219.207C128.601 219.207 129.35 219.809 129.35 220.816C129.35 221.659 128.804 222.213 128.429 222.549L126.867 223.947ZM130.96 224.673V220.012H130.148V219.286H131.741V224.673H130.96Z" fill="#434343"/>
<path d="M126.367 245.985H129.069V246.711H125.368V246.017L127.179 244.354C127.554 244.018 128.062 243.542 128.062 242.909C128.062 242.3 127.617 241.972 127.109 241.972C126.555 241.972 126.016 242.339 125.977 243.128L125.251 243.081C125.305 241.839 126.235 241.246 127.156 241.246C128.101 241.246 128.85 241.847 128.85 242.854C128.85 243.698 128.304 244.252 127.929 244.588L126.367 245.985ZM132.359 243.877C133.093 244.135 133.445 244.596 133.445 245.22C133.445 246.134 132.656 246.758 131.501 246.758C130.353 246.758 129.572 246.141 129.572 245.228C129.572 244.588 129.931 244.088 130.611 243.854C130.056 243.596 129.791 243.182 129.791 242.659C129.791 241.8 130.517 241.246 131.532 241.246C132.523 241.246 133.226 241.777 133.226 242.62C133.226 243.175 132.914 243.627 132.359 243.877ZM130.361 245.189C130.361 245.704 130.821 246.048 131.516 246.048C132.203 246.048 132.656 245.696 132.656 245.212C132.656 244.767 132.297 244.447 131.618 244.283L131.22 244.19C130.704 244.314 130.361 244.728 130.361 245.189ZM130.579 242.722C130.579 243.104 130.86 243.362 131.36 243.51L131.672 243.604C132.125 243.471 132.445 243.089 132.445 242.69C132.445 242.269 132.094 241.957 131.524 241.957C130.954 241.957 130.579 242.277 130.579 242.722Z" fill="#434343"/>
<path d="M151.877 131.273H153.251V137.519H152.127V133.29L150.592 136.288H149.513L147.987 133.29V137.519H146.863V131.273H148.228L150.057 134.976L151.877 131.273ZM156.429 132.87C157.785 132.87 158.767 133.878 158.767 135.226C158.767 136.564 157.785 137.573 156.429 137.573C155.081 137.573 154.1 136.564 154.1 135.226C154.1 133.878 155.081 132.87 156.429 132.87ZM155.189 135.226C155.189 136.029 155.679 136.591 156.429 136.591C157.178 136.591 157.678 136.029 157.678 135.226C157.678 134.414 157.178 133.852 156.429 133.852C155.679 133.852 155.189 134.414 155.189 135.226Z" fill="#434343"/>
<path d="M152.385 158.558V153.896H151.573V153.17H153.165V158.558H152.385Z" fill="#C7C7C7"/>
<path d="M153.36 177.762C154.094 178.02 154.445 178.48 154.445 179.105C154.445 180.018 153.657 180.643 152.501 180.643C151.353 180.643 150.573 180.026 150.573 179.113C150.573 178.472 150.932 177.973 151.611 177.739C151.057 177.481 150.791 177.067 150.791 176.544C150.791 175.685 151.517 175.131 152.532 175.131C153.524 175.131 154.227 175.662 154.227 176.505C154.227 177.059 153.914 177.512 153.36 177.762ZM151.361 179.074C151.361 179.589 151.822 179.933 152.517 179.933C153.204 179.933 153.657 179.581 153.657 179.097C153.657 178.652 153.297 178.332 152.618 178.168L152.22 178.074C151.705 178.199 151.361 178.613 151.361 179.074ZM151.58 176.606C151.58 176.989 151.861 177.247 152.36 177.395L152.673 177.489C153.126 177.356 153.446 176.973 153.446 176.575C153.446 176.154 153.094 175.841 152.524 175.841C151.954 175.841 151.58 176.161 151.58 176.606Z" fill="#C7C7C7"/>
<path d="M149.885 202.634V197.973H149.073V197.247H150.665V202.634H149.885ZM153.83 199.074C154.986 199.074 155.54 199.902 155.54 200.815C155.54 201.869 154.799 202.681 153.62 202.681C152.823 202.681 152.027 202.275 151.715 201.471L152.417 201.135C152.605 201.674 153.136 201.955 153.651 201.955C154.369 201.955 154.744 201.455 154.744 200.862C154.744 200.245 154.354 199.777 153.651 199.777C153.214 199.777 152.831 199.964 152.597 200.292H151.964V197.247H155.08V197.973H152.636V199.496C152.925 199.222 153.339 199.074 153.83 199.074Z" fill="#434343"/>
<path d="M149.611 223.947H152.312V224.673H148.612V223.978L150.423 222.315C150.798 221.979 151.305 221.503 151.305 220.871C151.305 220.262 150.86 219.934 150.353 219.934C149.798 219.934 149.26 220.301 149.221 221.089L148.494 221.042C148.549 219.801 149.478 219.207 150.4 219.207C151.344 219.207 152.094 219.809 152.094 220.816C152.094 221.659 151.547 222.213 151.172 222.549L149.611 223.947ZM153.93 223.947H156.632V224.673H152.931V223.978L154.742 222.315C155.117 221.979 155.625 221.503 155.625 220.871C155.625 220.262 155.18 219.934 154.672 219.934C154.118 219.934 153.579 220.301 153.54 221.089L152.814 221.042C152.869 219.801 153.798 219.207 154.719 219.207C155.664 219.207 156.413 219.809 156.413 220.816C156.413 221.659 155.867 222.213 155.492 222.549L153.93 223.947Z" fill="#434343"/>
<path d="M149.111 245.985H151.812V246.711H148.112V246.017L149.923 244.354C150.298 244.018 150.805 243.542 150.805 242.909C150.805 242.3 150.36 241.972 149.853 241.972C149.298 241.972 148.76 242.339 148.721 243.128L147.994 243.081C148.049 241.839 148.978 241.246 149.9 241.246C150.844 241.246 151.594 241.847 151.594 242.854C151.594 243.698 151.047 244.252 150.672 244.588L149.111 245.985ZM152.316 243.104C152.316 241.933 153.182 241.246 154.205 241.246C155.361 241.246 156.313 242.121 156.313 243.721C156.313 245.501 155.15 246.758 153.081 246.758L153.058 246.04C154.432 246.032 155.423 245.392 155.525 243.94C155.275 244.541 154.619 244.861 153.994 244.861C153.05 244.861 152.316 244.174 152.316 243.104ZM153.112 243.073C153.112 243.807 153.659 244.158 154.221 244.158C154.791 244.158 155.361 243.784 155.361 243.081C155.361 242.441 154.9 241.972 154.213 241.972C153.526 241.972 153.112 242.441 153.112 243.073Z" fill="#434343"/>
<path d="M173.685 132.335V137.519H172.561V132.335H170.571V131.273H175.684V132.335H173.685ZM179.908 132.977V137.519H178.846V136.787C178.569 137.242 178.159 137.573 177.436 137.573C176.535 137.573 175.821 137.037 175.821 135.868V132.977H176.909V135.645C176.909 136.288 177.231 136.6 177.748 136.6C178.373 136.6 178.819 136.136 178.819 135.36V132.977H179.908Z" fill="#434343"/>
<path d="M174.855 157.832H177.556V158.558H173.855V157.863L175.667 156.2C176.041 155.864 176.549 155.388 176.549 154.755C176.549 154.146 176.104 153.818 175.596 153.818C175.042 153.818 174.503 154.185 174.464 154.974L173.738 154.927C173.793 153.686 174.722 153.092 175.643 153.092C176.588 153.092 177.337 153.693 177.337 154.701C177.337 155.544 176.791 156.098 176.416 156.434L174.855 157.832Z" fill="#C7C7C7"/>
<path d="M173.816 176.989C173.816 175.818 174.683 175.131 175.706 175.131C176.861 175.131 177.814 176.005 177.814 177.606C177.814 179.386 176.65 180.643 174.581 180.643L174.558 179.925C175.932 179.917 176.924 179.277 177.025 177.824C176.775 178.426 176.119 178.746 175.495 178.746C174.55 178.746 173.816 178.059 173.816 176.989ZM174.613 176.958C174.613 177.692 175.159 178.043 175.721 178.043C176.291 178.043 176.861 177.668 176.861 176.966C176.861 176.325 176.401 175.857 175.713 175.857C175.026 175.857 174.613 176.325 174.613 176.958Z" fill="#FAFAFA"/>
<path d="M173.128 202.634V197.973H172.316V197.247H173.909V202.634H173.128ZM178.956 200.823C178.956 201.994 178.089 202.681 177.066 202.681C175.911 202.681 174.958 201.807 174.958 200.206C174.958 198.426 176.122 197.169 178.191 197.169L178.214 197.887C176.84 197.895 175.848 198.535 175.747 199.987C175.997 199.386 176.653 199.066 177.277 199.066C178.222 199.066 178.956 199.753 178.956 200.823ZM175.919 200.846C175.919 201.487 176.371 201.955 177.059 201.955C177.746 201.955 178.159 201.487 178.159 200.854C178.159 200.12 177.613 199.769 177.051 199.769C176.481 199.769 175.919 200.144 175.919 200.846Z" fill="#434343"/>
<path d="M172.855 223.947H175.556V224.673H171.855V223.978L173.667 222.315C174.041 221.979 174.549 221.503 174.549 220.871C174.549 220.262 174.104 219.934 173.596 219.934C173.042 219.934 172.503 220.301 172.464 221.089L171.738 221.042C171.793 219.801 172.722 219.207 173.643 219.207C174.588 219.207 175.337 219.809 175.337 220.816C175.337 221.659 174.791 222.213 174.416 222.549L172.855 223.947ZM178.345 221.846C179.173 222.003 179.657 222.479 179.657 223.182C179.657 224.119 178.822 224.72 177.861 224.72C177.08 224.72 176.339 224.322 175.98 223.556L176.674 223.182C176.916 223.744 177.385 224.009 177.9 224.009C178.423 224.009 178.876 223.72 178.876 223.197C178.876 222.596 178.361 222.245 177.44 222.245H177.213V221.604C178.127 221.604 178.65 221.269 178.65 220.675C178.65 220.183 178.259 219.934 177.783 219.934C177.354 219.934 176.901 220.16 176.643 220.589L176.081 220.23C176.432 219.559 177.119 219.207 177.846 219.207C178.712 219.207 179.438 219.715 179.438 220.504C179.438 221.12 179.001 221.659 178.345 221.846Z" fill="#434343"/>
<path d="M174.026 243.885C174.853 244.041 175.337 244.517 175.337 245.22C175.337 246.157 174.502 246.758 173.542 246.758C172.761 246.758 172.019 246.36 171.66 245.595L172.355 245.22C172.597 245.782 173.065 246.048 173.581 246.048C174.104 246.048 174.557 245.759 174.557 245.236C174.557 244.635 174.041 244.283 173.12 244.283H172.894V243.643C173.807 243.643 174.33 243.307 174.33 242.714C174.33 242.222 173.94 241.972 173.464 241.972C173.034 241.972 172.581 242.199 172.324 242.628L171.762 242.269C172.113 241.597 172.8 241.246 173.526 241.246C174.393 241.246 175.119 241.754 175.119 242.542C175.119 243.159 174.682 243.698 174.026 243.885ZM177.906 241.246C179.186 241.246 179.897 242.245 179.897 243.916V244.088C179.897 245.759 179.186 246.758 177.906 246.758C176.617 246.758 175.915 245.759 175.915 244.088V243.916C175.915 242.245 176.617 241.246 177.906 241.246ZM176.711 244.088C176.711 245.369 177.101 246.032 177.906 246.032C178.71 246.032 179.1 245.369 179.1 244.088V243.916C179.1 242.636 178.71 241.972 177.906 241.972C177.101 241.972 176.711 242.636 176.711 243.916V244.088Z" fill="#434343"/>
<path d="M200.426 131.273H201.622L199.632 137.519H198.552L197.205 133.281L195.848 137.519H194.769L192.779 131.273H193.974L195.322 135.734L196.66 131.273H197.74L199.078 135.734L200.426 131.273ZM205.769 135.592H202.556C202.681 136.279 203.136 136.627 203.832 136.627C204.394 136.627 204.796 136.386 205.073 136.038L205.644 136.707C205.162 137.26 204.546 137.573 203.743 137.573C202.351 137.573 201.459 136.636 201.459 135.279C201.459 133.941 202.324 132.87 203.761 132.87C204.992 132.87 205.769 133.655 205.769 135.128V135.592ZM202.547 134.798H204.689C204.68 134.173 204.377 133.78 203.707 133.78C203.056 133.78 202.654 134.155 202.547 134.798Z" fill="#434343"/>
<path d="M199.769 155.731C200.597 155.887 201.081 156.364 201.081 157.066C201.081 158.003 200.246 158.604 199.285 158.604C198.505 158.604 197.763 158.206 197.404 157.441L198.099 157.066C198.341 157.629 198.809 157.894 199.324 157.894C199.847 157.894 200.3 157.605 200.3 157.082C200.3 156.481 199.785 156.129 198.864 156.129H198.637V155.489C199.551 155.489 200.074 155.153 200.074 154.56C200.074 154.068 199.684 153.818 199.207 153.818C198.778 153.818 198.325 154.045 198.067 154.474L197.505 154.115C197.857 153.444 198.544 153.092 199.27 153.092C200.136 153.092 200.862 153.6 200.862 154.388C200.862 155.005 200.425 155.544 199.769 155.731Z" fill="#C7C7C7"/>
<path d="M196.872 180.596V175.935H196.06V175.209H197.653V180.596H196.872ZM200.693 175.131C201.973 175.131 202.684 176.13 202.684 177.801V177.973C202.684 179.644 201.973 180.643 200.693 180.643C199.405 180.643 198.702 179.644 198.702 177.973V177.801C198.702 176.13 199.405 175.131 200.693 175.131ZM199.498 177.973C199.498 179.253 199.889 179.917 200.693 179.917C201.497 179.917 201.887 179.253 201.887 177.973V177.801C201.887 176.521 201.497 175.857 200.693 175.857C199.889 175.857 199.498 176.521 199.498 177.801V177.973Z" fill="#434343"/>
<path d="M197.372 202.634V197.973H196.56V197.247H198.153V202.634H197.372ZM199.717 202.634L202.052 198.012H198.952V197.247H202.864V197.981L200.576 202.634H199.717Z" fill="#434343"/>
<path d="M196.598 223.947H199.3V224.673H195.599V223.978L197.41 222.315C197.785 221.979 198.293 221.503 198.293 220.871C198.293 220.262 197.847 219.934 197.34 219.934C196.786 219.934 196.247 220.301 196.208 221.089L195.482 221.042C195.536 219.801 196.466 219.207 197.387 219.207C198.332 219.207 199.081 219.809 199.081 220.816C199.081 221.659 198.535 222.213 198.16 222.549L196.598 223.947ZM202.895 222.619H203.871V223.346H202.895V224.673H202.114V223.346H199.647V222.651L202.083 219.286H202.895V222.619ZM200.436 222.619H202.114V220.293L200.436 222.619Z" fill="#434343"/>
<path d="M198.769 243.885C199.597 244.041 200.081 244.517 200.081 245.22C200.081 246.157 199.246 246.758 198.285 246.758C197.505 246.758 196.763 246.36 196.404 245.595L197.099 245.22C197.341 245.782 197.809 246.048 198.324 246.048C198.847 246.048 199.3 245.759 199.3 245.236C199.3 244.635 198.785 244.283 197.864 244.283H197.637V243.643C198.551 243.643 199.074 243.307 199.074 242.714C199.074 242.222 198.684 241.972 198.207 241.972C197.778 241.972 197.325 242.199 197.067 242.628L196.505 242.269C196.857 241.597 197.544 241.246 198.27 241.246C199.136 241.246 199.862 241.754 199.862 242.542C199.862 243.159 199.425 243.698 198.769 243.885ZM201.394 246.711V242.05H200.582V241.324H202.175V246.711H201.394Z" fill="#434343"/>
<path d="M221.172 132.335V137.519H220.047V132.335H218.058V131.273H223.171V132.335H221.172ZM223.763 131.273H224.851V133.638C225.128 133.191 225.556 132.87 226.288 132.87C227.234 132.87 227.894 133.441 227.894 134.539V137.519H226.806V134.78C226.806 134.164 226.466 133.843 225.94 133.843C225.342 133.843 224.851 134.271 224.851 135.074V137.519H223.763V131.273Z" fill="#434343"/>
<path d="M224.395 156.504H225.371V157.23H224.395V158.558H223.614V157.23H221.147V156.535L223.583 153.17H224.395V156.504ZM221.935 156.504H223.614V154.178L221.935 156.504Z" fill="#C7C7C7"/>
<path d="M221.615 180.596V175.935H220.803V175.209H222.396V180.596H221.615ZM224.257 180.596V175.935H223.445V175.209H225.038V180.596H224.257Z" fill="#434343"/>
<path d="M220.615 202.634V197.973H219.803V197.247H221.396V202.634H220.615ZM225.232 199.8C225.966 200.058 226.318 200.518 226.318 201.143C226.318 202.057 225.529 202.681 224.374 202.681C223.226 202.681 222.445 202.064 222.445 201.151C222.445 200.511 222.804 200.011 223.484 199.777C222.929 199.519 222.664 199.105 222.664 198.582C222.664 197.723 223.39 197.169 224.405 197.169C225.396 197.169 226.099 197.7 226.099 198.543C226.099 199.097 225.787 199.55 225.232 199.8ZM223.234 201.112C223.234 201.627 223.694 201.971 224.389 201.971C225.076 201.971 225.529 201.619 225.529 201.135C225.529 200.69 225.17 200.37 224.491 200.206L224.093 200.112C223.577 200.237 223.234 200.651 223.234 201.112ZM223.452 198.645C223.452 199.027 223.733 199.285 224.233 199.433L224.545 199.527C224.998 199.394 225.318 199.012 225.318 198.613C225.318 198.192 224.967 197.879 224.397 197.879C223.827 197.879 223.452 198.2 223.452 198.645Z" fill="#434343"/>
<path d="M220.341 223.947H223.043V224.673H219.342V223.978L221.153 222.315C221.528 221.979 222.036 221.503 222.036 220.871C222.036 220.262 221.591 219.934 221.083 219.934C220.529 219.934 219.99 220.301 219.951 221.089L219.225 221.042C219.28 219.801 220.209 219.207 221.13 219.207C222.075 219.207 222.824 219.809 222.824 220.816C222.824 221.659 222.278 222.213 221.903 222.549L220.341 223.947ZM225.738 221.113C226.894 221.113 227.448 221.94 227.448 222.854C227.448 223.908 226.707 224.72 225.528 224.72C224.731 224.72 223.935 224.314 223.623 223.51L224.325 223.174C224.513 223.713 225.044 223.994 225.559 223.994C226.277 223.994 226.652 223.494 226.652 222.901C226.652 222.284 226.262 221.815 225.559 221.815C225.122 221.815 224.739 222.003 224.505 222.331H223.872V219.286H226.988V220.012H224.544V221.534C224.833 221.261 225.247 221.113 225.738 221.113Z" fill="#434343"/>
<path d="M223.115 246.711V242.05H222.303V241.324H223.896V246.711H223.115Z" fill="#C7C7C7"/>
<path d="M244.852 134.985H242.461V137.519H241.337V131.273H245.29V132.335H242.461V133.914H244.852V134.985ZM245.792 132.977H246.854V133.691C247.068 133.156 247.532 132.924 248.076 132.924C248.281 132.924 248.487 132.959 248.701 133.022L248.531 134.039C248.344 133.968 248.148 133.932 247.978 133.932C247.345 133.932 246.881 134.342 246.881 135.146V137.519H245.792V132.977Z" fill="#434343"/>
<path d="M245.163 154.997C246.318 154.997 246.872 155.825 246.872 156.738C246.872 157.792 246.131 158.604 244.952 158.604C244.155 158.604 243.359 158.198 243.047 157.394L243.749 157.059C243.937 157.597 244.468 157.878 244.983 157.878C245.701 157.878 246.076 157.379 246.076 156.785C246.076 156.168 245.686 155.7 244.983 155.7C244.546 155.7 244.163 155.887 243.929 156.215H243.296V153.17H246.412V153.896H243.968V155.419C244.257 155.146 244.671 154.997 245.163 154.997Z" fill="#C7C7C7"/>
<path d="M242.359 180.596V175.935H241.547V175.209H243.139V180.596H242.359ZM245.227 179.87H247.929V180.596H244.228V179.901L246.039 178.238C246.414 177.903 246.921 177.426 246.921 176.794C246.921 176.185 246.476 175.857 245.969 175.857C245.415 175.857 244.876 176.224 244.837 177.012L244.111 176.966C244.165 175.724 245.094 175.131 246.016 175.131C246.96 175.131 247.71 175.732 247.71 176.739C247.71 177.582 247.163 178.137 246.789 178.472L245.227 179.87Z" fill="#434343"/>
<path d="M242.359 202.634V197.973H241.547V197.247H243.139V202.634H242.359ZM244.189 199.027C244.189 197.856 245.055 197.169 246.078 197.169C247.234 197.169 248.186 198.043 248.186 199.644C248.186 201.424 247.023 202.681 244.954 202.681L244.93 201.963C246.305 201.955 247.296 201.315 247.398 199.863C247.148 200.464 246.492 200.784 245.867 200.784C244.923 200.784 244.189 200.097 244.189 199.027ZM244.985 198.996C244.985 199.73 245.532 200.081 246.094 200.081C246.664 200.081 247.234 199.706 247.234 199.004C247.234 198.363 246.773 197.895 246.086 197.895C245.399 197.895 244.985 198.363 244.985 198.996Z" fill="#434343"/>
<path d="M241.585 223.947H244.287V224.673H240.586V223.978L242.397 222.315C242.772 221.979 243.279 221.503 243.279 220.871C243.279 220.262 242.834 219.934 242.327 219.934C241.772 219.934 241.234 220.301 241.195 221.089L240.469 221.042C240.523 219.801 241.452 219.207 242.374 219.207C243.318 219.207 244.068 219.809 244.068 220.816C244.068 221.659 243.521 222.213 243.147 222.549L241.585 223.947ZM248.864 222.861C248.864 224.033 247.997 224.72 246.974 224.72C245.819 224.72 244.866 223.845 244.866 222.245C244.866 220.465 246.03 219.207 248.099 219.207L248.122 219.926C246.748 219.934 245.756 220.574 245.655 222.026C245.905 221.425 246.56 221.105 247.185 221.105C248.13 221.105 248.864 221.792 248.864 222.861ZM245.827 222.885C245.827 223.525 246.279 223.994 246.966 223.994C247.654 223.994 248.067 223.525 248.067 222.893C248.067 222.159 247.521 221.807 246.959 221.807C246.389 221.807 245.827 222.182 245.827 222.885Z" fill="#434343"/>
<path d="M244.085 245.985H246.787V246.711H243.086V246.017L244.897 244.354C245.272 244.018 245.779 243.542 245.779 242.909C245.779 242.3 245.334 241.972 244.827 241.972C244.272 241.972 243.734 242.339 243.695 243.128L242.969 243.081C243.023 241.839 243.952 241.246 244.874 241.246C245.818 241.246 246.568 241.847 246.568 242.854C246.568 243.698 246.021 244.252 245.647 244.588L244.085 245.985Z" fill="#C7C7C7"/>
<path d="M265.257 132.817C264.954 132.424 264.427 132.201 263.945 132.201C263.401 132.201 262.99 132.469 262.99 132.959C262.99 133.548 263.597 133.727 264.231 133.914C265.373 134.226 266.176 134.574 266.176 135.699C266.176 137.002 265.168 137.662 263.999 137.662C263.196 137.662 262.312 137.323 261.723 136.582L262.5 135.779C262.874 136.314 263.508 136.573 264.061 136.573C264.641 136.573 265.034 136.279 265.034 135.833C265.034 135.306 264.454 135.128 263.829 134.94C262.651 134.601 261.857 134.218 261.857 133.111C261.857 131.844 262.83 131.13 263.99 131.13C264.73 131.13 265.48 131.434 265.998 132.049L265.257 132.817ZM271.398 136.091C271.398 136.439 271.612 136.591 271.862 136.591C271.978 136.591 272.103 136.555 272.21 136.493L272.46 137.296C272.183 137.483 271.871 137.573 271.585 137.573C271.041 137.573 270.559 137.26 270.461 136.689C270.158 137.26 269.569 137.573 268.81 137.573C267.463 137.573 266.669 136.52 266.669 135.235C266.669 133.959 267.436 132.87 268.81 132.87C269.542 132.87 270.077 133.174 270.327 133.655V132.977H271.398V136.091ZM267.757 135.226C267.757 136.038 268.266 136.6 269.015 136.6C269.783 136.6 270.3 136.047 270.3 135.226C270.3 134.405 269.783 133.843 269.007 133.843C268.203 133.843 267.757 134.458 267.757 135.226Z" fill="#434343"/>
<path d="M269.288 156.746C269.288 157.917 268.421 158.604 267.398 158.604C266.243 158.604 265.29 157.73 265.29 156.129C265.29 154.349 266.454 153.092 268.523 153.092L268.546 153.811C267.172 153.818 266.18 154.459 266.079 155.911C266.329 155.31 266.985 154.99 267.609 154.99C268.554 154.99 269.288 155.677 269.288 156.746ZM266.251 156.77C266.251 157.41 266.703 157.878 267.391 157.878C268.078 157.878 268.491 157.41 268.491 156.777C268.491 156.044 267.945 155.692 267.383 155.692C266.813 155.692 266.251 156.067 266.251 156.77Z" fill="#C7C7C7"/>
<path d="M265.102 180.596V175.935H264.29V175.209H265.883V180.596H265.102ZM269.142 177.77C269.97 177.926 270.454 178.402 270.454 179.105C270.454 180.042 269.618 180.643 268.658 180.643C267.877 180.643 267.135 180.245 266.776 179.48L267.471 179.105C267.713 179.667 268.182 179.933 268.697 179.933C269.22 179.933 269.673 179.644 269.673 179.121C269.673 178.519 269.158 178.168 268.236 178.168H268.01V177.528C268.923 177.528 269.446 177.192 269.446 176.599C269.446 176.107 269.056 175.857 268.58 175.857C268.15 175.857 267.698 176.083 267.44 176.513L266.878 176.154C267.229 175.482 267.916 175.131 268.642 175.131C269.509 175.131 270.235 175.638 270.235 176.427C270.235 177.044 269.798 177.582 269.142 177.77Z" fill="#434343"/>
<path d="M263.829 201.908H266.53V202.634H262.829V201.939L264.641 200.276C265.015 199.941 265.523 199.464 265.523 198.832C265.523 198.223 265.078 197.895 264.57 197.895C264.016 197.895 263.477 198.262 263.438 199.051L262.712 199.004C262.767 197.762 263.696 197.169 264.617 197.169C265.562 197.169 266.312 197.77 266.312 198.777C266.312 199.621 265.765 200.175 265.39 200.511L263.829 201.908ZM269.025 197.169C270.305 197.169 271.015 198.168 271.015 199.839V200.011C271.015 201.682 270.305 202.681 269.025 202.681C267.736 202.681 267.034 201.682 267.034 200.011V199.839C267.034 198.168 267.736 197.169 269.025 197.169ZM267.83 200.011C267.83 201.291 268.22 201.955 269.025 201.955C269.829 201.955 270.219 201.291 270.219 200.011V199.839C270.219 198.559 269.829 197.895 269.025 197.895C268.22 197.895 267.83 198.559 267.83 199.839V200.011Z" fill="#434343"/>
<path d="M264.329 223.947H267.03V224.673H263.329V223.978L265.141 222.315C265.515 221.979 266.023 221.503 266.023 220.871C266.023 220.262 265.578 219.934 265.07 219.934C264.516 219.934 263.977 220.301 263.938 221.089L263.212 221.042C263.267 219.801 264.196 219.207 265.117 219.207C266.062 219.207 266.812 219.809 266.812 220.816C266.812 221.659 266.265 222.213 265.89 222.549L264.329 223.947ZM268.049 224.673L270.383 220.051H267.284V219.286H271.195V220.019L268.908 224.673H268.049Z" fill="#434343"/>
<path d="M267.5 243.885C268.327 244.041 268.812 244.517 268.812 245.22C268.812 246.157 267.976 246.758 267.016 246.758C266.235 246.758 265.493 246.36 265.134 245.595L265.829 245.22C266.071 245.782 266.54 246.048 267.055 246.048C267.578 246.048 268.031 245.759 268.031 245.236C268.031 244.635 267.515 244.283 266.594 244.283H266.368V243.643C267.281 243.643 267.804 243.307 267.804 242.714C267.804 242.222 267.414 241.972 266.938 241.972C266.508 241.972 266.055 242.199 265.798 242.628L265.236 242.269C265.587 241.597 266.274 241.246 267 241.246C267.867 241.246 268.593 241.754 268.593 242.542C268.593 243.159 268.156 243.698 267.5 243.885Z" fill="#C7C7C7"/>
</g>
<defs>
<filter id="filter0_dd_138_3684" x="106.077" y="85.4614" width="185.154" height="185.154" filterUnits="userSpaceOnUse" color-interpolation-filters="sRGB">
<feFlood flood-opacity="0" result="BackgroundImageFix"/>
<feColorMatrix in="SourceAlpha" type="matrix" values="0 0 0 0 0 0 0 0 0 0 0 0 0 0 0 0 0 0 127 0" result="hardAlpha"/>
<feOffset dy="1.11538"/>
<feGaussianBlur stdDeviation="4.46154"/>
<feColorMatrix type="matrix" values="0 0 0 0 0.129412 0 0 0 0 0.168627 0 0 0 0 0.211765 0 0 0 0.08 0"/>
<feBlend mode="normal" in2="BackgroundImageFix" result="effect1_dropShadow_138_3684"/>
<feColorMatrix in="SourceAlpha" type="matrix" values="0 0 0 0 0 0 0 0 0 0 0 0 0 0 0 0 0 0 127 0" result="hardAlpha"/>
<feMorphology radius="0.557692" operator="dilate" in="SourceAlpha" result="effect2_dropShadow_138_3684"/>
<feOffset/>
<feColorMatrix type="matrix" values="0 0 0 0 0.0235294 0 0 0 0 0.172549 0 0 0 0 0.321569 0 0 0 0.1 0"/>
<feBlend mode="normal" in2="effect1_dropShadow_138_3684" result="effect2_dropShadow_138_3684"/>
<feBlend mode="normal" in="SourceGraphic" in2="effect2_dropShadow_138_3684" result="shape"/>
</filter>
<clipPath id="clip0_138_3684">
<rect width="254.308" height="13" fill="white" transform="translate(123.923 70.0381)"/>
</clipPath>
<clipPath id="clip1_138_3684">
<rect width="13.3846" height="13.3846" fill="white" transform="translate(382.692 69.8457)"/>
</clipPath>
</defs>
</svg>
