<svg width="520" height="300" viewBox="0 0 520 300" fill="none" xmlns="http://www.w3.org/2000/svg">
<rect width="520" height="300" fill="white"/>
<rect x="51" y="85" width="91" height="40" rx="20" fill="#82E578"/>
<path d="M75.7074 102.008H70.8274V104.28H74.9554V106.488H70.8274V108.792H75.8354V111H68.5074V99.8H75.7074V102.008ZM85.5784 111H82.7464L81.0184 108.552L79.2904 111H76.4424L79.6584 106.792L76.6024 102.776H79.4184L81.0184 105.048L82.6024 102.776H85.4184L82.3784 106.792L85.5784 111ZM91.1477 102.584C93.5957 102.584 95.0037 104.504 95.0037 106.808C95.0037 109.096 93.5797 111 91.1637 111C90.0597 111 89.1317 110.6 88.6357 109.928V114.536H86.3637V102.776H88.5717V103.816C88.9717 103.08 89.9477 102.584 91.1477 102.584ZM88.6197 106.792C88.6197 108.072 89.4517 109 90.7157 109C91.9317 109 92.7477 108.072 92.7477 106.792C92.7477 105.56 91.9797 104.584 90.7157 104.584C89.4517 104.584 88.6197 105.512 88.6197 106.792ZM104.438 108.232C104.438 108.824 104.822 109.064 105.222 109.064C105.43 109.064 105.622 109.016 105.814 108.904L106.294 110.552C105.782 110.92 105.19 111.096 104.63 111.096C103.654 111.096 102.774 110.568 102.55 109.56C102.022 110.536 100.982 111.096 99.6384 111.096C97.2704 111.096 95.7824 109.24 95.7824 106.856C95.7824 104.488 97.2064 102.584 99.6544 102.584C100.918 102.584 101.83 103.096 102.246 103.896V102.776H104.438V108.232ZM98.0544 106.84C98.0544 108.168 98.8704 109.096 100.086 109.096C101.334 109.096 102.182 108.184 102.182 106.84C102.182 105.512 101.334 104.584 100.086 104.584C98.8064 104.584 98.0544 105.56 98.0544 106.84ZM107.146 102.776H109.354V103.88C109.85 103.144 110.554 102.584 111.834 102.584C113.514 102.584 114.762 103.576 114.762 105.608V111H112.49V106.088C112.49 105.08 111.93 104.6 111.082 104.6C110.17 104.6 109.418 105.24 109.418 106.52V111H107.146V102.776ZM124.658 111H122.514V109.864C122.05 110.616 121.042 111.096 119.858 111.096C117.426 111.096 116.002 109.192 116.002 106.856C116.002 104.504 117.426 102.584 119.874 102.584C121.058 102.584 121.986 103.064 122.386 103.768V99.8H124.658V111ZM118.274 106.84C118.274 108.168 119.09 109.096 120.306 109.096C121.554 109.096 122.402 108.168 122.402 106.84C122.402 105.512 121.554 104.584 120.306 104.584C119.042 104.584 118.274 105.56 118.274 106.84Z" fill="#144A38"/>
<rect x="51" y="141" width="101" height="40" rx="20" fill="#82E578"/>
<path d="M73.4984 165.032C74.9704 165.032 76.0424 164.184 76.5864 162.76L78.6024 163.624C77.6744 165.928 75.8664 167.256 73.3384 167.256C69.7864 167.256 67.7544 164.68 67.7544 161.56C67.7544 158.344 69.9144 155.544 73.5624 155.544C75.6584 155.544 77.2264 156.424 78.2504 158.072L76.4264 159.432C75.8024 158.36 74.7304 157.752 73.4664 157.752C71.3704 157.752 70.1064 159.368 70.1064 161.384C70.1064 163.576 71.5624 165.032 73.4984 165.032ZM83.5301 158.584C85.9781 158.584 87.7861 160.408 87.7861 162.84C87.7861 165.272 85.9781 167.096 83.5301 167.096C81.0661 167.096 79.2581 165.272 79.2581 162.84C79.2581 160.408 81.0661 158.584 83.5301 158.584ZM81.5301 162.84C81.5301 164.152 82.3141 165.064 83.5301 165.064C84.7461 165.064 85.5301 164.152 85.5301 162.84C85.5301 161.528 84.7461 160.616 83.5301 160.616C82.3141 160.616 81.5301 161.528 81.5301 162.84ZM93.5871 166.584C92.9631 166.92 92.3231 167.096 91.7151 167.096C90.2431 167.096 89.0431 166.12 89.0431 164.264V155.8H91.3151V164.024C91.3151 164.696 91.7151 165.064 92.2751 165.064C92.5151 165.064 92.7871 165 93.0591 164.856L93.5871 166.584ZM98.6889 166.584C98.0649 166.92 97.4249 167.096 96.8169 167.096C95.3449 167.096 94.1449 166.12 94.1449 164.264V155.8H96.4169V164.024C96.4169 164.696 96.8169 165.064 97.3769 165.064C97.6169 165.064 97.8889 165 98.1609 164.856L98.6889 166.584ZM107.579 164.232C107.579 164.824 107.963 165.064 108.363 165.064C108.571 165.064 108.763 165.016 108.955 164.904L109.435 166.552C108.923 166.92 108.331 167.096 107.771 167.096C106.795 167.096 105.915 166.568 105.691 165.56C105.163 166.536 104.123 167.096 102.779 167.096C100.411 167.096 98.9231 165.24 98.9231 162.856C98.9231 160.488 100.347 158.584 102.795 158.584C104.059 158.584 104.971 159.096 105.387 159.896V158.776H107.579V164.232ZM101.195 162.84C101.195 164.168 102.011 165.096 103.227 165.096C104.475 165.096 105.323 164.184 105.323 162.84C105.323 161.512 104.475 160.584 103.227 160.584C101.947 160.584 101.195 161.56 101.195 162.84ZM115.07 158.584C117.518 158.584 118.926 160.504 118.926 162.808C118.926 165.096 117.502 167 115.086 167C113.982 167 113.054 166.6 112.558 165.928V170.536H110.286V158.776H112.494V159.816C112.894 159.08 113.87 158.584 115.07 158.584ZM112.542 162.792C112.542 164.072 113.374 165 114.638 165C115.854 165 116.67 164.072 116.67 162.792C116.67 161.56 115.902 160.584 114.638 160.584C113.374 160.584 112.542 161.512 112.542 162.792ZM125.241 161.224C124.681 160.712 123.897 160.488 123.321 160.488C122.729 160.488 122.345 160.728 122.345 161.144C122.345 161.592 122.761 161.704 123.833 161.912C125.129 162.152 126.825 162.472 126.825 164.312C126.825 166.024 125.353 167.096 123.369 167.096C121.961 167.096 120.585 166.536 119.625 165.576L120.825 163.992C121.545 164.792 122.729 165.144 123.577 165.144C124.185 165.144 124.585 164.952 124.585 164.552C124.585 164.152 124.201 163.992 123.257 163.8C121.961 163.56 120.121 163.224 120.121 161.256C120.121 159.464 121.609 158.584 123.273 158.584C124.441 158.584 125.609 158.984 126.393 159.768L125.241 161.224ZM135.414 163.624H129.814C130.054 164.648 130.774 165.144 131.878 165.144C132.838 165.144 133.526 164.744 134.006 164.2L135.158 165.592C134.262 166.552 133.142 167.096 131.702 167.096C129.19 167.096 127.51 165.464 127.51 162.952C127.51 160.456 129.158 158.584 131.734 158.584C133.974 158.584 135.414 159.976 135.414 162.744V163.624ZM129.782 161.992H133.174C133.158 161.08 132.694 160.456 131.606 160.456C130.598 160.456 129.974 161.016 129.782 161.992Z" fill="#144A38"/>
<rect x="-1.5" y="1.5" width="108" height="47" rx="23.5" transform="matrix(1 0 0 -1 49 186)" stroke="#525199" stroke-width="3"/>
<path d="M52.148 210V200.2H53.562V210H52.148ZM55.4331 202.972H56.7771V204.176C57.2111 203.378 57.9811 202.804 59.2131 202.804C60.7251 202.804 61.7191 203.728 61.7191 205.366V210H60.3471V205.716C60.3471 204.638 59.7591 204.036 58.8071 204.036C57.7291 204.036 56.8051 204.848 56.8051 206.318V210H55.4331V202.972ZM62.6119 202.972H63.9839V202.37C63.9839 200.788 64.9219 199.85 66.3359 199.85C67.0219 199.85 67.6099 200.046 68.1699 200.494L67.5539 201.516C67.2319 201.222 66.8679 201.096 66.4759 201.096C65.8039 201.096 65.3559 201.53 65.3559 202.356V202.972H67.2459V204.204H65.3559V210H63.9839V204.204H62.6119V202.972ZM71.5035 202.804C73.5895 202.804 75.0735 204.344 75.0735 206.444C75.0735 208.53 73.5895 210.084 71.5035 210.084C69.4175 210.084 67.9335 208.53 67.9335 206.444C67.9335 204.344 69.4175 202.804 71.5035 202.804ZM69.3055 206.444C69.3055 207.844 70.1875 208.838 71.5035 208.838C72.8195 208.838 73.7015 207.844 73.7015 206.444C73.7015 205.044 72.8195 204.05 71.5035 204.05C70.1875 204.05 69.3055 205.044 69.3055 206.444ZM76.386 202.972H77.73V204.12C78.066 203.266 78.822 202.874 79.676 202.874C80.012 202.874 80.362 202.93 80.684 203.056L80.46 204.33C80.152 204.204 79.83 204.148 79.55 204.148C78.542 204.148 77.758 204.82 77.758 206.206V210H76.386V202.972ZM81.6295 202.972H82.9735V204.148C83.3655 203.322 84.0655 202.804 85.1155 202.804C86.2215 202.804 86.9915 203.322 87.2995 204.26C87.7335 203.35 88.5455 202.804 89.6515 202.804C91.1495 202.804 92.0315 203.756 92.0315 205.422V210H90.6595V205.688C90.6595 204.652 90.1835 204.036 89.2455 204.036C88.3075 204.036 87.5095 204.708 87.5095 206.206V210H86.1375V205.688C86.1375 204.652 85.6755 204.036 84.7375 204.036C83.7995 204.036 83.0015 204.708 83.0015 206.206V210H81.6295V202.972ZM100.554 207.998C100.554 208.586 100.918 208.838 101.352 208.838C101.548 208.838 101.758 208.782 101.954 208.67L102.29 209.692C101.884 209.958 101.436 210.084 101.016 210.084C100.176 210.084 99.4339 209.566 99.3359 208.642C98.8319 209.594 97.8939 210.084 96.6899 210.084C94.5339 210.084 93.3299 208.404 93.3299 206.472C93.3299 204.54 94.5059 202.804 96.6899 202.804C97.8799 202.804 98.7619 203.294 99.2099 204.148V202.972H100.554V207.998ZM94.7019 206.444C94.7019 207.858 95.5979 208.852 96.9279 208.852C98.2439 208.852 99.1819 207.872 99.1819 206.444C99.1819 205.016 98.2579 204.036 96.8999 204.036C95.4579 204.036 94.7019 205.142 94.7019 206.444ZM102.146 202.972H103.616V201.096H105.002V202.972H107.158V204.204H105.002V207.62C105.002 208.46 105.548 208.838 106.206 208.838C106.584 208.838 107.018 208.712 107.382 208.474L107.774 209.468C107.172 209.888 106.514 210.084 105.87 210.084C104.596 210.084 103.616 209.272 103.616 207.802V204.204H102.146V202.972ZM109.615 199.738C110.189 199.738 110.595 200.158 110.595 200.704C110.595 201.236 110.189 201.642 109.615 201.642C109.041 201.642 108.635 201.236 108.635 200.704C108.635 200.158 109.041 199.738 109.615 199.738ZM108.929 210V202.972H110.301V210H108.929ZM115.31 202.804C117.396 202.804 118.88 204.344 118.88 206.444C118.88 208.53 117.396 210.084 115.31 210.084C113.224 210.084 111.74 208.53 111.74 206.444C111.74 204.344 113.224 202.804 115.31 202.804ZM113.112 206.444C113.112 207.844 113.994 208.838 115.31 208.838C116.626 208.838 117.508 207.844 117.508 206.444C117.508 205.044 116.626 204.05 115.31 204.05C113.994 204.05 113.112 205.044 113.112 206.444ZM120.192 202.972H121.536V204.176C121.97 203.378 122.74 202.804 123.972 202.804C125.484 202.804 126.478 203.728 126.478 205.366V210H125.106V205.716C125.106 204.638 124.518 204.036 123.566 204.036C122.488 204.036 121.564 204.848 121.564 206.318V210H120.192V202.972ZM132.271 199.738C132.845 199.738 133.251 200.158 133.251 200.704C133.251 201.236 132.845 201.642 132.271 201.642C131.697 201.642 131.291 201.236 131.291 200.704C131.291 200.158 131.697 199.738 132.271 199.738ZM131.585 210V202.972H132.957V210H131.585ZM139.057 204.708C138.581 204.218 137.839 203.994 137.237 203.994C136.523 203.994 136.033 204.316 136.033 204.876C136.033 205.52 136.705 205.674 137.685 205.884C138.833 206.122 140.205 206.374 140.205 207.858C140.205 209.272 138.959 210.084 137.419 210.084C136.271 210.084 135.095 209.608 134.325 208.712L135.151 207.76C135.725 208.53 136.733 208.866 137.545 208.866C138.259 208.866 138.833 208.6 138.833 208.026C138.833 207.424 138.245 207.256 137.349 207.074C136.173 206.836 134.675 206.542 134.675 204.96C134.675 203.504 135.893 202.804 137.251 202.804C138.175 202.804 139.141 203.126 139.799 203.798L139.057 204.708ZM144.687 202.972H146.031V204.176C146.465 203.378 147.235 202.804 148.467 202.804C149.979 202.804 150.973 203.728 150.973 205.366V210H149.601V205.716C149.601 204.638 149.013 204.036 148.061 204.036C146.983 204.036 146.059 204.848 146.059 206.318V210H144.687V202.972ZM155.856 202.804C157.942 202.804 159.426 204.344 159.426 206.444C159.426 208.53 157.942 210.084 155.856 210.084C153.77 210.084 152.286 208.53 152.286 206.444C152.286 204.344 153.77 202.804 155.856 202.804ZM153.658 206.444C153.658 207.844 154.54 208.838 155.856 208.838C157.172 208.838 158.054 207.844 158.054 206.444C158.054 205.044 157.172 204.05 155.856 204.05C154.54 204.05 153.658 205.044 153.658 206.444ZM169.758 202.972H171.298L168.694 210H167.406L165.6 204.96L163.78 210H162.506L159.902 202.972H161.372L163.15 208.152L164.928 202.972H166.272L168.05 208.138L169.758 202.972ZM175.313 202.972H176.657V204.12C176.993 203.266 177.749 202.874 178.603 202.874C178.939 202.874 179.289 202.93 179.611 203.056L179.387 204.33C179.079 204.204 178.757 204.148 178.477 204.148C177.469 204.148 176.685 204.82 176.685 206.206V210H175.313V202.972ZM186.512 206.906H181.29C181.458 208.208 182.298 208.866 183.53 208.866C184.454 208.866 185.126 208.46 185.574 207.83L186.344 208.656C185.616 209.566 184.678 210.084 183.418 210.084C181.234 210.084 179.918 208.558 179.918 206.528C179.918 204.512 181.206 202.804 183.432 202.804C185.336 202.804 186.512 204.036 186.512 206.22V206.906ZM181.29 205.856H185.14C185.14 204.652 184.552 203.966 183.376 203.966C182.186 203.966 181.458 204.68 181.29 205.856ZM192.447 202.972H193.945L191.075 210H189.857L186.987 202.972H188.485L190.473 208.166L192.447 202.972ZM200.868 206.906H195.646C195.814 208.208 196.654 208.866 197.886 208.866C198.81 208.866 199.482 208.46 199.93 207.83L200.7 208.656C199.972 209.566 199.034 210.084 197.774 210.084C195.59 210.084 194.274 208.558 194.274 206.528C194.274 204.512 195.562 202.804 197.788 202.804C199.692 202.804 200.868 204.036 200.868 206.22V206.906ZM195.646 205.856H199.496C199.496 204.652 198.908 203.966 197.732 203.966C196.542 203.966 195.814 204.68 195.646 205.856ZM208.983 207.998C208.983 208.586 209.347 208.838 209.781 208.838C209.977 208.838 210.187 208.782 210.383 208.67L210.719 209.692C210.313 209.958 209.865 210.084 209.445 210.084C208.605 210.084 207.863 209.566 207.765 208.642C207.261 209.594 206.323 210.084 205.119 210.084C202.963 210.084 201.759 208.404 201.759 206.472C201.759 204.54 202.935 202.804 205.119 202.804C206.309 202.804 207.191 203.294 207.639 204.148V202.972H208.983V207.998ZM203.131 206.444C203.131 207.858 204.027 208.852 205.357 208.852C206.673 208.852 207.611 207.872 207.611 206.444C207.611 205.016 206.687 204.036 205.329 204.036C203.887 204.036 203.131 205.142 203.131 206.444ZM215.216 209.664C214.726 209.944 214.222 210.084 213.746 210.084C212.612 210.084 211.688 209.3 211.688 207.872V200.2H213.06V207.718C213.06 208.446 213.494 208.838 214.04 208.838C214.306 208.838 214.586 208.768 214.866 208.614L215.216 209.664ZM222.217 206.906H216.995C217.163 208.208 218.003 208.866 219.235 208.866C220.159 208.866 220.831 208.46 221.279 207.83L222.049 208.656C221.321 209.566 220.383 210.084 219.123 210.084C216.939 210.084 215.623 208.558 215.623 206.528C215.623 204.512 216.911 202.804 219.137 202.804C221.041 202.804 222.217 204.036 222.217 206.22V206.906ZM216.995 205.856H220.845C220.845 204.652 220.257 203.966 219.081 203.966C217.891 203.966 217.163 204.68 216.995 205.856ZM230.333 210H229.003V208.768C228.541 209.594 227.617 210.084 226.455 210.084C224.271 210.084 223.109 208.376 223.109 206.458C223.109 204.54 224.285 202.804 226.469 202.804C227.617 202.804 228.513 203.28 228.947 204.078V200.2H230.333V210ZM224.481 206.444C224.481 207.858 225.363 208.852 226.693 208.852C228.037 208.852 228.961 207.858 228.961 206.444C228.961 205.03 228.037 204.036 226.679 204.036C225.251 204.036 224.481 205.142 224.481 206.444ZM241.282 202.972V210H239.938V208.712C239.49 209.51 238.776 210.084 237.586 210.084C236.088 210.084 235.038 209.174 235.038 207.424V202.972H236.41V207.13C236.41 208.264 236.984 208.852 237.922 208.852C239.042 208.852 239.91 207.998 239.91 206.57V202.972H241.282ZM247.261 204.708C246.785 204.218 246.043 203.994 245.441 203.994C244.727 203.994 244.237 204.316 244.237 204.876C244.237 205.52 244.909 205.674 245.889 205.884C247.037 206.122 248.409 206.374 248.409 207.858C248.409 209.272 247.163 210.084 245.623 210.084C244.475 210.084 243.299 209.608 242.529 208.712L243.355 207.76C243.929 208.53 244.937 208.866 245.749 208.866C246.463 208.866 247.037 208.6 247.037 208.026C247.037 207.424 246.449 207.256 245.553 207.074C244.377 206.836 242.879 206.542 242.879 204.96C242.879 203.504 244.097 202.804 245.455 202.804C246.379 202.804 247.345 203.126 248.003 203.798L247.261 204.708ZM250.455 199.738C251.029 199.738 251.435 200.158 251.435 200.704C251.435 201.236 251.029 201.642 250.455 201.642C249.881 201.642 249.475 201.236 249.475 200.704C249.475 200.158 249.881 199.738 250.455 199.738ZM249.769 210V202.972H251.141V210H249.769ZM253 202.972H254.344V204.176C254.778 203.378 255.548 202.804 256.78 202.804C258.292 202.804 259.286 203.728 259.286 205.366V210H257.914V205.716C257.914 204.638 257.326 204.036 256.374 204.036C255.296 204.036 254.372 204.848 254.372 206.318V210H253V202.972ZM266.591 202.972H267.935V209.748C267.935 211.918 266.409 213.29 264.281 213.29C262.531 213.29 261.145 212.366 260.641 210.924L261.873 210.35C262.223 211.414 263.175 212.044 264.323 212.044C265.681 212.044 266.563 211.232 266.563 209.902V208.6C266.087 209.44 265.247 209.86 264.057 209.86C262.013 209.86 260.641 208.432 260.641 206.346C260.641 204.428 261.873 202.804 264.057 202.804C265.247 202.804 266.157 203.224 266.591 204.022V202.972ZM262.027 206.318C262.027 207.606 262.825 208.642 264.281 208.642C265.625 208.642 266.563 207.732 266.563 206.318C266.563 204.918 265.639 204.022 264.267 204.022C262.951 204.022 262.027 204.918 262.027 206.318ZM271.787 202.972H273.257V201.096H274.643V202.972H276.799V204.204H274.643V207.62C274.643 208.46 275.189 208.838 275.847 208.838C276.225 208.838 276.659 208.712 277.023 208.474L277.415 209.468C276.813 209.888 276.155 210.084 275.511 210.084C274.237 210.084 273.257 209.272 273.257 207.802V204.204H271.787V202.972ZM278.444 200.2H279.816V204.148C280.25 203.35 281.02 202.804 282.224 202.804C283.736 202.804 284.73 203.728 284.73 205.366V210H283.358V205.716C283.358 204.638 282.77 204.036 281.818 204.036C280.74 204.036 279.816 204.834 279.816 206.29V210H278.444V200.2ZM292.637 206.906H287.415C287.583 208.208 288.423 208.866 289.655 208.866C290.579 208.866 291.251 208.46 291.699 207.83L292.469 208.656C291.741 209.566 290.803 210.084 289.543 210.084C287.359 210.084 286.043 208.558 286.043 206.528C286.043 204.512 287.331 202.804 289.557 202.804C291.461 202.804 292.637 204.036 292.637 206.22V206.906ZM287.415 205.856H291.265C291.265 204.652 290.677 203.966 289.501 203.966C288.311 203.966 287.583 204.68 287.415 205.856ZM302.823 206.906H297.601C297.769 208.208 298.609 208.866 299.841 208.866C300.765 208.866 301.437 208.46 301.885 207.83L302.655 208.656C301.927 209.566 300.989 210.084 299.729 210.084C297.545 210.084 296.229 208.558 296.229 206.528C296.229 204.512 297.517 202.804 299.743 202.804C301.647 202.804 302.823 204.036 302.823 206.22V206.906ZM297.601 205.856H301.451C301.451 204.652 300.863 203.966 299.687 203.966C298.497 203.966 297.769 204.68 297.601 205.856ZM310.41 210H308.688L306.798 207.466L304.88 210H303.158L305.958 206.402L303.298 202.972H305.006L306.798 205.352L308.562 202.972H310.27L307.61 206.402L310.41 210ZM315.17 202.804C317.368 202.804 318.516 204.54 318.516 206.416C318.516 208.292 317.34 210 315.156 210C314.036 210 313.168 209.538 312.678 208.768V213.094H311.306V202.972H312.65V204.134C313.098 203.308 314.022 202.804 315.17 202.804ZM312.678 206.402C312.678 207.774 313.588 208.768 314.946 208.768C316.262 208.768 317.144 207.774 317.144 206.402C317.144 205.142 316.388 204.036 314.946 204.036C313.588 204.036 312.678 205.03 312.678 206.402ZM326.635 207.998C326.635 208.586 326.999 208.838 327.433 208.838C327.629 208.838 327.839 208.782 328.035 208.67L328.371 209.692C327.965 209.958 327.517 210.084 327.097 210.084C326.257 210.084 325.515 209.566 325.417 208.642C324.913 209.594 323.975 210.084 322.771 210.084C320.615 210.084 319.411 208.404 319.411 206.472C319.411 204.54 320.587 202.804 322.771 202.804C323.961 202.804 324.843 203.294 325.291 204.148V202.972H326.635V207.998ZM320.783 206.444C320.783 207.858 321.679 208.852 323.009 208.852C324.325 208.852 325.263 207.872 325.263 206.444C325.263 205.016 324.339 204.036 322.981 204.036C321.539 204.036 320.783 205.142 320.783 206.444ZM329.34 202.972H330.684V204.176C331.118 203.378 331.888 202.804 333.12 202.804C334.632 202.804 335.626 203.728 335.626 205.366V210H334.254V205.716C334.254 204.638 333.666 204.036 332.714 204.036C331.636 204.036 330.712 204.848 330.712 206.318V210H329.34V202.972ZM344.163 210H342.833V208.768C342.371 209.594 341.447 210.084 340.285 210.084C338.101 210.084 336.939 208.376 336.939 206.458C336.939 204.54 338.115 202.804 340.299 202.804C341.447 202.804 342.343 203.28 342.777 204.078V200.2H344.163V210ZM338.311 206.444C338.311 207.858 339.193 208.852 340.523 208.852C341.867 208.852 342.791 207.858 342.791 206.444C342.791 205.03 341.867 204.036 340.509 204.036C339.081 204.036 338.311 205.142 338.311 206.444ZM352.071 206.906H346.849C347.017 208.208 347.857 208.866 349.089 208.866C350.013 208.866 350.685 208.46 351.133 207.83L351.903 208.656C351.175 209.566 350.237 210.084 348.977 210.084C346.793 210.084 345.477 208.558 345.477 206.528C345.477 204.512 346.765 202.804 348.991 202.804C350.895 202.804 352.071 204.036 352.071 206.22V206.906ZM346.849 205.856H350.699C350.699 204.652 350.111 203.966 348.935 203.966C347.745 203.966 347.017 204.68 346.849 205.856ZM353.383 202.972H354.727V204.12C355.063 203.266 355.819 202.874 356.673 202.874C357.009 202.874 357.359 202.93 357.681 203.056L357.457 204.33C357.149 204.204 356.827 204.148 356.547 204.148C355.539 204.148 354.755 204.82 354.755 206.206V210H353.383V202.972ZM358.899 208.138C359.487 208.138 359.893 208.572 359.893 209.118C359.893 209.664 359.487 210.084 358.899 210.084C358.311 210.084 357.905 209.664 357.905 209.118C357.905 208.572 358.311 208.138 358.899 208.138Z" fill="#434343"/>
</svg>
