<svg width="520" height="300" viewBox="0 0 520 300" fill="none" xmlns="http://www.w3.org/2000/svg">
<rect width="520" height="300" fill="white"/>
<path d="M95.4219 44.8969H92.4893V48H90.8411V40.0433H95.9561V41.6119H92.4893V43.3283H95.4219V44.8969ZM97.8585 39.4864C98.4723 39.4864 98.9042 39.9297 98.9042 40.498C98.9042 41.055 98.4723 41.4983 97.8585 41.4983C97.2447 41.4983 96.8014 41.055 96.8014 40.498C96.8014 39.9297 97.2447 39.4864 97.8585 39.4864ZM97.0514 48V42.1575H98.6655V48H97.0514ZM103.203 47.7045C102.759 47.9432 102.305 48.0682 101.873 48.0682C100.827 48.0682 99.9744 47.3748 99.9744 46.0563V40.0433H101.588V45.8858C101.588 46.3632 101.873 46.6246 102.27 46.6246C102.441 46.6246 102.634 46.5792 102.827 46.4769L103.203 47.7045ZM108.984 45.6016H105.006C105.176 46.3291 105.688 46.6815 106.472 46.6815C107.154 46.6815 107.643 46.3973 107.984 46.0108L108.802 46.9997C108.166 47.6817 107.37 48.0682 106.347 48.0682C104.562 48.0682 103.369 46.9088 103.369 45.1242C103.369 43.351 104.54 42.0211 106.37 42.0211C107.961 42.0211 108.984 43.01 108.984 44.9765V45.6016ZM104.983 44.4422H107.393C107.381 43.7943 107.052 43.351 106.279 43.351C105.563 43.351 105.119 43.7489 104.983 44.4422ZM116.919 40.0433H118.578V45.147C118.578 46.9315 117.521 48.1705 115.396 48.1705C113.259 48.1705 112.213 46.9315 112.213 45.147V40.0433H113.861V45.0219C113.861 46.0108 114.452 46.6019 115.396 46.6019C116.339 46.6019 116.919 46.0108 116.919 45.0219V40.0433ZM123.21 42.0211C124.949 42.0211 125.949 43.3851 125.949 45.0219C125.949 46.6474 124.938 48 123.221 48C122.437 48 121.778 47.7158 121.426 47.2384V50.512H119.811V42.1575H121.38V42.8964C121.664 42.3735 122.358 42.0211 123.21 42.0211ZM121.414 45.0106C121.414 45.9199 122.005 46.5792 122.903 46.5792C123.767 46.5792 124.347 45.9199 124.347 45.0106C124.347 44.1353 123.801 43.442 122.903 43.442C122.005 43.442 121.414 44.1012 121.414 45.0106ZM130.072 47.7045C129.629 47.9432 129.174 48.0682 128.742 48.0682C127.696 48.0682 126.844 47.3748 126.844 46.0563V40.0433H128.458V45.8858C128.458 46.3632 128.742 46.6246 129.14 46.6246C129.31 46.6246 129.504 46.5792 129.697 46.4769L130.072 47.7045ZM133.273 42.0211C135.012 42.0211 136.297 43.3169 136.297 45.0447C136.297 46.7724 135.012 48.0682 133.273 48.0682C131.523 48.0682 130.238 46.7724 130.238 45.0447C130.238 43.3169 131.523 42.0211 133.273 42.0211ZM131.852 45.0447C131.852 45.9767 132.409 46.6246 133.273 46.6246C134.137 46.6246 134.694 45.9767 134.694 45.0447C134.694 44.1126 134.137 43.4647 133.273 43.4647C132.409 43.4647 131.852 44.1126 131.852 45.0447ZM142.998 46.0336C142.998 46.4541 143.271 46.6246 143.555 46.6246C143.703 46.6246 143.839 46.5905 143.976 46.511L144.317 47.6817C143.953 47.9432 143.532 48.0682 143.134 48.0682C142.441 48.0682 141.816 47.6931 141.657 46.977C141.282 47.6704 140.543 48.0682 139.588 48.0682C137.906 48.0682 136.849 46.7497 136.849 45.056C136.849 43.3738 137.86 42.0211 139.599 42.0211C140.497 42.0211 141.145 42.3849 141.441 42.9532V42.1575H142.998V46.0336ZM138.463 45.0447C138.463 45.9881 139.042 46.6474 139.906 46.6474C140.793 46.6474 141.395 45.9995 141.395 45.0447C141.395 44.1012 140.793 43.442 139.906 43.442C138.997 43.442 138.463 44.1353 138.463 45.0447ZM150.619 48H149.095V47.193C148.766 47.7272 148.05 48.0682 147.209 48.0682C145.481 48.0682 144.469 46.7156 144.469 45.056C144.469 43.3851 145.481 42.0211 147.22 42.0211C148.061 42.0211 148.72 42.3621 149.004 42.8623V40.0433H150.619V48ZM146.083 45.0447C146.083 45.9881 146.663 46.6474 147.527 46.6474C148.413 46.6474 149.016 45.9881 149.016 45.0447C149.016 44.1012 148.413 43.442 147.527 43.442C146.629 43.442 146.083 44.1353 146.083 45.0447Z" fill="#144A38"/>
<path d="M94.3165 63.233C93.9485 62.7755 93.3617 62.5269 92.7948 62.5269C92.0986 62.5269 91.5714 62.8849 91.5714 63.5314C91.5714 64.2972 92.3273 64.5359 93.0932 64.7746C94.2767 65.1227 95.2116 65.4907 95.2116 66.7439C95.2116 68.1164 94.1375 68.8425 92.8743 68.8425C92.0091 68.8425 91.0543 68.4844 90.4177 67.6788L91.1338 66.9528C91.5814 67.5694 92.2875 67.8678 92.934 67.8678C93.6899 67.8678 94.1872 67.4501 94.1872 66.8633C94.1872 66.1671 93.4711 65.9284 92.7053 65.6897C91.5018 65.3217 90.557 64.9139 90.557 63.6806C90.557 62.3479 91.5814 61.5621 92.8445 61.5621C93.6402 61.5621 94.4358 61.8903 94.9829 62.5368L94.3165 63.233ZM100.487 63.6905V68.6833H99.5321V67.7683C99.2139 68.3352 98.7066 68.743 97.8612 68.743C96.797 68.743 96.0511 68.0965 96.0511 66.8533V63.6905H97.0258V66.6445C97.0258 67.4501 97.4336 67.8678 98.0999 67.8678C98.8956 67.8678 99.5123 67.2611 99.5123 66.2466V63.6905H100.487ZM104.466 63.5712C106.028 63.5712 106.843 64.8045 106.843 66.1372C106.843 67.47 106.008 68.6833 104.456 68.6833C103.66 68.6833 103.044 68.3551 102.696 67.8081V70.8814H101.721V63.6905H102.676V64.516C102.994 63.9292 103.651 63.5712 104.466 63.5712ZM102.696 66.1273C102.696 67.102 103.342 67.8081 104.307 67.8081C105.242 67.8081 105.868 67.102 105.868 66.1273C105.868 65.2321 105.331 64.4464 104.307 64.4464C103.342 64.4464 102.696 65.1526 102.696 66.1273ZM110.522 63.5712C112.084 63.5712 112.899 64.8045 112.899 66.1372C112.899 67.47 112.064 68.6833 110.512 68.6833C109.717 68.6833 109.1 68.3551 108.752 67.8081V70.8814H107.777V63.6905H108.732V64.516C109.05 63.9292 109.707 63.5712 110.522 63.5712ZM108.752 66.1273C108.752 67.102 109.398 67.8081 110.363 67.8081C111.298 67.8081 111.925 67.102 111.925 66.1273C111.925 65.2321 111.387 64.4464 110.363 64.4464C109.398 64.4464 108.752 65.1526 108.752 66.1273ZM116.071 63.5712C117.553 63.5712 118.607 64.6652 118.607 66.1571C118.607 67.639 117.553 68.743 116.071 68.743C114.589 68.743 113.535 67.639 113.535 66.1571C113.535 64.6652 114.589 63.5712 116.071 63.5712ZM114.509 66.1571C114.509 67.1517 115.136 67.8578 116.071 67.8578C117.006 67.8578 117.632 67.1517 117.632 66.1571C117.632 65.1625 117.006 64.4564 116.071 64.4564C115.136 64.4564 114.509 65.1625 114.509 66.1571ZM119.54 63.6905H120.494V64.5061C120.733 63.8994 121.27 63.6209 121.877 63.6209C122.116 63.6209 122.364 63.6607 122.593 63.7502L122.434 64.6553C122.215 64.5658 121.986 64.526 121.787 64.526C121.071 64.526 120.514 65.0034 120.514 65.988V68.6833H119.54V63.6905ZM122.862 63.6905H123.906V62.3578H124.891V63.6905H126.423V64.5658H124.891V66.9926C124.891 67.5893 125.279 67.8578 125.746 67.8578C126.015 67.8578 126.323 67.7683 126.582 67.5993L126.86 68.3054C126.433 68.6038 125.965 68.743 125.508 68.743C124.603 68.743 123.906 68.1662 123.906 67.1219V64.5658H122.862V63.6905ZM131.823 66.4853H128.113C128.232 67.4103 128.829 67.8777 129.704 67.8777C130.361 67.8777 130.838 67.5893 131.156 67.1417L131.703 67.7285C131.186 68.375 130.52 68.743 129.625 68.743C128.073 68.743 127.138 67.6589 127.138 66.2168C127.138 64.7846 128.053 63.5712 129.634 63.5712C130.987 63.5712 131.823 64.4464 131.823 65.998V66.4853ZM128.113 65.7394H130.848C130.848 64.884 130.43 64.3967 129.595 64.3967C128.749 64.3967 128.232 64.9039 128.113 65.7394ZM137.588 68.6833H136.643V67.8081C136.315 68.3949 135.659 68.743 134.833 68.743C133.281 68.743 132.456 67.5296 132.456 66.1671C132.456 64.8045 133.291 63.5712 134.843 63.5712C135.659 63.5712 136.295 63.9093 136.603 64.4763V61.7213H137.588V68.6833ZM133.431 66.1571C133.431 67.1616 134.057 67.8678 135.002 67.8678C135.957 67.8678 136.613 67.1616 136.613 66.1571C136.613 65.1526 135.957 64.4464 134.992 64.4464C133.978 64.4464 133.431 65.2321 133.431 66.1571ZM140.433 63.6905H141.408V63.2629C141.408 62.139 142.074 61.4726 143.079 61.4726C143.566 61.4726 143.984 61.6119 144.382 61.9301L143.944 62.6562C143.715 62.4473 143.457 62.3578 143.178 62.3578C142.701 62.3578 142.383 62.6661 142.383 63.2529V63.6905H143.725V64.5658H142.383V68.6833H141.408V64.5658H140.433V63.6905ZM145.361 61.3931C145.769 61.3931 146.057 61.6914 146.057 62.0793C146.057 62.4573 145.769 62.7457 145.361 62.7457C144.953 62.7457 144.665 62.4573 144.665 62.0793C144.665 61.6914 144.953 61.3931 145.361 61.3931ZM144.874 68.6833V63.6905H145.848V68.6833H144.874ZM149.675 68.4446C149.327 68.6436 148.969 68.743 148.631 68.743C147.825 68.743 147.169 68.1861 147.169 67.1716V61.7213H148.143V67.0622C148.143 67.5794 148.452 67.8578 148.84 67.8578C149.029 67.8578 149.228 67.8081 149.427 67.6987L149.675 68.4446ZM154.649 66.4853H150.939C151.058 67.4103 151.655 67.8777 152.53 67.8777C153.187 67.8777 153.664 67.5893 153.982 67.1417L154.529 67.7285C154.012 68.375 153.346 68.743 152.451 68.743C150.899 68.743 149.964 67.6589 149.964 66.2168C149.964 64.7846 150.879 63.5712 152.461 63.5712C153.813 63.5712 154.649 64.4464 154.649 65.998V66.4853ZM150.939 65.7394H153.674C153.674 64.884 153.256 64.3967 152.421 64.3967C151.575 64.3967 151.058 64.9039 150.939 65.7394ZM156.999 63.6905H158.044V62.3578H159.028V63.6905H160.56V64.5658H159.028V66.9926C159.028 67.5893 159.416 67.8578 159.884 67.8578C160.152 67.8578 160.46 67.7683 160.719 67.5993L160.997 68.3054C160.57 68.6038 160.102 68.743 159.645 68.743C158.74 68.743 158.044 68.1662 158.044 67.1219V64.5658H156.999V63.6905ZM165.23 63.6905H166.205V68.5043C166.205 70.1155 165.15 71.0107 163.748 71.0107C162.584 71.0107 161.679 70.4338 161.331 69.3398L162.216 68.9618C162.455 69.7575 163.012 70.1255 163.778 70.1255C164.653 70.1255 165.23 69.6083 165.23 68.6237V67.6092C164.932 68.2059 164.325 68.564 163.559 68.564C162.554 68.564 161.639 67.9175 161.639 66.6445V63.6905H162.614V66.4356C162.614 67.2213 163.092 67.6788 163.798 67.6788C164.613 67.6788 165.23 67.0423 165.23 66.0676V63.6905ZM170.18 63.5712C171.742 63.5712 172.557 64.8045 172.557 66.1372C172.557 67.47 171.722 68.6833 170.17 68.6833C169.375 68.6833 168.758 68.3551 168.41 67.8081V70.8814H167.435V63.6905H168.39V64.516C168.708 63.9292 169.365 63.5712 170.18 63.5712ZM168.41 66.1273C168.41 67.102 169.057 67.8081 170.021 67.8081C170.956 67.8081 171.583 67.102 171.583 66.1273C171.583 65.2321 171.046 64.4464 170.021 64.4464C169.057 64.4464 168.41 65.1526 168.41 66.1273ZM177.878 66.4853H174.168C174.287 67.4103 174.884 67.8777 175.759 67.8777C176.416 67.8777 176.893 67.5893 177.211 67.1417L177.758 67.7285C177.241 68.375 176.575 68.743 175.68 68.743C174.128 68.743 173.193 67.6589 173.193 66.2168C173.193 64.7846 174.108 63.5712 175.689 63.5712C177.042 63.5712 177.878 64.4464 177.878 65.998V66.4853ZM174.168 65.7394H176.903C176.903 64.884 176.485 64.3967 175.65 64.3967C174.804 64.3967 174.287 64.9039 174.168 65.7394ZM181.823 64.9238C181.485 64.5757 180.958 64.4166 180.53 64.4166C180.023 64.4166 179.675 64.6453 179.675 65.0432C179.675 65.5007 180.152 65.6101 180.848 65.7593C181.664 65.9284 182.639 66.1074 182.639 67.1616C182.639 68.1662 181.753 68.743 180.659 68.743C179.844 68.743 179.008 68.4049 178.461 67.7683L179.048 67.092C179.456 67.639 180.172 67.8777 180.749 67.8777C181.256 67.8777 181.664 67.6888 181.664 67.281C181.664 66.8533 181.246 66.734 180.61 66.6047C179.774 66.4356 178.71 66.2267 178.71 65.1028C178.71 64.0685 179.575 63.5712 180.54 63.5712C181.196 63.5712 181.883 63.7999 182.35 64.2773L181.823 64.9238ZM184.222 63.4916C184.639 63.4916 184.928 63.7999 184.928 64.1878C184.928 64.5757 184.639 64.8741 184.222 64.8741C183.804 64.8741 183.515 64.5757 183.515 64.1878C183.515 63.7999 183.804 63.4916 184.222 63.4916ZM183.515 68.0568C183.515 67.6689 183.804 67.3606 184.222 67.3606C184.639 67.3606 184.928 67.6689 184.928 68.0568C184.928 68.4446 184.639 68.743 184.222 68.743C183.804 68.743 183.515 68.4446 183.515 68.0568ZM191.214 63.5712C192.776 63.5712 193.591 64.8045 193.591 66.1372C193.591 67.47 192.756 68.6833 191.204 68.6833C190.409 68.6833 189.792 68.3551 189.444 67.8081V70.8814H188.469V63.6905H189.424V64.516C189.742 63.9292 190.399 63.5712 191.214 63.5712ZM189.444 66.1273C189.444 67.102 190.09 67.8081 191.055 67.8081C191.99 67.8081 192.617 67.102 192.617 66.1273C192.617 65.2321 192.08 64.4464 191.055 64.4464C190.09 64.4464 189.444 65.1526 189.444 66.1273ZM194.525 63.6905H195.48V64.5459C195.788 63.979 196.335 63.5712 197.211 63.5712C198.285 63.5712 198.991 64.2276 198.991 65.3913V68.6833H198.016V65.6399C198.016 64.8741 197.599 64.4464 196.922 64.4464C196.156 64.4464 195.5 65.0233 195.5 66.0676V68.6833H194.525V63.6905ZM204.181 63.6905H205.135V68.5043C205.135 70.0459 204.051 71.0206 202.539 71.0206C201.296 71.0206 200.312 70.3642 199.954 69.3398L200.829 68.932C201.077 69.6879 201.754 70.1354 202.569 70.1354C203.534 70.1354 204.161 69.5586 204.161 68.6137V67.6888C203.822 68.2855 203.226 68.5839 202.38 68.5839C200.928 68.5839 199.954 67.5694 199.954 66.0875C199.954 64.7249 200.829 63.5712 202.38 63.5712C203.226 63.5712 203.872 63.8696 204.181 64.4365V63.6905ZM200.938 66.0676C200.938 66.9826 201.505 67.7186 202.539 67.7186C203.494 67.7186 204.161 67.0721 204.161 66.0676C204.161 65.073 203.504 64.4365 202.529 64.4365C201.595 64.4365 200.938 65.073 200.938 66.0676ZM205.761 70.0658L206.776 67.281L207.751 67.6689L206.557 70.3841L205.761 70.0658ZM213.443 63.5712C215.004 63.5712 215.82 64.8045 215.82 66.1372C215.82 67.47 214.984 68.6833 213.433 68.6833C212.637 68.6833 212.021 68.3551 211.673 67.8081V70.8814H210.698V63.6905H211.653V64.516C211.971 63.9292 212.627 63.5712 213.443 63.5712ZM211.673 66.1273C211.673 67.102 212.319 67.8081 213.284 67.8081C214.219 67.8081 214.845 67.102 214.845 66.1273C214.845 65.2321 214.308 64.4464 213.284 64.4464C212.319 64.4464 211.673 65.1526 211.673 66.1273ZM221.588 68.6833H220.643V67.8081C220.315 68.3949 219.658 68.743 218.833 68.743C217.281 68.743 216.456 67.5296 216.456 66.1671C216.456 64.8045 217.291 63.5712 218.843 63.5712C219.658 63.5712 220.295 63.9093 220.603 64.4763V61.7213H221.588V68.6833ZM217.43 66.1571C217.43 67.1616 218.057 67.8678 219.002 67.8678C219.956 67.8678 220.613 67.1616 220.613 66.1571C220.613 65.1526 219.956 64.4464 218.992 64.4464C217.977 64.4464 217.43 65.2321 217.43 66.1571ZM222.223 63.6905H223.198V63.2629C223.198 62.139 223.864 61.4726 224.869 61.4726C225.356 61.4726 225.774 61.6119 226.171 61.9301L225.734 62.6562C225.505 62.4473 225.246 62.3578 224.968 62.3578C224.491 62.3578 224.172 62.6661 224.172 63.2529V63.6905H225.515V64.5658H224.172V68.6833H223.198V64.5658H222.223V63.6905ZM225.805 70.0658L226.819 67.281L227.794 67.6689L226.6 70.3841L225.805 70.0658ZM231.368 61.3931C231.785 61.3931 232.064 61.6914 232.064 62.0793C232.064 62.4573 231.785 62.7457 231.368 62.7457C230.96 62.7457 230.671 62.4573 230.671 62.0793C230.671 61.6914 230.96 61.3931 231.368 61.3931ZM229.349 70.7421L229.657 69.9564C229.856 70.0857 230.055 70.1354 230.234 70.1354C230.612 70.1354 230.89 69.8669 230.89 69.3994V63.6905H231.865V69.3994C231.865 70.4338 231.218 71.0206 230.383 71.0206C230.035 71.0206 229.717 70.9311 229.349 70.7421ZM235.939 63.5712C237.5 63.5712 238.316 64.8045 238.316 66.1372C238.316 67.47 237.48 68.6833 235.929 68.6833C235.133 68.6833 234.516 68.3551 234.168 67.8081V70.8814H233.194V63.6905H234.148V64.516C234.467 63.9292 235.123 63.5712 235.939 63.5712ZM234.168 66.1273C234.168 67.102 234.815 67.8081 235.78 67.8081C236.714 67.8081 237.341 67.102 237.341 66.1273C237.341 65.2321 236.804 64.4464 235.78 64.4464C234.815 64.4464 234.168 65.1526 234.168 66.1273ZM243.208 63.6905H244.163V68.5043C244.163 70.0459 243.079 71.0206 241.567 71.0206C240.324 71.0206 239.339 70.3642 238.981 69.3398L239.856 68.932C240.105 69.6879 240.781 70.1354 241.597 70.1354C242.562 70.1354 243.188 69.5586 243.188 68.6137V67.6888C242.85 68.2855 242.253 68.5839 241.408 68.5839C239.956 68.5839 238.981 67.5694 238.981 66.0875C238.981 64.7249 239.856 63.5712 241.408 63.5712C242.253 63.5712 242.9 63.8696 243.208 64.4365V63.6905ZM239.966 66.0676C239.966 66.9826 240.533 67.7186 241.567 67.7186C242.522 67.7186 243.188 67.0721 243.188 66.0676C243.188 65.073 242.532 64.4365 241.557 64.4365C240.622 64.4365 239.966 65.073 239.966 66.0676ZM244.789 70.0658L245.804 67.281L246.778 67.6689L245.585 70.3841L244.789 70.0658ZM253.917 66.4853H250.208C250.327 67.4103 250.924 67.8777 251.799 67.8777C252.455 67.8777 252.933 67.5893 253.251 67.1417L253.798 67.7285C253.281 68.375 252.614 68.743 251.719 68.743C250.168 68.743 249.233 67.6589 249.233 66.2168C249.233 64.7846 250.148 63.5712 251.729 63.5712C253.082 63.5712 253.917 64.4464 253.917 65.998V66.4853ZM250.208 65.7394H252.943C252.943 64.884 252.525 64.3967 251.689 64.3967C250.844 64.3967 250.327 64.9039 250.208 65.7394ZM254.194 63.6905H255.238V62.3578H256.223V63.6905H257.755V64.5658H256.223V66.9926C256.223 67.5893 256.611 67.8578 257.078 67.8578C257.347 67.8578 257.655 67.7683 257.914 67.5993L258.192 68.3054C257.765 68.6038 257.297 68.743 256.84 68.743C255.935 68.743 255.238 68.1662 255.238 67.1219V64.5658H254.194V63.6905ZM263.105 67.5296C262.598 68.2955 261.881 68.743 260.947 68.743C259.325 68.743 258.47 67.5595 258.47 66.1869C258.47 64.7846 259.415 63.5712 260.986 63.5712C261.832 63.5712 262.488 63.8994 262.966 64.5459L262.269 65.1327C261.961 64.6752 261.553 64.4564 260.996 64.4564C259.962 64.4564 259.445 65.2222 259.445 66.1273C259.445 67.0423 260.012 67.8578 261.026 67.8578C261.613 67.8578 262.14 67.5495 262.438 67.0423L263.105 67.5296ZM264.222 67.3606C264.639 67.3606 264.928 67.6689 264.928 68.0568C264.928 68.4446 264.639 68.743 264.222 68.743C263.804 68.743 263.516 68.4446 263.516 68.0568C263.516 67.6689 263.804 67.3606 264.222 67.3606ZM268.4 65.3316C268.4 66.8832 268.927 68.2955 270.24 69.5884L269.613 70.1752C268.121 68.7729 267.435 67.1616 267.435 65.3316C267.435 63.5016 268.121 61.8804 269.613 60.488L270.24 61.0748C268.927 62.3677 268.4 63.7801 268.4 65.3316ZM274.881 63.8397L272.126 65.4311L274.881 67.0323L274.464 67.7484L271.251 65.8886V64.9835L274.464 63.1236L274.881 63.8397ZM279.055 64.148C280.527 64.148 281.233 65.2023 281.233 66.366C281.233 67.7087 280.288 68.743 278.786 68.743C277.772 68.743 276.757 68.2258 276.359 67.2014L277.254 66.7737C277.493 67.46 278.169 67.8181 278.826 67.8181C279.741 67.8181 280.218 67.1815 280.218 66.4256C280.218 65.6399 279.721 65.0432 278.826 65.0432C278.269 65.0432 277.782 65.2819 277.483 65.6996H276.678V61.8207H280.646V62.7457H277.533V64.6851C277.901 64.337 278.428 64.148 279.055 64.148ZM282.265 63.6905H283.219V64.526C283.498 63.9392 283.995 63.5712 284.741 63.5712C285.527 63.5712 286.074 63.9392 286.293 64.6056C286.601 63.9591 287.178 63.5712 287.964 63.5712C289.028 63.5712 289.654 64.2475 289.654 65.4311V68.6833H288.68V65.62C288.68 64.884 288.342 64.4464 287.675 64.4464C287.009 64.4464 286.442 64.9238 286.442 65.988V68.6833H285.467V65.62C285.467 64.884 285.139 64.4464 284.473 64.4464C283.806 64.4464 283.239 64.9238 283.239 65.988V68.6833H282.265V63.6905ZM293.62 63.5712C295.182 63.5712 295.997 64.8045 295.997 66.1671C295.997 67.5296 295.162 68.743 293.61 68.743C292.785 68.743 292.138 68.385 291.81 67.8181V68.6833H290.875V61.7213H291.85V64.5061C292.168 63.9292 292.805 63.5712 293.62 63.5712ZM291.85 66.1571C291.85 67.1616 292.496 67.8678 293.461 67.8678C294.396 67.8678 295.023 67.1616 295.023 66.1571C295.023 65.2321 294.486 64.4464 293.461 64.4464C292.496 64.4464 291.85 65.1526 291.85 66.1571ZM298.035 65.3316C298.035 63.8099 297.518 62.4274 296.235 61.1643L296.842 60.5974C298.304 61.96 298.98 63.5414 298.98 65.3316C298.98 67.1219 298.304 68.6933 296.842 70.0658L296.235 69.489C297.518 68.2258 298.035 66.8434 298.035 65.3316Z" fill="#636363"/>
<g clip-path="url(#clip0_138_779)">
<path d="M196.491 137.667V129.71H199.287C201.981 129.71 203.311 131.643 203.311 133.609C203.311 135.621 201.901 137.667 199.128 137.667H196.491ZM198.139 136.098H199.242C200.856 136.098 201.651 134.905 201.651 133.666C201.651 132.45 200.856 131.279 199.298 131.279H198.139V136.098ZM204.309 131.825H205.877V132.711C206.139 132.04 206.73 131.756 207.423 131.756C207.662 131.756 207.923 131.79 208.185 131.859L207.957 133.359C207.719 133.279 207.48 133.245 207.275 133.245C206.48 133.245 205.923 133.745 205.923 134.7V137.667H204.309V131.825ZM214.496 135.701C214.496 136.121 214.769 136.292 215.053 136.292C215.201 136.292 215.337 136.258 215.474 136.178L215.815 137.349C215.451 137.61 215.03 137.735 214.633 137.735C213.939 137.735 213.314 137.36 213.155 136.644C212.78 137.337 212.041 137.735 211.086 137.735C209.404 137.735 208.347 136.417 208.347 134.723C208.347 133.041 209.359 131.688 211.098 131.688C211.996 131.688 212.643 132.052 212.939 132.62V131.825H214.496V135.701ZM209.961 134.712C209.961 135.655 210.541 136.314 211.405 136.314C212.291 136.314 212.894 135.666 212.894 134.712C212.894 133.768 212.291 133.109 211.405 133.109C210.495 133.109 209.961 133.802 209.961 134.712ZM220.73 131.825H222.287V137.326C222.287 139.19 220.866 140.338 219.036 140.338C217.616 140.338 216.456 139.599 215.99 138.485L217.377 137.769C217.661 138.474 218.343 138.895 219.093 138.895C220.025 138.895 220.685 138.372 220.685 137.485V136.724C220.355 137.258 219.718 137.542 218.855 137.542C217.184 137.542 216.047 136.337 216.047 134.621C216.047 132.95 217.127 131.688 218.866 131.688C219.775 131.688 220.48 132.029 220.73 132.575V131.825ZM217.661 134.609C217.661 135.519 218.275 136.121 219.173 136.121C220.071 136.121 220.685 135.553 220.685 134.609C220.685 133.666 220.071 133.109 219.173 133.109C218.309 133.109 217.661 133.666 217.661 134.609ZM231.53 135.701C231.53 136.121 231.803 136.292 232.087 136.292C232.235 136.292 232.371 136.258 232.508 136.178L232.849 137.349C232.485 137.61 232.064 137.735 231.667 137.735C230.973 137.735 230.348 137.36 230.189 136.644C229.814 137.337 229.075 137.735 228.12 137.735C226.438 137.735 225.381 136.417 225.381 134.723C225.381 133.041 226.393 131.688 228.132 131.688C229.03 131.688 229.677 132.052 229.973 132.62V131.825H231.53V135.701ZM226.995 134.712C226.995 135.655 227.575 136.314 228.439 136.314C229.325 136.314 229.928 135.666 229.928 134.712C229.928 133.768 229.325 133.109 228.439 133.109C227.529 133.109 226.995 133.802 226.995 134.712ZM233.453 131.825H235.022V132.609C235.374 132.086 235.875 131.688 236.784 131.688C237.977 131.688 238.864 132.393 238.864 133.836V137.667H237.25V134.177C237.25 133.461 236.852 133.12 236.25 133.12C235.602 133.12 235.068 133.575 235.068 134.484V137.667H233.453V131.825ZM245.894 137.667H244.371V136.86C244.042 137.394 243.326 137.735 242.484 137.735C240.757 137.735 239.745 136.383 239.745 134.723C239.745 133.052 240.757 131.688 242.496 131.688C243.337 131.688 243.996 132.029 244.28 132.529V129.71H245.894V137.667ZM241.359 134.712C241.359 135.655 241.939 136.314 242.803 136.314C243.689 136.314 244.292 135.655 244.292 134.712C244.292 133.768 243.689 133.109 242.803 133.109C241.905 133.109 241.359 133.802 241.359 134.712ZM255.252 137.667H253.729V136.86C253.4 137.394 252.684 137.735 251.842 137.735C250.115 137.735 249.103 136.383 249.103 134.723C249.103 133.052 250.115 131.688 251.854 131.688C252.695 131.688 253.354 132.029 253.638 132.529V129.71H255.252V137.667ZM250.717 134.712C250.717 135.655 251.297 136.314 252.161 136.314C253.047 136.314 253.65 135.655 253.65 134.712C253.65 133.768 253.047 133.109 252.161 133.109C251.263 133.109 250.717 133.802 250.717 134.712ZM256.476 131.825H258.045V132.711C258.306 132.04 258.897 131.756 259.591 131.756C259.829 131.756 260.091 131.79 260.352 131.859L260.125 133.359C259.886 133.279 259.648 133.245 259.443 133.245C258.647 133.245 258.09 133.745 258.09 134.7V137.667H256.476V131.825ZM263.549 131.688C265.289 131.688 266.573 132.984 266.573 134.712C266.573 136.439 265.289 137.735 263.549 137.735C261.799 137.735 260.515 136.439 260.515 134.712C260.515 132.984 261.799 131.688 263.549 131.688ZM262.129 134.712C262.129 135.644 262.686 136.292 263.549 136.292C264.413 136.292 264.97 135.644 264.97 134.712C264.97 133.78 264.413 133.132 263.549 133.132C262.686 133.132 262.129 133.78 262.129 134.712ZM270.865 131.688C272.604 131.688 273.604 133.052 273.604 134.689C273.604 136.314 272.592 137.667 270.876 137.667C270.092 137.667 269.432 137.383 269.08 136.905V140.179H267.466V131.825H269.035V132.563C269.319 132.04 270.012 131.688 270.865 131.688ZM269.069 134.678C269.069 135.587 269.66 136.246 270.558 136.246C271.422 136.246 272.001 135.587 272.001 134.678C272.001 133.802 271.456 133.109 270.558 133.109C269.66 133.109 269.069 133.768 269.069 134.678ZM280.501 131.825H282.103V137.326C282.103 139.304 280.648 140.338 279.034 140.338C277.716 140.338 276.625 139.724 276.147 138.474L277.557 137.815C277.795 138.554 278.386 138.895 279.08 138.895C279.864 138.895 280.501 138.429 280.501 137.519V136.576C280.205 137.167 279.557 137.508 278.739 137.508C277.511 137.508 276.556 136.746 276.556 135.212V131.825H278.159V134.95C278.159 135.678 278.591 136.076 279.25 136.076C279.944 136.076 280.501 135.598 280.501 134.723V131.825ZM286.028 131.688C287.767 131.688 289.052 132.984 289.052 134.712C289.052 136.439 287.767 137.735 286.028 137.735C284.278 137.735 282.993 136.439 282.993 134.712C282.993 132.984 284.278 131.688 286.028 131.688ZM284.608 134.712C284.608 135.644 285.164 136.292 286.028 136.292C286.892 136.292 287.449 135.644 287.449 134.712C287.449 133.78 286.892 133.132 286.028 133.132C285.164 133.132 284.608 133.78 284.608 134.712ZM295.162 131.825V137.667H293.605V136.814C293.253 137.337 292.775 137.735 291.9 137.735C290.786 137.735 289.831 137.099 289.831 135.564V131.825H291.445V135.235C291.445 135.973 291.809 136.303 292.377 136.303C293.082 136.303 293.559 135.791 293.559 134.95V131.825H295.162ZM296.4 131.825H297.969V132.711C298.23 132.04 298.821 131.756 299.514 131.756C299.753 131.756 300.015 131.79 300.276 131.859L300.049 133.359C299.81 133.279 299.571 133.245 299.367 133.245C298.571 133.245 298.014 133.745 298.014 134.7V137.667H296.4V131.825ZM302.323 131.825H303.403V131.54C303.403 130.131 304.324 129.324 305.585 129.324C306.154 129.324 306.711 129.483 307.211 129.813L306.62 131.04C306.381 130.87 306.097 130.779 305.824 130.779C305.369 130.779 305.006 131.017 305.006 131.54V131.825H306.426V133.268H305.006V137.667H303.403V133.268H302.323V131.825ZM308.504 129.153C309.118 129.153 309.55 129.597 309.55 130.165C309.55 130.722 309.118 131.165 308.504 131.165C307.89 131.165 307.447 130.722 307.447 130.165C307.447 129.597 307.89 129.153 308.504 129.153ZM307.697 137.667V131.825H309.311V137.667H307.697ZM313.848 137.371C313.405 137.61 312.95 137.735 312.518 137.735C311.473 137.735 310.62 137.042 310.62 135.723V129.71H312.234V135.553C312.234 136.03 312.518 136.292 312.916 136.292C313.087 136.292 313.28 136.246 313.473 136.144L313.848 137.371ZM319.63 135.269H315.651C315.822 135.996 316.333 136.348 317.118 136.348C317.8 136.348 318.289 136.064 318.63 135.678L319.448 136.667C318.811 137.349 318.016 137.735 316.993 137.735C315.208 137.735 314.015 136.576 314.015 134.791C314.015 133.018 315.185 131.688 317.015 131.688C318.607 131.688 319.63 132.677 319.63 134.643V135.269ZM315.629 134.109H318.038C318.027 133.461 317.697 133.018 316.925 133.018C316.208 133.018 315.765 133.416 315.629 134.109ZM324.125 133.564C323.727 133.2 323.17 133.041 322.761 133.041C322.341 133.041 322.068 133.211 322.068 133.507C322.068 133.825 322.363 133.905 323.125 134.052C324.046 134.223 325.25 134.45 325.25 135.757C325.25 136.974 324.205 137.735 322.795 137.735C321.795 137.735 320.817 137.337 320.135 136.655L320.988 135.53C321.499 136.098 322.341 136.348 322.943 136.348C323.375 136.348 323.659 136.212 323.659 135.928C323.659 135.644 323.386 135.53 322.716 135.394C321.795 135.223 320.488 134.984 320.488 133.586C320.488 132.313 321.545 131.688 322.727 131.688C323.557 131.688 324.387 131.972 324.943 132.529L324.125 133.564ZM222.289 146.71H223.903V149.563C224.244 149.063 224.744 148.688 225.62 148.688C226.813 148.688 227.7 149.393 227.7 150.836V154.667H226.086V151.177C226.086 150.461 225.688 150.12 225.085 150.12C224.438 150.12 223.903 150.564 223.903 151.473V154.667H222.289V146.71ZM234.196 152.269H230.218C230.388 152.996 230.9 153.348 231.684 153.348C232.366 153.348 232.855 153.064 233.196 152.678L234.014 153.667C233.378 154.349 232.582 154.735 231.559 154.735C229.774 154.735 228.581 153.576 228.581 151.791C228.581 150.018 229.752 148.688 231.582 148.688C233.173 148.688 234.196 149.677 234.196 151.643V152.269ZM230.195 151.109H232.605C232.593 150.461 232.264 150.018 231.491 150.018C230.775 150.018 230.331 150.416 230.195 151.109ZM235.099 148.825H236.668V149.711C236.929 149.04 237.52 148.756 238.214 148.756C238.453 148.756 238.714 148.79 238.975 148.859L238.748 150.359C238.509 150.279 238.271 150.245 238.066 150.245C237.27 150.245 236.713 150.745 236.713 151.7V154.667H235.099V148.825ZM244.753 152.269H240.774C240.945 152.996 241.456 153.348 242.241 153.348C242.923 153.348 243.412 153.064 243.753 152.678L244.571 153.667C243.934 154.349 243.139 154.735 242.116 154.735C240.331 154.735 239.138 153.576 239.138 151.791C239.138 150.018 240.308 148.688 242.138 148.688C243.73 148.688 244.753 149.677 244.753 151.643V152.269ZM240.752 151.109H243.161C243.15 150.461 242.82 150.018 242.048 150.018C241.331 150.018 240.888 150.416 240.752 151.109ZM247.189 148.825H248.348V147.392H249.962V148.825H251.633V150.268H249.962V152.394C249.962 153.007 250.349 153.292 250.849 153.292C251.11 153.292 251.417 153.212 251.701 153.03L252.099 154.224C251.554 154.565 250.985 154.735 250.417 154.735C249.212 154.735 248.348 153.985 248.348 152.678V150.268H247.189V148.825ZM255.321 148.688C257.061 148.688 258.345 149.984 258.345 151.712C258.345 153.439 257.061 154.735 255.321 154.735C253.571 154.735 252.287 153.439 252.287 151.712C252.287 149.984 253.571 148.688 255.321 148.688ZM253.901 151.712C253.901 152.644 254.458 153.292 255.321 153.292C256.185 153.292 256.742 152.644 256.742 151.712C256.742 150.78 256.185 150.132 255.321 150.132C254.458 150.132 253.901 150.78 253.901 151.712ZM266.67 148.825V154.667H265.113V153.814C264.76 154.337 264.283 154.735 263.408 154.735C262.294 154.735 261.339 154.099 261.339 152.564V148.825H262.953V152.235C262.953 152.973 263.317 153.303 263.885 153.303C264.59 153.303 265.067 152.791 265.067 151.95V148.825H266.67ZM271.306 148.688C273.045 148.688 274.046 150.052 274.046 151.689C274.046 153.314 273.034 154.667 271.318 154.667C270.533 154.667 269.874 154.383 269.522 153.905V157.179H267.908V148.825H269.476V149.563C269.761 149.04 270.454 148.688 271.306 148.688ZM269.51 151.678C269.51 152.587 270.102 153.246 270.999 153.246C271.863 153.246 272.443 152.587 272.443 151.678C272.443 150.802 271.897 150.109 270.999 150.109C270.102 150.109 269.51 150.768 269.51 151.678ZM278.168 154.371C277.725 154.61 277.27 154.735 276.838 154.735C275.793 154.735 274.94 154.042 274.94 152.723V146.71H276.554V152.553C276.554 153.03 276.838 153.292 277.236 153.292C277.407 153.292 277.6 153.246 277.793 153.144L278.168 154.371ZM281.369 148.688C283.108 148.688 284.393 149.984 284.393 151.712C284.393 153.439 283.108 154.735 281.369 154.735C279.619 154.735 278.334 153.439 278.334 151.712C278.334 149.984 279.619 148.688 281.369 148.688ZM279.949 151.712C279.949 152.644 280.505 153.292 281.369 153.292C282.233 153.292 282.79 152.644 282.79 151.712C282.79 150.78 282.233 150.132 281.369 150.132C280.505 150.132 279.949 150.78 279.949 151.712ZM291.094 152.701C291.094 153.121 291.367 153.292 291.651 153.292C291.799 153.292 291.935 153.258 292.072 153.178L292.413 154.349C292.049 154.61 291.628 154.735 291.231 154.735C290.537 154.735 289.912 154.36 289.753 153.644C289.378 154.337 288.639 154.735 287.684 154.735C286.002 154.735 284.945 153.417 284.945 151.723C284.945 150.041 285.957 148.688 287.696 148.688C288.594 148.688 289.241 149.052 289.537 149.62V148.825H291.094V152.701ZM286.559 151.712C286.559 152.655 287.139 153.314 288.003 153.314C288.889 153.314 289.492 152.666 289.492 151.712C289.492 150.768 288.889 150.109 288.003 150.109C287.093 150.109 286.559 150.802 286.559 151.712ZM298.715 154.667H297.192V153.86C296.862 154.394 296.146 154.735 295.305 154.735C293.577 154.735 292.565 153.383 292.565 151.723C292.565 150.052 293.577 148.688 295.316 148.688C296.157 148.688 296.817 149.029 297.101 149.529V146.71H298.715V154.667ZM294.18 151.712C294.18 152.655 294.759 153.314 295.623 153.314C296.51 153.314 297.112 152.655 297.112 151.712C297.112 150.768 296.51 150.109 295.623 150.109C294.725 150.109 294.18 150.802 294.18 151.712Z" fill="#434343"/>
<path d="M257.513 173.912C259.552 173.912 261.044 175.464 261.044 177.553C261.044 179.641 259.552 181.193 257.513 181.193C255.484 181.193 253.983 179.641 253.983 177.553C253.983 175.464 255.484 173.912 257.513 173.912ZM255.007 177.553C255.007 179.094 256.061 180.228 257.513 180.228C258.966 180.228 260.02 179.094 260.02 177.553C260.02 176.011 258.966 174.877 257.513 174.877C256.061 174.877 255.007 176.011 255.007 177.553ZM264.679 174.072C266.151 174.072 266.807 174.967 266.807 175.971C266.807 176.797 266.29 177.563 265.355 177.841L267.265 181.034H266.081L264.351 178.07H263.187V181.034H262.183V174.072H264.679ZM263.187 177.175H264.54C265.325 177.175 265.783 176.667 265.783 176.071C265.783 175.444 265.355 174.997 264.57 174.997H263.187V177.175Z" fill="#8A8A8A"/>
<rect x="207.819" y="197.111" width="105.363" height="26.9458" rx="13.4729" stroke="#144A38" stroke-width="1.42083"/>
<path d="M229.468 212.004C229.648 212.004 229.796 212.138 229.82 212.311L229.823 212.36V213.067C229.823 214.013 229.081 214.786 228.147 214.835L228.053 214.837H220.271C219.325 214.837 218.552 214.095 218.503 213.161L218.501 213.067V212.36C218.501 212.163 218.66 212.004 218.856 212.004C219.036 212.004 219.185 212.138 219.208 212.311L219.211 212.36V213.067C219.211 213.627 219.645 214.085 220.195 214.124L220.271 214.127H228.053C228.613 214.127 229.071 213.693 229.11 213.143L229.113 213.067V212.36C229.113 212.163 229.272 212.004 229.468 212.004ZM224.162 206.345C224.198 206.345 224.233 206.35 224.266 206.36C224.268 206.361 224.27 206.361 224.272 206.362C224.287 206.367 224.302 206.373 224.316 206.38C224.319 206.381 224.321 206.382 224.324 206.384C224.335 206.39 224.346 206.396 224.357 206.403C224.377 206.416 224.396 206.431 224.413 206.449L224.373 206.414C224.375 206.416 224.377 206.417 224.379 206.419L224.413 206.449L226.536 208.571L226.57 208.611C226.673 208.75 226.662 208.947 226.536 209.073L226.496 209.108C226.357 209.211 226.159 209.2 226.033 209.073L224.517 207.558L224.517 212.36L224.514 212.408C224.491 212.581 224.342 212.715 224.162 212.715C223.966 212.715 223.807 212.556 223.807 212.36L223.807 207.558L222.291 209.073L222.251 209.108C222.112 209.211 221.915 209.2 221.789 209.073C221.65 208.935 221.65 208.71 221.789 208.571L223.911 206.449L223.945 206.419C223.946 206.418 223.947 206.417 223.948 206.416C223.954 206.412 223.957 206.41 223.959 206.408C223.97 206.401 223.98 206.394 223.992 206.388C223.998 206.385 224.003 206.382 224.009 206.379C224.019 206.375 224.03 206.37 224.04 206.366C224.046 206.364 224.052 206.362 224.058 206.36C224.069 206.357 224.08 206.354 224.092 206.352C224.098 206.351 224.103 206.35 224.109 206.349C224.126 206.346 224.144 206.345 224.162 206.345L224.15 206.345C224.153 206.345 224.156 206.345 224.159 206.345L224.162 206.345Z" fill="#144A38"/>
<path d="M239.922 207.127C241.376 207.127 242.161 208.093 242.161 209.071C242.161 209.787 241.752 210.548 240.854 210.799C241.956 211.083 242.445 211.844 242.445 212.708C242.445 213.936 241.445 215.084 239.751 215.084H236.739V207.127H239.922ZM238.376 213.572H239.66C240.365 213.572 240.797 213.197 240.797 212.572C240.797 211.981 240.376 211.594 239.683 211.594H238.376V213.572ZM238.376 210.344H239.512C240.149 210.344 240.513 209.957 240.513 209.446C240.513 208.946 240.149 208.639 239.546 208.639H238.376V210.344ZM243.447 209.241H245.015V210.128C245.277 209.457 245.868 209.173 246.561 209.173C246.8 209.173 247.061 209.207 247.323 209.275L247.095 210.776C246.857 210.696 246.618 210.662 246.413 210.662C245.618 210.662 245.061 211.162 245.061 212.117V215.084H243.447V209.241ZM250.52 209.105C252.259 209.105 253.543 210.401 253.543 212.128C253.543 213.856 252.259 215.152 250.52 215.152C248.769 215.152 247.485 213.856 247.485 212.128C247.485 210.401 248.769 209.105 250.52 209.105ZM249.099 212.128C249.099 213.06 249.656 213.708 250.52 213.708C251.384 213.708 251.941 213.06 251.941 212.128C251.941 211.196 251.384 210.548 250.52 210.548C249.656 210.548 249.099 211.196 249.099 212.128ZM261.645 209.241H263.464L261.327 215.084H259.838L258.61 211.458L257.394 215.084H255.894L253.757 209.241H255.485L256.644 212.913L257.803 209.241H259.417L260.577 212.901L261.645 209.241ZM267.491 210.98C267.093 210.617 266.536 210.458 266.127 210.458C265.707 210.458 265.434 210.628 265.434 210.924C265.434 211.242 265.729 211.321 266.491 211.469C267.412 211.64 268.617 211.867 268.617 213.174C268.617 214.39 267.571 215.152 266.161 215.152C265.161 215.152 264.184 214.754 263.502 214.072L264.354 212.947C264.866 213.515 265.707 213.765 266.309 213.765C266.741 213.765 267.025 213.629 267.025 213.345C267.025 213.06 266.752 212.947 266.082 212.81C265.161 212.64 263.854 212.401 263.854 211.003C263.854 209.73 264.911 209.105 266.093 209.105C266.923 209.105 267.753 209.389 268.31 209.946L267.491 210.98ZM274.718 212.685H270.74C270.911 213.413 271.422 213.765 272.206 213.765C272.888 213.765 273.377 213.481 273.718 213.095L274.536 214.083C273.9 214.765 273.104 215.152 272.081 215.152C270.297 215.152 269.103 213.993 269.103 212.208C269.103 210.435 270.274 209.105 272.104 209.105C273.695 209.105 274.718 210.094 274.718 212.06V212.685ZM270.717 211.526H273.127C273.116 210.878 272.786 210.435 272.013 210.435C271.297 210.435 270.854 210.833 270.717 211.526ZM282.642 211.981H279.709V215.084H278.061V207.127H283.176V208.696H279.709V210.412H282.642V211.981ZM285.078 206.57C285.692 206.57 286.124 207.013 286.124 207.582C286.124 208.139 285.692 208.582 285.078 208.582C284.465 208.582 284.021 208.139 284.021 207.582C284.021 207.013 284.465 206.57 285.078 206.57ZM284.271 215.084V209.241H285.885V215.084H284.271ZM290.423 214.788C289.979 215.027 289.525 215.152 289.093 215.152C288.047 215.152 287.194 214.459 287.194 213.14V207.127H288.808V212.97C288.808 213.447 289.093 213.708 289.49 213.708C289.661 213.708 289.854 213.663 290.047 213.561L290.423 214.788ZM296.204 212.685H292.226C292.396 213.413 292.908 213.765 293.692 213.765C294.374 213.765 294.863 213.481 295.204 213.095L296.022 214.083C295.386 214.765 294.59 215.152 293.567 215.152C291.782 215.152 290.589 213.993 290.589 212.208C290.589 210.435 291.76 209.105 293.59 209.105C295.181 209.105 296.204 210.094 296.204 212.06V212.685ZM292.203 211.526H294.613C294.601 210.878 294.272 210.435 293.499 210.435C292.783 210.435 292.339 210.833 292.203 211.526ZM300.699 210.98C300.301 210.617 299.744 210.458 299.335 210.458C298.915 210.458 298.642 210.628 298.642 210.924C298.642 211.242 298.937 211.321 299.699 211.469C300.62 211.64 301.825 211.867 301.825 213.174C301.825 214.39 300.779 215.152 299.369 215.152C298.369 215.152 297.392 214.754 296.71 214.072L297.562 212.947C298.074 213.515 298.915 213.765 299.517 213.765C299.949 213.765 300.233 213.629 300.233 213.345C300.233 213.06 299.96 212.947 299.29 212.81C298.369 212.64 297.062 212.401 297.062 211.003C297.062 209.73 298.119 209.105 299.301 209.105C300.131 209.105 300.961 209.389 301.518 209.946L300.699 210.98Z" fill="#144A38"/>
</g>
<rect x="89.2896" y="83.3396" width="342.421" height="183.288" stroke="#C7C7C7" stroke-width="1.42083" stroke-dasharray="5.68 5.68"/>
<defs>
<clipPath id="clip0_138_779">
<rect x="90" y="84.05" width="341" height="181.867" fill="white"/>
</clipPath>
</defs>
</svg>
