<svg width="520" height="300" viewBox="0 0 520 300" fill="none" xmlns="http://www.w3.org/2000/svg">
<rect width="520" height="300" fill="white"/>
<path d="M95.4219 44.8969H92.4893V48H90.8411V40.0433H95.9561V41.6119H92.4893V43.3283H95.4219V44.8969ZM97.8585 39.4864C98.4723 39.4864 98.9042 39.9297 98.9042 40.498C98.9042 41.055 98.4723 41.4983 97.8585 41.4983C97.2447 41.4983 96.8014 41.055 96.8014 40.498C96.8014 39.9297 97.2447 39.4864 97.8585 39.4864ZM97.0514 48V42.1575H98.6655V48H97.0514ZM103.203 47.7045C102.759 47.9432 102.305 48.0682 101.873 48.0682C100.827 48.0682 99.9744 47.3748 99.9744 46.0563V40.0433H101.588V45.8858C101.588 46.3632 101.873 46.6246 102.27 46.6246C102.441 46.6246 102.634 46.5792 102.827 46.4769L103.203 47.7045ZM108.984 45.6016H105.006C105.176 46.3291 105.688 46.6815 106.472 46.6815C107.154 46.6815 107.643 46.3973 107.984 46.0108L108.802 46.9997C108.166 47.6817 107.37 48.0682 106.347 48.0682C104.562 48.0682 103.369 46.9088 103.369 45.1242C103.369 43.351 104.54 42.0211 106.37 42.0211C107.961 42.0211 108.984 43.01 108.984 44.9765V45.6016ZM104.983 44.4422H107.393C107.381 43.7943 107.052 43.351 106.279 43.351C105.563 43.351 105.119 43.7489 104.983 44.4422ZM116.919 40.0433H118.578V45.147C118.578 46.9315 117.521 48.1705 115.396 48.1705C113.259 48.1705 112.213 46.9315 112.213 45.147V40.0433H113.861V45.0219C113.861 46.0108 114.452 46.6019 115.396 46.6019C116.339 46.6019 116.919 46.0108 116.919 45.0219V40.0433ZM123.21 42.0211C124.949 42.0211 125.949 43.3851 125.949 45.0219C125.949 46.6474 124.938 48 123.221 48C122.437 48 121.778 47.7158 121.426 47.2384V50.512H119.811V42.1575H121.38V42.8964C121.664 42.3735 122.358 42.0211 123.21 42.0211ZM121.414 45.0106C121.414 45.9199 122.005 46.5792 122.903 46.5792C123.767 46.5792 124.347 45.9199 124.347 45.0106C124.347 44.1353 123.801 43.442 122.903 43.442C122.005 43.442 121.414 44.1012 121.414 45.0106ZM130.072 47.7045C129.629 47.9432 129.174 48.0682 128.742 48.0682C127.696 48.0682 126.844 47.3748 126.844 46.0563V40.0433H128.458V45.8858C128.458 46.3632 128.742 46.6246 129.14 46.6246C129.31 46.6246 129.504 46.5792 129.697 46.4769L130.072 47.7045ZM133.273 42.0211C135.012 42.0211 136.297 43.3169 136.297 45.0447C136.297 46.7724 135.012 48.0682 133.273 48.0682C131.523 48.0682 130.238 46.7724 130.238 45.0447C130.238 43.3169 131.523 42.0211 133.273 42.0211ZM131.852 45.0447C131.852 45.9767 132.409 46.6246 133.273 46.6246C134.137 46.6246 134.694 45.9767 134.694 45.0447C134.694 44.1126 134.137 43.4647 133.273 43.4647C132.409 43.4647 131.852 44.1126 131.852 45.0447ZM142.998 46.0336C142.998 46.4541 143.271 46.6246 143.555 46.6246C143.703 46.6246 143.839 46.5905 143.976 46.511L144.317 47.6817C143.953 47.9432 143.532 48.0682 143.134 48.0682C142.441 48.0682 141.816 47.6931 141.657 46.977C141.282 47.6704 140.543 48.0682 139.588 48.0682C137.906 48.0682 136.849 46.7497 136.849 45.056C136.849 43.3738 137.86 42.0211 139.599 42.0211C140.497 42.0211 141.145 42.3849 141.441 42.9532V42.1575H142.998V46.0336ZM138.463 45.0447C138.463 45.9881 139.042 46.6474 139.906 46.6474C140.793 46.6474 141.395 45.9995 141.395 45.0447C141.395 44.1012 140.793 43.442 139.906 43.442C138.997 43.442 138.463 44.1353 138.463 45.0447ZM150.619 48H149.095V47.193C148.766 47.7272 148.05 48.0682 147.209 48.0682C145.481 48.0682 144.469 46.7156 144.469 45.056C144.469 43.3851 145.481 42.0211 147.22 42.0211C148.061 42.0211 148.72 42.3621 149.004 42.8623V40.0433H150.619V48ZM146.083 45.0447C146.083 45.9881 146.663 46.6474 147.527 46.6474C148.413 46.6474 149.016 45.9881 149.016 45.0447C149.016 44.1012 148.413 43.442 147.527 43.442C146.629 43.442 146.083 44.1353 146.083 45.0447Z" fill="#144A38"/>
<path d="M94.3165 63.2328C93.9485 62.7753 93.3617 62.5266 92.7948 62.5266C92.0986 62.5266 91.5714 62.8847 91.5714 63.5312C91.5714 64.297 92.3273 64.5357 93.0932 64.7744C94.2767 65.1225 95.2116 65.4905 95.2116 66.7437C95.2116 68.1162 94.1375 68.8422 92.8743 68.8422C92.0091 68.8422 91.0543 68.4842 90.4177 67.6786L91.1338 66.9525C91.5814 67.5692 92.2875 67.8675 92.934 67.8675C93.6899 67.8675 94.1872 67.4498 94.1872 66.863C94.1872 66.1668 93.4711 65.9281 92.7053 65.6894C91.5018 65.3214 90.557 64.9136 90.557 63.6804C90.557 62.3476 91.5814 61.5619 92.8445 61.5619C93.6402 61.5619 94.4358 61.8901 94.9829 62.5366L94.3165 63.2328ZM100.487 63.6903V68.6831H99.5321V67.7681C99.2139 68.335 98.7066 68.7428 97.8612 68.7428C96.797 68.7428 96.0511 68.0963 96.0511 66.8531V63.6903H97.0258V66.6442C97.0258 67.4498 97.4336 67.8675 98.0999 67.8675C98.8956 67.8675 99.5123 67.2609 99.5123 66.2464V63.6903H100.487ZM104.466 63.5709C106.028 63.5709 106.843 64.8042 106.843 66.137C106.843 67.4697 106.008 68.6831 104.456 68.6831C103.66 68.6831 103.044 68.3549 102.696 67.8079V70.8811H101.721V63.6903H102.676V64.5158C102.994 63.929 103.651 63.5709 104.466 63.5709ZM102.696 66.127C102.696 67.1017 103.342 67.8079 104.307 67.8079C105.242 67.8079 105.868 67.1017 105.868 66.127C105.868 65.2319 105.331 64.4462 104.307 64.4462C103.342 64.4462 102.696 65.1523 102.696 66.127ZM110.522 63.5709C112.084 63.5709 112.899 64.8042 112.899 66.137C112.899 67.4697 112.064 68.6831 110.512 68.6831C109.717 68.6831 109.1 68.3549 108.752 67.8079V70.8811H107.777V63.6903H108.732V64.5158C109.05 63.929 109.707 63.5709 110.522 63.5709ZM108.752 66.127C108.752 67.1017 109.398 67.8079 110.363 67.8079C111.298 67.8079 111.925 67.1017 111.925 66.127C111.925 65.2319 111.387 64.4462 110.363 64.4462C109.398 64.4462 108.752 65.1523 108.752 66.127ZM116.071 63.5709C117.553 63.5709 118.607 64.665 118.607 66.1569C118.607 67.6388 117.553 68.7428 116.071 68.7428C114.589 68.7428 113.535 67.6388 113.535 66.1569C113.535 64.665 114.589 63.5709 116.071 63.5709ZM114.509 66.1569C114.509 67.1514 115.136 67.8576 116.071 67.8576C117.006 67.8576 117.632 67.1514 117.632 66.1569C117.632 65.1623 117.006 64.4561 116.071 64.4561C115.136 64.4561 114.509 65.1623 114.509 66.1569ZM119.54 63.6903H120.494V64.5059C120.733 63.8992 121.27 63.6207 121.877 63.6207C122.116 63.6207 122.364 63.6605 122.593 63.75L122.434 64.655C122.215 64.5655 121.986 64.5257 121.787 64.5257C121.071 64.5257 120.514 65.0031 120.514 65.9878V68.6831H119.54V63.6903ZM122.862 63.6903H123.906V62.3576H124.891V63.6903H126.423V64.5655H124.891V66.9923C124.891 67.5891 125.279 67.8576 125.746 67.8576C126.015 67.8576 126.323 67.7681 126.582 67.599L126.86 68.3052C126.433 68.6035 125.965 68.7428 125.508 68.7428C124.603 68.7428 123.906 68.1659 123.906 67.1216V64.5655H122.862V63.6903ZM131.823 66.4851H128.113C128.232 67.41 128.829 67.8775 129.704 67.8775C130.361 67.8775 130.838 67.5891 131.156 67.1415L131.703 67.7283C131.186 68.3748 130.52 68.7428 129.625 68.7428C128.073 68.7428 127.138 67.6587 127.138 66.2165C127.138 64.7843 128.053 63.5709 129.634 63.5709C130.987 63.5709 131.823 64.4462 131.823 65.9977V66.4851ZM128.113 65.7391H130.848C130.848 64.8838 130.43 64.3965 129.595 64.3965C128.749 64.3965 128.232 64.9037 128.113 65.7391ZM137.588 68.6831H136.643V67.8079C136.315 68.3947 135.659 68.7428 134.833 68.7428C133.281 68.7428 132.456 67.5294 132.456 66.1668C132.456 64.8042 133.291 63.5709 134.843 63.5709C135.659 63.5709 136.295 63.9091 136.603 64.476V61.721H137.588V68.6831ZM133.431 66.1569C133.431 67.1614 134.057 67.8675 135.002 67.8675C135.957 67.8675 136.613 67.1614 136.613 66.1569C136.613 65.1523 135.957 64.4462 134.992 64.4462C133.978 64.4462 133.431 65.2319 133.431 66.1569ZM140.433 63.6903H141.408V63.2626C141.408 62.1387 142.074 61.4724 143.079 61.4724C143.566 61.4724 143.984 61.6116 144.382 61.9299L143.944 62.6559C143.715 62.4471 143.457 62.3576 143.178 62.3576C142.701 62.3576 142.383 62.6659 142.383 63.2527V63.6903H143.725V64.5655H142.383V68.6831H141.408V64.5655H140.433V63.6903ZM145.361 61.3928C145.769 61.3928 146.057 61.6912 146.057 62.0791C146.057 62.457 145.769 62.7454 145.361 62.7454C144.953 62.7454 144.665 62.457 144.665 62.0791C144.665 61.6912 144.953 61.3928 145.361 61.3928ZM144.874 68.6831V63.6903H145.848V68.6831H144.874ZM149.675 68.4444C149.327 68.6433 148.969 68.7428 148.631 68.7428C147.825 68.7428 147.169 68.1858 147.169 67.1713V61.721H148.143V67.0619C148.143 67.5791 148.452 67.8576 148.84 67.8576C149.029 67.8576 149.228 67.8079 149.427 67.6985L149.675 68.4444ZM154.649 66.4851H150.939C151.058 67.41 151.655 67.8775 152.53 67.8775C153.187 67.8775 153.664 67.5891 153.982 67.1415L154.529 67.7283C154.012 68.3748 153.346 68.7428 152.451 68.7428C150.899 68.7428 149.964 67.6587 149.964 66.2165C149.964 64.7843 150.879 63.5709 152.461 63.5709C153.813 63.5709 154.649 64.4462 154.649 65.9977V66.4851ZM150.939 65.7391H153.674C153.674 64.8838 153.256 64.3965 152.421 64.3965C151.575 64.3965 151.058 64.9037 150.939 65.7391ZM156.999 63.6903H158.044V62.3576H159.028V63.6903H160.56V64.5655H159.028V66.9923C159.028 67.5891 159.416 67.8576 159.884 67.8576C160.152 67.8576 160.46 67.7681 160.719 67.599L160.997 68.3052C160.57 68.6035 160.102 68.7428 159.645 68.7428C158.74 68.7428 158.044 68.1659 158.044 67.1216V64.5655H156.999V63.6903ZM165.23 63.6903H166.205V68.5041C166.205 70.1153 165.15 71.0104 163.748 71.0104C162.584 71.0104 161.679 70.4336 161.331 69.3395L162.216 68.9616C162.455 69.7573 163.012 70.1253 163.778 70.1253C164.653 70.1253 165.23 69.6081 165.23 68.6234V67.609C164.932 68.2057 164.325 68.5638 163.559 68.5638C162.554 68.5638 161.639 67.9173 161.639 66.6442V63.6903H162.614V66.4353C162.614 67.2211 163.092 67.6786 163.798 67.6786C164.613 67.6786 165.23 67.042 165.23 66.0674V63.6903ZM170.18 63.5709C171.742 63.5709 172.557 64.8042 172.557 66.137C172.557 67.4697 171.722 68.6831 170.17 68.6831C169.375 68.6831 168.758 68.3549 168.41 67.8079V70.8811H167.435V63.6903H168.39V64.5158C168.708 63.929 169.365 63.5709 170.18 63.5709ZM168.41 66.127C168.41 67.1017 169.057 67.8079 170.021 67.8079C170.956 67.8079 171.583 67.1017 171.583 66.127C171.583 65.2319 171.046 64.4462 170.021 64.4462C169.057 64.4462 168.41 65.1523 168.41 66.127ZM177.878 66.4851H174.168C174.287 67.41 174.884 67.8775 175.759 67.8775C176.416 67.8775 176.893 67.5891 177.211 67.1415L177.758 67.7283C177.241 68.3748 176.575 68.7428 175.68 68.7428C174.128 68.7428 173.193 67.6587 173.193 66.2165C173.193 64.7843 174.108 63.5709 175.689 63.5709C177.042 63.5709 177.878 64.4462 177.878 65.9977V66.4851ZM174.168 65.7391H176.903C176.903 64.8838 176.485 64.3965 175.65 64.3965C174.804 64.3965 174.287 64.9037 174.168 65.7391ZM181.823 64.9236C181.485 64.5755 180.958 64.4163 180.53 64.4163C180.023 64.4163 179.675 64.6451 179.675 65.0429C179.675 65.5004 180.152 65.6098 180.848 65.759C181.664 65.9281 182.639 66.1071 182.639 67.1614C182.639 68.1659 181.753 68.7428 180.659 68.7428C179.844 68.7428 179.008 68.4046 178.461 67.7681L179.048 67.0918C179.456 67.6388 180.172 67.8775 180.749 67.8775C181.256 67.8775 181.664 67.6885 181.664 67.2807C181.664 66.8531 181.246 66.7337 180.61 66.6044C179.774 66.4353 178.71 66.2265 178.71 65.1026C178.71 64.0682 179.575 63.5709 180.54 63.5709C181.196 63.5709 181.883 63.7997 182.35 64.2771L181.823 64.9236ZM184.222 63.4914C184.639 63.4914 184.928 63.7997 184.928 64.1876C184.928 64.5755 184.639 64.8739 184.222 64.8739C183.804 64.8739 183.515 64.5755 183.515 64.1876C183.515 63.7997 183.804 63.4914 184.222 63.4914ZM183.515 68.0565C183.515 67.6686 183.804 67.3603 184.222 67.3603C184.639 67.3603 184.928 67.6686 184.928 68.0565C184.928 68.4444 184.639 68.7428 184.222 68.7428C183.804 68.7428 183.515 68.4444 183.515 68.0565ZM191.214 63.5709C192.776 63.5709 193.591 64.8042 193.591 66.137C193.591 67.4697 192.756 68.6831 191.204 68.6831C190.409 68.6831 189.792 68.3549 189.444 67.8079V70.8811H188.469V63.6903H189.424V64.5158C189.742 63.929 190.399 63.5709 191.214 63.5709ZM189.444 66.127C189.444 67.1017 190.09 67.8079 191.055 67.8079C191.99 67.8079 192.617 67.1017 192.617 66.127C192.617 65.2319 192.08 64.4462 191.055 64.4462C190.09 64.4462 189.444 65.1523 189.444 66.127ZM194.525 63.6903H195.48V64.5456C195.788 63.9787 196.335 63.5709 197.211 63.5709C198.285 63.5709 198.991 64.2274 198.991 65.391V68.6831H198.016V65.6397C198.016 64.8739 197.599 64.4462 196.922 64.4462C196.156 64.4462 195.5 65.023 195.5 66.0674V68.6831H194.525V63.6903ZM204.181 63.6903H205.135V68.5041C205.135 70.0457 204.051 71.0204 202.539 71.0204C201.296 71.0204 200.312 70.364 199.954 69.3395L200.829 68.9318C201.077 69.6876 201.754 70.1352 202.569 70.1352C203.534 70.1352 204.161 69.5583 204.161 68.6135V67.6885C203.822 68.2853 203.226 68.5836 202.38 68.5836C200.928 68.5836 199.954 67.5692 199.954 66.0872C199.954 64.7247 200.829 63.5709 202.38 63.5709C203.226 63.5709 203.872 63.8693 204.181 64.4362V63.6903ZM200.938 66.0674C200.938 66.9824 201.505 67.7184 202.539 67.7184C203.494 67.7184 204.161 67.0719 204.161 66.0674C204.161 65.0728 203.504 64.4362 202.529 64.4362C201.595 64.4362 200.938 65.0728 200.938 66.0674ZM205.761 70.0656L206.776 67.2807L207.751 67.6686L206.557 70.3838L205.761 70.0656ZM213.443 63.5709C215.004 63.5709 215.82 64.8042 215.82 66.137C215.82 67.4697 214.984 68.6831 213.433 68.6831C212.637 68.6831 212.021 68.3549 211.673 67.8079V70.8811H210.698V63.6903H211.653V64.5158C211.971 63.929 212.627 63.5709 213.443 63.5709ZM211.673 66.127C211.673 67.1017 212.319 67.8079 213.284 67.8079C214.219 67.8079 214.845 67.1017 214.845 66.127C214.845 65.2319 214.308 64.4462 213.284 64.4462C212.319 64.4462 211.673 65.1523 211.673 66.127ZM221.588 68.6831H220.643V67.8079C220.315 68.3947 219.658 68.7428 218.833 68.7428C217.281 68.7428 216.456 67.5294 216.456 66.1668C216.456 64.8042 217.291 63.5709 218.843 63.5709C219.658 63.5709 220.295 63.9091 220.603 64.476V61.721H221.588V68.6831ZM217.43 66.1569C217.43 67.1614 218.057 67.8675 219.002 67.8675C219.956 67.8675 220.613 67.1614 220.613 66.1569C220.613 65.1523 219.956 64.4462 218.992 64.4462C217.977 64.4462 217.43 65.2319 217.43 66.1569ZM222.223 63.6903H223.198V63.2626C223.198 62.1387 223.864 61.4724 224.869 61.4724C225.356 61.4724 225.774 61.6116 226.171 61.9299L225.734 62.6559C225.505 62.4471 225.246 62.3576 224.968 62.3576C224.491 62.3576 224.172 62.6659 224.172 63.2527V63.6903H225.515V64.5655H224.172V68.6831H223.198V64.5655H222.223V63.6903ZM225.805 70.0656L226.819 67.2807L227.794 67.6686L226.6 70.3838L225.805 70.0656ZM231.368 61.3928C231.785 61.3928 232.064 61.6912 232.064 62.0791C232.064 62.457 231.785 62.7454 231.368 62.7454C230.96 62.7454 230.671 62.457 230.671 62.0791C230.671 61.6912 230.96 61.3928 231.368 61.3928ZM229.349 70.7419L229.657 69.9562C229.856 70.0855 230.055 70.1352 230.234 70.1352C230.612 70.1352 230.89 69.8667 230.89 69.3992V63.6903H231.865V69.3992C231.865 70.4336 231.218 71.0204 230.383 71.0204C230.035 71.0204 229.717 70.9309 229.349 70.7419ZM235.939 63.5709C237.5 63.5709 238.316 64.8042 238.316 66.137C238.316 67.4697 237.48 68.6831 235.929 68.6831C235.133 68.6831 234.516 68.3549 234.168 67.8079V70.8811H233.194V63.6903H234.148V64.5158C234.467 63.929 235.123 63.5709 235.939 63.5709ZM234.168 66.127C234.168 67.1017 234.815 67.8079 235.78 67.8079C236.714 67.8079 237.341 67.1017 237.341 66.127C237.341 65.2319 236.804 64.4462 235.78 64.4462C234.815 64.4462 234.168 65.1523 234.168 66.127ZM243.208 63.6903H244.163V68.5041C244.163 70.0457 243.079 71.0204 241.567 71.0204C240.324 71.0204 239.339 70.364 238.981 69.3395L239.856 68.9318C240.105 69.6876 240.781 70.1352 241.597 70.1352C242.562 70.1352 243.188 69.5583 243.188 68.6135V67.6885C242.85 68.2853 242.253 68.5836 241.408 68.5836C239.956 68.5836 238.981 67.5692 238.981 66.0872C238.981 64.7247 239.856 63.5709 241.408 63.5709C242.253 63.5709 242.9 63.8693 243.208 64.4362V63.6903ZM239.966 66.0674C239.966 66.9824 240.533 67.7184 241.567 67.7184C242.522 67.7184 243.188 67.0719 243.188 66.0674C243.188 65.0728 242.532 64.4362 241.557 64.4362C240.622 64.4362 239.966 65.0728 239.966 66.0674ZM244.789 70.0656L245.804 67.2807L246.778 67.6686L245.585 70.3838L244.789 70.0656ZM253.917 66.4851H250.208C250.327 67.41 250.924 67.8775 251.799 67.8775C252.455 67.8775 252.933 67.5891 253.251 67.1415L253.798 67.7283C253.281 68.3748 252.614 68.7428 251.719 68.7428C250.168 68.7428 249.233 67.6587 249.233 66.2165C249.233 64.7843 250.148 63.5709 251.729 63.5709C253.082 63.5709 253.917 64.4462 253.917 65.9977V66.4851ZM250.208 65.7391H252.943C252.943 64.8838 252.525 64.3965 251.689 64.3965C250.844 64.3965 250.327 64.9037 250.208 65.7391ZM254.194 63.6903H255.238V62.3576H256.223V63.6903H257.755V64.5655H256.223V66.9923C256.223 67.5891 256.611 67.8576 257.078 67.8576C257.347 67.8576 257.655 67.7681 257.914 67.599L258.192 68.3052C257.765 68.6035 257.297 68.7428 256.84 68.7428C255.935 68.7428 255.238 68.1659 255.238 67.1216V64.5655H254.194V63.6903ZM263.105 67.5294C262.598 68.2952 261.881 68.7428 260.947 68.7428C259.325 68.7428 258.47 67.5592 258.47 66.1867C258.47 64.7843 259.415 63.5709 260.986 63.5709C261.832 63.5709 262.488 63.8992 262.966 64.5456L262.269 65.1324C261.961 64.6749 261.553 64.4561 260.996 64.4561C259.962 64.4561 259.445 65.222 259.445 66.127C259.445 67.042 260.012 67.8576 261.026 67.8576C261.613 67.8576 262.14 67.5493 262.438 67.042L263.105 67.5294ZM264.222 67.3603C264.639 67.3603 264.928 67.6686 264.928 68.0565C264.928 68.4444 264.639 68.7428 264.222 68.7428C263.804 68.7428 263.516 68.4444 263.516 68.0565C263.516 67.6686 263.804 67.3603 264.222 67.3603ZM268.4 65.3314C268.4 66.8829 268.927 68.2952 270.24 69.5882L269.613 70.175C268.121 68.7726 267.435 67.1614 267.435 65.3314C267.435 63.5013 268.121 61.8802 269.613 60.4877L270.24 61.0745C268.927 62.3675 268.4 63.7798 268.4 65.3314ZM274.881 63.8395L272.126 65.4308L274.881 67.0321L274.464 67.7482L271.251 65.8883V64.9833L274.464 63.1234L274.881 63.8395ZM279.055 64.1478C280.527 64.1478 281.233 65.2021 281.233 66.3657C281.233 67.7084 280.288 68.7428 278.786 68.7428C277.772 68.7428 276.757 68.2256 276.359 67.2012L277.254 66.7735C277.493 67.4598 278.169 67.8178 278.826 67.8178C279.741 67.8178 280.218 67.1813 280.218 66.4254C280.218 65.6397 279.721 65.0429 278.826 65.0429C278.269 65.0429 277.782 65.2816 277.483 65.6994H276.678V61.8205H280.646V62.7454H277.533V64.6849C277.901 64.3368 278.428 64.1478 279.055 64.1478ZM282.265 63.6903H283.219V64.5257C283.498 63.9389 283.995 63.5709 284.741 63.5709C285.527 63.5709 286.074 63.9389 286.293 64.6053C286.601 63.9588 287.178 63.5709 287.964 63.5709C289.028 63.5709 289.654 64.2473 289.654 65.4308V68.6831H288.68V65.6198C288.68 64.8838 288.342 64.4462 287.675 64.4462C287.009 64.4462 286.442 64.9236 286.442 65.9878V68.6831H285.467V65.6198C285.467 64.8838 285.139 64.4462 284.473 64.4462C283.806 64.4462 283.239 64.9236 283.239 65.9878V68.6831H282.265V63.6903ZM293.62 63.5709C295.182 63.5709 295.997 64.8042 295.997 66.1668C295.997 67.5294 295.162 68.7428 293.61 68.7428C292.785 68.7428 292.138 68.3847 291.81 67.8178V68.6831H290.875V61.721H291.85V64.5059C292.168 63.929 292.805 63.5709 293.62 63.5709ZM291.85 66.1569C291.85 67.1614 292.496 67.8675 293.461 67.8675C294.396 67.8675 295.023 67.1614 295.023 66.1569C295.023 65.2319 294.486 64.4462 293.461 64.4462C292.496 64.4462 291.85 65.1523 291.85 66.1569ZM298.035 65.3314C298.035 63.8096 297.518 62.4272 296.235 61.1641L296.842 60.5971C298.304 61.9597 298.98 63.5411 298.98 65.3314C298.98 67.1216 298.304 68.6931 296.842 70.0656L296.235 69.4887C297.518 68.2256 298.035 66.8431 298.035 65.3314Z" fill="#636363"/>
<g clip-path="url(#clip0_138_779)">
<path d="M196.491 137.667V129.71H199.287C201.981 129.71 203.311 131.642 203.311 133.609C203.311 135.621 201.901 137.667 199.128 137.667H196.491ZM198.139 136.098H199.242C200.856 136.098 201.651 134.904 201.651 133.665C201.651 132.449 200.856 131.278 199.298 131.278H198.139V136.098ZM204.309 131.824H205.877V132.711C206.139 132.04 206.73 131.756 207.423 131.756C207.662 131.756 207.923 131.79 208.185 131.858L207.957 133.359C207.719 133.279 207.48 133.245 207.275 133.245C206.48 133.245 205.923 133.745 205.923 134.7V137.667H204.309V131.824ZM214.496 135.7C214.496 136.121 214.769 136.291 215.053 136.291C215.201 136.291 215.337 136.257 215.474 136.177L215.815 137.348C215.451 137.61 215.03 137.735 214.633 137.735C213.939 137.735 213.314 137.36 213.155 136.644C212.78 137.337 212.041 137.735 211.086 137.735C209.404 137.735 208.347 136.416 208.347 134.723C208.347 133.04 209.359 131.688 211.098 131.688C211.996 131.688 212.643 132.051 212.939 132.62V131.824H214.496V135.7ZM209.961 134.711C209.961 135.655 210.541 136.314 211.405 136.314C212.291 136.314 212.894 135.666 212.894 134.711C212.894 133.768 212.291 133.108 211.405 133.108C210.495 133.108 209.961 133.802 209.961 134.711ZM220.73 131.824H222.287V137.326C222.287 139.19 220.866 140.338 219.036 140.338C217.616 140.338 216.456 139.599 215.99 138.485L217.377 137.769C217.661 138.474 218.343 138.894 219.093 138.894C220.025 138.894 220.685 138.371 220.685 137.485V136.723C220.355 137.257 219.718 137.541 218.855 137.541C217.184 137.541 216.047 136.337 216.047 134.62C216.047 132.949 217.127 131.688 218.866 131.688C219.775 131.688 220.48 132.029 220.73 132.574V131.824ZM217.661 134.609C217.661 135.518 218.275 136.121 219.173 136.121C220.071 136.121 220.685 135.552 220.685 134.609C220.685 133.665 220.071 133.108 219.173 133.108C218.309 133.108 217.661 133.665 217.661 134.609ZM231.53 135.7C231.53 136.121 231.803 136.291 232.087 136.291C232.235 136.291 232.371 136.257 232.508 136.177L232.849 137.348C232.485 137.61 232.064 137.735 231.667 137.735C230.973 137.735 230.348 137.36 230.189 136.644C229.814 137.337 229.075 137.735 228.12 137.735C226.438 137.735 225.381 136.416 225.381 134.723C225.381 133.04 226.393 131.688 228.132 131.688C229.03 131.688 229.677 132.051 229.973 132.62V131.824H231.53V135.7ZM226.995 134.711C226.995 135.655 227.575 136.314 228.439 136.314C229.325 136.314 229.928 135.666 229.928 134.711C229.928 133.768 229.325 133.108 228.439 133.108C227.529 133.108 226.995 133.802 226.995 134.711ZM233.453 131.824H235.022V132.608C235.374 132.085 235.875 131.688 236.784 131.688C237.977 131.688 238.864 132.392 238.864 133.836V137.667H237.25V134.177C237.25 133.461 236.852 133.12 236.25 133.12C235.602 133.12 235.068 133.575 235.068 134.484V137.667H233.453V131.824ZM245.894 137.667H244.371V136.859C244.042 137.394 243.326 137.735 242.484 137.735C240.757 137.735 239.745 136.382 239.745 134.723C239.745 133.052 240.757 131.688 242.496 131.688C243.337 131.688 243.996 132.029 244.28 132.529V129.71H245.894V137.667ZM241.359 134.711C241.359 135.655 241.939 136.314 242.803 136.314C243.689 136.314 244.292 135.655 244.292 134.711C244.292 133.768 243.689 133.108 242.803 133.108C241.905 133.108 241.359 133.802 241.359 134.711ZM255.252 137.667H253.729V136.859C253.4 137.394 252.684 137.735 251.842 137.735C250.115 137.735 249.103 136.382 249.103 134.723C249.103 133.052 250.115 131.688 251.854 131.688C252.695 131.688 253.354 132.029 253.638 132.529V129.71H255.252V137.667ZM250.717 134.711C250.717 135.655 251.297 136.314 252.161 136.314C253.047 136.314 253.65 135.655 253.65 134.711C253.65 133.768 253.047 133.108 252.161 133.108C251.263 133.108 250.717 133.802 250.717 134.711ZM256.476 131.824H258.045V132.711C258.306 132.04 258.897 131.756 259.591 131.756C259.829 131.756 260.091 131.79 260.352 131.858L260.125 133.359C259.886 133.279 259.648 133.245 259.443 133.245C258.647 133.245 258.09 133.745 258.09 134.7V137.667H256.476V131.824ZM263.549 131.688C265.289 131.688 266.573 132.983 266.573 134.711C266.573 136.439 265.289 137.735 263.549 137.735C261.799 137.735 260.515 136.439 260.515 134.711C260.515 132.983 261.799 131.688 263.549 131.688ZM262.129 134.711C262.129 135.643 262.686 136.291 263.549 136.291C264.413 136.291 264.97 135.643 264.97 134.711C264.97 133.779 264.413 133.131 263.549 133.131C262.686 133.131 262.129 133.779 262.129 134.711ZM270.865 131.688C272.604 131.688 273.604 133.052 273.604 134.688C273.604 136.314 272.592 137.667 270.876 137.667C270.092 137.667 269.432 137.382 269.08 136.905V140.179H267.466V131.824H269.035V132.563C269.319 132.04 270.012 131.688 270.865 131.688ZM269.069 134.677C269.069 135.586 269.66 136.246 270.558 136.246C271.422 136.246 272.001 135.586 272.001 134.677C272.001 133.802 271.456 133.108 270.558 133.108C269.66 133.108 269.069 133.768 269.069 134.677ZM280.501 131.824H282.103V137.326C282.103 139.303 280.648 140.338 279.034 140.338C277.716 140.338 276.625 139.724 276.147 138.474L277.557 137.814C277.795 138.553 278.386 138.894 279.08 138.894C279.864 138.894 280.501 138.428 280.501 137.519V136.575C280.205 137.166 279.557 137.507 278.739 137.507C277.511 137.507 276.556 136.746 276.556 135.211V131.824H278.159V134.95C278.159 135.677 278.591 136.075 279.25 136.075C279.944 136.075 280.501 135.598 280.501 134.723V131.824ZM286.028 131.688C287.767 131.688 289.052 132.983 289.052 134.711C289.052 136.439 287.767 137.735 286.028 137.735C284.278 137.735 282.993 136.439 282.993 134.711C282.993 132.983 284.278 131.688 286.028 131.688ZM284.608 134.711C284.608 135.643 285.164 136.291 286.028 136.291C286.892 136.291 287.449 135.643 287.449 134.711C287.449 133.779 286.892 133.131 286.028 133.131C285.164 133.131 284.608 133.779 284.608 134.711ZM295.162 131.824V137.667H293.605V136.814C293.253 137.337 292.775 137.735 291.9 137.735C290.786 137.735 289.831 137.098 289.831 135.564V131.824H291.445V135.234C291.445 135.973 291.809 136.303 292.377 136.303C293.082 136.303 293.559 135.791 293.559 134.95V131.824H295.162ZM296.4 131.824H297.969V132.711C298.23 132.04 298.821 131.756 299.514 131.756C299.753 131.756 300.015 131.79 300.276 131.858L300.049 133.359C299.81 133.279 299.571 133.245 299.367 133.245C298.571 133.245 298.014 133.745 298.014 134.7V137.667H296.4V131.824ZM302.323 131.824H303.403V131.54C303.403 130.13 304.324 129.323 305.585 129.323C306.154 129.323 306.711 129.483 307.211 129.812L306.62 131.04C306.381 130.869 306.097 130.778 305.824 130.778C305.369 130.778 305.006 131.017 305.006 131.54V131.824H306.426V133.268H305.006V137.667H303.403V133.268H302.323V131.824ZM308.504 129.153C309.118 129.153 309.55 129.596 309.55 130.165C309.55 130.721 309.118 131.165 308.504 131.165C307.89 131.165 307.447 130.721 307.447 130.165C307.447 129.596 307.89 129.153 308.504 129.153ZM307.697 137.667V131.824H309.311V137.667H307.697ZM313.848 137.371C313.405 137.61 312.95 137.735 312.518 137.735C311.473 137.735 310.62 137.041 310.62 135.723V129.71H312.234V135.552C312.234 136.03 312.518 136.291 312.916 136.291C313.087 136.291 313.28 136.246 313.473 136.143L313.848 137.371ZM319.63 135.268H315.651C315.822 135.996 316.333 136.348 317.118 136.348C317.8 136.348 318.289 136.064 318.63 135.677L319.448 136.666C318.811 137.348 318.016 137.735 316.993 137.735C315.208 137.735 314.015 136.575 314.015 134.791C314.015 133.018 315.185 131.688 317.015 131.688C318.607 131.688 319.63 132.677 319.63 134.643V135.268ZM315.629 134.109H318.038C318.027 133.461 317.697 133.018 316.925 133.018C316.208 133.018 315.765 133.415 315.629 134.109ZM324.125 133.563C323.727 133.199 323.17 133.04 322.761 133.04C322.341 133.04 322.068 133.211 322.068 133.506C322.068 133.825 322.363 133.904 323.125 134.052C324.046 134.222 325.25 134.45 325.25 135.757C325.25 136.973 324.205 137.735 322.795 137.735C321.795 137.735 320.817 137.337 320.135 136.655L320.988 135.53C321.499 136.098 322.341 136.348 322.943 136.348C323.375 136.348 323.659 136.212 323.659 135.927C323.659 135.643 323.386 135.53 322.716 135.393C321.795 135.223 320.488 134.984 320.488 133.586C320.488 132.313 321.545 131.688 322.727 131.688C323.557 131.688 324.387 131.972 324.943 132.529L324.125 133.563ZM222.289 146.71H223.903V149.563C224.244 149.063 224.744 148.688 225.62 148.688C226.813 148.688 227.7 149.392 227.7 150.836V154.667H226.086V151.177C226.086 150.461 225.688 150.12 225.085 150.12C224.438 150.12 223.903 150.563 223.903 151.472V154.667H222.289V146.71ZM234.196 152.268H230.218C230.388 152.996 230.9 153.348 231.684 153.348C232.366 153.348 232.855 153.064 233.196 152.677L234.014 153.666C233.378 154.348 232.582 154.735 231.559 154.735C229.774 154.735 228.581 153.575 228.581 151.791C228.581 150.018 229.752 148.688 231.582 148.688C233.173 148.688 234.196 149.677 234.196 151.643V152.268ZM230.195 151.109H232.605C232.593 150.461 232.264 150.018 231.491 150.018C230.775 150.018 230.331 150.415 230.195 151.109ZM235.099 148.824H236.668V149.711C236.929 149.04 237.52 148.756 238.214 148.756C238.453 148.756 238.714 148.79 238.975 148.858L238.748 150.359C238.509 150.279 238.271 150.245 238.066 150.245C237.27 150.245 236.713 150.745 236.713 151.7V154.667H235.099V148.824ZM244.753 152.268H240.774C240.945 152.996 241.456 153.348 242.241 153.348C242.923 153.348 243.412 153.064 243.753 152.677L244.571 153.666C243.934 154.348 243.139 154.735 242.116 154.735C240.331 154.735 239.138 153.575 239.138 151.791C239.138 150.018 240.308 148.688 242.138 148.688C243.73 148.688 244.753 149.677 244.753 151.643V152.268ZM240.752 151.109H243.161C243.15 150.461 242.82 150.018 242.048 150.018C241.331 150.018 240.888 150.415 240.752 151.109ZM247.189 148.824H248.348V147.392H249.962V148.824H251.633V150.268H249.962V152.393C249.962 153.007 250.349 153.291 250.849 153.291C251.11 153.291 251.417 153.212 251.701 153.03L252.099 154.223C251.554 154.564 250.985 154.735 250.417 154.735C249.212 154.735 248.348 153.985 248.348 152.677V150.268H247.189V148.824ZM255.321 148.688C257.061 148.688 258.345 149.983 258.345 151.711C258.345 153.439 257.061 154.735 255.321 154.735C253.571 154.735 252.287 153.439 252.287 151.711C252.287 149.983 253.571 148.688 255.321 148.688ZM253.901 151.711C253.901 152.643 254.458 153.291 255.321 153.291C256.185 153.291 256.742 152.643 256.742 151.711C256.742 150.779 256.185 150.131 255.321 150.131C254.458 150.131 253.901 150.779 253.901 151.711ZM266.67 148.824V154.667H265.113V153.814C264.76 154.337 264.283 154.735 263.408 154.735C262.294 154.735 261.339 154.098 261.339 152.564V148.824H262.953V152.234C262.953 152.973 263.317 153.303 263.885 153.303C264.59 153.303 265.067 152.791 265.067 151.95V148.824H266.67ZM271.306 148.688C273.045 148.688 274.046 150.052 274.046 151.688C274.046 153.314 273.034 154.667 271.318 154.667C270.533 154.667 269.874 154.382 269.522 153.905V157.179H267.908V148.824H269.476V149.563C269.761 149.04 270.454 148.688 271.306 148.688ZM269.51 151.677C269.51 152.586 270.102 153.246 270.999 153.246C271.863 153.246 272.443 152.586 272.443 151.677C272.443 150.802 271.897 150.108 270.999 150.108C270.102 150.108 269.51 150.768 269.51 151.677ZM278.168 154.371C277.725 154.61 277.27 154.735 276.838 154.735C275.793 154.735 274.94 154.041 274.94 152.723V146.71H276.554V152.552C276.554 153.03 276.838 153.291 277.236 153.291C277.407 153.291 277.6 153.246 277.793 153.143L278.168 154.371ZM281.369 148.688C283.108 148.688 284.393 149.983 284.393 151.711C284.393 153.439 283.108 154.735 281.369 154.735C279.619 154.735 278.334 153.439 278.334 151.711C278.334 149.983 279.619 148.688 281.369 148.688ZM279.949 151.711C279.949 152.643 280.505 153.291 281.369 153.291C282.233 153.291 282.79 152.643 282.79 151.711C282.79 150.779 282.233 150.131 281.369 150.131C280.505 150.131 279.949 150.779 279.949 151.711ZM291.094 152.7C291.094 153.121 291.367 153.291 291.651 153.291C291.799 153.291 291.935 153.257 292.072 153.177L292.413 154.348C292.049 154.61 291.628 154.735 291.231 154.735C290.537 154.735 289.912 154.36 289.753 153.644C289.378 154.337 288.639 154.735 287.684 154.735C286.002 154.735 284.945 153.416 284.945 151.723C284.945 150.04 285.957 148.688 287.696 148.688C288.594 148.688 289.241 149.051 289.537 149.62V148.824H291.094V152.7ZM286.559 151.711C286.559 152.655 287.139 153.314 288.003 153.314C288.889 153.314 289.492 152.666 289.492 151.711C289.492 150.768 288.889 150.108 288.003 150.108C287.093 150.108 286.559 150.802 286.559 151.711ZM298.715 154.667H297.192V153.859C296.862 154.394 296.146 154.735 295.305 154.735C293.577 154.735 292.565 153.382 292.565 151.723C292.565 150.052 293.577 148.688 295.316 148.688C296.157 148.688 296.817 149.029 297.101 149.529V146.71H298.715V154.667ZM294.18 151.711C294.18 152.655 294.759 153.314 295.623 153.314C296.51 153.314 297.112 152.655 297.112 151.711C297.112 150.768 296.51 150.108 295.623 150.108C294.725 150.108 294.18 150.802 294.18 151.711Z" fill="#434343"/>
<path d="M257.513 173.912C259.552 173.912 261.044 175.464 261.044 177.552C261.044 179.641 259.552 181.192 257.513 181.192C255.484 181.192 253.983 179.641 253.983 177.552C253.983 175.464 255.484 173.912 257.513 173.912ZM255.007 177.552C255.007 179.094 256.061 180.228 257.513 180.228C258.966 180.228 260.02 179.094 260.02 177.552C260.02 176.011 258.966 174.877 257.513 174.877C256.061 174.877 255.007 176.011 255.007 177.552ZM264.679 174.071C266.151 174.071 266.807 174.966 266.807 175.971C266.807 176.796 266.29 177.562 265.355 177.841L267.265 181.033H266.081L264.351 178.069H263.187V181.033H262.183V174.071H264.679ZM263.187 177.174H264.54C265.325 177.174 265.783 176.667 265.783 176.07C265.783 175.444 265.355 174.996 264.57 174.996H263.187V177.174Z" fill="#8A8A8A"/>
<rect x="207.819" y="197.11" width="105.363" height="26.9458" rx="13.4729" stroke="#144A38" stroke-width="1.42083"/>
<path d="M229.468 212.004C229.648 212.004 229.796 212.138 229.82 212.311L229.823 212.359V213.067C229.823 214.013 229.081 214.785 228.147 214.834L228.053 214.837H220.271C219.325 214.837 218.552 214.094 218.503 213.161L218.501 213.067V212.359C218.501 212.163 218.66 212.004 218.856 212.004C219.036 212.004 219.185 212.138 219.208 212.311L219.211 212.359V213.067C219.211 213.626 219.645 214.085 220.195 214.124L220.271 214.126H228.053C228.613 214.126 229.071 213.692 229.11 213.142L229.113 213.067V212.359C229.113 212.163 229.272 212.004 229.468 212.004ZM224.162 206.344C224.198 206.344 224.233 206.35 224.266 206.36C224.268 206.36 224.27 206.361 224.272 206.361C224.287 206.366 224.302 206.372 224.316 206.379C224.319 206.38 224.321 206.382 224.324 206.383C224.335 206.389 224.346 206.395 224.357 206.402C224.377 206.415 224.396 206.431 224.413 206.448L224.373 206.414C224.375 206.415 224.377 206.417 224.379 206.418L224.413 206.448L226.536 208.571L226.57 208.61C226.673 208.75 226.662 208.947 226.536 209.073L226.496 209.107C226.357 209.211 226.159 209.199 226.033 209.073L224.517 207.557L224.517 212.359L224.514 212.407C224.491 212.581 224.342 212.714 224.162 212.714C223.966 212.714 223.807 212.555 223.807 212.359L223.807 207.557L222.291 209.073L222.251 209.107C222.112 209.211 221.915 209.199 221.789 209.073C221.65 208.934 221.65 208.709 221.789 208.571L223.911 206.448L223.945 206.418C223.946 206.417 223.947 206.417 223.948 206.416C223.954 206.412 223.957 206.41 223.959 206.408C223.97 206.401 223.98 206.394 223.992 206.388C223.998 206.384 224.003 206.381 224.009 206.379C224.019 206.374 224.03 206.37 224.04 206.366C224.046 206.364 224.052 206.362 224.058 206.36C224.069 206.356 224.08 206.354 224.092 206.351C224.098 206.35 224.103 206.349 224.109 206.348C224.126 206.346 224.144 206.344 224.162 206.344L224.15 206.344C224.153 206.344 224.156 206.344 224.159 206.344L224.162 206.344Z" fill="#144A38"/>
<path d="M239.922 207.127C241.376 207.127 242.161 208.093 242.161 209.071C242.161 209.787 241.752 210.548 240.854 210.798C241.956 211.082 242.445 211.844 242.445 212.708C242.445 213.935 241.445 215.083 239.751 215.083H236.739V207.127H239.922ZM238.376 213.572H239.66C240.365 213.572 240.797 213.197 240.797 212.571C240.797 211.98 240.376 211.594 239.683 211.594H238.376V213.572ZM238.376 210.344H239.512C240.149 210.344 240.513 209.957 240.513 209.446C240.513 208.945 240.149 208.639 239.546 208.639H238.376V210.344ZM243.447 209.241H245.015V210.128C245.277 209.457 245.868 209.173 246.561 209.173C246.8 209.173 247.061 209.207 247.323 209.275L247.095 210.776C246.857 210.696 246.618 210.662 246.413 210.662C245.618 210.662 245.061 211.162 245.061 212.117V215.083H243.447V209.241ZM250.52 209.105C252.259 209.105 253.543 210.4 253.543 212.128C253.543 213.856 252.259 215.152 250.52 215.152C248.769 215.152 247.485 213.856 247.485 212.128C247.485 210.4 248.769 209.105 250.52 209.105ZM249.099 212.128C249.099 213.06 249.656 213.708 250.52 213.708C251.384 213.708 251.941 213.06 251.941 212.128C251.941 211.196 251.384 210.548 250.52 210.548C249.656 210.548 249.099 211.196 249.099 212.128ZM261.645 209.241H263.464L261.327 215.083H259.838L258.61 211.458L257.394 215.083H255.894L253.757 209.241H255.485L256.644 212.912L257.803 209.241H259.417L260.577 212.901L261.645 209.241ZM267.491 210.98C267.093 210.616 266.536 210.457 266.127 210.457C265.707 210.457 265.434 210.628 265.434 210.923C265.434 211.242 265.729 211.321 266.491 211.469C267.412 211.639 268.617 211.867 268.617 213.174C268.617 214.39 267.571 215.152 266.161 215.152C265.161 215.152 264.184 214.754 263.502 214.072L264.354 212.947C264.866 213.515 265.707 213.765 266.309 213.765C266.741 213.765 267.025 213.629 267.025 213.344C267.025 213.06 266.752 212.947 266.082 212.81C265.161 212.64 263.854 212.401 263.854 211.003C263.854 209.73 264.911 209.105 266.093 209.105C266.923 209.105 267.753 209.389 268.31 209.946L267.491 210.98ZM274.718 212.685H270.74C270.911 213.413 271.422 213.765 272.206 213.765C272.888 213.765 273.377 213.481 273.718 213.094L274.536 214.083C273.9 214.765 273.104 215.152 272.081 215.152C270.297 215.152 269.103 213.992 269.103 212.208C269.103 210.435 270.274 209.105 272.104 209.105C273.695 209.105 274.718 210.094 274.718 212.06V212.685ZM270.717 211.526H273.127C273.116 210.878 272.786 210.435 272.013 210.435C271.297 210.435 270.854 210.832 270.717 211.526ZM282.642 211.98H279.709V215.083H278.061V207.127H283.176V208.695H279.709V210.412H282.642V211.98ZM285.078 206.57C285.692 206.57 286.124 207.013 286.124 207.581C286.124 208.138 285.692 208.582 285.078 208.582C284.465 208.582 284.021 208.138 284.021 207.581C284.021 207.013 284.465 206.57 285.078 206.57ZM284.271 215.083V209.241H285.885V215.083H284.271ZM290.423 214.788C289.979 215.027 289.525 215.152 289.093 215.152C288.047 215.152 287.194 214.458 287.194 213.14V207.127H288.808V212.969C288.808 213.447 289.093 213.708 289.49 213.708C289.661 213.708 289.854 213.663 290.047 213.56L290.423 214.788ZM296.204 212.685H292.226C292.396 213.413 292.908 213.765 293.692 213.765C294.374 213.765 294.863 213.481 295.204 213.094L296.022 214.083C295.386 214.765 294.59 215.152 293.567 215.152C291.782 215.152 290.589 213.992 290.589 212.208C290.589 210.435 291.76 209.105 293.59 209.105C295.181 209.105 296.204 210.094 296.204 212.06V212.685ZM292.203 211.526H294.613C294.601 210.878 294.272 210.435 293.499 210.435C292.783 210.435 292.339 210.832 292.203 211.526ZM300.699 210.98C300.301 210.616 299.744 210.457 299.335 210.457C298.915 210.457 298.642 210.628 298.642 210.923C298.642 211.242 298.937 211.321 299.699 211.469C300.62 211.639 301.825 211.867 301.825 213.174C301.825 214.39 300.779 215.152 299.369 215.152C298.369 215.152 297.392 214.754 296.71 214.072L297.562 212.947C298.074 213.515 298.915 213.765 299.517 213.765C299.949 213.765 300.233 213.629 300.233 213.344C300.233 213.06 299.96 212.947 299.29 212.81C298.369 212.64 297.062 212.401 297.062 211.003C297.062 209.73 298.119 209.105 299.301 209.105C300.131 209.105 300.961 209.389 301.518 209.946L300.699 210.98Z" fill="#144A38"/>
</g>
<rect x="89.2896" y="83.3394" width="342.421" height="183.288" stroke="#C7C7C7" stroke-width="1.42083" stroke-dasharray="5.68 5.68"/>
<defs>
<clipPath id="clip0_138_779">
<rect x="90" y="84.0498" width="341" height="181.867" fill="white"/>
</clipPath>
</defs>
</svg>
