<svg width="520" height="300" viewBox="0 0 520 300" fill="none" xmlns="http://www.w3.org/2000/svg">
<rect width="520" height="300" fill="white"/>
<path d="M236.667 180C234.833 180 233.264 179.347 231.958 178.042C230.653 176.736 230 175.167 230 173.333V126.667C230 124.833 230.653 123.264 231.958 121.958C233.264 120.653 234.833 120 236.667 120H283.333C285.167 120 286.736 120.653 288.042 121.958C289.347 123.264 290 124.833 290 126.667V173.333C290 175.167 289.347 176.736 288.042 178.042C286.736 179.347 285.167 180 283.333 180H236.667ZM236.667 173.333H283.333V126.667H236.667V173.333ZM240 166.667H280L267.5 150L257.5 163.333L250 153.333L240 166.667Z" fill="#144A38"/>
</svg>
