<svg width="520" height="300" viewBox="0 0 520 300" fill="none" xmlns="http://www.w3.org/2000/svg">
<rect width="520" height="300" fill="white"/>
<rect width="439" height="31.3889" transform="translate(40 126)" fill="white"/>
<path d="M61.1903 139.428C61.4939 139.104 61.8565 138.84 62.2588 138.651C62.7328 138.408 63.3083 138.286 63.9854 138.286C64.5084 138.278 65.0278 138.374 65.5139 138.567C65.9549 138.744 66.3539 139.011 66.685 139.351C67.0188 139.703 67.2745 140.122 67.4355 140.579C67.6148 141.088 67.7035 141.624 67.6976 142.162V148.066H65.1097V142.614C65.1097 142.04 64.9567 141.575 64.6506 141.219C64.3446 140.863 63.9099 140.685 63.3465 140.684C62.7087 140.684 62.1962 140.871 61.8089 141.246C61.4216 141.621 61.2282 142.146 61.2289 142.821V148.068H58.6207V138.454H61.1903V139.428ZM68.7447 137.626V135.231H71.3549V137.626H68.7447ZM68.7447 148.065V138.454H71.3549V148.068L68.7447 148.065ZM77.8226 148.196C77.294 148.2 76.7677 148.127 76.2605 147.978C75.8102 147.85 75.3874 147.64 75.0133 147.359V148.069H72.4011V135.231H75.0082V139.222C75.3847 138.94 75.8088 138.727 76.2605 138.594C76.7675 138.437 77.2957 138.358 77.8266 138.361C78.4679 138.359 79.1026 138.489 79.6914 138.742C80.27 138.989 80.795 139.347 81.2372 139.794C81.6819 140.249 82.038 140.783 82.2874 141.368C82.5518 141.981 82.6867 142.642 82.6835 143.309C82.6898 143.976 82.5555 144.637 82.2894 145.249C82.0377 145.824 81.6809 146.348 81.2372 146.793C80.3288 147.692 79.1022 148.197 77.8236 148.199L77.8226 148.196ZM77.6002 145.894C77.9414 145.896 78.2765 145.826 78.5914 145.694C78.8961 145.568 79.1709 145.38 79.3979 145.141C79.6254 144.904 79.8075 144.627 79.9351 144.324C80.2077 143.696 80.2199 142.986 79.9689 142.349C79.7179 141.712 79.2244 141.201 78.5965 140.927C78.2829 140.791 77.9442 140.722 77.6022 140.724C77.2513 140.721 76.9035 140.79 76.5804 140.927C76.2699 141.06 75.9863 141.248 75.7435 141.483C75.5032 141.718 75.3119 141.998 75.1809 142.308C75.045 142.624 74.9759 142.966 74.9778 143.31C74.9746 143.658 75.0416 144.004 75.1748 144.325C75.3039 144.635 75.493 144.916 75.7311 145.152C75.9691 145.388 76.2516 145.575 76.5622 145.702C76.8923 145.833 77.2449 145.899 77.6002 145.894ZM51.2756 137.916V135.19H48.8888V137.916L50.0822 139.109L51.2756 137.916ZM53.7771 142.802H56.5051V140.417H53.7771L52.5837 141.609L53.7771 142.802ZM53.5384 139.842L55.4682 137.913L53.7802 136.228L51.8504 138.156V139.842H53.5384ZM51.8514 145.063L53.7812 146.991L55.4692 145.304L53.5394 143.376H51.8514V145.063ZM48.3129 138.155L46.3832 136.227L44.6962 137.913L46.6259 139.842H48.3129V138.155ZM51.2756 140.417H43.6582V142.802H47.2008L44.6962 145.304L46.3832 146.991L48.8888 144.488V148.027H51.2756V140.416V140.417Z" fill="#144A38"/>
<rect width="156.196" height="16.7556" transform="translate(82.6836 133.317)" fill="white"/>
<g clip-path="url(#clip0_138_4104)">
<path d="M243.371 145.039L243.374 145.042C244.118 145.515 245.101 145.408 245.731 144.778L245.965 144.544C246.271 144.237 246.271 143.739 245.965 143.432L244.979 142.448C244.672 142.141 244.175 142.141 243.868 142.448C243.806 142.509 243.723 142.544 243.636 142.544C243.549 142.544 243.465 142.509 243.403 142.448L241.827 140.871C241.699 140.743 241.699 140.534 241.827 140.406C241.974 140.259 242.057 140.059 242.057 139.85C242.057 139.642 241.974 139.442 241.827 139.295L240.842 138.309C240.535 138.002 240.038 138.002 239.731 138.309L239.497 138.542C238.867 139.172 238.759 140.155 239.237 140.907L239.242 140.914C240.339 142.538 241.736 143.935 243.358 145.031L243.371 145.039ZM239.622 140.66L239.62 140.657C239.26 140.09 239.342 139.344 239.82 138.866L240.054 138.632C240.182 138.504 240.39 138.504 240.519 138.632L241.503 139.618C241.565 139.68 241.6 139.763 241.6 139.85C241.6 139.938 241.565 140.021 241.504 140.083C241.197 140.39 241.197 140.887 241.503 141.194L243.08 142.771C243.227 142.918 243.427 143.001 243.636 143.001C243.844 143.001 244.044 142.918 244.191 142.771C244.32 142.643 244.528 142.643 244.656 142.771L245.641 143.756C245.77 143.884 245.77 144.092 245.641 144.221L245.407 144.454C244.929 144.933 244.183 145.014 243.612 144.651L243.609 144.649C242.037 143.586 240.684 142.232 239.622 140.66Z" fill="#144A38"/>
</g>
<path d="M250.259 145.194V138.884H249.162V137.622H251.631V145.194H250.259ZM256.33 141.199C257.46 141.43 258.075 142.11 258.075 143.054C258.075 144.382 256.889 145.26 255.463 145.26C254.288 145.26 253.268 144.646 252.785 143.559L253.981 142.933C254.266 143.658 254.848 144.042 255.528 144.042C256.187 144.042 256.714 143.691 256.714 143.054C256.714 142.297 256.066 141.902 254.892 141.902H254.541V140.815C255.759 140.815 256.417 140.42 256.417 139.674C256.417 139.092 255.945 138.774 255.364 138.774C254.782 138.774 254.178 139.103 253.871 139.663L252.894 139.037C253.355 138.061 254.365 137.512 255.463 137.512C256.747 137.512 257.778 138.258 257.778 139.356C257.778 140.19 257.197 140.936 256.33 141.199ZM262.28 145.194V138.884H261.182V137.622H263.652V145.194H262.28ZM270.754 142.604C270.754 144.261 269.524 145.26 268.021 145.26C266.287 145.26 265.025 143.91 265.025 141.759C265.025 139.345 266.572 137.512 269.601 137.512L269.656 138.763C267.966 138.774 266.627 139.454 266.408 141.243C266.803 140.519 267.648 140.146 268.438 140.146C269.722 140.146 270.754 141.101 270.754 142.604ZM266.627 142.659C266.627 143.438 267.187 144.009 268.01 144.009C268.844 144.009 269.36 143.438 269.36 142.67C269.36 141.77 268.69 141.353 268.01 141.353C267.319 141.353 266.627 141.803 266.627 142.659ZM278.293 142.187H279.588V143.46H278.293V145.194H276.932V143.46H273.541V142.264L276.899 137.622H278.293V142.187ZM274.88 142.187H276.932V139.345L274.88 142.187ZM282.062 143.932H285.596V145.194H280.306V143.998L282.753 141.77C283.28 141.298 283.939 140.684 283.939 139.915C283.939 139.18 283.401 138.785 282.775 138.785C282.062 138.785 281.381 139.257 281.348 140.278L280.097 140.212C280.152 138.39 281.502 137.512 282.852 137.512C284.268 137.512 285.31 138.401 285.31 139.828C285.31 140.98 284.575 141.726 284.037 142.187L282.062 143.932Z" fill="#144A38"/>
<rect width="156.196" height="16.7556" transform="translate(286.635 133.317)" fill="white"/>
<rect x="442.831" y="133.317" width="32.5111" height="16.7556" rx="8.37778" fill="#82E578"/>
<path d="M453.864 142.521H455.234V143.194H453.157V139.78H453.864V142.521ZM456.729 140.629C457.475 140.629 458.026 141.185 458.026 141.926C458.026 142.668 457.475 143.224 456.729 143.224C455.978 143.224 455.427 142.668 455.427 141.926C455.427 141.185 455.978 140.629 456.729 140.629ZM456.119 141.926C456.119 142.326 456.358 142.604 456.729 142.604C457.1 142.604 457.339 142.326 457.339 141.926C457.339 141.526 457.1 141.248 456.729 141.248C456.358 141.248 456.119 141.526 456.119 141.926ZM460.307 140.687H460.975V143.048C460.975 143.848 460.366 144.341 459.58 144.341C458.971 144.341 458.473 144.024 458.273 143.546L458.868 143.238C458.99 143.541 459.283 143.721 459.605 143.721C460.005 143.721 460.288 143.497 460.288 143.116V142.789C460.146 143.019 459.873 143.141 459.502 143.141C458.785 143.141 458.298 142.624 458.298 141.887C458.298 141.17 458.761 140.629 459.507 140.629C459.897 140.629 460.2 140.775 460.307 141.009V140.687ZM458.99 141.882C458.99 142.272 459.254 142.531 459.639 142.531C460.024 142.531 460.288 142.287 460.288 141.882C460.288 141.477 460.024 141.238 459.639 141.238C459.268 141.238 458.99 141.477 458.99 141.882ZM461.837 139.541C462.1 139.541 462.285 139.731 462.285 139.975C462.285 140.214 462.1 140.404 461.837 140.404C461.573 140.404 461.383 140.214 461.383 139.975C461.383 139.731 461.573 139.541 461.837 139.541ZM461.49 143.194V140.687H462.183V143.194H461.49ZM462.745 140.687H463.418V141.024C463.569 140.799 463.784 140.629 464.174 140.629C464.686 140.629 465.066 140.931 465.066 141.551V143.194H464.374V141.697C464.374 141.39 464.203 141.243 463.945 141.243C463.667 141.243 463.437 141.438 463.437 141.829V143.194H462.745V140.687Z" fill="#144A38"/>
<rect width="439" height="16.7556" transform="translate(40 157.389)" fill="#F1F1F1"/>
<mask id="mask0_138_4104" style="mask-type:alpha" maskUnits="userSpaceOnUse" x="48" y="162" width="48" height="8">
<path d="M48.8971 167.267V163.852H49.6044V165.218H51.014V163.852H51.7213V167.267H51.014V165.891H49.6044V167.267H48.8971ZM54.5581 166.237H52.8508C52.924 166.55 53.1435 166.701 53.4801 166.701C53.7727 166.701 53.9825 166.579 54.1288 166.413L54.48 166.837C54.2069 167.13 53.8654 167.296 53.4264 167.296C52.6606 167.296 52.1484 166.798 52.1484 166.033C52.1484 165.272 52.6508 164.701 53.4362 164.701C54.1191 164.701 54.5581 165.125 54.5581 165.969V166.237ZM52.8411 165.74H53.8752C53.8703 165.462 53.7288 165.272 53.3971 165.272C53.0898 165.272 52.8996 165.442 52.8411 165.74ZM57.4383 166.423C57.4383 166.603 57.5553 166.676 57.6773 166.676C57.7407 166.676 57.7992 166.662 57.8578 166.628L58.0041 167.13C57.848 167.242 57.6675 167.296 57.4968 167.296C57.1993 167.296 56.931 167.135 56.8627 166.828C56.7017 167.125 56.3847 167.296 55.9749 167.296C55.253 167.296 54.7994 166.73 54.7994 166.003C54.7994 165.281 55.2335 164.701 55.9798 164.701C56.3652 164.701 56.6432 164.857 56.77 165.101V164.759H57.4383V166.423ZM55.492 165.998C55.492 166.403 55.7408 166.686 56.1115 166.686C56.492 166.686 56.7505 166.408 56.7505 165.998C56.7505 165.594 56.492 165.311 56.1115 165.311C55.7213 165.311 55.492 165.608 55.492 165.998ZM59.6489 167.14C59.4586 167.242 59.2635 167.296 59.0782 167.296C58.6294 167.296 58.2636 166.998 58.2636 166.433V163.852H58.9562V166.359C58.9562 166.564 59.0782 166.676 59.2489 166.676C59.322 166.676 59.405 166.657 59.4879 166.613L59.6489 167.14ZM59.5263 164.759H60.0238V164.145H60.7164V164.759H61.4335V165.379H60.7164V166.291C60.7164 166.554 60.8823 166.676 61.0969 166.676C61.2091 166.676 61.3408 166.642 61.4627 166.564L61.6335 167.076C61.3993 167.223 61.1554 167.296 60.9116 167.296C60.3945 167.296 60.0238 166.974 60.0238 166.413V165.379H59.5263V164.759ZM61.9173 163.852H62.61V165.076C62.7563 164.862 62.9709 164.701 63.3465 164.701C63.8587 164.701 64.2391 165.003 64.2391 165.623V167.267H63.5465V165.769C63.5465 165.462 63.3758 165.315 63.1173 165.315C62.8392 165.315 62.61 165.506 62.61 165.896V167.267H61.9173V163.852ZM66.2422 163.613C66.5056 163.613 66.691 163.803 66.691 164.047C66.691 164.286 66.5056 164.477 66.2422 164.477C65.9788 164.477 65.7886 164.286 65.7886 164.047C65.7886 163.803 65.9788 163.613 66.2422 163.613ZM65.8959 167.267V164.759H66.5886V167.267H65.8959ZM67.1503 164.759H67.8234V165.096C67.9746 164.872 68.1892 164.701 68.5795 164.701C69.0916 164.701 69.4721 165.003 69.4721 165.623V167.267H68.7794V165.769C68.7794 165.462 68.6087 165.315 68.3502 165.315C68.0722 165.315 67.8429 165.511 67.8429 165.901V167.267H67.1503V164.759ZM71.5379 165.506C71.3672 165.35 71.1282 165.281 70.9526 165.281C70.7721 165.281 70.655 165.355 70.655 165.481C70.655 165.618 70.7818 165.652 71.1087 165.715C71.5038 165.789 72.0208 165.886 72.0208 166.447C72.0208 166.969 71.572 167.296 70.9672 167.296C70.538 167.296 70.1185 167.125 69.8258 166.832L70.1916 166.35C70.4111 166.593 70.7721 166.701 71.0306 166.701C71.216 166.701 71.3379 166.642 71.3379 166.52C71.3379 166.398 71.2208 166.35 70.9331 166.291C70.538 166.218 69.977 166.115 69.977 165.515C69.977 164.969 70.4306 164.701 70.9379 164.701C71.294 164.701 71.6501 164.823 71.8891 165.062L71.5379 165.506ZM74.6149 164.759V167.267H73.9466V166.901C73.7954 167.125 73.5905 167.296 73.2149 167.296C72.7369 167.296 72.3272 167.023 72.3272 166.364V164.759H73.0198V166.223C73.0198 166.54 73.1759 166.681 73.4198 166.681C73.7222 166.681 73.9271 166.462 73.9271 166.101V164.759H74.6149ZM75.146 164.759H75.8191V165.14C75.9313 164.852 76.185 164.73 76.4825 164.73C76.585 164.73 76.6971 164.745 76.8093 164.774L76.7118 165.418C76.6093 165.384 76.5069 165.369 76.4191 165.369C76.0777 165.369 75.8387 165.584 75.8387 165.994V167.267H75.146V164.759ZM79.5178 166.423C79.5178 166.603 79.6349 166.676 79.7568 166.676C79.8203 166.676 79.8788 166.662 79.9373 166.628L80.0837 167.13C79.9276 167.242 79.7471 167.296 79.5764 167.296C79.2788 167.296 79.0105 167.135 78.9423 166.828C78.7813 167.125 78.4642 167.296 78.0545 167.296C77.3326 167.296 76.879 166.73 76.879 166.003C76.879 165.281 77.3131 164.701 78.0594 164.701C78.4447 164.701 78.7228 164.857 78.8496 165.101V164.759H79.5178V166.423ZM77.5716 165.998C77.5716 166.403 77.8204 166.686 78.1911 166.686C78.5715 166.686 78.8301 166.408 78.8301 165.998C78.8301 165.594 78.5715 165.311 78.1911 165.311C77.8009 165.311 77.5716 165.608 77.5716 165.998ZM80.3431 164.759H81.0163V165.096C81.1675 164.872 81.3821 164.701 81.7723 164.701C82.2845 164.701 82.665 165.003 82.665 165.623V167.267H81.9723V165.769C81.9723 165.462 81.8016 165.315 81.5431 165.315C81.265 165.315 81.0358 165.511 81.0358 165.901V167.267H80.3431V164.759ZM85.4332 166.647C85.1795 167.057 84.7844 167.296 84.3113 167.296C83.5064 167.296 83.0431 166.74 83.0431 166.013C83.0431 165.272 83.5699 164.701 84.3308 164.701C84.7649 164.701 85.1259 164.881 85.3649 165.223L84.8722 165.623C84.7356 165.418 84.56 165.32 84.3357 165.32C83.9552 165.32 83.7308 165.598 83.7308 165.989C83.7308 166.384 83.9845 166.676 84.3698 166.676C84.6039 166.676 84.8381 166.545 84.9698 166.311L85.4332 166.647ZM87.9798 166.237H86.2726C86.3457 166.55 86.5652 166.701 86.9018 166.701C87.1945 166.701 87.4042 166.579 87.5505 166.413L87.9017 166.837C87.6286 167.13 87.2871 167.296 86.8481 167.296C86.0823 167.296 85.5702 166.798 85.5702 166.033C85.5702 165.272 86.0726 164.701 86.8579 164.701C87.5408 164.701 87.9798 165.125 87.9798 165.969V166.237ZM86.2628 165.74H87.2969C87.292 165.462 87.1506 165.272 86.8189 165.272C86.5116 165.272 86.3213 165.442 86.2628 165.74Z" fill="black"/>
<g clip-path="url(#clip1_138_4104)">
<path d="M93.3942 166.712L91.2358 164.553C91.1763 164.494 91.0798 164.494 91.0202 164.553C90.9607 164.613 90.9607 164.709 91.0202 164.769L93.2864 167.035C93.3459 167.094 93.4424 167.094 93.5019 167.035L95.7681 164.769C95.8276 164.709 95.8276 164.613 95.7681 164.553C95.7085 164.494 95.612 164.494 95.5525 164.553L93.3942 166.712Z" fill="#141414"/>
</g>
</mask>
<g mask="url(#mask0_138_4104)">
<rect x="43.6582" y="157.389" width="57.0722" height="16.7556" fill="#434343"/>
</g>
<mask id="mask1_138_4104" style="mask-type:alpha" maskUnits="userSpaceOnUse" x="105" y="162" width="40" height="8">
<path d="M107.442 164.525V167.267H106.735V164.525H105.677V163.852H108.496V164.525H107.442ZM108.61 164.759H109.283V165.14C109.395 164.852 109.649 164.73 109.946 164.73C110.049 164.73 110.161 164.745 110.273 164.774L110.175 165.418C110.073 165.384 109.971 165.369 109.883 165.369C109.541 165.369 109.302 165.584 109.302 165.994V167.267H108.61V164.759ZM112.981 166.423C112.981 166.603 113.099 166.676 113.22 166.676C113.284 166.676 113.342 166.662 113.401 166.628L113.547 167.13C113.391 167.242 113.211 167.296 113.04 167.296C112.742 167.296 112.474 167.135 112.406 166.828C112.245 167.125 111.928 167.296 111.518 167.296C110.796 167.296 110.343 166.73 110.343 166.003C110.343 165.281 110.777 164.701 111.523 164.701C111.908 164.701 112.186 164.857 112.313 165.101V164.759H112.981V166.423ZM111.035 165.998C111.035 166.403 111.284 166.686 111.655 166.686C112.035 166.686 112.294 166.408 112.294 165.998C112.294 165.594 112.035 165.311 111.655 165.311C111.264 165.311 111.035 165.608 111.035 165.998ZM115.331 164.759H116.077L115.077 167.267H114.472L113.468 164.759H114.219L114.775 166.335L115.331 164.759ZM118.535 166.237H116.828C116.901 166.55 117.121 166.701 117.457 166.701C117.75 166.701 117.96 166.579 118.106 166.413L118.457 166.837C118.184 167.13 117.843 167.296 117.404 167.296C116.638 167.296 116.126 166.798 116.126 166.033C116.126 165.272 116.628 164.701 117.413 164.701C118.096 164.701 118.535 165.125 118.535 165.969V166.237ZM116.818 165.74H117.852C117.847 165.462 117.706 165.272 117.374 165.272C117.067 165.272 116.877 165.442 116.818 165.74ZM120.308 167.14C120.118 167.242 119.923 167.296 119.737 167.296C119.289 167.296 118.923 166.998 118.923 166.433V163.852H119.616V166.359C119.616 166.564 119.737 166.676 119.908 166.676C119.981 166.676 120.064 166.657 120.147 166.613L120.308 167.14ZM121.905 163.613C122.168 163.613 122.353 163.803 122.353 164.047C122.353 164.286 122.168 164.477 121.905 164.477C121.641 164.477 121.451 164.286 121.451 164.047C121.451 163.803 121.641 163.613 121.905 163.613ZM121.558 167.267V164.759H122.251V167.267H121.558ZM122.813 164.759H123.486V165.096C123.637 164.872 123.852 164.701 124.242 164.701C124.754 164.701 125.134 165.003 125.134 165.623V167.267H124.442V165.769C124.442 165.462 124.271 165.315 124.012 165.315C123.734 165.315 123.505 165.511 123.505 165.901V167.267H122.813V164.759ZM127.2 165.506C127.029 165.35 126.79 165.281 126.615 165.281C126.434 165.281 126.317 165.355 126.317 165.481C126.317 165.618 126.444 165.652 126.771 165.715C127.166 165.789 127.683 165.886 127.683 166.447C127.683 166.969 127.234 167.296 126.629 167.296C126.2 167.296 125.781 167.125 125.488 166.832L125.854 166.35C126.073 166.593 126.434 166.701 126.693 166.701C126.878 166.701 127 166.642 127 166.52C127 166.398 126.883 166.35 126.595 166.291C126.2 166.218 125.639 166.115 125.639 165.515C125.639 164.969 126.093 164.701 126.6 164.701C126.956 164.701 127.312 164.823 127.551 165.062L127.2 165.506ZM130.277 164.759V167.267H129.609V166.901C129.458 167.125 129.253 167.296 128.877 167.296C128.399 167.296 127.989 167.023 127.989 166.364V164.759H128.682V166.223C128.682 166.54 128.838 166.681 129.082 166.681C129.385 166.681 129.589 166.462 129.589 166.101V164.759H130.277ZM130.808 164.759H131.481V165.14C131.594 164.852 131.847 164.73 132.145 164.73C132.247 164.73 132.359 164.745 132.472 164.774L132.374 165.418C132.272 165.384 132.169 165.369 132.081 165.369C131.74 165.369 131.501 165.584 131.501 165.994V167.267H130.808V164.759ZM135.18 166.423C135.18 166.603 135.297 166.676 135.419 166.676C135.483 166.676 135.541 166.662 135.6 166.628L135.746 167.13C135.59 167.242 135.409 167.296 135.239 167.296C134.941 167.296 134.673 167.135 134.605 166.828C134.444 167.125 134.127 167.296 133.717 167.296C132.995 167.296 132.541 166.73 132.541 166.003C132.541 165.281 132.975 164.701 133.722 164.701C134.107 164.701 134.385 164.857 134.512 165.101V164.759H135.18V166.423ZM133.234 165.998C133.234 166.403 133.483 166.686 133.853 166.686C134.234 166.686 134.492 166.408 134.492 165.998C134.492 165.594 134.234 165.311 133.853 165.311C133.463 165.311 133.234 165.608 133.234 165.998ZM136.005 164.759H136.679V165.096C136.83 164.872 137.044 164.701 137.435 164.701C137.947 164.701 138.327 165.003 138.327 165.623V167.267H137.635V165.769C137.635 165.462 137.464 165.315 137.205 165.315C136.927 165.315 136.698 165.511 136.698 165.901V167.267H136.005V164.759ZM141.095 166.647C140.842 167.057 140.447 167.296 139.974 167.296C139.169 167.296 138.705 166.74 138.705 166.013C138.705 165.272 139.232 164.701 139.993 164.701C140.427 164.701 140.788 164.881 141.027 165.223L140.535 165.623C140.398 165.418 140.222 165.32 139.998 165.32C139.617 165.32 139.393 165.598 139.393 165.989C139.393 166.384 139.647 166.676 140.032 166.676C140.266 166.676 140.5 166.545 140.632 166.311L141.095 166.647ZM143.642 166.237H141.935C142.008 166.55 142.228 166.701 142.564 166.701C142.857 166.701 143.066 166.579 143.213 166.413L143.564 166.837C143.291 167.13 142.949 167.296 142.51 167.296C141.745 167.296 141.232 166.798 141.232 166.033C141.232 165.272 141.735 164.701 142.52 164.701C143.203 164.701 143.642 165.125 143.642 165.969V166.237ZM141.925 165.74H142.959C142.954 165.462 142.813 165.272 142.481 165.272C142.174 165.272 141.984 165.442 141.925 165.74Z" fill="black"/>
</mask>
<g mask="url(#mask1_138_4104)">
<rect x="100.73" y="157.389" width="48.7556" height="16.7556" fill="#434343"/>
</g>
<mask id="mask2_138_4104" style="mask-type:alpha" maskUnits="userSpaceOnUse" x="154" y="162" width="36" height="8">
<path d="M156.69 165.935H155.432V167.267H154.724V163.852H156.919V164.525H155.432V165.262H156.69V165.935ZM157.736 163.613C157.999 163.613 158.184 163.803 158.184 164.047C158.184 164.286 157.999 164.477 157.736 164.477C157.472 164.477 157.282 164.286 157.282 164.047C157.282 163.803 157.472 163.613 157.736 163.613ZM157.389 167.267V164.759H158.082V167.267H157.389ZM158.644 164.759H159.317V165.096C159.468 164.872 159.683 164.701 160.073 164.701C160.585 164.701 160.965 165.003 160.965 165.623V167.267H160.273V165.769C160.273 165.462 160.102 165.315 159.844 165.315C159.566 165.315 159.336 165.511 159.336 165.901V167.267H158.644V164.759ZM163.982 167.267H163.329V166.92C163.187 167.15 162.88 167.296 162.519 167.296C161.778 167.296 161.344 166.715 161.344 166.003C161.344 165.286 161.778 164.701 162.524 164.701C162.885 164.701 163.168 164.847 163.29 165.062V163.852H163.982V167.267ZM162.036 165.998C162.036 166.403 162.285 166.686 162.656 166.686C163.036 166.686 163.295 166.403 163.295 165.998C163.295 165.594 163.036 165.311 162.656 165.311C162.27 165.311 162.036 165.608 162.036 165.998ZM167.998 166.423C167.998 166.603 168.115 166.676 168.237 166.676C168.301 166.676 168.359 166.662 168.418 166.628L168.564 167.13C168.408 167.242 168.227 167.296 168.057 167.296C167.759 167.296 167.491 167.135 167.423 166.828C167.262 167.125 166.945 167.296 166.535 167.296C165.813 167.296 165.359 166.73 165.359 166.003C165.359 165.281 165.793 164.701 166.54 164.701C166.925 164.701 167.203 164.857 167.33 165.101V164.759H167.998V166.423ZM166.052 165.998C166.052 166.403 166.301 166.686 166.671 166.686C167.052 166.686 167.31 166.408 167.31 165.998C167.31 165.594 167.052 165.311 166.671 165.311C166.281 165.311 166.052 165.608 166.052 165.998ZM171.283 163.852C172.004 163.852 172.346 164.369 172.346 164.901C172.346 165.472 171.941 166.018 171.214 166.018H170.673V167.267H169.966V163.852H171.283ZM170.673 165.374H171.175C171.483 165.374 171.639 165.164 171.639 164.916C171.639 164.686 171.492 164.501 171.205 164.501H170.673V165.374ZM172.725 164.759H173.398V165.14C173.51 164.852 173.764 164.73 174.061 164.73C174.164 164.73 174.276 164.745 174.388 164.774L174.291 165.418C174.188 165.384 174.086 165.369 173.998 165.369C173.657 165.369 173.418 165.584 173.418 165.994V167.267H172.725V164.759ZM175.76 164.701C176.507 164.701 177.058 165.257 177.058 165.998C177.058 166.74 176.507 167.296 175.76 167.296C175.009 167.296 174.458 166.74 174.458 165.998C174.458 165.257 175.009 164.701 175.76 164.701ZM175.151 165.998C175.151 166.398 175.39 166.676 175.76 166.676C176.131 166.676 176.37 166.398 176.37 165.998C176.37 165.598 176.131 165.32 175.76 165.32C175.39 165.32 175.151 165.598 175.151 165.998ZM179.013 164.759H179.759L178.759 167.267H178.154L177.149 164.759H177.901L178.457 166.335L179.013 164.759ZM180.434 163.613C180.698 163.613 180.883 163.803 180.883 164.047C180.883 164.286 180.698 164.477 180.434 164.477C180.171 164.477 179.981 164.286 179.981 164.047C179.981 163.803 180.171 163.613 180.434 163.613ZM180.088 167.267V164.759H180.781V167.267H180.088ZM183.835 167.267H183.181V166.92C183.04 167.15 182.733 167.296 182.372 167.296C181.63 167.296 181.196 166.715 181.196 166.003C181.196 165.286 181.63 164.701 182.377 164.701C182.737 164.701 183.02 164.847 183.142 165.062V163.852H183.835V167.267ZM181.889 165.998C181.889 166.403 182.138 166.686 182.508 166.686C182.889 166.686 183.147 166.403 183.147 165.998C183.147 165.594 182.889 165.311 182.508 165.311C182.123 165.311 181.889 165.608 181.889 165.998ZM186.623 166.237H184.916C184.989 166.55 185.209 166.701 185.545 166.701C185.838 166.701 186.048 166.579 186.194 166.413L186.545 166.837C186.272 167.13 185.931 167.296 185.492 167.296C184.726 167.296 184.214 166.798 184.214 166.033C184.214 165.272 184.716 164.701 185.502 164.701C186.184 164.701 186.623 165.125 186.623 165.969V166.237ZM184.906 165.74H185.941C185.936 165.462 185.794 165.272 185.463 165.272C185.155 165.272 184.965 165.442 184.906 165.74ZM187.011 164.759H187.684V165.14C187.796 164.852 188.05 164.73 188.348 164.73C188.45 164.73 188.562 164.745 188.674 164.774L188.577 165.418C188.474 165.384 188.372 165.369 188.284 165.369C187.943 165.369 187.704 165.584 187.704 165.994V167.267H187.011V164.759Z" fill="black"/>
</mask>
<g mask="url(#mask2_138_4104)">
<rect x="149.486" y="157.389" width="44.7556" height="16.7556" fill="#434343"/>
</g>
<mask id="mask3_138_4104" style="mask-type:alpha" maskUnits="userSpaceOnUse" x="199" y="162" width="33" height="8">
<path d="M200.954 164.525V167.267H200.246V164.525H199.188V163.852H202.007V164.525H200.954ZM202.297 163.852H202.99V165.076C203.136 164.862 203.351 164.701 203.726 164.701C204.238 164.701 204.619 165.003 204.619 165.623V167.267H203.926V165.769C203.926 165.462 203.756 165.315 203.497 165.315C203.219 165.315 202.99 165.506 202.99 165.896V167.267H202.297V163.852ZM207.407 166.237H205.699C205.773 166.55 205.992 166.701 206.329 166.701C206.621 166.701 206.831 166.579 206.977 166.413L207.329 166.837C207.055 167.13 206.714 167.296 206.275 167.296C205.509 167.296 204.997 166.798 204.997 166.033C204.997 165.272 205.499 164.701 206.285 164.701C206.968 164.701 207.407 165.125 207.407 165.969V166.237ZM205.69 165.74H206.724C206.719 165.462 206.577 165.272 206.246 165.272C205.938 165.272 205.748 165.442 205.69 165.74ZM210.36 166.667C210.809 166.667 211.136 166.408 211.302 165.974L211.916 166.237C211.634 166.94 211.082 167.345 210.312 167.345C209.229 167.345 208.609 166.559 208.609 165.608C208.609 164.628 209.268 163.774 210.38 163.774C211.019 163.774 211.497 164.042 211.809 164.545L211.253 164.959C211.063 164.633 210.736 164.447 210.351 164.447C209.712 164.447 209.326 164.94 209.326 165.555C209.326 166.223 209.77 166.667 210.36 166.667ZM212.263 163.852H212.955V165.076C213.102 164.862 213.316 164.701 213.692 164.701C214.204 164.701 214.584 165.003 214.584 165.623V167.267H213.892V165.769C213.892 165.462 213.721 165.315 213.463 165.315C213.185 165.315 212.955 165.506 212.955 165.896V167.267H212.263V163.852ZM217.372 166.237H215.665C215.738 166.55 215.958 166.701 216.294 166.701C216.587 166.701 216.797 166.579 216.943 166.413L217.294 166.837C217.021 167.13 216.68 167.296 216.241 167.296C215.475 167.296 214.963 166.798 214.963 166.033C214.963 165.272 215.465 164.701 216.25 164.701C216.933 164.701 217.372 165.125 217.372 165.969V166.237ZM215.655 165.74H216.689C216.684 165.462 216.543 165.272 216.211 165.272C215.904 165.272 215.714 165.442 215.655 165.74ZM220.004 166.647C219.75 167.057 219.355 167.296 218.882 167.296C218.077 167.296 217.614 166.74 217.614 166.013C217.614 165.272 218.14 164.701 218.901 164.701C219.335 164.701 219.696 164.881 219.935 165.223L219.443 165.623C219.306 165.418 219.131 165.32 218.906 165.32C218.526 165.32 218.301 165.598 218.301 165.989C218.301 166.384 218.555 166.676 218.94 166.676C219.174 166.676 219.409 166.545 219.54 166.311L220.004 166.647ZM220.287 163.852H220.98V165.73L221.931 164.759H222.862L221.638 165.935L223.014 167.267H222.033L220.98 166.228V167.267H220.287V163.852ZM226.294 163.852H227.006V166.042C227.006 166.808 226.552 167.34 225.64 167.34C224.723 167.34 224.274 166.808 224.274 166.042V163.852H224.981V165.989C224.981 166.413 225.235 166.667 225.64 166.667C226.045 166.667 226.294 166.413 226.294 165.989V163.852ZM228.993 164.701C229.74 164.701 230.169 165.286 230.169 165.989C230.169 166.686 229.735 167.267 228.998 167.267C228.662 167.267 228.379 167.145 228.228 166.94V168.345H227.535V164.759H228.208V165.076C228.33 164.852 228.627 164.701 228.993 164.701ZM228.223 165.984C228.223 166.374 228.476 166.657 228.862 166.657C229.232 166.657 229.481 166.374 229.481 165.984C229.481 165.608 229.247 165.311 228.862 165.311C228.476 165.311 228.223 165.594 228.223 165.984Z" fill="black"/>
</mask>
<g mask="url(#mask3_138_4104)">
<rect x="194.242" y="157.389" width="41.7556" height="16.7556" fill="#434343"/>
</g>
<mask id="mask4_138_4104" style="mask-type:alpha" maskUnits="userSpaceOnUse" x="436" y="162" width="35" height="8">
<path d="M437.928 166.033V165.374H439.455V166.808C439.113 167.12 438.645 167.345 438.06 167.345C436.943 167.345 436.362 166.53 436.362 165.608C436.362 164.628 437.016 163.774 438.142 163.774C438.777 163.774 439.25 164.047 439.562 164.545L439.006 164.955C438.816 164.628 438.484 164.447 438.103 164.447C437.499 164.447 437.079 164.886 437.079 165.584C437.079 166.306 437.538 166.701 438.147 166.701C438.367 166.701 438.567 166.637 438.747 166.53V166.033H437.928ZM442.279 166.237H440.572C440.645 166.55 440.864 166.701 441.201 166.701C441.494 166.701 441.703 166.579 441.85 166.413L442.201 166.837C441.928 167.13 441.586 167.296 441.147 167.296C440.381 167.296 439.869 166.798 439.869 166.033C439.869 165.272 440.372 164.701 441.157 164.701C441.84 164.701 442.279 165.125 442.279 165.969V166.237ZM440.562 165.74H441.596C441.591 165.462 441.45 165.272 441.118 165.272C440.811 165.272 440.62 165.442 440.562 165.74ZM442.364 164.759H442.862V164.145H443.555V164.759H444.272V165.379H443.555V166.291C443.555 166.554 443.72 166.676 443.935 166.676C444.047 166.676 444.179 166.642 444.301 166.564L444.472 167.076C444.237 167.223 443.994 167.296 443.75 167.296C443.233 167.296 442.862 166.974 442.862 166.413V165.379H442.364V164.759ZM448.198 166.423C448.198 166.603 448.315 166.676 448.437 166.676C448.501 166.676 448.559 166.662 448.618 166.628L448.764 167.13C448.608 167.242 448.428 167.296 448.257 167.296C447.959 167.296 447.691 167.135 447.623 166.828C447.462 167.125 447.145 167.296 446.735 167.296C446.013 167.296 445.56 166.73 445.56 166.003C445.56 165.281 445.994 164.701 446.74 164.701C447.125 164.701 447.403 164.857 447.53 165.101V164.759H448.198V166.423ZM446.252 165.998C446.252 166.403 446.501 166.686 446.872 166.686C447.252 166.686 447.511 166.408 447.511 165.998C447.511 165.594 447.252 165.311 446.872 165.311C446.481 165.311 446.252 165.608 446.252 165.998ZM452.509 164.759V168.345H451.822V166.92C451.675 167.135 451.397 167.267 451.051 167.267C450.31 167.267 449.875 166.686 449.875 165.989C449.875 165.286 450.31 164.701 451.056 164.701C451.446 164.701 451.729 164.867 451.841 165.111V164.759H452.509ZM450.568 165.984C450.568 166.374 450.817 166.657 451.188 166.657C451.568 166.657 451.827 166.374 451.827 165.984C451.827 165.594 451.568 165.311 451.188 165.311C450.802 165.311 450.568 165.608 450.568 165.984ZM455.278 164.759V167.267H454.61V166.901C454.459 167.125 454.254 167.296 453.878 167.296C453.4 167.296 452.991 167.023 452.991 166.364V164.759H453.683V166.223C453.683 166.54 453.839 166.681 454.083 166.681C454.386 166.681 454.591 166.462 454.591 166.101V164.759H455.278ZM456.966 164.701C457.712 164.701 458.263 165.257 458.263 165.998C458.263 166.74 457.712 167.296 456.966 167.296C456.214 167.296 455.663 166.74 455.663 165.998C455.663 165.257 456.214 164.701 456.966 164.701ZM456.356 165.998C456.356 166.398 456.595 166.676 456.966 166.676C457.336 166.676 457.575 166.398 457.575 165.998C457.575 165.598 457.336 165.32 456.966 165.32C456.595 165.32 456.356 165.598 456.356 165.998ZM458.344 164.759H458.842V164.145H459.534V164.759H460.251V165.379H459.534V166.291C459.534 166.554 459.7 166.676 459.915 166.676C460.027 166.676 460.159 166.642 460.281 166.564L460.451 167.076C460.217 167.223 459.973 167.296 459.729 167.296C459.212 167.296 458.842 166.974 458.842 166.413V165.379H458.344V164.759ZM462.941 166.237H461.234C461.307 166.55 461.527 166.701 461.863 166.701C462.156 166.701 462.366 166.579 462.512 166.413L462.863 166.837C462.59 167.13 462.249 167.296 461.81 167.296C461.044 167.296 460.532 166.798 460.532 166.033C460.532 165.272 461.034 164.701 461.819 164.701C462.502 164.701 462.941 165.125 462.941 165.969V166.237ZM461.224 165.74H462.258C462.254 165.462 462.112 165.272 461.78 165.272C461.473 165.272 461.283 165.442 461.224 165.74Z" fill="black"/>
<g clip-path="url(#clip2_138_4104)">
<path d="M468.005 166.712L465.847 164.553C465.788 164.494 465.691 164.494 465.632 164.553C465.572 164.613 465.572 164.709 465.632 164.769L467.898 167.035C467.957 167.094 468.054 167.094 468.113 167.035L470.379 164.769C470.439 164.709 470.439 164.613 470.379 164.553C470.32 164.494 470.223 164.494 470.164 164.553L468.005 166.712Z" fill="#141414"/>
</g>
</mask>
<g mask="url(#mask4_138_4104)">
<rect x="431.27" y="157.389" width="44.0722" height="16.7556" fill="#434343"/>
</g>
<defs>
<clipPath id="clip0_138_4104">
<rect width="7.31667" height="7.31667" fill="white" transform="translate(238.879 138.036)"/>
</clipPath>
<clipPath id="clip1_138_4104">
<rect width="4.87778" height="4.87778" fill="white" transform="translate(90.9751 163.328)"/>
</clipPath>
<clipPath id="clip2_138_4104">
<rect width="4.87778" height="4.87778" fill="white" transform="translate(465.586 163.328)"/>
</clipPath>
</defs>
</svg>
