<svg width="520" height="300" viewBox="0 0 520 300" fill="none" xmlns="http://www.w3.org/2000/svg">
<rect width="520" height="300" fill="white"/>
<path d="M114.212 115V77.2H121.016V92.806H138.08V77.2H144.884V115H138.08V99.232H121.016V115H114.212ZM176.13 103.336H156.69C157.446 107.494 160.2 109.6 164.412 109.6C167.814 109.6 170.244 108.142 171.918 106.036L175.374 110.086C172.458 113.434 168.732 115.324 163.872 115.324C155.448 115.324 150.048 109.654 150.048 101.446C150.048 93.346 155.286 86.866 163.98 86.866C171.432 86.866 176.13 91.618 176.13 100.528V103.336ZM156.636 98.53H169.596C169.542 94.75 167.706 92.374 163.656 92.374C159.714 92.374 157.284 94.642 156.636 98.53ZM207.752 106.36C207.752 108.466 209.048 109.384 210.56 109.384C211.262 109.384 212.018 109.168 212.666 108.79L214.178 113.65C212.504 114.784 210.614 115.324 208.886 115.324C205.592 115.324 202.676 113.434 202.082 109.978C200.246 113.434 196.682 115.324 192.092 115.324C183.938 115.324 179.132 108.952 179.132 101.176C179.132 93.454 183.776 86.866 192.092 86.866C196.52 86.866 199.76 88.702 201.272 91.618V87.514H207.752V106.36ZM185.72 101.122C185.72 106.036 188.798 109.438 193.334 109.438C197.978 109.438 201.11 106.09 201.11 101.122C201.11 96.154 197.978 92.752 193.28 92.752C188.42 92.752 185.72 96.478 185.72 101.122ZM243.903 115H237.585V110.734C235.911 113.596 232.455 115.324 228.189 115.324C219.927 115.324 215.283 108.844 215.283 101.122C215.283 93.454 219.927 86.866 228.243 86.866C232.455 86.866 235.749 88.594 237.261 91.294V77.2H243.903V115ZM221.871 101.122C221.871 106.036 224.895 109.438 229.485 109.438C234.129 109.438 237.261 106.036 237.261 101.122C237.261 96.154 234.129 92.752 229.431 92.752C224.625 92.752 221.871 96.478 221.871 101.122ZM253.826 74.932C256.472 74.932 258.308 76.822 258.308 79.252C258.308 81.628 256.472 83.518 253.826 83.518C251.234 83.518 249.398 81.628 249.398 79.252C249.398 76.822 251.234 74.932 253.826 74.932ZM250.532 115V87.514H257.12V115H250.532ZM263.838 87.514H270.264V91.672C271.938 88.918 274.584 86.866 279.12 86.866C284.844 86.866 288.84 90.322 288.84 96.964V115H282.252V98.422C282.252 94.696 280.2 92.752 277.014 92.752C273.396 92.752 270.426 95.344 270.426 100.258V115H263.838V87.514ZM316.253 87.514H322.679V113.704C322.679 122.29 316.307 127.69 307.883 127.69C301.133 127.69 295.679 124.18 293.573 118.726L299.351 115.864C300.701 119.536 304.157 121.696 308.099 121.696C312.851 121.696 316.091 118.942 316.091 114.352V110.086C314.417 112.948 311.285 114.406 307.019 114.406C299.081 114.406 293.735 108.79 293.735 100.69C293.735 93.022 298.703 86.866 307.019 86.866C311.447 86.866 314.903 88.54 316.253 91.294V87.514ZM300.323 100.636C300.323 105.226 303.347 108.574 308.207 108.574C312.851 108.574 316.145 105.55 316.145 100.636C316.145 95.722 312.905 92.752 308.207 92.752C303.671 92.752 300.323 95.722 300.323 100.636ZM343.967 115V83.95H338.567V77.74H350.717V115H343.967Z" fill="#434343"/>
<path d="M112.808 178V152.8H117.344V163.204H128.72V152.8H133.256V178H128.72V167.488H117.344V178H112.808ZM154.087 170.224H141.127C141.631 172.996 143.467 174.4 146.275 174.4C148.543 174.4 150.163 173.428 151.279 172.024L153.583 174.724C151.639 176.956 149.155 178.216 145.915 178.216C140.299 178.216 136.699 174.436 136.699 168.964C136.699 163.564 140.191 159.244 145.987 159.244C150.955 159.244 154.087 162.412 154.087 168.352V170.224ZM141.091 167.02H149.731C149.695 164.5 148.471 162.916 145.771 162.916C143.143 162.916 141.523 164.428 141.091 167.02ZM175.168 172.24C175.168 173.644 176.032 174.256 177.04 174.256C177.508 174.256 178.012 174.112 178.444 173.86L179.452 177.1C178.336 177.856 177.076 178.216 175.924 178.216C173.728 178.216 171.784 176.956 171.388 174.652C170.164 176.956 167.788 178.216 164.728 178.216C159.292 178.216 156.088 173.968 156.088 168.784C156.088 163.636 159.184 159.244 164.728 159.244C167.68 159.244 169.84 160.468 170.848 162.412V159.676H175.168V172.24ZM160.48 168.748C160.48 172.024 162.532 174.292 165.556 174.292C168.652 174.292 170.74 172.06 170.74 168.748C170.74 165.436 168.652 163.168 165.52 163.168C162.28 163.168 160.48 165.652 160.48 168.748ZM199.268 178H195.056V175.156C193.94 177.064 191.636 178.216 188.792 178.216C183.284 178.216 180.188 173.896 180.188 168.748C180.188 163.636 183.284 159.244 188.828 159.244C191.636 159.244 193.832 160.396 194.84 162.196V152.8H199.268V178ZM184.58 168.748C184.58 172.024 186.596 174.292 189.656 174.292C192.752 174.292 194.84 172.024 194.84 168.748C194.84 165.436 192.752 163.168 189.62 163.168C186.416 163.168 184.58 165.652 184.58 168.748ZM205.884 151.288C207.648 151.288 208.872 152.548 208.872 154.168C208.872 155.752 207.648 157.012 205.884 157.012C204.156 157.012 202.932 155.752 202.932 154.168C202.932 152.548 204.156 151.288 205.884 151.288ZM203.688 178V159.676H208.08V178H203.688ZM212.559 159.676H216.843V162.448C217.959 160.612 219.723 159.244 222.747 159.244C226.563 159.244 229.227 161.548 229.227 165.976V178H224.835V166.948C224.835 164.464 223.467 163.168 221.343 163.168C218.931 163.168 216.951 164.896 216.951 168.172V178H212.559V159.676ZM247.502 159.676H251.786V177.136C251.786 182.86 247.538 186.46 241.922 186.46C237.422 186.46 233.786 184.12 232.382 180.484L236.234 178.576C237.134 181.024 239.438 182.464 242.066 182.464C245.234 182.464 247.394 180.628 247.394 177.568V174.724C246.278 176.632 244.19 177.604 241.346 177.604C236.054 177.604 232.49 173.86 232.49 168.46C232.49 163.348 235.802 159.244 241.346 159.244C244.298 159.244 246.602 160.36 247.502 162.196V159.676ZM236.882 168.424C236.882 171.484 238.898 173.716 242.138 173.716C245.234 173.716 247.43 171.7 247.43 168.424C247.43 165.148 245.27 163.168 242.138 163.168C239.114 163.168 236.882 165.148 236.882 168.424ZM269.165 173.86H280.757V178H263.405V174.076L271.433 166.768C273.161 165.22 275.321 163.204 275.321 160.684C275.321 158.272 273.557 156.976 271.505 156.976C269.165 156.976 266.933 158.524 266.825 161.872L262.721 161.656C262.901 155.68 267.329 152.8 271.757 152.8C276.401 152.8 279.821 155.716 279.821 160.396C279.821 164.176 277.409 166.624 275.645 168.136L269.165 173.86Z" fill="#434343"/>
<path d="M111.872 228V211.2H114.896V218.136H122.48V211.2H125.504V228H122.48V220.992H114.896V228H111.872ZM139.391 222.816H130.751C131.087 224.664 132.311 225.6 134.183 225.6C135.695 225.6 136.775 224.952 137.519 224.016L139.055 225.816C137.759 227.304 136.103 228.144 133.943 228.144C130.199 228.144 127.799 225.624 127.799 221.976C127.799 218.376 130.127 215.496 133.991 215.496C137.303 215.496 139.391 217.608 139.391 221.568V222.816ZM130.727 220.68H136.487C136.463 219 135.647 217.944 133.847 217.944C132.095 217.944 131.015 218.952 130.727 220.68ZM153.445 224.16C153.445 225.096 154.021 225.504 154.693 225.504C155.005 225.504 155.341 225.408 155.629 225.24L156.301 227.4C155.557 227.904 154.717 228.144 153.949 228.144C152.485 228.144 151.189 227.304 150.925 225.768C150.109 227.304 148.525 228.144 146.485 228.144C142.861 228.144 140.725 225.312 140.725 221.856C140.725 218.424 142.789 215.496 146.485 215.496C148.453 215.496 149.893 216.312 150.565 217.608V215.784H153.445V224.16ZM143.653 221.832C143.653 224.016 145.021 225.528 147.037 225.528C149.101 225.528 150.493 224.04 150.493 221.832C150.493 219.624 149.101 218.112 147.013 218.112C144.853 218.112 143.653 219.768 143.653 221.832ZM169.512 228H166.704V226.104C165.96 227.376 164.424 228.144 162.528 228.144C158.856 228.144 156.792 225.264 156.792 221.832C156.792 218.424 158.856 215.496 162.552 215.496C164.424 215.496 165.888 216.264 166.56 217.464V211.2H169.512V228ZM159.72 221.832C159.72 224.016 161.064 225.528 163.104 225.528C165.168 225.528 166.56 224.016 166.56 221.832C166.56 219.624 165.168 218.112 163.08 218.112C160.944 218.112 159.72 219.768 159.72 221.832ZM173.923 210.192C175.099 210.192 175.915 211.032 175.915 212.112C175.915 213.168 175.099 214.008 173.923 214.008C172.771 214.008 171.955 213.168 171.955 212.112C171.955 211.032 172.771 210.192 173.923 210.192ZM172.459 228V215.784H175.387V228H172.459ZM178.373 215.784H181.229V217.632C181.973 216.408 183.149 215.496 185.165 215.496C187.709 215.496 189.485 217.032 189.485 219.984V228H186.557V220.632C186.557 218.976 185.645 218.112 184.229 218.112C182.621 218.112 181.301 219.264 181.301 221.448V228H178.373V215.784ZM201.668 215.784H204.524V227.424C204.524 231.24 201.692 233.64 197.948 233.64C194.948 233.64 192.524 232.08 191.588 229.656L194.156 228.384C194.756 230.016 196.292 230.976 198.044 230.976C200.156 230.976 201.596 229.752 201.596 227.712V225.816C200.852 227.088 199.46 227.736 197.564 227.736C194.036 227.736 191.66 225.24 191.66 221.64C191.66 218.232 193.868 215.496 197.564 215.496C199.532 215.496 201.068 216.24 201.668 217.464V215.784ZM194.588 221.616C194.588 223.656 195.932 225.144 198.092 225.144C200.156 225.144 201.62 223.8 201.62 221.616C201.62 219.432 200.18 218.112 198.092 218.112C196.076 218.112 194.588 219.432 194.588 221.616ZM219.092 219.264C221.564 219.768 222.908 221.256 222.908 223.32C222.908 226.224 220.316 228.144 217.196 228.144C214.628 228.144 212.396 226.8 211.34 224.424L213.956 223.056C214.58 224.64 215.852 225.48 217.34 225.48C218.78 225.48 219.932 224.712 219.932 223.32C219.932 221.664 218.516 220.8 215.948 220.8H215.18V218.424C217.844 218.424 219.284 217.56 219.284 215.928C219.284 214.656 218.252 213.96 216.98 213.96C215.708 213.96 214.388 214.68 213.716 215.904L211.58 214.536C212.588 212.4 214.796 211.2 217.196 211.2C220.004 211.2 222.26 212.832 222.26 215.232C222.26 217.056 220.988 218.688 219.092 219.264Z" fill="#434343"/>
</svg>
