<svg width="520" height="300" viewBox="0 0 520 300" fill="none" xmlns="http://www.w3.org/2000/svg">
<rect width="520" height="300" fill="white"/>
<g clip-path="url(#clip0_138_4195)">
<path d="M210.962 78.2125C211.583 78.2125 212.087 78.7162 212.087 79.3375C212.087 79.9589 211.583 80.4625 210.962 80.4625H177.533C176.912 80.4625 176.408 79.9589 176.408 79.3375C176.408 78.7162 176.912 78.2125 177.533 78.2125H210.962ZM210.962 67.9268C211.583 67.9268 212.087 68.4305 212.087 69.0518C212.087 69.6731 211.583 70.1768 210.962 70.1768H177.533C176.912 70.1768 176.408 69.6731 176.408 69.0518C176.408 68.4305 176.912 67.9268 177.533 67.9268H210.962ZM210.962 57.6411C211.583 57.6411 212.087 58.1448 212.087 58.7661C212.087 59.3874 211.583 59.8911 210.962 59.8911H177.533C176.912 59.8911 176.408 59.3874 176.408 58.7661C176.408 58.1448 176.912 57.6411 177.533 57.6411H210.962Z" fill="#141414"/>
</g>
<g clip-path="url(#clip1_138_4195)">
<path fill-rule="evenodd" clip-rule="evenodd" d="M333.128 52.7413C332.324 52.4196 331.426 52.4196 330.622 52.7413L321.043 56.5739C320.915 56.6249 320.78 56.6516 320.645 56.654L320.625 56.6539L320.619 56.6539L320.613 56.6539L320.605 56.654C320.47 56.6516 320.335 56.6249 320.207 56.5738L311.336 53.0249C310.994 52.8879 310.624 52.837 310.257 52.8768C309.891 52.9165 309.539 53.0458 309.234 53.2533C308.93 53.4607 308.68 53.7399 308.509 54.0663C308.337 54.3917 308.249 54.7541 308.25 55.1218V76.6789C308.25 77.3535 308.452 78.0126 308.83 78.5712C309.208 79.1299 309.745 79.5624 310.372 79.8129L319.372 83.4129C320.176 83.7347 321.074 83.7346 321.879 83.4128L326.2 81.6833C326.777 81.4525 327.057 80.7977 326.826 80.2209C326.596 79.644 325.941 79.3636 325.364 79.5944L321.75 81.0408V58.7112C321.793 58.696 321.836 58.6799 321.878 58.6629L330.75 55.1134V64.8754C330.75 65.4967 331.254 66.0004 331.875 66.0004C332.496 66.0004 333 65.4967 333 64.8754V55.1133L341.293 58.4304C341.502 58.5139 341.681 58.6581 341.807 58.8443C341.933 59.0306 342 59.2503 342 59.4752V66.0004C342 66.6217 342.504 67.1254 343.125 67.1254C343.746 67.1254 344.25 66.6217 344.25 66.0004V59.4754C344.25 58.8008 344.048 58.1417 343.67 57.583C343.292 57.0244 342.755 56.5918 342.128 56.3413L333.128 52.7413ZM319.5 58.7112C319.457 58.696 319.414 58.6799 319.372 58.6629L310.5 55.1136L310.5 55.1194V76.6789C310.5 76.9038 310.567 77.1237 310.693 77.3099C310.819 77.4961 310.998 77.6403 311.207 77.7238L319.5 81.0409V58.7112Z" fill="#141414"/>
<path fill-rule="evenodd" clip-rule="evenodd" d="M330.597 70.6533C327.782 73.4683 327.782 78.0324 330.597 80.8474C333.141 83.3918 337.115 83.6364 339.934 81.5812L342.333 83.9806C342.773 84.4199 343.485 84.4199 343.924 83.9806C344.364 83.5412 344.364 82.8289 343.924 82.3896L341.525 79.9902C343.58 77.1711 343.336 73.1977 340.791 70.6533C337.976 67.8383 333.412 67.8383 330.597 70.6533ZM332.188 79.2564C330.252 77.3201 330.252 74.1807 332.188 72.2443C334.124 70.308 337.264 70.308 339.2 72.2443C341.136 74.1807 341.136 77.3201 339.2 79.2564C337.264 81.1928 334.124 81.1928 332.188 79.2564Z" fill="#141414"/>
</g>
<g clip-path="url(#clip2_138_4195)">
<path d="M203.61 118.5H185.768C185.152 118.5 184.653 117.996 184.653 117.375C184.653 116.754 185.152 116.25 185.768 116.25H203.61C204.225 116.25 204.725 116.754 204.725 117.375C204.725 117.996 204.225 118.5 203.61 118.5Z" fill="#141414"/>
<path d="M185.768 125.25H203.61C204.225 125.25 204.725 124.746 204.725 124.125C204.725 123.504 204.225 123 203.61 123H185.768C185.152 123 184.653 123.504 184.653 124.125C184.653 124.746 185.152 125.25 185.768 125.25Z" fill="#141414"/>
<path d="M194.689 132H185.768C185.152 132 184.653 131.496 184.653 130.875C184.653 130.254 185.152 129.75 185.768 129.75H194.689C195.305 129.75 195.804 130.254 195.804 130.875C195.804 131.496 195.305 132 194.689 132Z" fill="#141414"/>
<path fill-rule="evenodd" clip-rule="evenodd" d="M211.348 137.625C211.348 139.489 209.851 141 208.003 141H181.241C179.393 141 177.895 139.489 177.895 137.625V108.375C177.895 106.511 179.393 105 181.241 105H203.61C204.483 105 205.321 105.344 205.947 105.959L210.338 110.283C210.984 110.918 211.348 111.79 211.348 112.7V137.625ZM209.118 137.625V112.699C209.118 112.396 208.997 112.106 208.781 111.894L204.389 107.569C204.181 107.365 203.901 107.25 203.61 107.25H181.241C180.625 107.25 180.126 107.754 180.126 108.375V137.625C180.126 138.246 180.625 138.75 181.241 138.75H208.003C208.619 138.75 209.118 138.246 209.118 137.625Z" fill="#141414"/>
</g>
<g clip-path="url(#clip3_138_4195)">
<path d="M326.091 105C332.926 105 338.466 110.54 338.466 117.375C338.466 121.822 333.076 132.292 327.966 139.994C327.549 140.623 326.845 141.001 326.091 141.001C325.337 141.001 324.633 140.623 324.216 139.994C319.107 132.292 313.716 121.822 313.716 117.375C313.716 110.54 319.257 105 326.091 105ZM326.091 107.25C320.499 107.25 315.966 111.783 315.966 117.375C315.966 121.181 321.271 131.484 326.091 138.751C330.912 131.484 336.216 121.181 336.216 117.375C336.216 111.783 331.683 107.25 326.091 107.25ZM326.091 110.625C329.819 110.625 332.841 113.647 332.841 117.375C332.841 121.103 329.819 124.125 326.091 124.125C322.363 124.125 319.341 121.103 319.341 117.375C319.341 113.647 322.363 110.625 326.091 110.625ZM326.091 112.875C323.606 112.875 321.591 114.89 321.591 117.375C321.591 119.86 323.606 121.875 326.091 121.875C328.577 121.875 330.591 119.86 330.591 117.375C330.591 114.89 328.577 112.875 326.091 112.875Z" fill="#141414"/>
</g>
<g clip-path="url(#clip4_138_4195)">
<path d="M202.125 159C202.746 159 203.25 159.504 203.25 160.125V163.5H208.875C210.739 163.5 212.25 165.011 212.25 166.875V191.625C212.25 193.489 210.739 195 208.875 195H179.625C177.761 195 176.25 193.489 176.25 191.625V166.875C176.25 165.011 177.761 163.5 179.625 163.5H185.25V160.125C185.25 159.555 185.673 159.085 186.222 159.01L186.375 159C186.996 159 187.5 159.504 187.5 160.125V163.5H201V160.125C201 159.555 201.423 159.085 201.972 159.01L202.125 159ZM210 174.75H178.5V191.625C178.5 192.246 179.004 192.75 179.625 192.75H208.875C209.496 192.75 210 192.246 210 191.625V174.75ZM184.688 186C185.619 186 186.375 186.756 186.375 187.688C186.375 188.619 185.619 189.375 184.688 189.375C183.756 189.375 183 188.619 183 187.688C183 186.756 183.755 186 184.688 186ZM194.25 186C195.182 186 195.938 186.756 195.938 187.688C195.938 188.619 195.182 189.375 194.25 189.375C193.318 189.375 192.562 188.619 192.562 187.688C192.562 186.756 193.318 186 194.249 186H194.25ZM203.812 186C204.744 186 205.5 186.756 205.5 187.688C205.5 188.619 204.744 189.375 203.812 189.375C202.881 189.375 202.125 188.619 202.125 187.688C202.125 186.756 202.88 186 203.812 186H203.812ZM184.688 178.125C185.619 178.125 186.375 178.881 186.375 179.812C186.375 180.744 185.619 181.5 184.688 181.5C183.756 181.5 183 180.744 183 179.812C183 178.881 183.755 178.125 184.688 178.125ZM194.25 178.125C195.182 178.125 195.938 178.881 195.938 179.812C195.938 180.744 195.182 181.5 194.25 181.5C193.318 181.5 192.562 180.744 192.562 179.812C192.562 178.881 193.318 178.125 194.249 178.125H194.25ZM203.812 178.125C204.744 178.125 205.5 178.881 205.5 179.812C205.5 180.744 204.744 181.5 203.812 181.5C202.881 181.5 202.125 180.744 202.125 179.812C202.125 178.881 202.88 178.125 203.812 178.125H203.812ZM185.25 165.75H179.625C179.004 165.75 178.5 166.254 178.5 166.875V172.5H210V166.875C210 166.254 209.496 165.75 208.875 165.75H203.25V168C203.25 168.57 202.827 169.04 202.278 169.115L202.125 169.125C201.504 169.125 201 168.621 201 168V165.75H187.5V168C187.5 168.57 187.077 169.04 186.528 169.115L186.375 169.125C185.754 169.125 185.25 168.621 185.25 168V165.75Z" fill="#141414"/>
</g>
<g clip-path="url(#clip5_138_4195)">
<path d="M326.287 194.838C336.126 194.838 344.101 186.862 344.101 177.024C344.101 167.186 336.126 159.21 326.287 159.21C316.449 159.21 308.474 167.186 308.474 177.024C308.474 186.862 316.449 194.838 326.287 194.838ZM326.287 192.588C317.692 192.588 310.724 185.619 310.724 177.024C310.724 168.428 317.692 161.46 326.287 161.46C334.883 161.46 341.851 168.428 341.851 177.024C341.851 185.619 334.883 192.588 326.287 192.588ZM324.447 184.553L335.662 171.187C336.062 170.711 336 170.001 335.524 169.602C335.048 169.203 334.338 169.265 333.939 169.741L323.557 182.113L318.541 176.516C318.126 176.054 317.415 176.015 316.952 176.429C316.49 176.844 316.451 177.555 316.866 178.018L322.747 184.58C323.204 185.09 324.007 185.077 324.447 184.553Z" fill="#141414"/>
</g>
<path d="M190.312 215.25C190.934 215.25 191.438 215.754 191.438 216.375C191.438 216.945 191.014 217.415 190.465 217.49L190.312 217.5H184.287C182.719 217.5 181.434 218.713 181.321 220.253L181.312 220.474V240H197.062V231C197.062 230.379 197.566 229.875 198.188 229.875C198.757 229.875 199.228 230.298 199.302 230.847L199.312 231V243.777C199.312 245.163 198.762 246.491 197.782 247.471C196.878 248.375 195.676 248.913 194.407 248.99L194.088 249H184.287C182.902 249.001 181.573 248.45 180.593 247.471C179.688 246.567 179.15 245.365 179.072 244.096L179.062 243.777V220.474C179.062 217.685 181.248 215.407 184 215.258L184.287 215.25H190.312ZM197.062 242.25H181.312V243.777C181.312 244.566 181.626 245.322 182.184 245.88C182.679 246.375 183.332 246.678 184.025 246.739L184.287 246.75H194.088C194.877 246.75 195.634 246.437 196.191 245.88C196.687 245.384 196.99 244.731 197.051 244.038L197.062 243.777V242.25ZM194.812 213C195.382 213 195.853 213.423 195.927 213.972L195.938 214.125V224.909L198.517 222.33C198.916 221.93 199.541 221.894 199.982 222.221L200.108 222.33C200.507 222.729 200.544 223.354 200.217 223.794L200.108 223.92L195.608 228.42C195.57 228.459 195.529 228.494 195.486 228.527L195.608 228.42C195.552 228.476 195.492 228.525 195.429 228.566C195.399 228.586 195.368 228.604 195.335 228.621C195.321 228.629 195.308 228.635 195.295 228.642C195.255 228.661 195.212 228.678 195.168 228.693C195.158 228.696 195.149 228.699 195.14 228.702C195.037 228.733 194.927 228.75 194.812 228.75C194.755 228.75 194.698 228.746 194.643 228.737C194.626 228.735 194.608 228.732 194.591 228.728C194.553 228.721 194.517 228.711 194.481 228.7C194.464 228.695 194.445 228.689 194.428 228.682C194.393 228.67 194.359 228.656 194.327 228.64C194.31 228.632 194.291 228.623 194.273 228.613C194.234 228.591 194.197 228.568 194.161 228.542C194.156 228.539 194.149 228.534 194.143 228.529C194.093 228.492 194.054 228.457 194.017 228.42L189.517 223.92C189.078 223.481 189.078 222.769 189.517 222.33C189.916 221.93 190.541 221.894 190.982 222.221L191.108 222.33L193.688 224.909V214.125C193.688 213.504 194.191 213 194.812 213ZM203.965 213.01L203.982 213.013C203.999 213.015 204.017 213.018 204.034 213.022C204.072 213.029 204.108 213.039 204.144 213.05C204.161 213.055 204.18 213.061 204.197 213.068C204.232 213.08 204.266 213.094 204.298 213.11C204.315 213.118 204.334 213.127 204.352 213.137C204.388 213.157 204.422 213.178 204.455 213.201C204.464 213.207 204.473 213.214 204.482 213.221C204.493 213.229 204.497 213.232 204.5 213.234L204.608 213.33L209.108 217.83C209.547 218.269 209.547 218.981 209.108 219.42C208.709 219.82 208.084 219.856 207.643 219.529L207.517 219.42L204.938 216.842V227.625C204.938 228.246 204.434 228.75 203.812 228.75C203.243 228.75 202.772 228.327 202.698 227.778L202.688 227.625V216.842L200.108 219.42C199.709 219.82 199.084 219.856 198.643 219.529L198.517 219.42C198.118 219.021 198.081 218.396 198.408 217.956L198.517 217.83L203.017 213.33L203.125 213.234C203.131 213.23 203.137 213.225 203.144 213.22L203.017 213.33C203.073 213.274 203.133 213.225 203.196 213.184C203.226 213.164 203.257 213.146 203.29 213.129C203.304 213.121 203.317 213.115 203.33 213.108C203.372 213.088 203.418 213.07 203.464 213.055C203.472 213.052 203.479 213.05 203.485 213.048C203.588 213.017 203.698 213 203.812 213L203.821 213L203.965 213.01Z" fill="#141414"/>
<g clip-path="url(#clip6_138_4195)">
<path d="M334.443 223.098C336.53 223.093 338.531 223.923 340 225.4L343.094 228.491C343.122 228.515 343.15 228.54 343.177 228.567C344.493 229.883 344.493 232.017 343.177 233.333C341.861 234.649 339.727 234.649 338.411 233.332L335.241 230.161C335.029 229.95 334.743 229.832 334.448 229.831H333.748L340.471 244.097C340.855 244.905 340.901 245.834 340.599 246.676C340.298 247.519 339.673 248.207 338.869 248.586C338.418 248.802 337.924 248.913 337.428 248.911C336.124 248.911 334.937 248.159 334.38 246.979L331.315 240.478L329.243 241.922L328.388 246.203C328.073 247.777 326.691 248.91 325.088 248.911C324.864 248.912 324.641 248.89 324.423 248.846C323.547 248.671 322.776 248.155 322.281 247.412C321.785 246.668 321.605 245.758 321.78 244.882L322.902 239.271C323.073 238.419 323.566 237.666 324.279 237.169L328.406 234.295L327.063 231.445L324.725 233.004C323.432 233.868 321.912 234.328 320.359 234.325H317.229C315.369 234.325 313.86 232.816 313.86 230.956C313.86 229.095 315.369 227.587 317.229 227.587L320.362 227.587C320.581 227.587 320.795 227.522 320.979 227.399L325.443 224.419C326.735 223.555 328.256 223.095 329.808 223.098H334.443ZM334.446 225.348H329.806C328.698 225.346 327.614 225.674 326.693 226.29L322.23 229.269C321.676 229.641 321.024 229.838 320.359 229.837H317.229C316.611 229.837 316.11 230.338 316.11 230.956C316.11 231.574 316.611 232.075 317.229 232.075L320.361 232.075C321.469 232.077 322.553 231.749 323.475 231.133L326.9 228.85C327.471 228.469 328.248 228.684 328.541 229.306L330.847 234.195C331.081 234.692 330.923 235.284 330.472 235.598L325.565 239.015C325.329 239.18 325.165 239.43 325.108 239.713L323.986 245.323C323.928 245.614 323.988 245.916 324.152 246.163C324.317 246.41 324.573 246.582 324.865 246.64C324.937 246.654 325.01 246.661 325.085 246.661C325.618 246.661 326.077 246.285 326.181 245.762L327.125 241.037C327.182 240.752 327.347 240.501 327.585 240.335L331.122 237.871C331.694 237.472 332.486 237.684 332.783 238.314L336.415 246.02C336.6 246.411 336.994 246.661 337.431 246.661C337.593 246.662 337.752 246.626 337.904 246.553C338.173 246.427 338.381 246.198 338.481 245.918C338.581 245.638 338.566 245.33 338.437 245.058L330.957 229.185C330.605 228.439 331.15 227.581 331.975 227.581L334.451 227.581C335.341 227.584 336.195 227.937 336.829 228.567L340.002 231.742C340.439 232.179 341.148 232.179 341.586 231.742C342.004 231.323 342.022 230.656 341.64 230.216C341.621 230.2 341.603 230.182 341.584 230.164L338.407 226.989C337.36 225.935 335.934 225.345 334.446 225.348ZM309.895 231.475C310.334 231.036 311.046 231.036 311.486 231.475C311.925 231.915 311.925 232.627 311.485 233.066C310.58 233.972 310.267 235.314 310.679 236.527C311.091 237.739 312.156 238.613 313.426 238.779C314.696 238.946 315.951 238.376 316.661 237.311C317.006 236.794 317.705 236.654 318.222 236.999C318.739 237.344 318.878 238.042 318.533 238.559C317.347 240.338 315.254 241.288 313.134 241.01C311.014 240.732 309.236 239.275 308.548 237.25C307.861 235.226 308.383 232.987 309.895 231.475ZM326.768 213C329.559 213 331.82 215.262 331.82 218.052C331.82 220.842 329.559 223.104 326.768 223.104C323.978 223.104 321.716 220.842 321.716 218.052C321.716 215.262 323.978 213 326.768 213ZM326.768 215.25C325.221 215.25 323.966 216.505 323.966 218.052C323.966 219.6 325.221 220.854 326.768 220.854C328.316 220.854 329.57 219.6 329.57 218.052C329.57 216.505 328.316 215.25 326.768 215.25Z" fill="#141414"/>
</g>
<defs>
<clipPath id="clip0_138_4195">
<rect width="36" height="36" fill="white" transform="translate(176.25 51)"/>
</clipPath>
<clipPath id="clip1_138_4195">
<rect width="36" height="36" fill="white" transform="translate(308.25 51)"/>
</clipPath>
<clipPath id="clip2_138_4195">
<rect width="35.6831" height="36" fill="white" transform="translate(176.409 105)"/>
</clipPath>
<clipPath id="clip3_138_4195">
<rect width="36" height="36" fill="white" transform="translate(308.091 105)"/>
</clipPath>
<clipPath id="clip4_138_4195">
<rect width="36" height="36" fill="white" transform="translate(176.25 159)"/>
</clipPath>
<clipPath id="clip5_138_4195">
<rect width="36" height="36" fill="white" transform="translate(308.25 159)"/>
</clipPath>
<clipPath id="clip6_138_4195">
<rect width="36" height="36" fill="white" transform="translate(308.25 213)"/>
</clipPath>
</defs>
</svg>
