<svg width="520" height="300" viewBox="0 0 520 300" fill="none" xmlns="http://www.w3.org/2000/svg">
<rect width="520" height="300" fill="white"/>
<g filter="url(#filter0_d_138_3966)">
<g clip-path="url(#clip0_138_3966)">
<rect x="54" y="87" width="412" height="125.2" rx="3.43333" fill="white"/>
<path d="M54 90.4333C54 88.5372 55.5372 87 57.4333 87V87V212.2V212.2C55.5372 212.2 54 210.663 54 208.767V90.4333Z" fill="#005BB9"/>
<path d="M91.7665 135.975C99.3512 135.975 105.5 129.623 105.5 121.787C105.5 113.952 99.3512 107.6 91.7665 107.6C84.1818 107.6 78.0332 113.952 78.0332 121.787C78.0332 129.623 84.1818 135.975 91.7665 135.975ZM91.7665 134.186C85.1381 134.186 79.7646 128.635 79.7646 121.787C79.7646 114.94 85.1381 109.389 91.7665 109.389C98.395 109.389 103.768 114.94 103.768 121.787C103.768 128.635 98.395 134.186 91.7665 134.186ZM91.7665 116.46C92.4815 116.46 93.0612 115.861 93.0612 115.122C93.0612 114.384 92.4815 113.785 91.7665 113.785C91.0515 113.785 90.4719 114.384 90.4719 115.122C90.4719 115.861 91.0512 116.46 91.7665 116.46ZM91.7649 129.753C92.243 129.754 92.6314 129.354 92.6322 128.86L92.6487 119.706C92.6496 119.212 92.2628 118.811 91.7846 118.81C91.3065 118.809 90.9182 119.209 90.9173 119.703L90.9008 128.857C90.8999 129.351 91.2868 129.752 91.7649 129.753Z" fill="#005BB9"/>
<path d="M127.226 122.6V112.987H128.613V122.6H127.226ZM130.449 115.706H131.767V116.887C132.193 116.104 132.948 115.541 134.157 115.541C135.64 115.541 136.615 116.448 136.615 118.054V122.6H135.269V118.398C135.269 117.34 134.692 116.75 133.758 116.75C132.701 116.75 131.795 117.546 131.795 118.988V122.6H130.449V115.706ZM137.491 115.706H138.837V115.115C138.837 113.564 139.757 112.643 141.144 112.643C141.817 112.643 142.394 112.836 142.943 113.275L142.339 114.278C142.023 113.989 141.666 113.866 141.281 113.866C140.622 113.866 140.183 114.291 140.183 115.102V115.706H142.037V116.914H140.183V122.6H138.837V116.914H137.491V115.706ZM146.213 115.541C148.259 115.541 149.715 117.052 149.715 119.112C149.715 121.158 148.259 122.682 146.213 122.682C144.167 122.682 142.711 121.158 142.711 119.112C142.711 117.052 144.167 115.541 146.213 115.541ZM144.057 119.112C144.057 120.485 144.922 121.46 146.213 121.46C147.504 121.46 148.369 120.485 148.369 119.112C148.369 117.738 147.504 116.763 146.213 116.763C144.922 116.763 144.057 117.738 144.057 119.112ZM154.614 112.987C156.4 112.987 157.279 114.14 157.279 115.321C157.279 116.255 156.729 117.203 155.644 117.478C157.032 117.78 157.663 118.755 157.663 119.812C157.663 121.227 156.523 122.6 154.505 122.6H151.14V112.987H154.614ZM152.527 121.323H154.518C155.644 121.323 156.262 120.622 156.262 119.744C156.262 118.892 155.631 118.192 154.491 118.192H152.527V121.323ZM152.527 117.066H154.244C155.315 117.066 155.864 116.365 155.864 115.582C155.864 114.786 155.274 114.264 154.312 114.264H152.527V117.066ZM162.187 115.541C164.233 115.541 165.689 117.052 165.689 119.112C165.689 121.158 164.233 122.682 162.187 122.682C160.14 122.682 158.685 121.158 158.685 119.112C158.685 117.052 160.14 115.541 162.187 115.541ZM160.031 119.112C160.031 120.485 160.896 121.46 162.187 121.46C163.478 121.46 164.343 120.485 164.343 119.112C164.343 117.738 163.478 116.763 162.187 116.763C160.896 116.763 160.031 117.738 160.031 119.112ZM173.132 122.6H171.443L169.589 120.114L167.707 122.6H166.018L168.765 119.071L166.155 115.706H167.831L169.589 118.041L171.319 115.706H172.995L170.385 119.071L173.132 122.6ZM177.993 112.534C178.556 112.534 178.954 112.946 178.954 113.481C178.954 114.003 178.556 114.401 177.993 114.401C177.43 114.401 177.031 114.003 177.031 113.481C177.031 112.946 177.43 112.534 177.993 112.534ZM177.32 122.6V115.706H178.666V122.6H177.32ZM184.65 117.409C184.183 116.928 183.455 116.708 182.865 116.708C182.165 116.708 181.684 117.024 181.684 117.574C181.684 118.205 182.343 118.356 183.304 118.562C184.431 118.796 185.776 119.043 185.776 120.499C185.776 121.886 184.554 122.682 183.043 122.682C181.917 122.682 180.764 122.216 180.008 121.337L180.819 120.403C181.382 121.158 182.371 121.488 183.167 121.488C183.867 121.488 184.431 121.227 184.431 120.664C184.431 120.073 183.854 119.908 182.975 119.73C181.821 119.496 180.352 119.208 180.352 117.656C180.352 116.228 181.547 115.541 182.879 115.541C183.785 115.541 184.733 115.857 185.378 116.516L184.65 117.409ZM196.026 115.706V122.6H194.708V121.337C194.268 122.119 193.568 122.682 192.401 122.682C190.931 122.682 189.901 121.79 189.901 120.073V115.706H191.247V119.785C191.247 120.897 191.81 121.474 192.73 121.474C193.829 121.474 194.68 120.636 194.68 119.235V115.706H196.026ZM201.891 117.409C201.425 116.928 200.697 116.708 200.106 116.708C199.406 116.708 198.925 117.024 198.925 117.574C198.925 118.205 199.584 118.356 200.546 118.562C201.672 118.796 203.018 119.043 203.018 120.499C203.018 121.886 201.795 122.682 200.285 122.682C199.159 122.682 198.005 122.216 197.25 121.337L198.06 120.403C198.623 121.158 199.612 121.488 200.408 121.488C201.109 121.488 201.672 121.227 201.672 120.664C201.672 120.073 201.095 119.908 200.216 119.73C199.062 119.496 197.593 119.208 197.593 117.656C197.593 116.228 198.788 115.541 200.12 115.541C201.026 115.541 201.974 115.857 202.619 116.516L201.891 117.409ZM210.285 119.565H205.162C205.327 120.842 206.151 121.488 207.36 121.488C208.266 121.488 208.925 121.089 209.365 120.471L210.12 121.282C209.406 122.174 208.486 122.682 207.25 122.682C205.107 122.682 203.816 121.186 203.816 119.194C203.816 117.217 205.08 115.541 207.263 115.541C209.131 115.541 210.285 116.75 210.285 118.892V119.565ZM205.162 118.535H208.939C208.939 117.354 208.362 116.681 207.209 116.681C206.041 116.681 205.327 117.381 205.162 118.535ZM218.246 122.6H216.941V121.392C216.488 122.202 215.582 122.682 214.442 122.682C212.299 122.682 211.159 121.007 211.159 119.126C211.159 117.244 212.313 115.541 214.455 115.541C215.582 115.541 216.461 116.008 216.886 116.791V112.987H218.246V122.6ZM212.505 119.112C212.505 120.499 213.371 121.474 214.675 121.474C215.994 121.474 216.9 120.499 216.9 119.112C216.9 117.725 215.994 116.75 214.661 116.75C213.261 116.75 212.505 117.835 212.505 119.112ZM222.175 115.706H223.617V113.866H224.976V115.706H227.091V116.914H224.976V120.265C224.976 121.089 225.512 121.46 226.157 121.46C226.528 121.46 226.954 121.337 227.311 121.103L227.695 122.078C227.105 122.49 226.459 122.682 225.828 122.682C224.578 122.682 223.617 121.886 223.617 120.444V116.914H222.175V115.706ZM231.581 115.541C233.627 115.541 235.083 117.052 235.083 119.112C235.083 121.158 233.627 122.682 231.581 122.682C229.535 122.682 228.079 121.158 228.079 119.112C228.079 117.052 229.535 115.541 231.581 115.541ZM229.425 119.112C229.425 120.485 230.29 121.46 231.581 121.46C232.872 121.46 233.737 120.485 233.737 119.112C233.737 117.738 232.872 116.763 231.581 116.763C230.29 116.763 229.425 117.738 229.425 119.112ZM245.007 121.007C244.307 122.064 243.318 122.682 242.027 122.682C239.788 122.682 238.607 121.048 238.607 119.153C238.607 117.217 239.912 115.541 242.082 115.541C243.249 115.541 244.156 115.994 244.815 116.887L243.853 117.697C243.428 117.066 242.865 116.763 242.096 116.763C240.667 116.763 239.953 117.821 239.953 119.071C239.953 120.334 240.736 121.46 242.137 121.46C242.947 121.46 243.675 121.034 244.087 120.334L245.007 121.007ZM249.104 115.541C251.15 115.541 252.606 117.052 252.606 119.112C252.606 121.158 251.15 122.682 249.104 122.682C247.057 122.682 245.602 121.158 245.602 119.112C245.602 117.052 247.057 115.541 249.104 115.541ZM246.948 119.112C246.948 120.485 247.813 121.46 249.104 121.46C250.395 121.46 251.26 120.485 251.26 119.112C251.26 117.738 250.395 116.763 249.104 116.763C247.813 116.763 246.948 117.738 246.948 119.112ZM253.893 115.706H255.212V116.887C255.637 116.104 256.393 115.541 257.601 115.541C259.084 115.541 260.059 116.448 260.059 118.054V122.6H258.714V118.398C258.714 117.34 258.137 116.75 257.203 116.75C256.145 116.75 255.239 117.546 255.239 118.988V122.6H253.893V115.706ZM260.935 115.706H262.377V113.866H263.737V115.706H265.852V116.914H263.737V120.265C263.737 121.089 264.272 121.46 264.918 121.46C265.289 121.46 265.714 121.337 266.072 121.103L266.456 122.078C265.866 122.49 265.22 122.682 264.588 122.682C263.339 122.682 262.377 121.886 262.377 120.444V116.914H260.935V115.706ZM273.926 120.636C273.926 121.213 274.283 121.46 274.709 121.46C274.901 121.46 275.107 121.405 275.299 121.295L275.629 122.298C275.231 122.559 274.791 122.682 274.379 122.682C273.555 122.682 272.827 122.174 272.731 121.268C272.237 122.202 271.317 122.682 270.136 122.682C268.021 122.682 266.84 121.034 266.84 119.139C266.84 117.244 267.993 115.541 270.136 115.541C271.303 115.541 272.168 116.022 272.608 116.86V115.706H273.926V120.636ZM268.185 119.112C268.185 120.499 269.064 121.474 270.369 121.474C271.66 121.474 272.58 120.513 272.58 119.112C272.58 117.711 271.674 116.75 270.342 116.75C268.927 116.75 268.185 117.835 268.185 119.112ZM277.376 112.534C277.939 112.534 278.337 112.946 278.337 113.481C278.337 114.003 277.939 114.401 277.376 114.401C276.813 114.401 276.415 114.003 276.415 113.481C276.415 112.946 276.813 112.534 277.376 112.534ZM276.703 122.6V115.706H278.049V122.6H276.703ZM279.872 115.706H281.191V116.887C281.616 116.104 282.372 115.541 283.58 115.541C285.063 115.541 286.039 116.448 286.039 118.054V122.6H284.693V118.398C284.693 117.34 284.116 116.75 283.182 116.75C282.125 116.75 281.218 117.546 281.218 118.988V122.6H279.872V115.706ZM294.714 115.541C296.87 115.541 297.996 117.244 297.996 119.084C297.996 120.925 296.843 122.6 294.7 122.6C293.602 122.6 292.75 122.147 292.27 121.392V125.635H290.924V115.706H292.242V116.846C292.682 116.036 293.588 115.541 294.714 115.541ZM292.27 119.071C292.27 120.416 293.162 121.392 294.494 121.392C295.785 121.392 296.651 120.416 296.651 119.071C296.651 117.835 295.909 116.75 294.494 116.75C293.162 116.75 292.27 117.725 292.27 119.071ZM299.286 115.706H300.605V116.832C300.934 115.994 301.676 115.61 302.513 115.61C302.843 115.61 303.186 115.665 303.502 115.788L303.283 117.038C302.98 116.914 302.665 116.86 302.39 116.86C301.401 116.86 300.632 117.519 300.632 118.878V122.6H299.286V115.706ZM307.305 115.541C309.351 115.541 310.807 117.052 310.807 119.112C310.807 121.158 309.351 122.682 307.305 122.682C305.259 122.682 303.803 121.158 303.803 119.112C303.803 117.052 305.259 115.541 307.305 115.541ZM305.149 119.112C305.149 120.485 306.014 121.46 307.305 121.46C308.596 121.46 309.461 120.485 309.461 119.112C309.461 117.738 308.596 116.763 307.305 116.763C306.014 116.763 305.149 117.738 305.149 119.112ZM312.095 115.706H313.413V116.86C313.798 116.049 314.484 115.541 315.514 115.541C316.599 115.541 317.354 116.049 317.657 116.969C318.082 116.077 318.879 115.541 319.964 115.541C321.433 115.541 322.298 116.475 322.298 118.109V122.6H320.953V118.37C320.953 117.354 320.486 116.75 319.566 116.75C318.645 116.75 317.863 117.409 317.863 118.878V122.6H316.517V118.37C316.517 117.354 316.064 116.75 315.143 116.75C314.223 116.75 313.44 117.409 313.44 118.878V122.6H312.095V115.706ZM327.074 115.541C329.12 115.541 330.576 117.052 330.576 119.112C330.576 121.158 329.12 122.682 327.074 122.682C325.028 122.682 323.572 121.158 323.572 119.112C323.572 117.052 325.028 115.541 327.074 115.541ZM324.918 119.112C324.918 120.485 325.783 121.46 327.074 121.46C328.365 121.46 329.23 120.485 329.23 119.112C329.23 117.738 328.365 116.763 327.074 116.763C325.783 116.763 324.918 117.738 324.918 119.112ZM330.959 115.706H332.401V113.866H333.761V115.706H335.876V116.914H333.761V120.265C333.761 121.089 334.296 121.46 334.942 121.46C335.313 121.46 335.738 121.337 336.095 121.103L336.48 122.078C335.889 122.49 335.244 122.682 334.612 122.682C333.362 122.682 332.401 121.886 332.401 120.444V116.914H330.959V115.706ZM338.287 112.534C338.85 112.534 339.248 112.946 339.248 113.481C339.248 114.003 338.85 114.401 338.287 114.401C337.723 114.401 337.325 114.003 337.325 113.481C337.325 112.946 337.723 112.534 338.287 112.534ZM337.614 122.6V115.706H338.959V122.6H337.614ZM343.873 115.541C345.919 115.541 347.375 117.052 347.375 119.112C347.375 121.158 345.919 122.682 343.873 122.682C341.827 122.682 340.371 121.158 340.371 119.112C340.371 117.052 341.827 115.541 343.873 115.541ZM341.717 119.112C341.717 120.485 342.582 121.46 343.873 121.46C345.164 121.46 346.029 120.485 346.029 119.112C346.029 117.738 345.164 116.763 343.873 116.763C342.582 116.763 341.717 117.738 341.717 119.112ZM348.662 115.706H349.981V116.887C350.406 116.104 351.162 115.541 352.37 115.541C353.853 115.541 354.829 116.448 354.829 118.054V122.6H353.483V118.398C353.483 117.34 352.906 116.75 351.972 116.75C350.915 116.75 350.008 117.546 350.008 118.988V122.6H348.662V115.706ZM363.203 120.636C363.203 121.213 363.56 121.46 363.986 121.46C364.178 121.46 364.384 121.405 364.576 121.295L364.906 122.298C364.507 122.559 364.068 122.682 363.656 122.682C362.832 122.682 362.104 122.174 362.008 121.268C361.514 122.202 360.593 122.682 359.412 122.682C357.297 122.682 356.116 121.034 356.116 119.139C356.116 117.244 357.27 115.541 359.412 115.541C360.58 115.541 361.445 116.022 361.884 116.86V115.706H363.203V120.636ZM357.462 119.112C357.462 120.499 358.341 121.474 359.646 121.474C360.937 121.474 361.857 120.513 361.857 119.112C361.857 117.711 360.951 116.75 359.618 116.75C358.204 116.75 357.462 117.835 357.462 119.112ZM369.317 122.27C368.836 122.545 368.342 122.682 367.875 122.682C366.763 122.682 365.856 121.913 365.856 120.513V112.987H367.202V120.362C367.202 121.076 367.628 121.46 368.164 121.46C368.424 121.46 368.699 121.392 368.974 121.24L369.317 122.27ZM375.854 115.541C377.9 115.541 379.356 117.052 379.356 119.112C379.356 121.158 377.9 122.682 375.854 122.682C373.807 122.682 372.352 121.158 372.352 119.112C372.352 117.052 373.807 115.541 375.854 115.541ZM373.698 119.112C373.698 120.485 374.563 121.46 375.854 121.46C377.145 121.46 378.01 120.485 378.01 119.112C378.01 117.738 377.145 116.763 375.854 116.763C374.563 116.763 373.698 117.738 373.698 119.112ZM380.643 115.706H381.962V116.832C382.291 115.994 383.033 115.61 383.871 115.61C384.2 115.61 384.544 115.665 384.859 115.788L384.64 117.038C384.338 116.914 384.022 116.86 383.747 116.86C382.758 116.86 381.989 117.519 381.989 118.878V122.6H380.643V115.706ZM131.25 138.409C130.783 137.928 130.055 137.708 129.465 137.708C128.764 137.708 128.284 138.024 128.284 138.574C128.284 139.205 128.943 139.356 129.904 139.562C131.03 139.796 132.376 140.043 132.376 141.499C132.376 142.886 131.154 143.682 129.643 143.682C128.517 143.682 127.364 143.216 126.608 142.337L127.418 141.403C127.982 142.158 128.97 142.488 129.767 142.488C130.467 142.488 131.03 142.227 131.03 141.664C131.03 141.073 130.454 140.908 129.575 140.73C128.421 140.496 126.952 140.208 126.952 138.656C126.952 137.228 128.146 136.541 129.478 136.541C130.385 136.541 131.332 136.857 131.978 137.516L131.25 138.409ZM139.575 136.706V143.6H138.256V142.337C137.817 143.119 137.116 143.682 135.949 143.682C134.48 143.682 133.45 142.79 133.45 141.073V136.706H134.796V140.785C134.796 141.897 135.359 142.474 136.279 142.474C137.377 142.474 138.229 141.636 138.229 140.235V136.706H139.575ZM145.069 136.541C147.225 136.541 148.351 138.244 148.351 140.084C148.351 141.925 147.198 143.6 145.055 143.6C143.957 143.6 143.105 143.147 142.625 142.392V146.635H141.279V136.706H142.597V137.846C143.037 137.036 143.943 136.541 145.069 136.541ZM142.625 140.071C142.625 141.416 143.517 142.392 144.849 142.392C146.14 142.392 147.006 141.416 147.006 140.071C147.006 138.835 146.264 137.75 144.849 137.75C143.517 137.75 142.625 138.725 142.625 140.071ZM153.431 136.541C155.588 136.541 156.714 138.244 156.714 140.084C156.714 141.925 155.56 143.6 153.418 143.6C152.319 143.6 151.468 143.147 150.987 142.392V146.635H149.641V136.706H150.959V137.846C151.399 137.036 152.305 136.541 153.431 136.541ZM150.987 140.071C150.987 141.416 151.88 142.392 153.212 142.392C154.503 142.392 155.368 141.416 155.368 140.071C155.368 138.835 154.626 137.75 153.212 137.75C151.88 137.75 150.987 138.725 150.987 140.071ZM161.093 136.541C163.14 136.541 164.595 138.052 164.595 140.112C164.595 142.158 163.14 143.682 161.093 143.682C159.047 143.682 157.591 142.158 157.591 140.112C157.591 138.052 159.047 136.541 161.093 136.541ZM158.937 140.112C158.937 141.485 159.802 142.46 161.093 142.46C162.384 142.46 163.25 141.485 163.25 140.112C163.25 138.738 162.384 137.763 161.093 137.763C159.802 137.763 158.937 138.738 158.937 140.112ZM165.883 136.706H167.201V137.832C167.531 136.994 168.272 136.61 169.11 136.61C169.44 136.61 169.783 136.665 170.099 136.788L169.879 138.038C169.577 137.914 169.261 137.86 168.987 137.86C167.998 137.86 167.229 138.519 167.229 139.878V143.6H165.883V136.706ZM170.471 136.706H171.913V134.866H173.272V136.706H175.387V137.914H173.272V141.265C173.272 142.089 173.808 142.46 174.453 142.46C174.824 142.46 175.25 142.337 175.607 142.103L175.991 143.078C175.401 143.49 174.755 143.682 174.124 143.682C172.874 143.682 171.913 142.886 171.913 141.444V137.914H170.471V136.706ZM177.798 133.534C178.361 133.534 178.759 133.946 178.759 134.481C178.759 135.003 178.361 135.401 177.798 135.401C177.235 135.401 176.837 135.003 176.837 134.481C176.837 133.946 177.235 133.534 177.798 133.534ZM177.125 143.6V136.706H178.471V143.6H177.125ZM180.294 136.706H181.613V137.887C182.038 137.104 182.794 136.541 184.002 136.541C185.486 136.541 186.461 137.448 186.461 139.054V143.6H185.115V139.398C185.115 138.34 184.538 137.75 183.604 137.75C182.547 137.75 181.64 138.546 181.64 139.988V143.6H180.294V136.706ZM193.626 136.706H194.945V143.353C194.945 145.482 193.448 146.827 191.36 146.827C189.644 146.827 188.284 145.921 187.79 144.506L188.998 143.943C189.341 144.987 190.275 145.605 191.401 145.605C192.734 145.605 193.599 144.809 193.599 143.504V142.227C193.132 143.051 192.308 143.463 191.141 143.463C189.135 143.463 187.79 142.062 187.79 140.016C187.79 138.134 188.998 136.541 191.141 136.541C192.308 136.541 193.201 136.953 193.626 137.736V136.706ZM189.149 139.988C189.149 141.252 189.932 142.268 191.36 142.268C192.679 142.268 193.599 141.375 193.599 139.988C193.599 138.615 192.692 137.736 191.347 137.736C190.056 137.736 189.149 138.615 189.149 139.988ZM200.478 133.534C201.041 133.534 201.439 133.946 201.439 134.481C201.439 135.003 201.041 135.401 200.478 135.401C199.915 135.401 199.517 135.003 199.517 134.481C199.517 133.946 199.915 133.534 200.478 133.534ZM199.805 143.6V136.706H201.151V143.6H199.805ZM202.974 136.706H204.293V137.887C204.718 137.104 205.474 136.541 206.682 136.541C208.165 136.541 209.14 137.448 209.14 139.054V143.6H207.795V139.398C207.795 138.34 207.218 137.75 206.284 137.75C205.226 137.75 204.32 138.546 204.32 139.988V143.6H202.974V136.706ZM210.016 136.706H211.362V136.115C211.362 134.564 212.282 133.643 213.669 133.643C214.342 133.643 214.919 133.836 215.468 134.275L214.864 135.278C214.548 134.989 214.191 134.866 213.807 134.866C213.147 134.866 212.708 135.291 212.708 136.102V136.706H214.562V137.914H212.708V143.6H211.362V137.914H210.016V136.706ZM218.739 136.541C220.785 136.541 222.241 138.052 222.241 140.112C222.241 142.158 220.785 143.682 218.739 143.682C216.692 143.682 215.237 142.158 215.237 140.112C215.237 138.052 216.692 136.541 218.739 136.541ZM216.582 140.112C216.582 141.485 217.448 142.46 218.739 142.46C220.029 142.46 220.895 141.485 220.895 140.112C220.895 138.738 220.029 137.763 218.739 137.763C217.448 137.763 216.582 138.738 216.582 140.112ZM223.528 136.706H224.846V137.832C225.176 136.994 225.918 136.61 226.755 136.61C227.085 136.61 227.428 136.665 227.744 136.788L227.524 138.038C227.222 137.914 226.906 137.86 226.632 137.86C225.643 137.86 224.874 138.519 224.874 139.878V143.6H223.528V136.706ZM228.672 136.706H229.99V137.86C230.375 137.049 231.061 136.541 232.091 136.541C233.176 136.541 233.931 137.049 234.234 137.969C234.659 137.077 235.456 136.541 236.541 136.541C238.01 136.541 238.875 137.475 238.875 139.109V143.6H237.53V139.37C237.53 138.354 237.063 137.75 236.143 137.75C235.222 137.75 234.44 138.409 234.44 139.878V143.6H233.094V139.37C233.094 138.354 232.641 137.75 231.72 137.75C230.8 137.75 230.017 138.409 230.017 139.878V143.6H228.672V136.706ZM247.236 141.636C247.236 142.213 247.593 142.46 248.018 142.46C248.211 142.46 248.417 142.405 248.609 142.295L248.938 143.298C248.54 143.559 248.101 143.682 247.689 143.682C246.865 143.682 246.137 143.174 246.041 142.268C245.546 143.202 244.626 143.682 243.445 143.682C241.33 143.682 240.149 142.034 240.149 140.139C240.149 138.244 241.303 136.541 243.445 136.541C244.612 136.541 245.478 137.022 245.917 137.86V136.706H247.236V141.636ZM241.495 140.112C241.495 141.499 242.374 142.474 243.679 142.474C244.97 142.474 245.89 141.513 245.89 140.112C245.89 138.711 244.983 137.75 243.651 137.75C242.237 137.75 241.495 138.835 241.495 140.112ZM248.797 136.706H250.239V134.866H251.598V136.706H253.713V137.914H251.598V141.265C251.598 142.089 252.134 142.46 252.779 142.46C253.15 142.46 253.576 142.337 253.933 142.103L254.318 143.078C253.727 143.49 253.082 143.682 252.45 143.682C251.2 143.682 250.239 142.886 250.239 141.444V137.914H248.797V136.706ZM256.124 133.534C256.687 133.534 257.086 133.946 257.086 134.481C257.086 135.003 256.687 135.401 256.124 135.401C255.561 135.401 255.163 135.003 255.163 134.481C255.163 133.946 255.561 133.534 256.124 133.534ZM255.451 143.6V136.706H256.797V143.6H255.451ZM261.71 136.541C263.757 136.541 265.212 138.052 265.212 140.112C265.212 142.158 263.757 143.682 261.71 143.682C259.664 143.682 258.208 142.158 258.208 140.112C258.208 138.052 259.664 136.541 261.71 136.541ZM259.554 140.112C259.554 141.485 260.42 142.46 261.71 142.46C263.001 142.46 263.867 141.485 263.867 140.112C263.867 138.738 263.001 137.763 261.71 137.763C260.42 137.763 259.554 138.738 259.554 140.112ZM266.5 136.706H267.818V137.887C268.244 137.104 268.999 136.541 270.208 136.541C271.691 136.541 272.666 137.448 272.666 139.054V143.6H271.32V139.398C271.32 138.34 270.744 137.75 269.81 137.75C268.752 137.75 267.846 138.546 267.846 139.988V143.6H266.5V136.706ZM283.958 141.636C283.958 142.213 284.315 142.46 284.74 142.46C284.933 142.46 285.139 142.405 285.331 142.295L285.661 143.298C285.262 143.559 284.823 143.682 284.411 143.682C283.587 143.682 282.859 143.174 282.763 142.268C282.268 143.202 281.348 143.682 280.167 143.682C278.052 143.682 276.871 142.034 276.871 140.139C276.871 138.244 278.025 136.541 280.167 136.541C281.335 136.541 282.2 137.022 282.639 137.86V136.706H283.958V141.636ZM278.217 140.112C278.217 141.499 279.096 142.474 280.401 142.474C281.692 142.474 282.612 141.513 282.612 140.112C282.612 138.711 281.705 137.75 280.373 137.75C278.959 137.75 278.217 138.835 278.217 140.112ZM286.611 136.706H287.93V137.887C288.355 137.104 289.111 136.541 290.319 136.541C291.802 136.541 292.777 137.448 292.777 139.054V143.6H291.432V139.398C291.432 138.34 290.855 137.75 289.921 137.75C288.863 137.75 287.957 138.546 287.957 139.988V143.6H286.611V136.706ZM301.152 143.6H299.847V142.392C299.394 143.202 298.487 143.682 297.348 143.682C295.205 143.682 294.065 142.007 294.065 140.126C294.065 138.244 295.219 136.541 297.361 136.541C298.487 136.541 299.366 137.008 299.792 137.791V133.987H301.152V143.6ZM295.411 140.112C295.411 141.499 296.276 142.474 297.581 142.474C298.899 142.474 299.806 141.499 299.806 140.112C299.806 138.725 298.899 137.75 297.567 137.75C296.167 137.75 295.411 138.835 295.411 140.112ZM306.835 133.534C307.398 133.534 307.796 133.946 307.796 134.481C307.796 135.003 307.398 135.401 306.835 135.401C306.272 135.401 305.874 135.003 305.874 134.481C305.874 133.946 306.272 133.534 306.835 133.534ZM306.162 143.6V136.706H307.508V143.6H306.162ZM313.493 138.409C313.026 137.928 312.298 137.708 311.707 137.708C311.007 137.708 310.526 138.024 310.526 138.574C310.526 139.205 311.185 139.356 312.147 139.562C313.273 139.796 314.619 140.043 314.619 141.499C314.619 142.886 313.396 143.682 311.886 143.682C310.76 143.682 309.606 143.216 308.851 142.337L309.661 141.403C310.224 142.158 311.213 142.488 312.009 142.488C312.71 142.488 313.273 142.227 313.273 141.664C313.273 141.073 312.696 140.908 311.817 140.73C310.663 140.496 309.194 140.208 309.194 138.656C309.194 137.228 310.389 136.541 311.721 136.541C312.627 136.541 313.575 136.857 314.22 137.516L313.493 138.409ZM325.421 143.6H324.116V142.392C323.663 143.202 322.757 143.682 321.617 143.682C319.475 143.682 318.335 142.007 318.335 140.126C318.335 138.244 319.488 136.541 321.631 136.541C322.757 136.541 323.636 137.008 324.061 137.791V133.987H325.421V143.6ZM319.681 140.112C319.681 141.499 320.546 142.474 321.85 142.474C323.169 142.474 324.075 141.499 324.075 140.112C324.075 138.725 323.169 137.75 321.837 137.75C320.436 137.75 319.681 138.835 319.681 140.112ZM327.919 133.534C328.482 133.534 328.88 133.946 328.88 134.481C328.88 135.003 328.482 135.401 327.919 135.401C327.356 135.401 326.958 135.003 326.958 134.481C326.958 133.946 327.356 133.534 327.919 133.534ZM327.246 143.6V136.706H328.592V143.6H327.246ZM334.576 138.409C334.109 137.928 333.382 137.708 332.791 137.708C332.091 137.708 331.61 138.024 331.61 138.574C331.61 139.205 332.269 139.356 333.231 139.562C334.357 139.796 335.703 140.043 335.703 141.499C335.703 142.886 334.48 143.682 332.97 143.682C331.843 143.682 330.69 143.216 329.935 142.337L330.745 141.403C331.308 142.158 332.297 142.488 333.093 142.488C333.794 142.488 334.357 142.227 334.357 141.664C334.357 141.073 333.78 140.908 332.901 140.73C331.747 140.496 330.278 140.208 330.278 138.656C330.278 137.228 331.473 136.541 332.805 136.541C333.711 136.541 334.659 136.857 335.304 137.516L334.576 138.409ZM340.704 136.541C342.86 136.541 343.986 138.244 343.986 140.084C343.986 141.925 342.832 143.6 340.69 143.6C339.591 143.6 338.74 143.147 338.259 142.392V146.635H336.913V136.706H338.232V137.846C338.671 137.036 339.578 136.541 340.704 136.541ZM338.259 140.071C338.259 141.416 339.152 142.392 340.484 142.392C341.775 142.392 342.64 141.416 342.64 140.071C342.64 138.835 341.899 137.75 340.484 137.75C339.152 137.75 338.259 138.725 338.259 140.071ZM348.736 143.27C348.256 143.545 347.761 143.682 347.294 143.682C346.182 143.682 345.276 142.913 345.276 141.513V133.987H346.621V141.362C346.621 142.076 347.047 142.46 347.583 142.46C347.844 142.46 348.118 142.392 348.393 142.24L348.736 143.27ZM356.222 141.636C356.222 142.213 356.579 142.46 357.005 142.46C357.197 142.46 357.403 142.405 357.595 142.295L357.925 143.298C357.527 143.559 357.087 143.682 356.675 143.682C355.851 143.682 355.123 143.174 355.027 142.268C354.533 143.202 353.613 143.682 352.431 143.682C350.317 143.682 349.135 142.034 349.135 140.139C349.135 138.244 350.289 136.541 352.431 136.541C353.599 136.541 354.464 137.022 354.903 137.86V136.706H356.222V141.636ZM350.481 140.112C350.481 141.499 351.36 142.474 352.665 142.474C353.956 142.474 354.876 141.513 354.876 140.112C354.876 138.711 353.97 137.75 352.637 137.75C351.223 137.75 350.481 138.835 350.481 140.112ZM363.71 136.706H365.055V143.353C365.055 145.578 363.6 146.814 361.663 146.814C360.056 146.814 358.807 146.017 358.326 144.506L359.548 143.985C359.878 145.083 360.647 145.591 361.704 145.591C362.913 145.591 363.71 144.877 363.71 143.518V142.117C363.298 142.941 362.46 143.435 361.402 143.435C360.015 143.435 358.752 142.543 358.752 140.785V136.706H360.098V140.496C360.098 141.581 360.757 142.213 361.732 142.213C362.858 142.213 363.71 141.334 363.71 139.988V136.706ZM372.811 140.565H367.689C367.854 141.842 368.678 142.488 369.886 142.488C370.792 142.488 371.452 142.089 371.891 141.471L372.646 142.282C371.932 143.174 371.012 143.682 369.776 143.682C367.634 143.682 366.343 142.186 366.343 140.194C366.343 138.217 367.606 136.541 369.79 136.541C371.658 136.541 372.811 137.75 372.811 139.892V140.565ZM367.689 139.535H371.465C371.465 138.354 370.889 137.681 369.735 137.681C368.568 137.681 367.854 138.381 367.689 139.535ZM380.772 143.6H379.468V142.392C379.014 143.202 378.108 143.682 376.968 143.682C374.826 143.682 373.686 142.007 373.686 140.126C373.686 138.244 374.84 136.541 376.982 136.541C378.108 136.541 378.987 137.008 379.413 137.791V133.987H380.772V143.6ZM375.032 140.112C375.032 141.499 375.897 142.474 377.202 142.474C378.52 142.474 379.426 141.499 379.426 140.112C379.426 138.725 378.52 137.75 377.188 137.75C375.787 137.75 375.032 138.835 375.032 140.112ZM391.447 140.565H386.325C386.49 141.842 387.314 142.488 388.522 142.488C389.429 142.488 390.088 142.089 390.527 141.471L391.283 142.282C390.568 143.174 389.648 143.682 388.412 143.682C386.27 143.682 384.979 142.186 384.979 140.194C384.979 138.217 386.242 136.541 388.426 136.541C390.294 136.541 391.447 137.75 391.447 139.892V140.565ZM386.325 139.535H390.101C390.101 138.354 389.525 137.681 388.371 137.681C387.204 137.681 386.49 138.381 386.325 139.535ZM393.53 133.534C394.094 133.534 394.492 133.946 394.492 134.481C394.492 135.003 394.094 135.401 393.53 135.401C392.967 135.401 392.569 135.003 392.569 134.481C392.569 133.946 392.967 133.534 393.53 133.534ZM392.858 143.6V136.706H394.203V143.6H392.858ZM395.203 136.706H396.645V134.866H398.004V136.706H400.119V137.914H398.004V141.265C398.004 142.089 398.54 142.46 399.185 142.46C399.556 142.46 399.982 142.337 400.339 142.103L400.724 143.078C400.133 143.49 399.488 143.682 398.856 143.682C397.606 143.682 396.645 142.886 396.645 141.444V137.914H395.203V136.706ZM401.734 133.987H403.079V137.86C403.505 137.077 404.261 136.541 405.442 136.541C406.925 136.541 407.9 137.448 407.9 139.054V143.6H406.554V139.398C406.554 138.34 405.977 137.75 405.043 137.75C403.986 137.75 403.079 138.532 403.079 139.961V143.6H401.734V133.987ZM415.656 140.565H410.534C410.698 141.842 411.522 142.488 412.731 142.488C413.637 142.488 414.296 142.089 414.736 141.471L415.491 142.282C414.777 143.174 413.857 143.682 412.621 143.682C410.479 143.682 409.188 142.186 409.188 140.194C409.188 138.217 410.451 136.541 412.635 136.541C414.502 136.541 415.656 137.75 415.656 139.892V140.565ZM410.534 139.535H414.31C414.31 138.354 413.733 137.681 412.58 137.681C411.412 137.681 410.698 138.381 410.534 139.535ZM416.943 136.706H418.261V137.832C418.591 136.994 419.332 136.61 420.17 136.61C420.5 136.61 420.843 136.665 421.159 136.788L420.939 138.038C420.637 137.914 420.321 137.86 420.046 137.86C419.058 137.86 418.289 138.519 418.289 139.878V143.6H416.943V136.706ZM136.07 157.706H137.581L135.027 164.6H133.763L131.992 159.656L130.206 164.6H128.957L126.402 157.706H127.844L129.588 162.787L131.332 157.706H132.651L134.395 162.774L136.07 157.706ZM139.399 154.534C139.963 154.534 140.361 154.946 140.361 155.481C140.361 156.003 139.963 156.401 139.399 156.401C138.836 156.401 138.438 156.003 138.438 155.481C138.438 154.946 138.836 154.534 139.399 154.534ZM138.727 164.6V157.706H140.072V164.6H138.727ZM141.072 157.706H142.514V155.866H143.873V157.706H145.988V158.914H143.873V162.265C143.873 163.089 144.409 163.46 145.054 163.46C145.425 163.46 145.851 163.337 146.208 163.103L146.592 164.078C146.002 164.49 145.356 164.682 144.725 164.682C143.475 164.682 142.514 163.886 142.514 162.444V158.914H141.072V157.706ZM147.603 154.987H148.948V158.86C149.374 158.077 150.129 157.541 151.311 157.541C152.794 157.541 153.769 158.448 153.769 160.054V164.6H152.423V160.398C152.423 159.34 151.846 158.75 150.912 158.75C149.855 158.75 148.948 159.532 148.948 160.961V164.6H147.603V154.987ZM156.265 154.534C156.828 154.534 157.226 154.946 157.226 155.481C157.226 156.003 156.828 156.401 156.265 156.401C155.702 156.401 155.304 156.003 155.304 155.481C155.304 154.946 155.702 154.534 156.265 154.534ZM155.592 164.6V157.706H156.938V164.6H155.592ZM158.761 157.706H160.08V158.887C160.506 158.104 161.261 157.541 162.469 157.541C163.953 157.541 164.928 158.448 164.928 160.054V164.6H163.582V160.398C163.582 159.34 163.005 158.75 162.071 158.75C161.014 158.75 160.107 159.546 160.107 160.988V164.6H158.761V157.706ZM176.219 162.636C176.219 163.213 176.576 163.46 177.002 163.46C177.194 163.46 177.4 163.405 177.592 163.295L177.922 164.298C177.524 164.559 177.084 164.682 176.672 164.682C175.848 164.682 175.12 164.174 175.024 163.268C174.53 164.202 173.61 164.682 172.429 164.682C170.314 164.682 169.133 163.034 169.133 161.139C169.133 159.244 170.286 157.541 172.429 157.541C173.596 157.541 174.461 158.022 174.901 158.86V157.706H176.219V162.636ZM170.479 161.112C170.479 162.499 171.358 163.474 172.662 163.474C173.953 163.474 174.873 162.513 174.873 161.112C174.873 159.711 173.967 158.75 172.635 158.75C171.22 158.75 170.479 159.835 170.479 161.112ZM181.1 157.706H182.446V157.115C182.446 155.564 183.366 154.643 184.753 154.643C185.426 154.643 186.003 154.836 186.552 155.275L185.948 156.278C185.632 155.989 185.275 155.866 184.89 155.866C184.231 155.866 183.792 156.291 183.792 157.102V157.706H185.646V158.914H183.792V164.6H182.446V158.914H181.1V157.706ZM189.822 157.541C191.869 157.541 193.324 159.052 193.324 161.112C193.324 163.158 191.869 164.682 189.822 164.682C187.776 164.682 186.32 163.158 186.32 161.112C186.32 159.052 187.776 157.541 189.822 157.541ZM187.666 161.112C187.666 162.485 188.531 163.46 189.822 163.46C191.113 163.46 191.978 162.485 191.978 161.112C191.978 159.738 191.113 158.763 189.822 158.763C188.531 158.763 187.666 159.738 187.666 161.112ZM194.612 157.706H195.93V158.832C196.26 157.994 197.001 157.61 197.839 157.61C198.169 157.61 198.512 157.665 198.828 157.788L198.608 159.038C198.306 158.914 197.99 158.86 197.716 158.86C196.727 158.86 195.958 159.519 195.958 160.878V164.6H194.612V157.706ZM199.755 157.706H201.074V158.86C201.458 158.049 202.145 157.541 203.175 157.541C204.26 157.541 205.015 158.049 205.317 158.969C205.743 158.077 206.54 157.541 207.625 157.541C209.094 157.541 209.959 158.475 209.959 160.109V164.6H208.613V160.37C208.613 159.354 208.146 158.75 207.226 158.75C206.306 158.75 205.523 159.409 205.523 160.878V164.6H204.178V160.37C204.178 159.354 203.724 158.75 202.804 158.75C201.884 158.75 201.101 159.409 201.101 160.878V164.6H199.755V157.706ZM217.652 157.541C219.698 157.541 221.154 159.052 221.154 161.112C221.154 163.158 219.698 164.682 217.652 164.682C215.606 164.682 214.15 163.158 214.15 161.112C214.15 159.052 215.606 157.541 217.652 157.541ZM215.496 161.112C215.496 162.485 216.361 163.46 217.652 163.46C218.943 163.46 219.808 162.485 219.808 161.112C219.808 159.738 218.943 158.763 217.652 158.763C216.361 158.763 215.496 159.738 215.496 161.112ZM222.442 157.706H223.76V158.832C224.09 157.994 224.831 157.61 225.669 157.61C225.999 157.61 226.342 157.665 226.658 157.788L226.438 159.038C226.136 158.914 225.82 158.86 225.545 158.86C224.557 158.86 223.788 159.519 223.788 160.878V164.6H222.442V157.706ZM234.145 157.541C236.302 157.541 237.428 159.244 237.428 161.084C237.428 162.925 236.274 164.6 234.132 164.6C233.033 164.6 232.182 164.147 231.701 163.392V167.635H230.355V157.706H231.673V158.846C232.113 158.036 233.019 157.541 234.145 157.541ZM231.701 161.071C231.701 162.416 232.594 163.392 233.926 163.392C235.217 163.392 236.082 162.416 236.082 161.071C236.082 159.835 235.34 158.75 233.926 158.75C232.594 158.75 231.701 159.725 231.701 161.071ZM245.392 162.636C245.392 163.213 245.749 163.46 246.175 163.46C246.367 163.46 246.573 163.405 246.765 163.295L247.095 164.298C246.696 164.559 246.257 164.682 245.845 164.682C245.021 164.682 244.293 164.174 244.197 163.268C243.703 164.202 242.782 164.682 241.601 164.682C239.486 164.682 238.305 163.034 238.305 161.139C238.305 159.244 239.459 157.541 241.601 157.541C242.769 157.541 243.634 158.022 244.073 158.86V157.706H245.392V162.636ZM239.651 161.112C239.651 162.499 240.53 163.474 241.835 163.474C243.126 163.474 244.046 162.513 244.046 161.112C244.046 159.711 243.139 158.75 241.807 158.75C240.393 158.75 239.651 159.835 239.651 161.112ZM248.045 157.706H249.364V158.832C249.693 157.994 250.435 157.61 251.273 157.61C251.602 157.61 251.946 157.665 252.261 157.788L252.042 159.038C251.74 158.914 251.424 158.86 251.149 158.86C250.16 158.86 249.391 159.519 249.391 160.878V164.6H248.045V157.706ZM252.633 157.706H254.075V155.866H255.435V157.706H257.55V158.914H255.435V162.265C255.435 163.089 255.97 163.46 256.616 163.46C256.986 163.46 257.412 163.337 257.769 163.103L258.154 164.078C257.563 164.49 256.918 164.682 256.286 164.682C255.036 164.682 254.075 163.886 254.075 162.444V158.914H252.633V157.706ZM265.037 157.541C267.083 157.541 268.539 159.052 268.539 161.112C268.539 163.158 267.083 164.682 265.037 164.682C262.991 164.682 261.535 163.158 261.535 161.112C261.535 159.052 262.991 157.541 265.037 157.541ZM262.881 161.112C262.881 162.485 263.746 163.46 265.037 163.46C266.328 163.46 267.193 162.485 267.193 161.112C267.193 159.738 266.328 158.763 265.037 158.763C263.746 158.763 262.881 159.738 262.881 161.112ZM269.003 157.706H270.348V157.115C270.348 155.564 271.269 154.643 272.656 154.643C273.329 154.643 273.905 154.836 274.455 155.275L273.85 156.278C273.535 155.989 273.177 155.866 272.793 155.866C272.134 155.866 271.694 156.291 271.694 157.102V157.706H273.548V158.914H271.694V164.6H270.348V158.914H269.003V157.706ZM284.361 162.636C284.361 163.213 284.718 163.46 285.143 163.46C285.336 163.46 285.542 163.405 285.734 163.295L286.064 164.298C285.665 164.559 285.226 164.682 284.814 164.682C283.99 164.682 283.262 164.174 283.166 163.268C282.671 164.202 281.751 164.682 280.57 164.682C278.455 164.682 277.274 163.034 277.274 161.139C277.274 159.244 278.428 157.541 280.57 157.541C281.738 157.541 282.603 158.022 283.042 158.86V157.706H284.361V162.636ZM278.62 161.112C278.62 162.499 279.499 163.474 280.804 163.474C282.095 163.474 283.015 162.513 283.015 161.112C283.015 159.711 282.108 158.75 280.776 158.75C279.362 158.75 278.62 159.835 278.62 161.112ZM296.053 157.706V164.6H294.735V163.337C294.295 164.119 293.595 164.682 292.428 164.682C290.958 164.682 289.928 163.79 289.928 162.073V157.706H291.274V161.785C291.274 162.897 291.837 163.474 292.757 163.474C293.856 163.474 294.707 162.636 294.707 161.235V157.706H296.053ZM301.918 159.409C301.451 158.928 300.724 158.708 300.133 158.708C299.433 158.708 298.952 159.024 298.952 159.574C298.952 160.205 299.611 160.356 300.573 160.562C301.699 160.796 303.045 161.043 303.045 162.499C303.045 163.886 301.822 164.682 300.312 164.682C299.185 164.682 298.032 164.216 297.277 163.337L298.087 162.403C298.65 163.158 299.639 163.488 300.435 163.488C301.136 163.488 301.699 163.227 301.699 162.664C301.699 162.073 301.122 161.908 300.243 161.73C299.089 161.496 297.62 161.208 297.62 159.656C297.62 158.228 298.815 157.541 300.147 157.541C301.053 157.541 302.001 157.857 302.646 158.516L301.918 159.409ZM310.312 161.565H305.189C305.354 162.842 306.178 163.488 307.387 163.488C308.293 163.488 308.952 163.089 309.392 162.471L310.147 163.282C309.433 164.174 308.513 164.682 307.277 164.682C305.134 164.682 303.843 163.186 303.843 161.194C303.843 159.217 305.107 157.541 307.29 157.541C309.158 157.541 310.312 158.75 310.312 160.892V161.565ZM305.189 160.535H308.966C308.966 159.354 308.389 158.681 307.235 158.681C306.068 158.681 305.354 159.381 305.189 160.535ZM311.598 157.706H312.917V158.832C313.246 157.994 313.988 157.61 314.826 157.61C315.155 157.61 315.499 157.665 315.815 157.788L315.595 159.038C315.293 158.914 314.977 158.86 314.702 158.86C313.713 158.86 312.944 159.519 312.944 160.878V164.6H311.598V157.706ZM318.554 157.706H319.899V157.115C319.899 155.564 320.82 154.643 322.207 154.643C322.88 154.643 323.456 154.836 324.006 155.275L323.401 156.278C323.086 155.989 322.728 155.866 322.344 155.866C321.685 155.866 321.245 156.291 321.245 157.102V157.706H323.099V158.914H321.245V164.6H319.899V158.914H318.554V157.706ZM327.915 164.27C327.434 164.545 326.94 164.682 326.473 164.682C325.36 164.682 324.454 163.913 324.454 162.513V154.987H325.8V162.362C325.8 163.076 326.226 163.46 326.761 163.46C327.022 163.46 327.297 163.392 327.572 163.24L327.915 164.27ZM331.816 157.541C333.862 157.541 335.318 159.052 335.318 161.112C335.318 163.158 333.862 164.682 331.816 164.682C329.77 164.682 328.314 163.158 328.314 161.112C328.314 159.052 329.77 157.541 331.816 157.541ZM329.66 161.112C329.66 162.485 330.525 163.46 331.816 163.46C333.107 163.46 333.972 162.485 333.972 161.112C333.972 159.738 333.107 158.763 331.816 158.763C330.525 158.763 329.66 159.738 329.66 161.112ZM345.453 157.706H346.964L344.409 164.6H343.146L341.374 159.656L339.589 164.6H338.339L335.785 157.706H337.227L338.971 162.787L340.715 157.706H342.033L343.777 162.774L345.453 157.706ZM355.064 159.409C354.597 158.928 353.869 158.708 353.278 158.708C352.578 158.708 352.097 159.024 352.097 159.574C352.097 160.205 352.757 160.356 353.718 160.562C354.844 160.796 356.19 161.043 356.19 162.499C356.19 163.886 354.968 164.682 353.457 164.682C352.331 164.682 351.177 164.216 350.422 163.337L351.232 162.403C351.795 163.158 352.784 163.488 353.581 163.488C354.281 163.488 354.844 163.227 354.844 162.664C354.844 162.073 354.267 161.908 353.388 161.73C352.235 161.496 350.765 161.208 350.765 159.656C350.765 158.228 351.96 157.541 353.292 157.541C354.199 157.541 355.146 157.857 355.792 158.516L355.064 159.409ZM363.388 157.706V164.6H362.07V163.337C361.631 164.119 360.93 164.682 359.763 164.682C358.293 164.682 357.263 163.79 357.263 162.073V157.706H358.609V161.785C358.609 162.897 359.172 163.474 360.092 163.474C361.191 163.474 362.043 162.636 362.043 161.235V157.706H363.388ZM371.08 163.007C370.38 164.064 369.391 164.682 368.1 164.682C365.861 164.682 364.68 163.048 364.68 161.153C364.68 159.217 365.985 157.541 368.155 157.541C369.322 157.541 370.229 157.994 370.888 158.887L369.927 159.697C369.501 159.066 368.938 158.763 368.169 158.763C366.74 158.763 366.026 159.821 366.026 161.071C366.026 162.334 366.809 163.46 368.21 163.46C369.02 163.46 369.748 163.034 370.16 162.334L371.08 163.007ZM372.087 154.987H373.433V158.86C373.858 158.077 374.614 157.541 375.795 157.541C377.278 157.541 378.253 158.448 378.253 160.054V164.6H376.907V160.398C376.907 159.34 376.33 158.75 375.396 158.75C374.339 158.75 373.433 159.532 373.433 160.961V164.6H372.087V154.987ZM389.544 162.636C389.544 163.213 389.902 163.46 390.327 163.46C390.52 163.46 390.726 163.405 390.918 163.295L391.247 164.298C390.849 164.559 390.41 164.682 389.998 164.682C389.174 164.682 388.446 164.174 388.35 163.268C387.855 164.202 386.935 164.682 385.754 164.682C383.639 164.682 382.458 163.034 382.458 161.139C382.458 159.244 383.612 157.541 385.754 157.541C386.921 157.541 387.787 158.022 388.226 158.86V157.706H389.544V162.636ZM383.804 161.112C383.804 162.499 384.683 163.474 385.988 163.474C387.278 163.474 388.199 162.513 388.199 161.112C388.199 159.711 387.292 158.75 385.96 158.75C384.546 158.75 383.804 159.835 383.804 161.112ZM396.359 159.409C395.892 158.928 395.164 158.708 394.574 158.708C393.873 158.708 393.393 159.024 393.393 159.574C393.393 160.205 394.052 160.356 395.013 160.562C396.139 160.796 397.485 161.043 397.485 162.499C397.485 163.886 396.263 164.682 394.752 164.682C393.626 164.682 392.473 164.216 391.717 163.337L392.528 162.403C393.091 163.158 394.079 163.488 394.876 163.488C395.576 163.488 396.139 163.227 396.139 162.664C396.139 162.073 395.563 161.908 394.684 161.73C393.53 161.496 392.061 161.208 392.061 159.656C392.061 158.228 393.255 157.541 394.588 157.541C395.494 157.541 396.442 157.857 397.087 158.516L396.359 159.409ZM408.288 162.636C408.288 163.213 408.645 163.46 409.071 163.46C409.263 163.46 409.469 163.405 409.661 163.295L409.991 164.298C409.592 164.559 409.153 164.682 408.741 164.682C407.917 164.682 407.189 164.174 407.093 163.268C406.599 164.202 405.678 164.682 404.497 164.682C402.382 164.682 401.201 163.034 401.201 161.139C401.201 159.244 402.355 157.541 404.497 157.541C405.665 157.541 406.53 158.022 406.969 158.86V157.706H408.288V162.636ZM402.547 161.112C402.547 162.499 403.426 163.474 404.731 163.474C406.022 163.474 406.942 162.513 406.942 161.112C406.942 159.711 406.036 158.75 404.703 158.75C403.289 158.75 402.547 159.835 402.547 161.112ZM131.25 180.409C130.783 179.928 130.055 179.708 129.465 179.708C128.764 179.708 128.284 180.024 128.284 180.574C128.284 181.205 128.943 181.356 129.904 181.562C131.03 181.796 132.376 182.043 132.376 183.499C132.376 184.886 131.154 185.682 129.643 185.682C128.517 185.682 127.364 185.216 126.608 184.337L127.418 183.403C127.982 184.158 128.97 184.488 129.767 184.488C130.467 184.488 131.03 184.227 131.03 183.664C131.03 183.073 130.454 182.908 129.575 182.73C128.421 182.496 126.952 182.208 126.952 180.656C126.952 179.228 128.146 178.541 129.478 178.541C130.385 178.541 131.332 178.857 131.978 179.516L131.25 180.409ZM140.261 183.636C140.261 184.213 140.618 184.46 141.044 184.46C141.236 184.46 141.442 184.405 141.635 184.295L141.964 185.298C141.566 185.559 141.127 185.682 140.715 185.682C139.891 185.682 139.163 185.174 139.067 184.268C138.572 185.202 137.652 185.682 136.471 185.682C134.356 185.682 133.175 184.034 133.175 182.139C133.175 180.244 134.329 178.541 136.471 178.541C137.638 178.541 138.504 179.022 138.943 179.86V178.706H140.261V183.636ZM134.521 182.112C134.521 183.499 135.4 184.474 136.704 184.474C137.995 184.474 138.916 183.513 138.916 182.112C138.916 180.711 138.009 179.75 136.677 179.75C135.262 179.75 134.521 180.835 134.521 182.112ZM146.376 185.27C145.895 185.545 145.401 185.682 144.934 185.682C143.821 185.682 142.915 184.913 142.915 183.513V175.987H144.261V183.362C144.261 184.076 144.687 184.46 145.222 184.46C145.483 184.46 145.758 184.392 146.032 184.24L146.376 185.27ZM153.243 182.565H148.121C148.285 183.842 149.109 184.488 150.318 184.488C151.224 184.488 151.884 184.089 152.323 183.471L153.078 184.282C152.364 185.174 151.444 185.682 150.208 185.682C148.066 185.682 146.775 184.186 146.775 182.194C146.775 180.217 148.038 178.541 150.222 178.541C152.09 178.541 153.243 179.75 153.243 181.892V182.565ZM148.121 181.535H151.897C151.897 180.354 151.321 179.681 150.167 179.681C149 179.681 148.285 180.381 148.121 181.535ZM158.691 180.409C158.224 179.928 157.496 179.708 156.906 179.708C156.205 179.708 155.725 180.024 155.725 180.574C155.725 181.205 156.384 181.356 157.345 181.562C158.471 181.796 159.817 182.043 159.817 183.499C159.817 184.886 158.595 185.682 157.084 185.682C155.958 185.682 154.804 185.216 154.049 184.337L154.859 183.403C155.422 184.158 156.411 184.488 157.208 184.488C157.908 184.488 158.471 184.227 158.471 183.664C158.471 183.073 157.894 182.908 157.016 182.73C155.862 182.496 154.392 182.208 154.392 180.656C154.392 179.228 155.587 178.541 156.919 178.541C157.826 178.541 158.773 178.857 159.419 179.516L158.691 180.409ZM167.035 178.541C169.081 178.541 170.537 180.052 170.537 182.112C170.537 184.158 169.081 185.682 167.035 185.682C164.989 185.682 163.533 184.158 163.533 182.112C163.533 180.052 164.989 178.541 167.035 178.541ZM164.879 182.112C164.879 183.485 165.744 184.46 167.035 184.46C168.326 184.46 169.191 183.485 169.191 182.112C169.191 180.738 168.326 179.763 167.035 179.763C165.744 179.763 164.879 180.738 164.879 182.112ZM171.825 178.706H173.143V179.832C173.473 178.994 174.214 178.61 175.052 178.61C175.382 178.61 175.725 178.665 176.041 178.788L175.821 180.038C175.519 179.914 175.203 179.86 174.928 179.86C173.94 179.86 173.171 180.519 173.171 181.878V185.6H171.825V178.706ZM180.603 175.534C181.18 175.534 181.565 175.946 181.565 176.481C181.565 177.003 181.18 177.401 180.603 177.401C180.04 177.401 179.642 177.003 179.642 176.481C179.642 175.946 180.04 175.534 180.603 175.534ZM177.815 188.443L178.241 187.358C178.516 187.536 178.79 187.605 179.038 187.605C179.559 187.605 179.944 187.234 179.944 186.589V178.706H181.29V186.589C181.29 188.017 180.397 188.827 179.244 188.827C178.763 188.827 178.323 188.704 177.815 188.443ZM186.215 178.541C188.261 178.541 189.717 180.052 189.717 182.112C189.717 184.158 188.261 185.682 186.215 185.682C184.168 185.682 182.713 184.158 182.713 182.112C182.713 180.052 184.168 178.541 186.215 178.541ZM184.059 182.112C184.059 183.485 184.924 184.46 186.215 184.46C187.506 184.46 188.371 183.485 188.371 182.112C188.371 180.738 187.506 179.763 186.215 179.763C184.924 179.763 184.059 180.738 184.059 182.112ZM191.801 175.534C192.364 175.534 192.762 175.946 192.762 176.481C192.762 177.003 192.364 177.401 191.801 177.401C191.238 177.401 190.839 177.003 190.839 176.481C190.839 175.946 191.238 175.534 191.801 175.534ZM191.128 185.6V178.706H192.474V185.6H191.128ZM194.297 178.706H195.615V179.887C196.041 179.104 196.796 178.541 198.005 178.541C199.488 178.541 200.463 179.448 200.463 181.054V185.6H199.117V181.398C199.117 180.34 198.541 179.75 197.607 179.75C196.549 179.75 195.643 180.546 195.643 181.988V185.6H194.297V178.706ZM204.39 178.706H205.736V178.115C205.736 176.564 206.656 175.643 208.043 175.643C208.716 175.643 209.293 175.836 209.843 176.275L209.238 177.278C208.922 176.989 208.565 176.866 208.181 176.866C207.522 176.866 207.082 177.291 207.082 178.102V178.706H208.936V179.914H207.082V185.6H205.736V179.914H204.39V178.706ZM216.279 178.706V185.6H214.96V184.337C214.521 185.119 213.82 185.682 212.653 185.682C211.184 185.682 210.154 184.79 210.154 183.073V178.706H211.499V182.785C211.499 183.897 212.063 184.474 212.983 184.474C214.081 184.474 214.933 183.636 214.933 182.235V178.706H216.279ZM217.983 178.706H219.301V179.887C219.727 179.104 220.482 178.541 221.691 178.541C223.174 178.541 224.149 179.448 224.149 181.054V185.6H222.803V181.398C222.803 180.34 222.226 179.75 221.292 179.75C220.235 179.75 219.329 180.546 219.329 181.988V185.6H217.983V178.706ZM225.849 178.706H227.167V179.887C227.593 179.104 228.348 178.541 229.557 178.541C231.04 178.541 232.015 179.448 232.015 181.054V185.6H230.669V181.398C230.669 180.34 230.092 179.75 229.158 179.75C228.101 179.75 227.195 180.546 227.195 181.988V185.6H225.849V178.706ZM239.771 182.565H234.649C234.813 183.842 235.637 184.488 236.846 184.488C237.752 184.488 238.412 184.089 238.851 183.471L239.606 184.282C238.892 185.174 237.972 185.682 236.736 185.682C234.594 185.682 233.303 184.186 233.303 182.194C233.303 180.217 234.566 178.541 236.75 178.541C238.618 178.541 239.771 179.75 239.771 181.892V182.565ZM234.649 181.535H238.425C238.425 180.354 237.849 179.681 236.695 179.681C235.528 179.681 234.813 180.381 234.649 181.535ZM244.519 185.27C244.038 185.545 243.544 185.682 243.077 185.682C241.964 185.682 241.058 184.913 241.058 183.513V175.987H242.404V183.362C242.404 184.076 242.829 184.46 243.365 184.46C243.626 184.46 243.901 184.392 244.175 184.24L244.519 185.27ZM245.999 183.774C246.576 183.774 246.974 184.199 246.974 184.735C246.974 185.27 246.576 185.682 245.999 185.682C245.423 185.682 245.024 185.27 245.024 184.735C245.024 184.199 245.423 183.774 245.999 183.774Z" fill="#434343"/>
</g>
</g>
<defs>
<filter id="filter0_d_138_3966" x="47.1333" y="83.5667" width="425.733" height="138.934" filterUnits="userSpaceOnUse" color-interpolation-filters="sRGB">
<feFlood flood-opacity="0" result="BackgroundImageFix"/>
<feColorMatrix in="SourceAlpha" type="matrix" values="0 0 0 0 0 0 0 0 0 0 0 0 0 0 0 0 0 0 127 0" result="hardAlpha"/>
<feOffset dy="3.43333"/>
<feGaussianBlur stdDeviation="3.43333"/>
<feComposite in2="hardAlpha" operator="out"/>
<feColorMatrix type="matrix" values="0 0 0 0 0 0 0 0 0 0 0 0 0 0 0 0 0 0 0.13 0"/>
<feBlend mode="normal" in2="BackgroundImageFix" result="effect1_dropShadow_138_3966"/>
<feBlend mode="normal" in="SourceGraphic" in2="effect1_dropShadow_138_3966" result="shape"/>
</filter>
<clipPath id="clip0_138_3966">
<rect x="54" y="87" width="412" height="125.2" rx="3.43333" fill="white"/>
</clipPath>
</defs>
</svg>
