<svg width="520" height="300" viewBox="0 0 520 300" fill="none" xmlns="http://www.w3.org/2000/svg">
<rect width="520" height="300" fill="white"/>
<path d="M107.104 142.838V162H102.949V142.838H95.5937V138.913H114.492V142.838H107.104ZM129.851 154.876H117.977C118.439 157.416 120.121 158.702 122.693 158.702C124.771 158.702 126.256 157.811 127.278 156.525L129.389 158.999C127.608 161.044 125.332 162.198 122.364 162.198C117.219 162.198 113.92 158.735 113.92 153.722C113.92 148.774 117.12 144.817 122.43 144.817C126.981 144.817 129.851 147.719 129.851 153.161V154.876ZM117.944 151.941H125.86C125.827 149.632 124.705 148.181 122.232 148.181C119.824 148.181 118.34 149.566 117.944 151.941ZM132.674 145.212H136.598V147.851C137.39 145.872 139.105 145.014 141.117 145.014C141.875 145.014 142.634 145.146 143.426 145.377L142.799 149.137C142.106 148.873 141.381 148.741 140.754 148.741C138.412 148.741 136.697 150.259 136.697 153.227V162H132.674V145.212ZM145.445 145.212H149.37V147.719C150.293 145.905 151.876 144.817 154.185 144.817C156.659 144.817 158.407 145.938 159.231 148.082C160.221 146.037 162.068 144.817 164.574 144.817C168.103 144.817 170.148 147.059 170.148 151.149V162H166.091V151.842C166.091 149.764 165.267 148.412 163.255 148.412C161.309 148.412 159.792 149.764 159.792 152.798V162H155.768V151.842C155.768 149.764 154.944 148.412 152.899 148.412C150.953 148.412 149.469 149.764 149.469 152.798V162H145.445V145.212ZM184.158 149.863C183.004 148.741 181.355 148.247 180.036 148.247C178.617 148.247 177.661 148.873 177.661 149.929C177.661 151.116 178.848 151.413 181.091 151.842C183.796 152.369 187.16 153.029 187.16 156.69C187.16 160.12 184.158 162.198 180.3 162.198C177.496 162.198 174.66 161.077 172.78 159.032L175.022 156.195C176.441 157.943 178.848 158.702 180.662 158.702C182.114 158.702 183.169 158.174 183.169 157.119C183.169 156.03 182.114 155.668 180.102 155.272C177.364 154.744 173.703 154.051 173.703 150.127C173.703 146.565 176.672 144.817 180.003 144.817C182.311 144.817 184.653 145.608 186.236 147.224L184.158 149.863ZM213.198 156.723C213.198 158.009 213.989 158.57 214.913 158.57C215.341 158.57 215.803 158.438 216.199 158.207L217.122 161.175C216.1 161.868 214.946 162.198 213.89 162.198C211.878 162.198 210.097 161.044 209.735 158.933C208.613 161.044 206.436 162.198 203.633 162.198C198.653 162.198 195.717 158.306 195.717 153.557C195.717 148.84 198.554 144.817 203.633 144.817C206.338 144.817 208.316 145.938 209.24 147.719V145.212H213.198V156.723ZM199.741 153.524C199.741 156.525 201.621 158.603 204.392 158.603C207.228 158.603 209.141 156.558 209.141 153.524C209.141 150.489 207.228 148.412 204.359 148.412C201.39 148.412 199.741 150.687 199.741 153.524ZM219.109 145.212H223.033V147.752C224.056 146.07 225.672 144.817 228.442 144.817C231.938 144.817 234.379 146.927 234.379 150.984V162H230.355V151.875C230.355 149.599 229.102 148.412 227.156 148.412C224.946 148.412 223.132 149.995 223.132 152.996V162H219.109V145.212ZM254.684 162H250.825V159.394C249.802 161.142 247.692 162.198 245.086 162.198C240.04 162.198 237.203 158.24 237.203 153.524C237.203 148.84 240.04 144.817 245.119 144.817C247.692 144.817 249.703 145.872 250.627 147.521V138.913H254.684V162ZM241.227 153.524C241.227 156.525 243.074 158.603 245.878 158.603C248.714 158.603 250.627 156.525 250.627 153.524C250.627 150.489 248.714 148.412 245.845 148.412C242.909 148.412 241.227 150.687 241.227 153.524ZM280.155 157.976C278.473 160.648 275.9 162.198 272.734 162.198C267.358 162.198 264.357 158.372 264.357 153.623C264.357 148.774 267.721 144.817 272.899 144.817C275.768 144.817 278.11 145.971 279.693 148.214L276.824 150.588C275.834 149.137 274.581 148.445 272.932 148.445C269.963 148.445 268.347 150.621 268.347 153.425C268.347 156.261 270.161 158.57 273.097 158.57C274.845 158.57 276.494 157.613 277.417 155.997L280.155 157.976ZM289.923 144.817C294.936 144.817 298.564 148.543 298.564 153.524C298.564 158.471 294.936 162.198 289.923 162.198C284.943 162.198 281.315 158.471 281.315 153.524C281.315 148.543 284.943 144.817 289.923 144.817ZM285.339 153.524C285.339 156.492 287.153 158.57 289.923 158.57C292.694 158.57 294.541 156.492 294.541 153.524C294.541 150.522 292.694 148.445 289.923 148.445C287.153 148.445 285.339 150.522 285.339 153.524ZM301.357 145.212H305.281V147.752C306.304 146.07 307.92 144.817 310.69 144.817C314.186 144.817 316.627 146.927 316.627 150.984V162H312.603V151.875C312.603 149.599 311.35 148.412 309.404 148.412C307.194 148.412 305.38 149.995 305.38 152.996V162H301.357V145.212ZM336.932 162H333.073V159.394C332.05 161.142 329.94 162.198 327.334 162.198C322.288 162.198 319.451 158.24 319.451 153.524C319.451 148.84 322.288 144.817 327.367 144.817C329.94 144.817 331.951 145.872 332.875 147.521V138.913H336.932V162ZM323.475 153.524C323.475 156.525 325.322 158.603 328.126 158.603C330.962 158.603 332.875 156.525 332.875 153.524C332.875 150.489 330.962 148.412 328.093 148.412C325.157 148.412 323.475 150.687 323.475 153.524ZM342.993 137.528C344.609 137.528 345.73 138.682 345.73 140.166C345.73 141.617 344.609 142.772 342.993 142.772C341.409 142.772 340.288 141.617 340.288 140.166C340.288 138.682 341.409 137.528 342.993 137.528ZM340.981 162V145.212H345.004V162H340.981ZM347.129 145.212H350.526V140.958H354.583V145.212H359.53V148.84H354.583V155.832C354.583 157.679 355.77 158.57 357.254 158.57C358.079 158.57 359.035 158.306 359.86 157.778L360.915 160.714C359.431 161.703 357.815 162.198 356.232 162.198C352.934 162.198 350.526 160.153 350.526 156.492V148.84H347.129V145.212ZM365.379 137.528C366.995 137.528 368.116 138.682 368.116 140.166C368.116 141.617 366.995 142.772 365.379 142.772C363.796 142.772 362.674 141.617 362.674 140.166C362.674 138.682 363.796 137.528 365.379 137.528ZM363.367 162V145.212H367.391V162H363.367ZM379.113 144.817C384.126 144.817 387.754 148.543 387.754 153.524C387.754 158.471 384.126 162.198 379.113 162.198C374.133 162.198 370.505 158.471 370.505 153.524C370.505 148.543 374.133 144.817 379.113 144.817ZM374.528 153.524C374.528 156.492 376.342 158.57 379.113 158.57C381.883 158.57 383.73 156.492 383.73 153.524C383.73 150.522 381.883 148.445 379.113 148.445C376.342 148.445 374.528 150.522 374.528 153.524ZM390.546 145.212H394.471V147.752C395.493 146.07 397.109 144.817 399.88 144.817C403.376 144.817 405.817 146.927 405.817 150.984V162H401.793V151.875C401.793 149.599 400.54 148.412 398.594 148.412C396.384 148.412 394.57 149.995 394.57 152.996V162H390.546V145.212ZM419.855 149.863C418.7 148.741 417.051 148.247 415.732 148.247C414.314 148.247 413.357 148.873 413.357 149.929C413.357 151.116 414.545 151.413 416.787 151.842C419.492 152.369 422.856 153.029 422.856 156.69C422.856 160.12 419.855 162.198 415.996 162.198C413.192 162.198 410.356 161.077 408.476 159.032L410.719 156.195C412.137 157.943 414.545 158.702 416.359 158.702C417.81 158.702 418.865 158.174 418.865 157.119C418.865 156.03 417.81 155.668 415.798 155.272C413.06 154.744 409.4 154.051 409.4 150.127C409.4 146.565 412.368 144.817 415.699 144.817C418.008 144.817 420.349 145.608 421.933 147.224L419.855 149.863Z" fill="#144A38"/>
<path d="M95 166.123H423.944V167.772H95V166.123Z" fill="#144A38"/>
</svg>
