<svg width="520" height="300" viewBox="0 0 520 300" fill="none" xmlns="http://www.w3.org/2000/svg">
<rect width="520" height="300" fill="white"/>
<path fill-rule="evenodd" clip-rule="evenodd" d="M281.771 114.473C273.312 109.29 263.281 107.294 253.482 108.846C243.683 110.398 234.76 115.396 228.316 122.94C221.873 130.484 218.333 140.079 218.333 150C218.333 159.921 221.873 169.516 228.316 177.06C234.76 184.604 243.683 189.602 253.482 191.154C263.281 192.706 273.312 190.71 281.771 185.527C290.23 180.343 296.561 172.311 299.627 162.876C300.338 160.687 302.689 159.489 304.877 160.201C307.066 160.912 308.264 163.262 307.553 165.451C303.874 176.773 296.276 186.411 286.125 192.632C275.974 198.852 263.937 201.247 252.178 199.384C240.42 197.522 229.711 191.525 221.98 182.472C214.248 173.42 210 161.905 210 150C210 138.095 214.248 126.58 221.98 117.528C229.711 108.475 240.42 102.478 252.178 100.616C263.937 98.7533 275.974 101.148 286.125 107.368C296.276 113.588 303.874 123.227 307.553 134.549C308.264 136.738 307.066 139.088 304.877 139.799C302.689 140.511 300.338 139.313 299.627 137.124C296.561 127.689 290.23 119.657 281.771 114.473Z" fill="url(#paint0_linear_138_3970)"/>
<defs>
<linearGradient id="paint0_linear_138_3970" x1="307.916" y1="150" x2="208.879" y2="150" gradientUnits="userSpaceOnUse">
<stop stop-color="#144A38"/>
<stop offset="1" stop-color="#82E578"/>
</linearGradient>
</defs>
</svg>
