<svg width="560" height="300" viewBox="0 0 560 300" fill="none" xmlns="http://www.w3.org/2000/svg">
<rect width="520" height="300" transform="translate(20)" fill="white"/>
<rect x="93.3335" y="161.404" width="93.3333" height="2.97872" fill="#C7C7C7"/>
<path d="M81.0896 133.079C80.6607 132.502 79.8698 132.181 79.1728 132.181C78.449 132.181 77.886 132.502 77.886 133.132C77.886 133.897 78.7305 134.138 79.6151 134.379C81.4247 134.848 82.5775 135.398 82.5775 137.1C82.5775 139.124 81.0226 140.13 79.2264 140.13C77.9798 140.13 76.626 139.607 75.7145 138.454L77.0415 137.073C77.5911 137.864 78.5294 138.24 79.3202 138.24C80.0843 138.24 80.6205 137.891 80.6205 137.315C80.6205 136.644 79.8162 136.403 78.9583 136.162C77.0817 135.639 75.9424 135.036 75.9424 133.387C75.9424 131.417 77.4705 130.318 79.2398 130.318C80.3792 130.318 81.5588 130.787 82.3496 131.752L81.0896 133.079ZM82.702 133.025H84.0692V131.336H85.9726V133.025H87.9431V134.728H85.9726V137.234C85.9726 137.958 86.4284 138.293 87.0182 138.293C87.3265 138.293 87.6884 138.199 88.0235 137.985L88.4926 139.392C87.8492 139.794 87.179 139.995 86.5088 139.995C85.088 139.995 84.0692 139.111 84.0692 137.569V134.728H82.702V133.025ZM95.3352 137.087H90.6437C90.8448 137.945 91.448 138.36 92.3729 138.36C93.1771 138.36 93.7535 138.025 94.1556 137.569L95.1207 138.735C94.3701 139.54 93.4318 139.995 92.2254 139.995C90.1209 139.995 88.7135 138.628 88.7135 136.524C88.7135 134.433 90.0941 132.864 92.2522 132.864C94.1288 132.864 95.3352 134.031 95.3352 136.35V137.087ZM90.6169 135.72H93.4586C93.4452 134.955 93.0565 134.433 92.145 134.433C91.3005 134.433 90.7777 134.902 90.6169 135.72ZM100.408 132.864C102.459 132.864 103.639 134.473 103.639 136.403C103.639 138.32 102.446 139.915 100.422 139.915C99.4969 139.915 98.7195 139.58 98.3039 139.017V142.877H96.4005V133.025H98.2503V133.897C98.5854 133.28 99.4031 132.864 100.408 132.864ZM98.2905 136.39C98.2905 137.462 98.9875 138.24 100.046 138.24C101.065 138.24 101.749 137.462 101.749 136.39C101.749 135.358 101.105 134.54 100.046 134.54C98.9875 134.54 98.2905 135.317 98.2905 136.39ZM108.22 139.915V132.449H106.906V130.666H110.15V139.915H108.22Z" fill="#144A38"/>
<circle cx="92.4467" cy="162.893" r="7.44681" fill="white" stroke="#144A38" stroke-width="2.97872" stroke-linecap="round"/>
<rect x="280" y="161.404" width="93.3333" height="2.97872" fill="#C7C7C7"/>
<rect x="186.667" y="161.404" width="92.549" height="2.97872" fill="#C7C7C7"/>
<path opacity="0.3" d="M266.61 132.57C266.114 131.953 265.324 131.618 264.56 131.618C263.621 131.618 262.911 132.1 262.911 132.972C262.911 134.004 263.93 134.325 264.962 134.647C266.557 135.116 267.817 135.612 267.817 137.301C267.817 139.151 266.369 140.13 264.667 140.13C263.501 140.13 262.214 139.647 261.356 138.561L262.321 137.583C262.924 138.414 263.876 138.816 264.747 138.816C265.766 138.816 266.436 138.253 266.436 137.462C266.436 136.524 265.471 136.202 264.439 135.88C262.817 135.384 261.544 134.835 261.544 133.173C261.544 131.377 262.924 130.318 264.627 130.318C265.699 130.318 266.771 130.76 267.508 131.631L266.61 132.57ZM268.147 133.186H269.555V131.39H270.882V133.186H272.946V134.366H270.882V137.636C270.882 138.441 271.404 138.802 272.034 138.802C272.396 138.802 272.812 138.682 273.16 138.454L273.536 139.406C272.959 139.808 272.329 139.995 271.713 139.995C270.493 139.995 269.555 139.218 269.555 137.811V134.366H268.147V133.186ZM280.223 136.953H275.223C275.384 138.199 276.189 138.829 277.368 138.829C278.253 138.829 278.896 138.441 279.325 137.837L280.062 138.628C279.365 139.5 278.467 139.995 277.261 139.995C275.17 139.995 273.91 138.534 273.91 136.591C273.91 134.661 275.143 133.025 277.274 133.025C279.097 133.025 280.223 134.205 280.223 136.296V136.953ZM275.223 135.947H278.91C278.91 134.795 278.347 134.138 277.221 134.138C276.081 134.138 275.384 134.821 275.223 135.947ZM285.179 133.025C287.283 133.025 288.382 134.687 288.382 136.484C288.382 138.28 287.256 139.915 285.165 139.915C284.093 139.915 283.262 139.473 282.793 138.735V142.877H281.479V133.186H282.766V134.299C283.195 133.508 284.079 133.025 285.179 133.025ZM282.793 136.47C282.793 137.784 283.664 138.735 284.964 138.735C286.224 138.735 287.069 137.784 287.069 136.47C287.069 135.264 286.345 134.205 284.964 134.205C283.664 134.205 282.793 135.157 282.793 136.47ZM294.003 138.668H298.641V139.915H292.287V138.722L295.397 135.867C296.04 135.291 296.912 134.473 296.912 133.387C296.912 132.342 296.148 131.779 295.276 131.779C294.325 131.779 293.4 132.409 293.333 133.762L292.086 133.682C292.18 131.551 293.775 130.532 295.357 130.532C296.979 130.532 298.266 131.564 298.266 133.293C298.266 134.741 297.327 135.693 296.684 136.269L294.003 138.668Z" fill="#434343"/>
<circle cx="279.114" cy="162.893" r="5.95745" fill="#C7C7C7"/>
<rect x="373.333" y="161.404" width="92.549" height="2.97872" fill="#C7C7C7"/>
<path opacity="0.3" d="M453.466 132.57C452.97 131.953 452.179 131.618 451.415 131.618C450.477 131.618 449.767 132.1 449.767 132.972C449.767 134.004 450.785 134.325 451.817 134.647C453.413 135.116 454.673 135.612 454.673 137.301C454.673 139.151 453.225 140.13 451.523 140.13C450.356 140.13 449.07 139.647 448.212 138.561L449.177 137.583C449.78 138.414 450.732 138.816 451.603 138.816C452.622 138.816 453.292 138.253 453.292 137.462C453.292 136.524 452.327 136.202 451.295 135.88C449.673 135.384 448.399 134.835 448.399 133.173C448.399 131.377 449.78 130.318 451.482 130.318C452.555 130.318 453.627 130.76 454.364 131.631L453.466 132.57ZM455.003 133.186H456.41V131.39H457.737V133.186H459.802V134.366H457.737V137.636C457.737 138.441 458.26 138.802 458.89 138.802C459.252 138.802 459.668 138.682 460.016 138.454L460.391 139.406C459.815 139.808 459.185 139.995 458.568 139.995C457.349 139.995 456.41 139.218 456.41 137.811V134.366H455.003V133.186ZM467.079 136.953H462.079C462.24 138.199 463.044 138.829 464.224 138.829C465.109 138.829 465.752 138.441 466.181 137.837L466.918 138.628C466.221 139.5 465.323 139.995 464.117 139.995C462.026 139.995 460.766 138.534 460.766 136.591C460.766 134.661 461.999 133.025 464.13 133.025C465.953 133.025 467.079 134.205 467.079 136.296V136.953ZM462.079 135.947H465.765C465.765 134.795 465.202 134.138 464.077 134.138C462.937 134.138 462.24 134.821 462.079 135.947ZM472.034 133.025C474.139 133.025 475.238 134.687 475.238 136.484C475.238 138.28 474.112 139.915 472.021 139.915C470.949 139.915 470.118 139.473 469.649 138.735V142.877H468.335V133.186H469.622V134.299C470.051 133.508 470.935 133.025 472.034 133.025ZM469.649 136.47C469.649 137.784 470.52 138.735 471.82 138.735C473.08 138.735 473.924 137.784 473.924 136.47C473.924 135.264 473.201 134.205 471.82 134.205C470.52 134.205 469.649 135.157 469.649 136.47ZM482.739 135.063C484.159 135.331 484.991 136.148 484.991 137.355C484.991 138.963 483.556 139.995 481.908 139.995C480.567 139.995 479.294 139.312 478.677 137.998L479.87 137.355C480.286 138.32 481.09 138.776 481.975 138.776C482.873 138.776 483.65 138.28 483.65 137.382C483.65 136.35 482.765 135.746 481.184 135.746H480.795V134.647C482.363 134.647 483.261 134.071 483.261 133.052C483.261 132.208 482.591 131.779 481.773 131.779C481.036 131.779 480.259 132.167 479.816 132.905L478.851 132.288C479.455 131.135 480.634 130.532 481.881 130.532C483.369 130.532 484.615 131.403 484.615 132.757C484.615 133.816 483.865 134.741 482.739 135.063Z" fill="#434343"/>
<circle cx="465.78" cy="162.893" r="5.95745" fill="#C7C7C7"/>
</svg>
