<svg width="520" height="300" viewBox="0 0 520 300" fill="none" xmlns="http://www.w3.org/2000/svg">
<rect width="520" height="300" fill="white"/>
<path d="M139.776 64.8H142.256L138.672 76H136.448L134.224 68.944L132 76H129.76L126.192 64.8H128.672L130.896 72.336L133.104 64.8H135.328L137.552 72.336L139.776 64.8ZM143.157 64.8H145.429V68.816C145.909 68.112 146.613 67.584 147.845 67.584C149.525 67.584 150.773 68.576 150.773 70.608V76H148.501V71.088C148.501 70.08 147.941 69.6 147.093 69.6C146.181 69.6 145.429 70.224 145.429 71.504V76H143.157V64.8ZM153.757 64.016C154.621 64.016 155.229 64.64 155.229 65.44C155.229 66.224 154.621 66.848 153.757 66.848C152.893 66.848 152.269 66.224 152.269 65.44C152.269 64.64 152.893 64.016 153.757 64.016ZM152.621 76V67.776H154.893V76H152.621ZM164.096 73.968C163.264 75.312 161.968 76.096 160.416 76.096C157.776 76.096 156.256 74.272 156.256 71.888C156.256 69.456 157.984 67.584 160.48 67.584C161.904 67.584 163.088 68.176 163.872 69.296L162.256 70.608C161.808 69.936 161.232 69.616 160.496 69.616C159.248 69.616 158.512 70.528 158.512 71.808C158.512 73.104 159.344 74.064 160.608 74.064C161.376 74.064 162.144 73.632 162.576 72.864L164.096 73.968ZM165.025 64.8H167.297V68.816C167.777 68.112 168.481 67.584 169.713 67.584C171.393 67.584 172.641 68.576 172.641 70.608V76H170.369V71.088C170.369 70.08 169.809 69.6 168.961 69.6C168.049 69.6 167.297 70.224 167.297 71.504V76H165.025V64.8ZM181.427 67.584C183.875 67.584 185.683 69.408 185.683 71.84C185.683 74.272 183.875 76.096 181.427 76.096C178.963 76.096 177.155 74.272 177.155 71.84C177.155 69.408 178.963 67.584 181.427 67.584ZM179.427 71.84C179.427 73.152 180.211 74.064 181.427 74.064C182.643 74.064 183.427 73.152 183.427 71.84C183.427 70.528 182.643 69.616 181.427 69.616C180.211 69.616 179.427 70.528 179.427 71.84ZM191.724 67.584C194.172 67.584 195.58 69.504 195.58 71.808C195.58 74.096 194.156 76 191.74 76C190.636 76 189.708 75.6 189.212 74.928V79.536H186.94V67.776H189.148V68.816C189.548 68.08 190.524 67.584 191.724 67.584ZM189.196 71.792C189.196 73.072 190.028 74 191.292 74C192.508 74 193.324 73.072 193.324 71.792C193.324 70.56 192.556 69.584 191.292 69.584C190.028 69.584 189.196 70.512 189.196 71.792ZM195.848 67.776H197.48V65.76H199.752V67.776H202.104V69.808H199.752V72.8C199.752 73.664 200.296 74.064 201 74.064C201.368 74.064 201.8 73.952 202.2 73.696L202.76 75.376C201.992 75.856 201.192 76.096 200.392 76.096C198.696 76.096 197.48 75.04 197.48 73.2V69.808H195.848V67.776ZM204.955 64.016C205.819 64.016 206.427 64.64 206.427 65.44C206.427 66.224 205.819 66.848 204.955 66.848C204.091 66.848 203.467 66.224 203.467 65.44C203.467 64.64 204.091 64.016 204.955 64.016ZM203.819 76V67.776H206.091V76H203.819ZM211.725 67.584C214.173 67.584 215.981 69.408 215.981 71.84C215.981 74.272 214.173 76.096 211.725 76.096C209.261 76.096 207.453 74.272 207.453 71.84C207.453 69.408 209.261 67.584 211.725 67.584ZM209.725 71.84C209.725 73.152 210.509 74.064 211.725 74.064C212.941 74.064 213.725 73.152 213.725 71.84C213.725 70.528 212.941 69.616 211.725 69.616C210.509 69.616 209.725 70.528 209.725 71.84ZM217.238 67.776H219.446V68.88C219.942 68.144 220.646 67.584 221.926 67.584C223.606 67.584 224.854 68.576 224.854 70.608V76H222.582V71.088C222.582 70.08 222.022 69.6 221.174 69.6C220.262 69.6 219.51 70.24 219.51 71.52V76H217.238V67.776ZM234.945 67.584C237.393 67.584 238.801 69.504 238.801 71.856C238.801 74.192 237.377 76.096 234.961 76.096C233.761 76.096 232.753 75.616 232.305 74.864V76H230.161V64.8H232.433V68.784C232.833 68.08 233.761 67.584 234.945 67.584ZM232.417 71.84C232.417 73.168 233.249 74.096 234.513 74.096C235.729 74.096 236.545 73.168 236.545 71.84C236.545 70.56 235.777 69.584 234.513 69.584C233.249 69.584 232.417 70.512 232.417 71.84ZM247.484 72.624H241.884C242.124 73.648 242.844 74.144 243.948 74.144C244.908 74.144 245.596 73.744 246.076 73.2L247.228 74.592C246.332 75.552 245.212 76.096 243.772 76.096C241.26 76.096 239.58 74.464 239.58 71.952C239.58 69.456 241.228 67.584 243.804 67.584C246.044 67.584 247.484 68.976 247.484 71.744V72.624ZM241.852 70.992H245.244C245.228 70.08 244.764 69.456 243.676 69.456C242.668 69.456 242.044 70.016 241.852 70.992ZM253.811 70.224C253.251 69.712 252.467 69.488 251.891 69.488C251.299 69.488 250.915 69.728 250.915 70.144C250.915 70.592 251.331 70.704 252.403 70.912C253.699 71.152 255.395 71.472 255.395 73.312C255.395 75.024 253.923 76.096 251.939 76.096C250.531 76.096 249.155 75.536 248.195 74.576L249.395 72.992C250.115 73.792 251.299 74.144 252.147 74.144C252.755 74.144 253.155 73.952 253.155 73.552C253.155 73.152 252.771 72.992 251.827 72.8C250.531 72.56 248.691 72.224 248.691 70.256C248.691 68.464 250.179 67.584 251.843 67.584C253.011 67.584 254.179 67.984 254.963 68.768L253.811 70.224ZM255.6 67.776H257.232V65.76H259.504V67.776H261.856V69.808H259.504V72.8C259.504 73.664 260.048 74.064 260.752 74.064C261.12 74.064 261.552 73.952 261.952 73.696L262.512 75.376C261.744 75.856 260.944 76.096 260.144 76.096C258.448 76.096 257.232 75.04 257.232 73.2V69.808H255.6V67.776ZM274.737 76H272.593V74.864C272.129 75.616 271.121 76.096 269.937 76.096C267.505 76.096 266.081 74.192 266.081 71.856C266.081 69.504 267.505 67.584 269.953 67.584C271.137 67.584 272.065 68.064 272.465 68.768V64.8H274.737V76ZM268.353 71.84C268.353 73.168 269.169 74.096 270.385 74.096C271.633 74.096 272.481 73.168 272.481 71.84C272.481 70.512 271.633 69.584 270.385 69.584C269.121 69.584 268.353 70.56 268.353 71.84ZM283.884 72.624H278.284C278.524 73.648 279.244 74.144 280.348 74.144C281.308 74.144 281.996 73.744 282.476 73.2L283.628 74.592C282.732 75.552 281.612 76.096 280.172 76.096C277.66 76.096 275.98 74.464 275.98 71.952C275.98 69.456 277.628 67.584 280.204 67.584C282.444 67.584 283.884 68.976 283.884 71.744V72.624ZM278.252 70.992H281.644C281.628 70.08 281.164 69.456 280.076 69.456C279.068 69.456 278.444 70.016 278.252 70.992ZM290.211 70.224C289.651 69.712 288.867 69.488 288.291 69.488C287.699 69.488 287.315 69.728 287.315 70.144C287.315 70.592 287.731 70.704 288.803 70.912C290.099 71.152 291.795 71.472 291.795 73.312C291.795 75.024 290.323 76.096 288.339 76.096C286.931 76.096 285.555 75.536 284.595 74.576L285.795 72.992C286.515 73.792 287.699 74.144 288.547 74.144C289.155 74.144 289.555 73.952 289.555 73.552C289.555 73.152 289.171 72.992 288.227 72.8C286.931 72.56 285.091 72.224 285.091 70.256C285.091 68.464 286.579 67.584 288.243 67.584C289.411 67.584 290.579 67.984 291.363 68.768L290.211 70.224ZM300.32 73.968C299.488 75.312 298.192 76.096 296.64 76.096C294 76.096 292.48 74.272 292.48 71.888C292.48 69.456 294.208 67.584 296.704 67.584C298.128 67.584 299.312 68.176 300.096 69.296L298.48 70.608C298.032 69.936 297.456 69.616 296.72 69.616C295.472 69.616 294.736 70.528 294.736 71.808C294.736 73.104 295.568 74.064 296.832 74.064C297.6 74.064 298.368 73.632 298.8 72.864L300.32 73.968ZM301.25 67.776H303.458V69.024C303.826 68.08 304.658 67.68 305.634 67.68C305.97 67.68 306.338 67.728 306.706 67.824L306.386 69.936C306.05 69.824 305.714 69.776 305.426 69.776C304.306 69.776 303.522 70.48 303.522 71.824V76H301.25V67.776ZM308.865 64.016C309.729 64.016 310.337 64.64 310.337 65.44C310.337 66.224 309.729 66.848 308.865 66.848C308.001 66.848 307.377 66.224 307.377 65.44C307.377 64.64 308.001 64.016 308.865 64.016ZM307.729 76V67.776H310.001V76H307.729ZM316.628 67.584C319.076 67.584 320.484 69.504 320.484 71.856C320.484 74.192 319.06 76.096 316.644 76.096C315.444 76.096 314.436 75.616 313.988 74.864V76H311.844V64.8H314.116V68.784C314.516 68.08 315.444 67.584 316.628 67.584ZM314.1 71.84C314.1 73.168 314.932 74.096 316.196 74.096C317.412 74.096 318.228 73.168 318.228 71.84C318.228 70.56 317.46 69.584 316.196 69.584C314.932 69.584 314.1 70.512 314.1 71.84ZM329.167 72.624H323.567C323.807 73.648 324.527 74.144 325.631 74.144C326.591 74.144 327.279 73.744 327.759 73.2L328.911 74.592C328.015 75.552 326.895 76.096 325.455 76.096C322.943 76.096 321.263 74.464 321.263 71.952C321.263 69.456 322.911 67.584 325.487 67.584C327.727 67.584 329.167 68.976 329.167 71.744V72.624ZM323.535 70.992H326.927C326.911 70.08 326.447 69.456 325.359 69.456C324.351 69.456 323.727 70.016 323.535 70.992ZM335.494 70.224C334.934 69.712 334.15 69.488 333.574 69.488C332.982 69.488 332.598 69.728 332.598 70.144C332.598 70.592 333.014 70.704 334.086 70.912C335.382 71.152 337.078 71.472 337.078 73.312C337.078 75.024 335.606 76.096 333.622 76.096C332.214 76.096 330.838 75.536 329.878 74.576L331.078 72.992C331.798 73.792 332.982 74.144 333.83 74.144C334.438 74.144 334.838 73.952 334.838 73.552C334.838 73.152 334.454 72.992 333.51 72.8C332.214 72.56 330.374 72.224 330.374 70.256C330.374 68.464 331.862 67.584 333.526 67.584C334.694 67.584 335.862 67.984 336.646 68.768L335.494 70.224ZM347.005 67.776H349.261V75.52C349.261 78.304 347.213 79.76 344.941 79.76C343.085 79.76 341.549 78.896 340.877 77.136L342.861 76.208C343.197 77.248 344.029 77.728 345.005 77.728C346.109 77.728 347.005 77.072 347.005 75.792V74.464C346.589 75.296 345.677 75.776 344.525 75.776C342.797 75.776 341.453 74.704 341.453 72.544V67.776H343.709V72.176C343.709 73.2 344.317 73.76 345.245 73.76C346.221 73.76 347.005 73.088 347.005 71.856V67.776ZM354.786 67.584C357.234 67.584 359.042 69.408 359.042 71.84C359.042 74.272 357.234 76.096 354.786 76.096C352.322 76.096 350.514 74.272 350.514 71.84C350.514 69.408 352.322 67.584 354.786 67.584ZM352.786 71.84C352.786 73.152 353.57 74.064 354.786 74.064C356.002 74.064 356.786 73.152 356.786 71.84C356.786 70.528 356.002 69.616 354.786 69.616C353.57 69.616 352.786 70.528 352.786 71.84ZM367.643 67.776V76H365.451V74.8C364.955 75.536 364.283 76.096 363.051 76.096C361.483 76.096 360.139 75.2 360.139 73.04V67.776H362.411V72.576C362.411 73.616 362.923 74.08 363.723 74.08C364.715 74.08 365.387 73.36 365.387 72.176V67.776H367.643ZM373.449 70.976V72.416H371.145V69.552C373.289 69.552 374.201 69.12 374.201 67.968C374.201 67.072 373.545 66.672 372.761 66.672C371.929 66.672 370.985 67.104 370.489 67.872L369.065 66.592C370.009 65.216 371.497 64.544 372.969 64.544C374.873 64.544 376.537 65.728 376.537 67.76C376.537 69.488 375.305 70.784 373.449 70.976ZM370.809 74.688C370.809 73.888 371.433 73.28 372.297 73.28C373.161 73.28 373.785 73.888 373.785 74.688C373.785 75.488 373.161 76.096 372.297 76.096C371.433 76.096 370.809 75.488 370.809 74.688Z" fill="#144A38"/>
<rect x="125" y="97" width="269" height="66" fill="#F1F1F1"/>
<rect x="125" y="97" width="269" height="66" stroke="#144A38" stroke-width="2"/>
<path d="M173 130C173 138.284 166.284 145 158 145C149.716 145 143 138.284 143 130C143 121.716 149.716 115 158 115C166.284 115 173 121.716 173 130Z" fill="white" stroke="#144A38" stroke-width="2"/>
<path d="M158 138C162.418 138 166 134.418 166 130C166 125.582 162.418 122 158 122C153.582 122 150 125.582 150 130C150 134.418 153.582 138 158 138Z" fill="#144A38"/>
<path d="M199.024 136L197.936 133.2H193.168L192.096 136H190.352L194.784 124.8H196.336L200.768 136H199.024ZM193.744 131.68H197.376L195.552 126.944L193.744 131.68ZM205.989 135.616C205.429 135.936 204.853 136.096 204.309 136.096C203.013 136.096 201.957 135.2 201.957 133.568V124.8H203.525V133.392C203.525 134.224 204.021 134.672 204.645 134.672C204.949 134.672 205.269 134.592 205.589 134.416L205.989 135.616ZM207.09 127.968H208.626V129.28C209.01 128.304 209.874 127.856 210.85 127.856C211.234 127.856 211.634 127.92 212.002 128.064L211.746 129.52C211.394 129.376 211.026 129.312 210.706 129.312C209.554 129.312 208.658 130.08 208.658 131.664V136H207.09V127.968ZM219.889 132.464H213.921C214.113 133.952 215.073 134.704 216.481 134.704C217.537 134.704 218.305 134.24 218.817 133.52L219.697 134.464C218.865 135.504 217.793 136.096 216.353 136.096C213.857 136.096 212.353 134.352 212.353 132.032C212.353 129.728 213.825 127.776 216.369 127.776C218.545 127.776 219.889 129.184 219.889 131.68V132.464ZM213.921 131.264H218.321C218.321 129.888 217.649 129.104 216.305 129.104C214.945 129.104 214.113 129.92 213.921 131.264ZM229.164 133.712C229.164 134.384 229.58 134.672 230.076 134.672C230.3 134.672 230.54 134.608 230.764 134.48L231.148 135.648C230.684 135.952 230.172 136.096 229.692 136.096C228.732 136.096 227.884 135.504 227.772 134.448C227.196 135.536 226.124 136.096 224.748 136.096C222.284 136.096 220.908 134.176 220.908 131.968C220.908 129.76 222.252 127.776 224.748 127.776C226.108 127.776 227.116 128.336 227.628 129.312V127.968H229.164V133.712ZM222.476 131.936C222.476 133.552 223.5 134.688 225.02 134.688C226.524 134.688 227.596 133.568 227.596 131.936C227.596 130.304 226.54 129.184 224.988 129.184C223.34 129.184 222.476 130.448 222.476 131.936ZM239.875 136H238.355V134.592C237.827 135.536 236.771 136.096 235.443 136.096C232.947 136.096 231.619 134.144 231.619 131.952C231.619 129.76 232.963 127.776 235.459 127.776C236.771 127.776 237.795 128.32 238.291 129.232V124.8H239.875V136ZM233.187 131.936C233.187 133.552 234.195 134.688 235.715 134.688C237.251 134.688 238.307 133.552 238.307 131.936C238.307 130.32 237.251 129.184 235.699 129.184C234.067 129.184 233.187 130.448 233.187 131.936ZM247.489 127.968H249.057V135.712C249.057 138.304 247.361 139.744 245.105 139.744C243.233 139.744 241.777 138.816 241.217 137.056L242.641 136.448C243.025 137.728 243.921 138.32 245.153 138.32C246.561 138.32 247.489 137.488 247.489 135.904V134.272C247.009 135.232 246.033 135.808 244.801 135.808C243.185 135.808 241.713 134.768 241.713 132.72V127.968H243.281V132.384C243.281 133.648 244.049 134.384 245.185 134.384C246.497 134.384 247.489 133.36 247.489 131.792V127.968ZM262.055 133.712C262.055 134.384 262.471 134.672 262.967 134.672C263.191 134.672 263.431 134.608 263.655 134.48L264.039 135.648C263.575 135.952 263.063 136.096 262.583 136.096C261.623 136.096 260.775 135.504 260.663 134.448C260.087 135.536 259.015 136.096 257.639 136.096C255.175 136.096 253.799 134.176 253.799 131.968C253.799 129.76 255.143 127.776 257.639 127.776C258.999 127.776 260.007 128.336 260.519 129.312V127.968H262.055V133.712ZM255.367 131.936C255.367 133.552 256.391 134.688 257.911 134.688C259.415 134.688 260.487 133.568 260.487 131.936C260.487 130.304 259.431 129.184 257.879 129.184C256.231 129.184 255.367 130.448 255.367 131.936ZM275.522 134.144C274.706 135.376 273.554 136.096 272.05 136.096C269.442 136.096 268.066 134.192 268.066 131.984C268.066 129.728 269.586 127.776 272.114 127.776C273.474 127.776 274.53 128.304 275.298 129.344L274.178 130.288C273.682 129.552 273.026 129.2 272.13 129.2C270.466 129.2 269.634 130.432 269.634 131.888C269.634 133.36 270.546 134.672 272.178 134.672C273.122 134.672 273.97 134.176 274.45 133.36L275.522 134.144ZM283.671 127.968V136H282.135V134.528C281.623 135.44 280.807 136.096 279.447 136.096C277.735 136.096 276.535 135.056 276.535 133.056V127.968H278.103V132.72C278.103 134.016 278.759 134.688 279.831 134.688C281.111 134.688 282.103 133.712 282.103 132.08V127.968H283.671ZM290.504 129.952C289.96 129.392 289.112 129.136 288.424 129.136C287.608 129.136 287.048 129.504 287.048 130.144C287.048 130.88 287.816 131.056 288.936 131.296C290.248 131.568 291.816 131.856 291.816 133.552C291.816 135.168 290.392 136.096 288.632 136.096C287.32 136.096 285.976 135.552 285.096 134.528L286.04 133.44C286.696 134.32 287.848 134.704 288.776 134.704C289.592 134.704 290.248 134.4 290.248 133.744C290.248 133.056 289.576 132.864 288.552 132.656C287.208 132.384 285.496 132.048 285.496 130.24C285.496 128.576 286.888 127.776 288.44 127.776C289.496 127.776 290.6 128.144 291.352 128.912L290.504 129.952ZM292.266 127.968H293.946V125.824H295.53V127.968H297.994V129.376H295.53V133.28C295.53 134.24 296.154 134.672 296.906 134.672C297.338 134.672 297.834 134.528 298.25 134.256L298.698 135.392C298.01 135.872 297.258 136.096 296.522 136.096C295.066 136.096 293.946 135.168 293.946 133.488V129.376H292.266V127.968ZM303.225 127.776C305.609 127.776 307.305 129.536 307.305 131.936C307.305 134.32 305.609 136.096 303.225 136.096C300.841 136.096 299.145 134.32 299.145 131.936C299.145 129.536 300.841 127.776 303.225 127.776ZM300.713 131.936C300.713 133.536 301.721 134.672 303.225 134.672C304.729 134.672 305.737 133.536 305.737 131.936C305.737 130.336 304.729 129.2 303.225 129.2C301.721 129.2 300.713 130.336 300.713 131.936ZM308.805 127.968H310.341V129.312C310.789 128.368 311.589 127.776 312.789 127.776C314.053 127.776 314.933 128.368 315.285 129.44C315.781 128.4 316.709 127.776 317.973 127.776C319.685 127.776 320.693 128.864 320.693 130.768V136H319.125V131.072C319.125 129.888 318.581 129.184 317.509 129.184C316.437 129.184 315.525 129.952 315.525 131.664V136H313.957V131.072C313.957 129.888 313.429 129.184 312.357 129.184C311.285 129.184 310.373 129.952 310.373 131.664V136H308.805V127.968ZM329.713 132.464H323.745C323.937 133.952 324.897 134.704 326.305 134.704C327.361 134.704 328.129 134.24 328.641 133.52L329.521 134.464C328.689 135.504 327.617 136.096 326.177 136.096C323.681 136.096 322.177 134.352 322.177 132.032C322.177 129.728 323.649 127.776 326.193 127.776C328.369 127.776 329.713 129.184 329.713 131.68V132.464ZM323.745 131.264H328.145C328.145 129.888 327.473 129.104 326.129 129.104C324.769 129.104 323.937 129.92 323.745 131.264ZM331.212 127.968H332.748V129.28C333.132 128.304 333.996 127.856 334.972 127.856C335.356 127.856 335.756 127.92 336.124 128.064L335.868 129.52C335.516 129.376 335.148 129.312 334.828 129.312C333.676 129.312 332.78 130.08 332.78 131.664V136H331.212V127.968Z" fill="#434343"/>
<rect width="267" height="64" transform="translate(126 178)" fill="#F1F1F1"/>
<path d="M173 210C173 218.284 166.284 225 158 225C149.716 225 143 218.284 143 210C143 201.716 149.716 195 158 195C166.284 195 173 201.716 173 210Z" fill="white" stroke="#8A8A8A" stroke-width="2"/>
<path d="M199.024 204.8H200.656V216H198.896L192.928 207.52V216H191.312V204.8H193.072L199.024 213.424V204.8ZM209.857 212.464H203.889C204.081 213.952 205.041 214.704 206.449 214.704C207.505 214.704 208.273 214.24 208.785 213.52L209.665 214.464C208.833 215.504 207.761 216.096 206.321 216.096C203.825 216.096 202.321 214.352 202.321 212.032C202.321 209.728 203.793 207.776 206.337 207.776C208.513 207.776 209.857 209.184 209.857 211.68V212.464ZM203.889 211.264H208.289C208.289 209.888 207.617 209.104 206.273 209.104C204.913 209.104 204.081 209.92 203.889 211.264ZM221.664 207.968H223.424L220.448 216H218.976L216.912 210.24L214.832 216H213.376L210.4 207.968H212.08L214.112 213.888L216.144 207.968H217.68L219.712 213.872L221.664 207.968ZM226.896 207.968H228.576V205.824H230.16V207.968H232.624V209.376H230.16V213.28C230.16 214.24 230.784 214.672 231.536 214.672C231.968 214.672 232.464 214.528 232.88 214.256L233.328 215.392C232.64 215.872 231.888 216.096 231.152 216.096C229.696 216.096 228.576 215.168 228.576 213.488V209.376H226.896V207.968ZM237.855 207.776C240.239 207.776 241.935 209.536 241.935 211.936C241.935 214.32 240.239 216.096 237.855 216.096C235.471 216.096 233.775 214.32 233.775 211.936C233.775 209.536 235.471 207.776 237.855 207.776ZM235.343 211.936C235.343 213.536 236.351 214.672 237.855 214.672C239.359 214.672 240.367 213.536 240.367 211.936C240.367 210.336 239.359 209.2 237.855 209.2C236.351 209.2 235.343 210.336 235.343 211.936ZM246.834 204.8H248.402V209.312C248.898 208.4 249.778 207.776 251.154 207.776C252.882 207.776 254.018 208.832 254.018 210.704V216H252.45V211.104C252.45 209.872 251.778 209.184 250.69 209.184C249.458 209.184 248.402 210.096 248.402 211.76V216H246.834V204.8ZM263.054 212.464H257.086C257.278 213.952 258.238 214.704 259.646 214.704C260.702 214.704 261.47 214.24 261.982 213.52L262.862 214.464C262.03 215.504 260.958 216.096 259.518 216.096C257.022 216.096 255.518 214.352 255.518 212.032C255.518 209.728 256.99 207.776 259.534 207.776C261.71 207.776 263.054 209.184 263.054 211.68V212.464ZM257.086 211.264H261.486C261.486 209.888 260.814 209.104 259.47 209.104C258.11 209.104 257.278 209.92 257.086 211.264ZM272.329 213.712C272.329 214.384 272.745 214.672 273.241 214.672C273.465 214.672 273.705 214.608 273.929 214.48L274.313 215.648C273.849 215.952 273.337 216.096 272.857 216.096C271.897 216.096 271.049 215.504 270.937 214.448C270.361 215.536 269.289 216.096 267.913 216.096C265.449 216.096 264.073 214.176 264.073 211.968C264.073 209.76 265.417 207.776 267.913 207.776C269.273 207.776 270.281 208.336 270.793 209.312V207.968H272.329V213.712ZM265.641 211.936C265.641 213.552 266.665 214.688 268.185 214.688C269.689 214.688 270.761 213.568 270.761 211.936C270.761 210.304 269.705 209.184 268.153 209.184C266.505 209.184 265.641 210.448 265.641 211.936ZM279.453 215.616C278.893 215.936 278.317 216.096 277.773 216.096C276.477 216.096 275.421 215.2 275.421 213.568V204.8H276.989V213.392C276.989 214.224 277.485 214.672 278.109 214.672C278.413 214.672 278.733 214.592 279.053 214.416L279.453 215.616ZM279.281 207.968H280.961V205.824H282.545V207.968H285.009V209.376H282.545V213.28C282.545 214.24 283.169 214.672 283.921 214.672C284.353 214.672 284.849 214.528 285.265 214.256L285.713 215.392C285.025 215.872 284.273 216.096 283.537 216.096C282.081 216.096 280.961 215.168 280.961 213.488V209.376H279.281V207.968ZM286.89 204.8H288.458V209.312C288.954 208.4 289.834 207.776 291.21 207.776C292.938 207.776 294.074 208.832 294.074 210.704V216H292.506V211.104C292.506 209.872 291.834 209.184 290.746 209.184C289.514 209.184 288.458 210.096 288.458 211.76V216H286.89V204.8ZM300.694 204.272C301.35 204.272 301.814 204.752 301.814 205.376C301.814 205.984 301.35 206.448 300.694 206.448C300.038 206.448 299.574 205.984 299.574 205.376C299.574 204.752 300.038 204.272 300.694 204.272ZM299.91 216V207.968H301.478V216H299.91ZM303.602 207.968H305.138V209.344C305.634 208.432 306.514 207.776 307.922 207.776C309.65 207.776 310.786 208.832 310.786 210.704V216H309.218V211.104C309.218 209.872 308.546 209.184 307.458 209.184C306.226 209.184 305.17 210.112 305.17 211.792V216H303.602V207.968ZM317.614 209.952C317.07 209.392 316.222 209.136 315.534 209.136C314.718 209.136 314.158 209.504 314.158 210.144C314.158 210.88 314.926 211.056 316.046 211.296C317.358 211.568 318.926 211.856 318.926 213.552C318.926 215.168 317.502 216.096 315.742 216.096C314.43 216.096 313.086 215.552 312.206 214.528L313.15 213.44C313.806 214.32 314.958 214.704 315.886 214.704C316.702 214.704 317.358 214.4 317.358 213.744C317.358 213.056 316.686 212.864 315.662 212.656C314.318 212.384 312.606 212.048 312.606 210.24C312.606 208.576 313.998 207.776 315.55 207.776C316.606 207.776 317.71 208.144 318.462 208.912L317.614 209.952ZM327.313 207.968V216H325.777V214.528C325.265 215.44 324.449 216.096 323.089 216.096C321.377 216.096 320.177 215.056 320.177 213.056V207.968H321.745V212.72C321.745 214.016 322.401 214.688 323.473 214.688C324.753 214.688 325.745 213.712 325.745 212.08V207.968H327.313ZM329.298 207.968H330.834V209.28C331.218 208.304 332.082 207.856 333.058 207.856C333.442 207.856 333.842 207.92 334.21 208.064L333.954 209.52C333.602 209.376 333.234 209.312 332.914 209.312C331.762 209.312 330.866 210.08 330.866 211.664V216H329.298V207.968ZM342.817 213.712C342.817 214.384 343.233 214.672 343.729 214.672C343.953 214.672 344.193 214.608 344.417 214.48L344.801 215.648C344.337 215.952 343.825 216.096 343.345 216.096C342.385 216.096 341.537 215.504 341.425 214.448C340.849 215.536 339.777 216.096 338.401 216.096C335.937 216.096 334.561 214.176 334.561 211.968C334.561 209.76 335.905 207.776 338.401 207.776C339.761 207.776 340.769 208.336 341.281 209.312V207.968H342.817V213.712ZM336.129 211.936C336.129 213.552 337.153 214.688 338.673 214.688C340.177 214.688 341.249 213.568 341.249 211.936C341.249 210.304 340.193 209.184 338.641 209.184C336.993 209.184 336.129 210.448 336.129 211.936ZM345.908 207.968H347.444V209.344C347.94 208.432 348.82 207.776 350.228 207.776C351.956 207.776 353.092 208.832 353.092 210.704V216H351.524V211.104C351.524 209.872 350.852 209.184 349.764 209.184C348.532 209.184 347.476 210.112 347.476 211.792V216H345.908V207.968ZM362.049 214.144C361.233 215.376 360.081 216.096 358.577 216.096C355.969 216.096 354.593 214.192 354.593 211.984C354.593 209.728 356.113 207.776 358.641 207.776C360.001 207.776 361.057 208.304 361.825 209.344L360.705 210.288C360.209 209.552 359.553 209.2 358.657 209.2C356.993 209.2 356.161 210.432 356.161 211.888C356.161 213.36 357.073 214.672 358.705 214.672C359.649 214.672 360.497 214.176 360.977 213.36L362.049 214.144ZM370.277 212.464H364.309C364.501 213.952 365.461 214.704 366.869 214.704C367.925 214.704 368.693 214.24 369.205 213.52L370.085 214.464C369.253 215.504 368.181 216.096 366.741 216.096C364.245 216.096 362.741 214.352 362.741 212.032C362.741 209.728 364.213 207.776 366.757 207.776C368.933 207.776 370.277 209.184 370.277 211.68V212.464ZM364.309 211.264H368.709C368.709 209.888 368.037 209.104 366.693 209.104C365.333 209.104 364.501 209.92 364.309 211.264Z" fill="#434343"/>
</svg>
