<svg width="520" height="300" viewBox="0 0 520 300" fill="none" xmlns="http://www.w3.org/2000/svg">
<rect width="520" height="300" fill="white"/>
<path d="M83.776 111.3H86.256L82.672 122.5H80.448L78.224 115.444L76 122.5H73.76L70.192 111.3H72.672L74.896 118.836L77.104 111.3H79.328L81.552 118.836L83.776 111.3ZM87.1571 111.3H89.4291V115.316C89.9091 114.612 90.6131 114.084 91.8451 114.084C93.5251 114.084 94.7731 115.076 94.7731 117.108V122.5H92.5011V117.588C92.5011 116.58 91.9411 116.1 91.0931 116.1C90.1811 116.1 89.4291 116.724 89.4291 118.004V122.5H87.1571V111.3ZM104.669 119.732C104.669 120.324 105.053 120.564 105.453 120.564C105.661 120.564 105.853 120.516 106.045 120.404L106.525 122.052C106.013 122.42 105.421 122.596 104.861 122.596C103.885 122.596 103.005 122.068 102.781 121.06C102.253 122.036 101.213 122.596 99.8694 122.596C97.5014 122.596 96.0134 120.74 96.0134 118.356C96.0134 115.988 97.4374 114.084 99.8854 114.084C101.149 114.084 102.061 114.596 102.477 115.396V114.276H104.669V119.732ZM98.2854 118.34C98.2854 119.668 99.1014 120.596 100.317 120.596C101.565 120.596 102.413 119.684 102.413 118.34C102.413 117.012 101.565 116.084 100.317 116.084C99.0374 116.084 98.2854 117.06 98.2854 118.34ZM106.104 114.276H107.736V112.26H110.008V114.276H112.36V116.308H110.008V119.3C110.008 120.164 110.552 120.564 111.256 120.564C111.624 120.564 112.056 120.452 112.456 120.196L113.016 121.876C112.248 122.356 111.448 122.596 110.648 122.596C108.952 122.596 107.736 121.54 107.736 119.7V116.308H106.104V114.276ZM118.641 110.516C119.505 110.516 120.113 111.14 120.113 111.94C120.113 112.724 119.505 113.348 118.641 113.348C117.777 113.348 117.153 112.724 117.153 111.94C117.153 111.14 117.777 110.516 118.641 110.516ZM117.505 122.5V114.276H119.777V122.5H117.505ZM126.676 116.724C126.116 116.212 125.332 115.988 124.756 115.988C124.164 115.988 123.78 116.228 123.78 116.644C123.78 117.092 124.196 117.204 125.268 117.412C126.564 117.652 128.26 117.972 128.26 119.812C128.26 121.524 126.788 122.596 124.804 122.596C123.396 122.596 122.02 122.036 121.06 121.076L122.26 119.492C122.98 120.292 124.164 120.644 125.012 120.644C125.62 120.644 126.02 120.452 126.02 120.052C126.02 119.652 125.636 119.492 124.692 119.3C123.396 119.06 121.556 118.724 121.556 116.756C121.556 114.964 123.044 114.084 124.708 114.084C125.876 114.084 127.044 114.484 127.828 115.268L126.676 116.724ZM138.186 114.276H140.442V122.02C140.442 124.804 138.394 126.26 136.122 126.26C134.266 126.26 132.73 125.396 132.058 123.636L134.042 122.708C134.378 123.748 135.21 124.228 136.186 124.228C137.29 124.228 138.186 123.572 138.186 122.292V120.964C137.77 121.796 136.858 122.276 135.706 122.276C133.978 122.276 132.634 121.204 132.634 119.044V114.276H134.89V118.676C134.89 119.7 135.498 120.26 136.426 120.26C137.402 120.26 138.186 119.588 138.186 118.356V114.276ZM145.967 114.084C148.415 114.084 150.223 115.908 150.223 118.34C150.223 120.772 148.415 122.596 145.967 122.596C143.503 122.596 141.695 120.772 141.695 118.34C141.695 115.908 143.503 114.084 145.967 114.084ZM143.967 118.34C143.967 119.652 144.751 120.564 145.967 120.564C147.183 120.564 147.967 119.652 147.967 118.34C147.967 117.028 147.183 116.116 145.967 116.116C144.751 116.116 143.967 117.028 143.967 118.34ZM158.824 114.276V122.5H156.632V121.3C156.136 122.036 155.464 122.596 154.232 122.596C152.664 122.596 151.32 121.7 151.32 119.54V114.276H153.592V119.076C153.592 120.116 154.104 120.58 154.904 120.58C155.896 120.58 156.568 119.86 156.568 118.676V114.276H158.824ZM160.567 114.276H162.775V115.524C163.143 114.58 163.975 114.18 164.951 114.18C165.287 114.18 165.655 114.228 166.023 114.324L165.703 116.436C165.367 116.324 165.031 116.276 164.743 116.276C163.623 116.276 162.839 116.98 162.839 118.324V122.5H160.567V114.276ZM175.076 116.724C174.516 116.212 173.732 115.988 173.156 115.988C172.564 115.988 172.18 116.228 172.18 116.644C172.18 117.092 172.596 117.204 173.668 117.412C174.964 117.652 176.66 117.972 176.66 119.812C176.66 121.524 175.188 122.596 173.204 122.596C171.796 122.596 170.42 122.036 169.46 121.076L170.66 119.492C171.38 120.292 172.564 120.644 173.412 120.644C174.02 120.644 174.42 120.452 174.42 120.052C174.42 119.652 174.036 119.492 173.092 119.3C171.796 119.06 169.956 118.724 169.956 116.756C169.956 114.964 171.444 114.084 173.108 114.084C174.276 114.084 175.444 114.484 176.228 115.268L175.076 116.724ZM176.865 114.276H178.497V112.26H180.769V114.276H183.121V116.308H180.769V119.3C180.769 120.164 181.313 120.564 182.017 120.564C182.385 120.564 182.817 120.452 183.217 120.196L183.777 121.876C183.009 122.356 182.209 122.596 181.409 122.596C179.713 122.596 178.497 121.54 178.497 119.7V116.308H176.865V114.276ZM192.697 119.732C192.697 120.324 193.081 120.564 193.481 120.564C193.689 120.564 193.881 120.516 194.073 120.404L194.553 122.052C194.041 122.42 193.449 122.596 192.889 122.596C191.913 122.596 191.033 122.068 190.809 121.06C190.281 122.036 189.241 122.596 187.897 122.596C185.529 122.596 184.041 120.74 184.041 118.356C184.041 115.988 185.465 114.084 187.913 114.084C189.177 114.084 190.089 114.596 190.505 115.396V114.276H192.697V119.732ZM186.313 118.34C186.313 119.668 187.129 120.596 188.345 120.596C189.593 120.596 190.441 119.684 190.441 118.34C190.441 117.012 189.593 116.084 188.345 116.084C187.065 116.084 186.313 117.06 186.313 118.34ZM194.131 114.276H195.763V112.26H198.035V114.276H200.387V116.308H198.035V119.3C198.035 120.164 198.579 120.564 199.283 120.564C199.651 120.564 200.083 120.452 200.483 120.196L201.043 121.876C200.275 122.356 199.475 122.596 198.675 122.596C196.979 122.596 195.763 121.54 195.763 119.7V116.308H194.131V114.276ZM209.211 119.124H203.611C203.851 120.148 204.571 120.644 205.675 120.644C206.635 120.644 207.323 120.244 207.803 119.7L208.955 121.092C208.059 122.052 206.939 122.596 205.499 122.596C202.987 122.596 201.307 120.964 201.307 118.452C201.307 115.956 202.955 114.084 205.531 114.084C207.771 114.084 209.211 115.476 209.211 118.244V119.124ZM203.579 117.492H206.971C206.955 116.58 206.491 115.956 205.403 115.956C204.395 115.956 203.771 116.516 203.579 117.492ZM214.547 117.476V118.916H212.243V116.052C214.387 116.052 215.299 115.62 215.299 114.468C215.299 113.572 214.643 113.172 213.859 113.172C213.027 113.172 212.083 113.604 211.587 114.372L210.163 113.092C211.107 111.716 212.595 111.044 214.067 111.044C215.971 111.044 217.635 112.228 217.635 114.26C217.635 115.988 216.403 117.284 214.547 117.476ZM211.907 121.188C211.907 120.388 212.531 119.78 213.395 119.78C214.259 119.78 214.883 120.388 214.883 121.188C214.883 121.988 214.259 122.596 213.395 122.596C212.531 122.596 211.907 121.988 211.907 121.188Z" fill="#144A38"/>
<mask id="path-2-inside-1_138_3819" fill="white">
<path d="M70 136.5H450V194.5H70V136.5Z"/>
</mask>
<path d="M70 136.5H450V194.5H70V136.5Z" fill="#F1F1F1"/>
<path d="M450 192.5H70V196.5H450V192.5Z" fill="#434343" mask="url(#path-2-inside-1_138_3819)"/>
<rect width="380" height="56" transform="translate(70 136.5)" fill="#F1F1F1"/>
<g clip-path="url(#clip0_138_3819)">
<path d="M95.024 159.3H96.656V170.5H94.896L88.928 162.02V170.5H87.312V159.3H89.072L95.024 167.924V159.3ZM105.857 166.964H99.8888C100.081 168.452 101.041 169.204 102.449 169.204C103.505 169.204 104.273 168.74 104.785 168.02L105.665 168.964C104.833 170.004 103.761 170.596 102.321 170.596C99.8248 170.596 98.3208 168.852 98.3208 166.532C98.3208 164.228 99.7928 162.276 102.337 162.276C104.513 162.276 105.857 163.684 105.857 166.18V166.964ZM99.8888 165.764H104.289C104.289 164.388 103.617 163.604 102.273 163.604C100.913 163.604 100.081 164.42 99.8888 165.764ZM117.664 162.468H119.424L116.448 170.5H114.976L112.912 164.74L110.832 170.5H109.376L106.4 162.468H108.08L110.112 168.388L112.144 162.468H113.68L115.712 168.372L117.664 162.468ZM129.492 161.732C128.9 160.996 127.956 160.596 127.044 160.596C125.924 160.596 125.076 161.172 125.076 162.212C125.076 163.444 126.292 163.828 127.524 164.212C129.428 164.772 130.932 165.364 130.932 167.38C130.932 169.588 129.204 170.756 127.172 170.756C125.78 170.756 124.244 170.18 123.22 168.884L124.372 167.716C125.092 168.708 126.228 169.188 127.268 169.188C128.484 169.188 129.284 168.516 129.284 167.572C129.284 166.452 128.132 166.068 126.9 165.684C124.964 165.092 123.444 164.436 123.444 162.452C123.444 160.308 125.092 159.044 127.124 159.044C128.404 159.044 129.684 159.572 130.564 160.612L129.492 161.732ZM136.043 162.276C138.427 162.276 140.123 164.036 140.123 166.436C140.123 168.82 138.427 170.596 136.043 170.596C133.659 170.596 131.963 168.82 131.963 166.436C131.963 164.036 133.659 162.276 136.043 162.276ZM133.531 166.436C133.531 168.036 134.539 169.172 136.043 169.172C137.547 169.172 138.555 168.036 138.555 166.436C138.555 164.836 137.547 163.7 136.043 163.7C134.539 163.7 133.531 164.836 133.531 166.436ZM148.599 162.468V170.5H147.063V169.028C146.551 169.94 145.735 170.596 144.375 170.596C142.663 170.596 141.463 169.556 141.463 167.556V162.468H143.031V167.22C143.031 168.516 143.687 169.188 144.759 169.188C146.039 169.188 147.031 168.212 147.031 166.58V162.468H148.599ZM149.624 162.468H151.304V160.324H152.888V162.468H155.352V163.876H152.888V167.78C152.888 168.74 153.512 169.172 154.264 169.172C154.696 169.172 155.192 169.028 155.608 168.756L156.056 169.892C155.368 170.372 154.616 170.596 153.88 170.596C152.424 170.596 151.304 169.668 151.304 167.988V163.876H149.624V162.468ZM157.233 159.3H158.801V163.812C159.297 162.9 160.177 162.276 161.553 162.276C163.281 162.276 164.417 163.332 164.417 165.204V170.5H162.849V165.604C162.849 164.372 162.177 163.684 161.089 163.684C159.857 163.684 158.801 164.596 158.801 166.26V170.5H157.233V159.3ZM182.772 159.3H184.516L180.932 170.5H179.38L176.708 162.212L174.036 170.5H172.468L168.9 159.3H170.628L173.284 167.892L175.924 159.3H177.492L180.132 167.892L182.772 159.3ZM192.58 168.212C192.58 168.884 192.996 169.172 193.492 169.172C193.716 169.172 193.956 169.108 194.18 168.98L194.564 170.148C194.1 170.452 193.588 170.596 193.108 170.596C192.148 170.596 191.3 170.004 191.188 168.948C190.612 170.036 189.54 170.596 188.164 170.596C185.7 170.596 184.324 168.676 184.324 166.468C184.324 164.26 185.668 162.276 188.164 162.276C189.524 162.276 190.532 162.836 191.044 163.812V162.468H192.58V168.212ZM185.892 166.436C185.892 168.052 186.916 169.188 188.436 169.188C189.94 169.188 191.012 168.068 191.012 166.436C191.012 164.804 189.956 163.684 188.404 163.684C186.756 163.684 185.892 164.948 185.892 166.436ZM199.703 170.116C199.143 170.436 198.567 170.596 198.023 170.596C196.727 170.596 195.671 169.7 195.671 168.068V159.3H197.239V167.892C197.239 168.724 197.735 169.172 198.359 169.172C198.663 169.172 198.983 169.092 199.303 168.916L199.703 170.116ZM207.704 166.964H201.736C201.928 168.452 202.888 169.204 204.296 169.204C205.352 169.204 206.12 168.74 206.632 168.02L207.512 168.964C206.68 170.004 205.608 170.596 204.168 170.596C201.672 170.596 200.168 168.852 200.168 166.532C200.168 164.228 201.64 162.276 204.184 162.276C206.36 162.276 207.704 163.684 207.704 166.18V166.964ZM201.736 165.764H206.136C206.136 164.388 205.464 163.604 204.12 163.604C202.76 163.604 201.928 164.42 201.736 165.764ZM214.051 164.452C213.507 163.892 212.659 163.636 211.971 163.636C211.155 163.636 210.595 164.004 210.595 164.644C210.595 165.38 211.363 165.556 212.483 165.796C213.795 166.068 215.363 166.356 215.363 168.052C215.363 169.668 213.939 170.596 212.179 170.596C210.867 170.596 209.523 170.052 208.643 169.028L209.587 167.94C210.243 168.82 211.395 169.204 212.323 169.204C213.139 169.204 213.795 168.9 213.795 168.244C213.795 167.556 213.123 167.364 212.099 167.156C210.755 166.884 209.043 166.548 209.043 164.74C209.043 163.076 210.435 162.276 211.987 162.276C213.043 162.276 214.147 162.644 214.899 163.412L214.051 164.452Z" fill="#434343"/>
</g>
<path d="M421.902 169.15L411.282 158.53C410.989 158.237 410.515 158.237 410.222 158.53C409.929 158.823 409.929 159.298 410.222 159.591L421.372 170.741C421.665 171.034 422.139 171.034 422.432 170.741L433.582 159.591C433.875 159.298 433.875 158.823 433.582 158.53C433.289 158.237 432.815 158.237 432.522 158.53L421.902 169.15Z" fill="#434343"/>
<defs>
<clipPath id="clip0_138_3819">
<rect width="316" height="24" fill="white" transform="translate(86 152.5)"/>
</clipPath>
</defs>
</svg>
