<svg width="520" height="300" viewBox="0 0 520 300" fill="none" xmlns="http://www.w3.org/2000/svg">
<g clip-path="url(#clip0_138_4106)">
<rect width="520" height="300" fill="white"/>
<g clip-path="url(#clip1_138_4106)">
<g clip-path="url(#clip2_138_4106)">
<mask id="path-1-outside-1_138_4106" maskUnits="userSpaceOnUse" x="0" y="135" width="960" height="102" fill="black">
<rect fill="white" y="135" width="960" height="102"/>
<path d="M0 136H960V237H0V136Z"/>
</mask>
<path d="M0 136H960V237H0V136Z" fill="white"/>
<rect width="912" height="37" transform="translate(24 168)" fill="#F1F1F1"/>
<path d="M445.12 181.2C447.164 181.2 448.116 182.558 448.116 184.014C448.116 185.554 446.982 187.024 444.938 187.024H443.062V191H441.648V181.2H445.12ZM443.062 185.722H444.924C446.086 185.722 446.674 184.924 446.674 184.042C446.674 183.216 446.128 182.502 445.036 182.502H443.062V185.722ZM452.945 190.664C452.455 190.944 451.951 191.084 451.475 191.084C450.341 191.084 449.417 190.3 449.417 188.872V181.2H450.789V188.718C450.789 189.446 451.223 189.838 451.769 189.838C452.035 189.838 452.315 189.768 452.595 189.614L452.945 190.664ZM460.576 188.998C460.576 189.586 460.94 189.838 461.374 189.838C461.57 189.838 461.78 189.782 461.976 189.67L462.312 190.692C461.906 190.958 461.458 191.084 461.038 191.084C460.198 191.084 459.456 190.566 459.358 189.642C458.854 190.594 457.916 191.084 456.712 191.084C454.556 191.084 453.352 189.404 453.352 187.472C453.352 185.54 454.528 183.804 456.712 183.804C457.902 183.804 458.784 184.294 459.232 185.148V183.972H460.576V188.998ZM454.724 187.444C454.724 188.858 455.62 189.852 456.95 189.852C458.266 189.852 459.204 188.872 459.204 187.444C459.204 186.016 458.28 185.036 456.922 185.036C455.48 185.036 454.724 186.142 454.724 187.444ZM469.249 189.376C468.535 190.454 467.527 191.084 466.211 191.084C463.929 191.084 462.725 189.418 462.725 187.486C462.725 185.512 464.055 183.804 466.267 183.804C467.457 183.804 468.381 184.266 469.053 185.176L468.073 186.002C467.639 185.358 467.065 185.05 466.281 185.05C464.825 185.05 464.097 186.128 464.097 187.402C464.097 188.69 464.895 189.838 466.323 189.838C467.149 189.838 467.891 189.404 468.311 188.69L469.249 189.376ZM476.449 187.906H471.227C471.395 189.208 472.235 189.866 473.467 189.866C474.391 189.866 475.063 189.46 475.511 188.83L476.281 189.656C475.553 190.566 474.615 191.084 473.355 191.084C471.171 191.084 469.855 189.558 469.855 187.528C469.855 185.512 471.143 183.804 473.369 183.804C475.273 183.804 476.449 185.036 476.449 187.22V187.906ZM471.227 186.856H475.077C475.077 185.652 474.489 184.966 473.313 184.966C472.123 184.966 471.395 185.68 471.227 186.856ZM477.76 181.2H479.132V185.148C479.566 184.35 480.336 183.804 481.54 183.804C483.052 183.804 484.046 184.728 484.046 186.366V191H482.674V186.716C482.674 185.638 482.086 185.036 481.134 185.036C480.056 185.036 479.132 185.834 479.132 187.29V191H477.76V181.2ZM488.929 183.804C491.015 183.804 492.499 185.344 492.499 187.444C492.499 189.53 491.015 191.084 488.929 191.084C486.843 191.084 485.359 189.53 485.359 187.444C485.359 185.344 486.843 183.804 488.929 183.804ZM486.731 187.444C486.731 188.844 487.613 189.838 488.929 189.838C490.245 189.838 491.127 188.844 491.127 187.444C491.127 186.044 490.245 185.05 488.929 185.05C487.613 185.05 486.731 186.044 486.731 187.444ZM497.34 190.664C496.85 190.944 496.346 191.084 495.87 191.084C494.736 191.084 493.812 190.3 493.812 188.872V181.2H495.184V188.718C495.184 189.446 495.618 189.838 496.164 189.838C496.43 189.838 496.71 189.768 496.99 189.614L497.34 190.664ZM504.97 191H503.64V189.768C503.178 190.594 502.254 191.084 501.092 191.084C498.908 191.084 497.746 189.376 497.746 187.458C497.746 185.54 498.922 183.804 501.106 183.804C502.254 183.804 503.15 184.28 503.584 185.078V181.2H504.97V191ZM499.118 187.444C499.118 188.858 500 189.852 501.33 189.852C502.674 189.852 503.598 188.858 503.598 187.444C503.598 186.03 502.674 185.036 501.316 185.036C499.888 185.036 499.118 186.142 499.118 187.444ZM512.879 187.906H507.657C507.825 189.208 508.665 189.866 509.897 189.866C510.821 189.866 511.493 189.46 511.941 188.83L512.711 189.656C511.983 190.566 511.045 191.084 509.785 191.084C507.601 191.084 506.285 189.558 506.285 187.528C506.285 185.512 507.573 183.804 509.799 183.804C511.703 183.804 512.879 185.036 512.879 187.22V187.906ZM507.657 186.856H511.507C511.507 185.652 510.919 184.966 509.743 184.966C508.553 184.966 507.825 185.68 507.657 186.856ZM514.19 183.972H515.534V185.12C515.87 184.266 516.626 183.874 517.48 183.874C517.816 183.874 518.166 183.93 518.488 184.056L518.264 185.33C517.956 185.204 517.634 185.148 517.354 185.148C516.346 185.148 515.562 185.82 515.562 187.206V191H514.19V183.972Z" fill="#434343"/>
</g>
<path d="M0 137H960V135H0V137Z" fill="#C7C7C7" mask="url(#path-1-outside-1_138_4106)"/>
<mask id="path-4-inside-2_138_4106" fill="white">
<path d="M16 88C16 83.5817 19.5817 80 24 80H139C143.418 80 147 83.5817 147 88V136H16V88Z"/>
</mask>
<path d="M16 88C16 83.5817 19.5817 80 24 80H139C143.418 80 147 83.5817 147 88V136H16V88Z" fill="white"/>
<path d="M15 88C15 83.0294 19.0294 79 24 79H139C143.971 79 148 83.0294 148 88H146C146 84.134 142.866 81 139 81H24C20.134 81 17 84.134 17 88H15ZM147 136H16H147ZM15 136V88C15 83.0294 19.0294 79 24 79V81C20.134 81 17 84.134 17 88V136H15ZM139 79C143.971 79 148 83.0294 148 88V136H146V88C146 84.134 142.866 81 139 81V79Z" fill="#C7C7C7" mask="url(#path-4-inside-2_138_4106)"/>
<path d="M54.046 105.008V114H51.726V105.008H48.254V102.8H57.502V105.008H54.046ZM65.8006 111.232C65.8006 111.824 66.1846 112.064 66.5846 112.064C66.7926 112.064 66.9846 112.016 67.1766 111.904L67.6566 113.552C67.1446 113.92 66.5526 114.096 65.9926 114.096C65.0166 114.096 64.1366 113.568 63.9126 112.56C63.3846 113.536 62.3446 114.096 61.0006 114.096C58.6326 114.096 57.1446 112.24 57.1446 109.856C57.1446 107.488 58.5686 105.584 61.0166 105.584C62.2806 105.584 63.1926 106.096 63.6086 106.896V105.776H65.8006V111.232ZM59.4166 109.84C59.4166 111.168 60.2326 112.096 61.4486 112.096C62.6966 112.096 63.5446 111.184 63.5446 109.84C63.5446 108.512 62.6966 107.584 61.4486 107.584C60.1686 107.584 59.4166 108.56 59.4166 109.84ZM73.2917 105.584C75.7397 105.584 77.1477 107.504 77.1477 109.856C77.1477 112.192 75.7238 114.096 73.3077 114.096C72.1077 114.096 71.0997 113.616 70.6517 112.864V114H68.5077V102.8H70.7797V106.784C71.1797 106.08 72.1077 105.584 73.2917 105.584ZM70.7637 109.84C70.7637 111.168 71.5957 112.096 72.8597 112.096C74.0757 112.096 74.8917 111.168 74.8917 109.84C74.8917 108.56 74.1237 107.584 72.8597 107.584C71.5957 107.584 70.7637 108.512 70.7637 109.84ZM86.1879 105.008V114H83.8679V105.008H80.3959V102.8H89.6439V105.008H86.1879ZM91.8586 102.016C92.7226 102.016 93.3306 102.64 93.3306 103.44C93.3306 104.224 92.7226 104.848 91.8586 104.848C90.9946 104.848 90.3706 104.224 90.3706 103.44C90.3706 102.64 90.9946 102.016 91.8586 102.016ZM90.7226 114V105.776H92.9946V114H90.7226ZM93.8771 105.776H95.5091V103.76H97.7811V105.776H100.133V107.808H97.7811V110.8C97.7811 111.664 98.3251 112.064 99.0291 112.064C99.3971 112.064 99.8291 111.952 100.229 111.696L100.789 113.376C100.021 113.856 99.2211 114.096 98.4211 114.096C96.7251 114.096 95.5091 113.04 95.5091 111.2V107.808H93.8771V105.776ZM106.264 113.584C105.64 113.92 105 114.096 104.392 114.096C102.92 114.096 101.72 113.12 101.72 111.264V102.8H103.992V111.024C103.992 111.696 104.392 112.064 104.952 112.064C105.192 112.064 105.464 112 105.736 111.856L106.264 113.584ZM114.402 110.624H108.802C109.042 111.648 109.762 112.144 110.866 112.144C111.826 112.144 112.514 111.744 112.994 111.2L114.146 112.592C113.25 113.552 112.13 114.096 110.69 114.096C108.178 114.096 106.498 112.464 106.498 109.952C106.498 107.456 108.146 105.584 110.722 105.584C112.962 105.584 114.402 106.976 114.402 109.744V110.624ZM108.77 108.992H112.162C112.146 108.08 111.682 107.456 110.594 107.456C109.586 107.456 108.962 108.016 108.77 108.992Z" fill="#144A38"/>
<mask id="path-7-inside-3_138_4106" fill="white">
<path d="M155 88C155 83.5817 158.582 80 163 80H278C282.418 80 286 83.5817 286 88V136H155V88Z"/>
</mask>
<path d="M155 88C155 83.5817 158.582 80 163 80H278C282.418 80 286 83.5817 286 88V136H155V88Z" fill="white" fill-opacity="0.6"/>
<path d="M286 136V137H287V136H286ZM155 136H154V137H155V136ZM163 81H278V79H163V81ZM285 88V136H287V88H285ZM286 135H155V137H286V135ZM156 136V88H154V136H156ZM278 81C281.866 81 285 84.134 285 88H287C287 83.0294 282.971 79 278 79V81ZM163 79C158.029 79 154 83.0294 154 88H156C156 84.134 159.134 81 163 81V79Z" fill="#C7C7C7" mask="url(#path-7-inside-3_138_4106)"/>
<path d="M193.046 105.008V114H190.726V105.008H187.254V102.8H196.502V105.008H193.046ZM204.801 111.232C204.801 111.824 205.185 112.064 205.585 112.064C205.793 112.064 205.985 112.016 206.177 111.904L206.657 113.552C206.145 113.92 205.553 114.096 204.993 114.096C204.017 114.096 203.137 113.568 202.913 112.56C202.385 113.536 201.345 114.096 200.001 114.096C197.633 114.096 196.145 112.24 196.145 109.856C196.145 107.488 197.569 105.584 200.017 105.584C201.281 105.584 202.193 106.096 202.609 106.896V105.776H204.801V111.232ZM198.417 109.84C198.417 111.168 199.233 112.096 200.449 112.096C201.697 112.096 202.545 111.184 202.545 109.84C202.545 108.512 201.697 107.584 200.449 107.584C199.169 107.584 198.417 108.56 198.417 109.84ZM212.292 105.584C214.74 105.584 216.148 107.504 216.148 109.856C216.148 112.192 214.724 114.096 212.308 114.096C211.108 114.096 210.1 113.616 209.652 112.864V114H207.508V102.8H209.78V106.784C210.18 106.08 211.108 105.584 212.292 105.584ZM209.764 109.84C209.764 111.168 210.596 112.096 211.86 112.096C213.076 112.096 213.892 111.168 213.892 109.84C213.892 108.56 213.124 107.584 211.86 107.584C210.596 107.584 209.764 108.512 209.764 109.84ZM225.188 105.008V114H222.868V105.008H219.396V102.8H228.644V105.008H225.188ZM230.859 102.016C231.723 102.016 232.331 102.64 232.331 103.44C232.331 104.224 231.723 104.848 230.859 104.848C229.995 104.848 229.371 104.224 229.371 103.44C229.371 102.64 229.995 102.016 230.859 102.016ZM229.723 114V105.776H231.995V114H229.723ZM232.877 105.776H234.509V103.76H236.781V105.776H239.133V107.808H236.781V110.8C236.781 111.664 237.325 112.064 238.029 112.064C238.397 112.064 238.829 111.952 239.229 111.696L239.789 113.376C239.021 113.856 238.221 114.096 237.421 114.096C235.725 114.096 234.509 113.04 234.509 111.2V107.808H232.877V105.776ZM245.264 113.584C244.64 113.92 244 114.096 243.392 114.096C241.92 114.096 240.72 113.12 240.72 111.264V102.8H242.992V111.024C242.992 111.696 243.392 112.064 243.952 112.064C244.192 112.064 244.464 112 244.736 111.856L245.264 113.584ZM253.402 110.624H247.802C248.042 111.648 248.762 112.144 249.866 112.144C250.826 112.144 251.514 111.744 251.994 111.2L253.146 112.592C252.25 113.552 251.13 114.096 249.69 114.096C247.178 114.096 245.498 112.464 245.498 109.952C245.498 107.456 247.146 105.584 249.722 105.584C251.962 105.584 253.402 106.976 253.402 109.744V110.624ZM247.77 108.992H251.162C251.146 108.08 250.682 107.456 249.594 107.456C248.586 107.456 247.962 108.016 247.77 108.992Z" fill="#434343"/>
<mask id="path-10-inside-4_138_4106" fill="white">
<path d="M294 88C294 83.5817 297.582 80 302 80H417C421.418 80 425 83.5817 425 88V136H294V88Z"/>
</mask>
<path d="M294 88C294 83.5817 297.582 80 302 80H417C421.418 80 425 83.5817 425 88V136H294V88Z" fill="white" fill-opacity="0.6"/>
<path d="M425 136V137H426V136H425ZM294 136H293V137H294V136ZM302 81H417V79H302V81ZM424 88V136H426V88H424ZM425 135H294V137H425V135ZM295 136V88H293V136H295ZM417 81C420.866 81 424 84.134 424 88H426C426 83.0294 421.971 79 417 79V81ZM302 79C297.029 79 293 83.0294 293 88H295C295 84.134 298.134 81 302 81V79Z" fill="#C7C7C7" mask="url(#path-10-inside-4_138_4106)"/>
<path d="M332.046 105.008V114H329.726V105.008H326.254V102.8H335.502V105.008H332.046ZM343.801 111.232C343.801 111.824 344.185 112.064 344.585 112.064C344.793 112.064 344.985 112.016 345.177 111.904L345.657 113.552C345.145 113.92 344.553 114.096 343.993 114.096C343.017 114.096 342.137 113.568 341.913 112.56C341.385 113.536 340.345 114.096 339.001 114.096C336.633 114.096 335.145 112.24 335.145 109.856C335.145 107.488 336.569 105.584 339.017 105.584C340.281 105.584 341.193 106.096 341.609 106.896V105.776H343.801V111.232ZM337.417 109.84C337.417 111.168 338.233 112.096 339.449 112.096C340.697 112.096 341.545 111.184 341.545 109.84C341.545 108.512 340.697 107.584 339.449 107.584C338.169 107.584 337.417 108.56 337.417 109.84ZM351.292 105.584C353.74 105.584 355.148 107.504 355.148 109.856C355.148 112.192 353.724 114.096 351.308 114.096C350.108 114.096 349.1 113.616 348.652 112.864V114H346.508V102.8H348.78V106.784C349.18 106.08 350.108 105.584 351.292 105.584ZM348.764 109.84C348.764 111.168 349.596 112.096 350.86 112.096C352.076 112.096 352.892 111.168 352.892 109.84C352.892 108.56 352.124 107.584 350.86 107.584C349.596 107.584 348.764 108.512 348.764 109.84ZM364.188 105.008V114H361.868V105.008H358.396V102.8H367.644V105.008H364.188ZM369.859 102.016C370.723 102.016 371.331 102.64 371.331 103.44C371.331 104.224 370.723 104.848 369.859 104.848C368.995 104.848 368.371 104.224 368.371 103.44C368.371 102.64 368.995 102.016 369.859 102.016ZM368.723 114V105.776H370.995V114H368.723ZM371.877 105.776H373.509V103.76H375.781V105.776H378.133V107.808H375.781V110.8C375.781 111.664 376.325 112.064 377.029 112.064C377.397 112.064 377.829 111.952 378.229 111.696L378.789 113.376C378.021 113.856 377.221 114.096 376.421 114.096C374.725 114.096 373.509 113.04 373.509 111.2V107.808H371.877V105.776ZM384.264 113.584C383.64 113.92 383 114.096 382.392 114.096C380.92 114.096 379.72 113.12 379.72 111.264V102.8H381.992V111.024C381.992 111.696 382.392 112.064 382.952 112.064C383.192 112.064 383.464 112 383.736 111.856L384.264 113.584ZM392.402 110.624H386.802C387.042 111.648 387.762 112.144 388.866 112.144C389.826 112.144 390.514 111.744 390.994 111.2L392.146 112.592C391.25 113.552 390.13 114.096 388.69 114.096C386.178 114.096 384.498 112.464 384.498 109.952C384.498 107.456 386.146 105.584 388.722 105.584C390.962 105.584 392.402 106.976 392.402 109.744V110.624ZM386.77 108.992H390.162C390.146 108.08 389.682 107.456 388.594 107.456C387.586 107.456 386.962 108.016 386.77 108.992Z" fill="#434343"/>
</g>
</g>
<defs>
<clipPath id="clip0_138_4106">
<rect width="520" height="300" fill="white"/>
</clipPath>
<clipPath id="clip1_138_4106">
<rect width="960" height="173" fill="white" transform="translate(0 64)"/>
</clipPath>
<clipPath id="clip2_138_4106">
<path d="M0 136H960V237H0V136Z" fill="white"/>
</clipPath>
</defs>
</svg>
