<svg width="520" height="300" viewBox="0 0 520 300" fill="none" xmlns="http://www.w3.org/2000/svg">
<rect width="520" height="300" fill="white"/>
<path d="M86.1968 115.897H88.2125L85.2995 125H83.4919L81.6843 119.265L79.8767 125H78.056L75.1561 115.897H77.1717L78.9793 122.022L80.774 115.897H82.5816L84.3892 122.022L86.1968 115.897ZM88.9449 115.897H90.7915V119.161C91.1816 118.589 91.7538 118.16 92.7552 118.16C94.1206 118.16 95.135 118.966 95.135 120.618V125H93.2884V121.008C93.2884 120.188 92.8332 119.798 92.144 119.798C91.4027 119.798 90.7915 120.305 90.7915 121.346V125H88.9449V115.897ZM103.178 122.75C103.178 123.231 103.491 123.426 103.816 123.426C103.985 123.426 104.141 123.387 104.297 123.296L104.687 124.636C104.271 124.935 103.79 125.078 103.334 125.078C102.541 125.078 101.826 124.649 101.644 123.83C101.215 124.623 100.369 125.078 99.2771 125.078C97.3524 125.078 96.143 123.57 96.143 121.632C96.143 119.707 97.3004 118.16 99.2901 118.16C100.317 118.16 101.059 118.576 101.397 119.226V118.316H103.178V122.75ZM97.9897 121.619C97.9897 122.698 98.6529 123.452 99.6412 123.452C100.656 123.452 101.345 122.711 101.345 121.619C101.345 120.539 100.656 119.785 99.6412 119.785C98.6009 119.785 97.9897 120.579 97.9897 121.619ZM104.344 118.316H105.671V116.677H107.518V118.316H109.429V119.967H107.518V122.399C107.518 123.101 107.96 123.426 108.532 123.426C108.831 123.426 109.182 123.335 109.507 123.127L109.962 124.493C109.338 124.883 108.688 125.078 108.038 125.078C106.659 125.078 105.671 124.22 105.671 122.724V119.967H104.344V118.316ZM112.072 115.689V118.953H110.277V115.689H112.072ZM116.892 120.305C116.437 119.889 115.8 119.707 115.332 119.707C114.851 119.707 114.539 119.902 114.539 120.24C114.539 120.605 114.877 120.696 115.748 120.865C116.801 121.06 118.18 121.32 118.18 122.815C118.18 124.207 116.984 125.078 115.371 125.078C114.227 125.078 113.108 124.623 112.328 123.843L113.303 122.555C113.888 123.205 114.851 123.491 115.54 123.491C116.034 123.491 116.359 123.335 116.359 123.01C116.359 122.685 116.047 122.555 115.28 122.399C114.227 122.204 112.731 121.931 112.731 120.331C112.731 118.875 113.94 118.16 115.293 118.16C116.242 118.16 117.192 118.485 117.829 119.122L116.892 120.305ZM126.248 118.316H128.082V124.61C128.082 126.873 126.417 128.056 124.571 128.056C123.062 128.056 121.814 127.354 121.267 125.923L122.88 125.169C123.153 126.014 123.829 126.404 124.623 126.404C125.52 126.404 126.248 125.871 126.248 124.831V123.752C125.91 124.428 125.169 124.818 124.232 124.818C122.828 124.818 121.736 123.947 121.736 122.191V118.316H123.569V121.892C123.569 122.724 124.063 123.179 124.818 123.179C125.611 123.179 126.248 122.633 126.248 121.632V118.316ZM132.572 118.16C134.562 118.16 136.031 119.642 136.031 121.619C136.031 123.596 134.562 125.078 132.572 125.078C130.57 125.078 129.1 123.596 129.1 121.619C129.1 119.642 130.57 118.16 132.572 118.16ZM130.947 121.619C130.947 122.685 131.584 123.426 132.572 123.426C133.561 123.426 134.198 122.685 134.198 121.619C134.198 120.552 133.561 119.811 132.572 119.811C131.584 119.811 130.947 120.552 130.947 121.619ZM143.022 118.316V125H141.24V124.025C140.837 124.623 140.291 125.078 139.29 125.078C138.015 125.078 136.923 124.35 136.923 122.594V118.316H138.77V122.217C138.77 123.062 139.186 123.439 139.836 123.439C140.642 123.439 141.188 122.854 141.188 121.892V118.316H143.022ZM144.438 118.316H146.233V119.33C146.532 118.563 147.208 118.238 148.001 118.238C148.274 118.238 148.574 118.277 148.873 118.355L148.613 120.071C148.339 119.98 148.066 119.941 147.832 119.941C146.922 119.941 146.285 120.513 146.285 121.606V125H144.438V118.316ZM157.902 122.256H153.35C153.545 123.088 154.131 123.491 155.028 123.491C155.808 123.491 156.367 123.166 156.758 122.724L157.694 123.856C156.966 124.636 156.055 125.078 154.885 125.078C152.843 125.078 151.478 123.752 151.478 121.71C151.478 119.681 152.817 118.16 154.911 118.16C156.732 118.16 157.902 119.291 157.902 121.541V122.256ZM153.324 120.93H156.081C156.068 120.188 155.691 119.681 154.807 119.681C153.988 119.681 153.48 120.136 153.324 120.93ZM158.936 118.316H160.73V119.213C161.107 118.537 161.692 118.16 162.564 118.16C163.487 118.16 164.163 118.563 164.501 119.382C164.892 118.602 165.594 118.16 166.556 118.16C167.948 118.16 168.741 119.044 168.741 120.709V125H166.907V121.008C166.907 120.292 166.66 119.798 165.919 119.798C165.23 119.798 164.761 120.24 164.761 121.294V125H162.915V121.008C162.915 120.292 162.681 119.798 161.94 119.798C161.25 119.798 160.782 120.24 160.782 121.294V125H158.936V118.316ZM176.788 122.75C176.788 123.231 177.101 123.426 177.426 123.426C177.595 123.426 177.751 123.387 177.907 123.296L178.297 124.636C177.881 124.935 177.4 125.078 176.944 125.078C176.151 125.078 175.436 124.649 175.254 123.83C174.825 124.623 173.979 125.078 172.887 125.078C170.962 125.078 169.753 123.57 169.753 121.632C169.753 119.707 170.91 118.16 172.9 118.16C173.927 118.16 174.669 118.576 175.007 119.226V118.316H176.788V122.75ZM171.6 121.619C171.6 122.698 172.263 123.452 173.251 123.452C174.266 123.452 174.955 122.711 174.955 121.619C174.955 120.539 174.266 119.785 173.251 119.785C172.211 119.785 171.6 120.579 171.6 121.619ZM180.016 115.26C180.718 115.26 181.212 115.767 181.212 116.417C181.212 117.054 180.718 117.561 180.016 117.561C179.314 117.561 178.807 117.054 178.807 116.417C178.807 115.767 179.314 115.26 180.016 115.26ZM179.093 125V118.316H180.939V125H179.093ZM186.13 124.662C185.623 124.935 185.103 125.078 184.609 125.078C183.412 125.078 182.437 124.285 182.437 122.776V115.897H184.284V122.581C184.284 123.127 184.609 123.426 185.064 123.426C185.259 123.426 185.48 123.374 185.701 123.257L186.13 124.662ZM190.141 120.917V122.087H188.268V119.759C190.011 119.759 190.752 119.408 190.752 118.472C190.752 117.744 190.219 117.418 189.582 117.418C188.905 117.418 188.138 117.77 187.735 118.394L186.577 117.353C187.345 116.235 188.554 115.689 189.751 115.689C191.298 115.689 192.651 116.651 192.651 118.303C192.651 119.707 191.649 120.761 190.141 120.917ZM187.995 123.934C187.995 123.283 188.502 122.789 189.204 122.789C189.907 122.789 190.414 123.283 190.414 123.934C190.414 124.584 189.907 125.078 189.204 125.078C188.502 125.078 187.995 124.584 187.995 123.934Z" fill="#144A38"/>
<mask id="path-2-inside-1_138_3939" fill="white">
<path d="M75 143.004H444V190.145H75V143.004Z"/>
</mask>
<path d="M75 143.004H444V190.145H75V143.004Z" fill="#F1F1F1"/>
<path d="M444 188.52H75V191.771H444V188.52Z" fill="#434343" mask="url(#path-2-inside-1_138_3939)"/>
<rect width="369" height="45.5154" transform="translate(75 143.004)" fill="#F1F1F1"/>
<g clip-path="url(#clip0_138_3939)">
<path d="M92.2963 161.659C94.195 161.659 95.0793 162.921 95.0793 164.273C95.0793 165.703 94.0259 167.069 92.1273 167.069H90.3847V170.762H89.0712V161.659H92.2963ZM90.3847 165.86H92.1143C93.1936 165.86 93.7398 165.118 93.7398 164.299C93.7398 163.532 93.2327 162.869 92.2183 162.869H90.3847V165.86ZM99.5653 170.45C99.1101 170.71 98.642 170.84 98.1998 170.84C97.1465 170.84 96.2882 170.112 96.2882 168.786V161.659H97.5626V168.642C97.5626 169.319 97.9658 169.683 98.4729 169.683C98.72 169.683 98.9801 169.618 99.2402 169.475L99.5653 170.45ZM106.068 167.888H101.218C101.374 169.098 102.154 169.709 103.298 169.709C104.157 169.709 104.781 169.332 105.197 168.747L105.912 169.514C105.236 170.359 104.365 170.84 103.194 170.84C101.166 170.84 99.9431 169.423 99.9431 167.537C99.9431 165.664 101.14 164.078 103.207 164.078C104.976 164.078 106.068 165.222 106.068 167.251V167.888ZM101.218 166.913H104.794C104.794 165.795 104.248 165.157 103.155 165.157C102.05 165.157 101.374 165.821 101.218 166.913ZM113.607 168.903C113.607 169.449 113.945 169.683 114.348 169.683C114.53 169.683 114.725 169.631 114.907 169.527L115.219 170.476C114.842 170.723 114.426 170.84 114.036 170.84C113.256 170.84 112.566 170.359 112.475 169.501C112.007 170.385 111.136 170.84 110.017 170.84C108.015 170.84 106.896 169.28 106.896 167.485C106.896 165.69 107.989 164.078 110.017 164.078C111.123 164.078 111.942 164.533 112.358 165.326V164.234H113.607V168.903ZM108.171 167.459C108.171 168.773 109.003 169.696 110.239 169.696C111.461 169.696 112.332 168.786 112.332 167.459C112.332 166.133 111.474 165.222 110.213 165.222C108.873 165.222 108.171 166.25 108.171 167.459ZM120.06 165.847C119.618 165.391 118.928 165.183 118.369 165.183C117.706 165.183 117.251 165.482 117.251 166.003C117.251 166.601 117.875 166.744 118.785 166.939C119.852 167.16 121.126 167.394 121.126 168.773C121.126 170.086 119.969 170.84 118.538 170.84C117.472 170.84 116.379 170.398 115.664 169.566L116.431 168.682C116.965 169.397 117.901 169.709 118.655 169.709C119.318 169.709 119.852 169.462 119.852 168.929C119.852 168.369 119.305 168.213 118.473 168.044C117.381 167.823 115.989 167.55 115.989 166.081C115.989 164.728 117.121 164.078 118.382 164.078C119.24 164.078 120.138 164.377 120.749 165.001L120.06 165.847ZM128.008 167.888H123.157C123.313 169.098 124.093 169.709 125.238 169.709C126.096 169.709 126.72 169.332 127.136 168.747L127.852 169.514C127.175 170.359 126.304 170.84 125.134 170.84C123.105 170.84 121.882 169.423 121.882 167.537C121.882 165.664 123.079 164.078 125.147 164.078C126.915 164.078 128.008 165.222 128.008 167.251V167.888ZM123.157 166.913H126.733C126.733 165.795 126.187 165.157 125.095 165.157C123.989 165.157 123.313 165.821 123.157 166.913ZM137.469 167.888H132.619C132.775 169.098 133.555 169.709 134.699 169.709C135.558 169.709 136.182 169.332 136.598 168.747L137.313 169.514C136.637 170.359 135.766 170.84 134.595 170.84C132.567 170.84 131.344 169.423 131.344 167.537C131.344 165.664 132.541 164.078 134.608 164.078C136.377 164.078 137.469 165.222 137.469 167.251V167.888ZM132.619 166.913H136.195C136.195 165.795 135.649 165.157 134.556 165.157C133.451 165.157 132.775 165.821 132.619 166.913ZM138.688 164.234H139.936V165.352C140.339 164.611 141.054 164.078 142.199 164.078C143.603 164.078 144.527 164.936 144.527 166.458V170.762H143.252V166.783C143.252 165.782 142.706 165.222 141.822 165.222C140.82 165.222 139.962 165.977 139.962 167.342V170.762H138.688V164.234ZM145.356 164.234H146.721V162.491H148.009V164.234H150.012V165.378H148.009V168.551C148.009 169.332 148.516 169.683 149.127 169.683C149.478 169.683 149.881 169.566 150.22 169.345L150.584 170.268C150.025 170.658 149.413 170.84 148.815 170.84C147.632 170.84 146.721 170.086 146.721 168.721V165.378H145.356V164.234ZM157.072 167.888H152.221C152.377 169.098 153.158 169.709 154.302 169.709C155.16 169.709 155.784 169.332 156.201 168.747L156.916 169.514C156.24 170.359 155.368 170.84 154.198 170.84C152.169 170.84 150.947 169.423 150.947 167.537C150.947 165.664 152.143 164.078 154.211 164.078C155.98 164.078 157.072 165.222 157.072 167.251V167.888ZM152.221 166.913H155.797C155.797 165.795 155.251 165.157 154.159 165.157C153.054 165.157 152.377 165.821 152.221 166.913ZM158.29 164.234H159.539V165.3C159.851 164.507 160.553 164.143 161.346 164.143C161.658 164.143 161.983 164.195 162.283 164.312L162.075 165.495C161.788 165.378 161.489 165.326 161.229 165.326C160.293 165.326 159.565 165.951 159.565 167.238V170.762H158.29V164.234ZM170.107 164.234H171.382V170.528C171.382 172.635 170.003 173.805 168.169 173.805C166.648 173.805 165.465 173.051 165.009 171.62L166.167 171.126C166.479 172.167 167.207 172.648 168.208 172.648C169.353 172.648 170.107 171.972 170.107 170.684V169.358C169.717 170.138 168.924 170.606 167.922 170.606C166.609 170.606 165.412 169.761 165.412 168.096V164.234H166.687V167.823C166.687 168.851 167.311 169.449 168.234 169.449C169.301 169.449 170.107 168.616 170.107 167.342V164.234ZM175.917 164.078C177.854 164.078 179.233 165.508 179.233 167.459C179.233 169.397 177.854 170.84 175.917 170.84C173.979 170.84 172.601 169.397 172.601 167.459C172.601 165.508 173.979 164.078 175.917 164.078ZM173.875 167.459C173.875 168.76 174.694 169.683 175.917 169.683C177.139 169.683 177.958 168.76 177.958 167.459C177.958 166.159 177.139 165.235 175.917 165.235C174.694 165.235 173.875 166.159 173.875 167.459ZM186.122 164.234V170.762H184.874V169.566C184.457 170.307 183.794 170.84 182.689 170.84C181.297 170.84 180.322 169.995 180.322 168.369V164.234H181.596V168.096C181.596 169.15 182.13 169.696 183.001 169.696C184.041 169.696 184.848 168.903 184.848 167.576V164.234H186.122ZM187.736 164.234H188.984V165.3C189.296 164.507 189.998 164.143 190.792 164.143C191.104 164.143 191.429 164.195 191.728 164.312L191.52 165.495C191.234 165.378 190.935 165.326 190.675 165.326C189.738 165.326 189.01 165.951 189.01 167.238V170.762H187.736V164.234ZM200.71 167.888H195.859C196.015 169.098 196.795 169.709 197.94 169.709C198.798 169.709 199.422 169.332 199.839 168.747L200.554 169.514C199.878 170.359 199.006 170.84 197.836 170.84C195.807 170.84 194.585 169.423 194.585 167.537C194.585 165.664 195.781 164.078 197.849 164.078C199.617 164.078 200.71 165.222 200.71 167.251V167.888ZM195.859 166.913H199.435C199.435 165.795 198.889 165.157 197.797 165.157C196.691 165.157 196.015 165.821 195.859 166.913ZM201.928 164.234H203.177V165.326C203.541 164.559 204.191 164.078 205.166 164.078C206.194 164.078 206.909 164.559 207.195 165.43C207.598 164.585 208.352 164.078 209.38 164.078C210.771 164.078 211.59 164.962 211.59 166.51V170.762H210.316V166.757C210.316 165.795 209.874 165.222 209.003 165.222C208.131 165.222 207.39 165.847 207.39 167.238V170.762H206.116V166.757C206.116 165.795 205.686 165.222 204.815 165.222C203.944 165.222 203.203 165.847 203.203 167.238V170.762H201.928V164.234ZM219.507 168.903C219.507 169.449 219.845 169.683 220.248 169.683C220.43 169.683 220.625 169.631 220.807 169.527L221.119 170.476C220.742 170.723 220.326 170.84 219.936 170.84C219.156 170.84 218.466 170.359 218.375 169.501C217.907 170.385 217.036 170.84 215.918 170.84C213.915 170.84 212.796 169.28 212.796 167.485C212.796 165.69 213.889 164.078 215.918 164.078C217.023 164.078 217.842 164.533 218.258 165.326V164.234H219.507V168.903ZM214.071 167.459C214.071 168.773 214.903 169.696 216.139 169.696C217.361 169.696 218.232 168.786 218.232 167.459C218.232 166.133 217.374 165.222 216.113 165.222C214.773 165.222 214.071 166.25 214.071 167.459ZM222.774 161.23C223.307 161.23 223.684 161.62 223.684 162.127C223.684 162.621 223.307 162.999 222.774 162.999C222.241 162.999 221.863 162.621 221.863 162.127C221.863 161.62 222.241 161.23 222.774 161.23ZM222.136 170.762V164.234H223.411V170.762H222.136ZM228.415 170.45C227.959 170.71 227.491 170.84 227.049 170.84C225.996 170.84 225.137 170.112 225.137 168.786V161.659H226.412V168.642C226.412 169.319 226.815 169.683 227.322 169.683C227.569 169.683 227.829 169.618 228.089 169.475L228.415 170.45ZM237.998 168.903C237.998 169.449 238.337 169.683 238.74 169.683C238.922 169.683 239.117 169.631 239.299 169.527L239.611 170.476C239.234 170.723 238.818 170.84 238.428 170.84C237.647 170.84 236.958 170.359 236.867 169.501C236.399 170.385 235.528 170.84 234.409 170.84C232.407 170.84 231.288 169.28 231.288 167.485C231.288 165.69 232.381 164.078 234.409 164.078C235.515 164.078 236.334 164.533 236.75 165.326V164.234H237.998V168.903ZM232.563 167.459C232.563 168.773 233.395 169.696 234.63 169.696C235.853 169.696 236.724 168.786 236.724 167.459C236.724 166.133 235.866 165.222 234.604 165.222C233.265 165.222 232.563 166.25 232.563 167.459ZM246.704 170.762H245.469V169.618C245.04 170.385 244.181 170.84 243.102 170.84C241.073 170.84 239.994 169.254 239.994 167.472C239.994 165.69 241.086 164.078 243.115 164.078C244.181 164.078 245.014 164.52 245.417 165.261V161.659H246.704V170.762ZM241.268 167.459C241.268 168.773 242.088 169.696 243.323 169.696C244.572 169.696 245.43 168.773 245.43 167.459C245.43 166.146 244.572 165.222 243.31 165.222C241.984 165.222 241.268 166.25 241.268 167.459ZM254.635 170.762H253.4V169.618C252.971 170.385 252.113 170.84 251.033 170.84C249.005 170.84 247.925 169.254 247.925 167.472C247.925 165.69 249.018 164.078 251.046 164.078C252.113 164.078 252.945 164.52 253.348 165.261V161.659H254.635V170.762ZM249.2 167.459C249.2 168.773 250.019 169.696 251.254 169.696C252.503 169.696 253.361 168.773 253.361 167.459C253.361 166.146 252.503 165.222 251.241 165.222C249.915 165.222 249.2 166.25 249.2 167.459ZM256.246 164.234H257.495V165.3C257.807 164.507 258.509 164.143 259.302 164.143C259.615 164.143 259.94 164.195 260.239 164.312L260.031 165.495C259.745 165.378 259.446 165.326 259.185 165.326C258.249 165.326 257.521 165.951 257.521 167.238V170.762H256.246V164.234ZM266.649 167.888H261.798C261.954 169.098 262.734 169.709 263.879 169.709C264.737 169.709 265.361 169.332 265.777 168.747L266.493 169.514C265.816 170.359 264.945 170.84 263.775 170.84C261.746 170.84 260.524 169.423 260.524 167.537C260.524 165.664 261.72 164.078 263.788 164.078C265.556 164.078 266.649 165.222 266.649 167.251V167.888ZM261.798 166.913H265.374C265.374 165.795 264.828 165.157 263.736 165.157C262.63 165.157 261.954 165.821 261.798 166.913ZM271.807 165.847C271.365 165.391 270.676 165.183 270.117 165.183C269.454 165.183 268.998 165.482 268.998 166.003C268.998 166.601 269.623 166.744 270.533 166.939C271.599 167.16 272.874 167.394 272.874 168.773C272.874 170.086 271.716 170.84 270.286 170.84C269.22 170.84 268.127 170.398 267.412 169.566L268.179 168.682C268.712 169.397 269.649 169.709 270.403 169.709C271.066 169.709 271.599 169.462 271.599 168.929C271.599 168.369 271.053 168.213 270.221 168.044C269.129 167.823 267.737 167.55 267.737 166.081C267.737 164.728 268.868 164.078 270.13 164.078C270.988 164.078 271.885 164.377 272.497 165.001L271.807 165.847ZM277.961 165.847C277.519 165.391 276.829 165.183 276.27 165.183C275.607 165.183 275.152 165.482 275.152 166.003C275.152 166.601 275.776 166.744 276.686 166.939C277.753 167.16 279.027 167.394 279.027 168.773C279.027 170.086 277.87 170.84 276.439 170.84C275.373 170.84 274.28 170.398 273.565 169.566L274.332 168.682C274.866 169.397 275.802 169.709 276.556 169.709C277.219 169.709 277.753 169.462 277.753 168.929C277.753 168.369 277.206 168.213 276.374 168.044C275.282 167.823 273.89 167.55 273.89 166.081C273.89 164.728 275.022 164.078 276.283 164.078C277.141 164.078 278.039 164.377 278.65 165.001L277.961 165.847ZM280.681 169.033C281.227 169.033 281.604 169.436 281.604 169.943C281.604 170.45 281.227 170.84 280.681 170.84C280.135 170.84 279.757 170.45 279.757 169.943C279.757 169.436 280.135 169.033 280.681 169.033Z" fill="#8A8A8A"/>
</g>
<defs>
<clipPath id="clip0_138_3939">
<rect width="342.991" height="20" fill="white" transform="translate(88.0049 155.762)"/>
</clipPath>
</defs>
</svg>
