<svg width="520" height="300" viewBox="0 0 520 300" fill="none" xmlns="http://www.w3.org/2000/svg">
<rect width="520" height="300" fill="white"/>
<path d="M72.752 52L71.872 49.664H67.584L66.704 52H64.224L68.624 40.8H70.832L75.232 52H72.752ZM68.384 47.504H71.072L69.728 43.872L68.384 47.504ZM84.2081 52H82.0641V50.864C81.6001 51.616 80.5921 52.096 79.4081 52.096C76.9761 52.096 75.5521 50.192 75.5521 47.856C75.5521 45.504 76.9761 43.584 79.4241 43.584C80.6081 43.584 81.5361 44.064 81.9361 44.768V40.8H84.2081V52ZM77.8241 47.84C77.8241 49.168 78.6401 50.096 79.8561 50.096C81.1041 50.096 81.9521 49.168 81.9521 47.84C81.9521 46.512 81.1041 45.584 79.8561 45.584C78.5921 45.584 77.8241 46.56 77.8241 47.84ZM94.1069 52H91.9629V50.864C91.4989 51.616 90.4909 52.096 89.3069 52.096C86.8749 52.096 85.4509 50.192 85.4509 47.856C85.4509 45.504 86.8749 43.584 89.3229 43.584C90.5069 43.584 91.4349 44.064 91.8349 44.768V40.8H94.1069V52ZM87.7229 47.84C87.7229 49.168 88.5389 50.096 89.7549 50.096C91.0029 50.096 91.8509 49.168 91.8509 47.84C91.8509 46.512 91.0029 45.584 89.7549 45.584C88.4909 45.584 87.7229 46.56 87.7229 47.84ZM97.0936 40.016C97.9576 40.016 98.5656 40.64 98.5656 41.44C98.5656 42.224 97.9576 42.848 97.0936 42.848C96.2296 42.848 95.6056 42.224 95.6056 41.44C95.6056 40.64 96.2296 40.016 97.0936 40.016ZM95.9576 52V43.776H98.2296V52H95.9576ZM99.1121 43.776H100.744V41.76H103.016V43.776H105.368V45.808H103.016V48.8C103.016 49.664 103.56 50.064 104.264 50.064C104.632 50.064 105.064 49.952 105.464 49.696L106.024 51.376C105.256 51.856 104.456 52.096 103.656 52.096C101.96 52.096 100.744 51.04 100.744 49.2V45.808H99.1121V43.776ZM108.219 40.016C109.083 40.016 109.691 40.64 109.691 41.44C109.691 42.224 109.083 42.848 108.219 42.848C107.355 42.848 106.731 42.224 106.731 41.44C106.731 40.64 107.355 40.016 108.219 40.016ZM107.083 52V43.776H109.355V52H107.083ZM114.99 43.584C117.438 43.584 119.246 45.408 119.246 47.84C119.246 50.272 117.438 52.096 114.99 52.096C112.526 52.096 110.718 50.272 110.718 47.84C110.718 45.408 112.526 43.584 114.99 43.584ZM112.99 47.84C112.99 49.152 113.774 50.064 114.99 50.064C116.206 50.064 116.99 49.152 116.99 47.84C116.99 46.528 116.206 45.616 114.99 45.616C113.774 45.616 112.99 46.528 112.99 47.84ZM120.503 43.776H122.711V44.88C123.207 44.144 123.911 43.584 125.191 43.584C126.871 43.584 128.119 44.576 128.119 46.608V52H125.847V47.088C125.847 46.08 125.287 45.6 124.439 45.6C123.527 45.6 122.775 46.24 122.775 47.52V52H120.503V43.776ZM138.015 49.232C138.015 49.824 138.399 50.064 138.799 50.064C139.007 50.064 139.199 50.016 139.391 49.904L139.871 51.552C139.359 51.92 138.767 52.096 138.207 52.096C137.231 52.096 136.351 51.568 136.127 50.56C135.599 51.536 134.559 52.096 133.215 52.096C130.847 52.096 129.359 50.24 129.359 47.856C129.359 45.488 130.783 43.584 133.231 43.584C134.495 43.584 135.407 44.096 135.823 44.896V43.776H138.015V49.232ZM131.631 47.84C131.631 49.168 132.447 50.096 133.663 50.096C134.911 50.096 135.759 49.184 135.759 47.84C135.759 46.512 134.911 45.584 133.663 45.584C132.383 45.584 131.631 46.56 131.631 47.84ZM145.266 51.584C144.642 51.92 144.002 52.096 143.394 52.096C141.922 52.096 140.722 51.12 140.722 49.264V40.8H142.994V49.024C142.994 49.696 143.394 50.064 143.954 50.064C144.194 50.064 144.466 50 144.738 49.856L145.266 51.584ZM156.286 49.968C155.454 51.312 154.158 52.096 152.606 52.096C149.966 52.096 148.446 50.272 148.446 47.888C148.446 45.456 150.174 43.584 152.67 43.584C154.094 43.584 155.278 44.176 156.062 45.296L154.446 46.608C153.998 45.936 153.422 45.616 152.686 45.616C151.438 45.616 150.702 46.528 150.702 47.808C150.702 49.104 151.534 50.064 152.798 50.064C153.566 50.064 154.334 49.632 154.766 48.864L156.286 49.968ZM161.007 43.584C163.455 43.584 165.263 45.408 165.263 47.84C165.263 50.272 163.455 52.096 161.007 52.096C158.543 52.096 156.735 50.272 156.735 47.84C156.735 45.408 158.543 43.584 161.007 43.584ZM159.007 47.84C159.007 49.152 159.791 50.064 161.007 50.064C162.223 50.064 163.007 49.152 163.007 47.84C163.007 46.528 162.223 45.616 161.007 45.616C159.791 45.616 159.007 46.528 159.007 47.84ZM166.52 43.776H168.728V44.88C169.192 44.048 169.912 43.584 170.984 43.584C172.12 43.584 172.952 44.08 173.368 45.088C173.848 44.128 174.712 43.584 175.896 43.584C177.608 43.584 178.584 44.672 178.584 46.72V52H176.328V47.088C176.328 46.208 176.024 45.6 175.112 45.6C174.264 45.6 173.688 46.144 173.688 47.44V52H171.416V47.088C171.416 46.208 171.128 45.6 170.216 45.6C169.368 45.6 168.792 46.144 168.792 47.44V52H166.52V43.776ZM180.31 43.776H182.518V44.88C182.982 44.048 183.702 43.584 184.774 43.584C185.91 43.584 186.742 44.08 187.158 45.088C187.638 44.128 188.502 43.584 189.686 43.584C191.398 43.584 192.374 44.672 192.374 46.72V52H190.118V47.088C190.118 46.208 189.814 45.6 188.902 45.6C188.054 45.6 187.478 46.144 187.478 47.44V52H185.206V47.088C185.206 46.208 184.918 45.6 184.006 45.6C183.158 45.6 182.582 46.144 182.582 47.44V52H180.31V43.776ZM201.523 48.624H195.923C196.163 49.648 196.883 50.144 197.987 50.144C198.947 50.144 199.635 49.744 200.115 49.2L201.267 50.592C200.371 51.552 199.251 52.096 197.811 52.096C195.299 52.096 193.619 50.464 193.619 47.952C193.619 45.456 195.267 43.584 197.843 43.584C200.083 43.584 201.523 44.976 201.523 47.744V48.624ZM195.891 46.992H199.283C199.267 46.08 198.803 45.456 197.715 45.456C196.707 45.456 196.083 46.016 195.891 46.992ZM202.795 43.776H205.003V44.88C205.499 44.144 206.203 43.584 207.483 43.584C209.163 43.584 210.411 44.576 210.411 46.608V52H208.139V47.088C208.139 46.08 207.579 45.6 206.731 45.6C205.819 45.6 205.067 46.24 205.067 47.52V52H202.795V43.776ZM211.171 43.776H212.803V41.76H215.075V43.776H217.427V45.808H215.075V48.8C215.075 49.664 215.619 50.064 216.323 50.064C216.691 50.064 217.123 49.952 217.523 49.696L218.083 51.376C217.315 51.856 216.515 52.096 215.715 52.096C214.019 52.096 212.803 51.04 212.803 49.2V45.808H211.171V43.776ZM224.07 46.224C223.51 45.712 222.726 45.488 222.15 45.488C221.558 45.488 221.174 45.728 221.174 46.144C221.174 46.592 221.59 46.704 222.662 46.912C223.958 47.152 225.654 47.472 225.654 49.312C225.654 51.024 224.182 52.096 222.198 52.096C220.79 52.096 219.414 51.536 218.454 50.576L219.654 48.992C220.374 49.792 221.558 50.144 222.406 50.144C223.014 50.144 223.414 49.952 223.414 49.552C223.414 49.152 223.03 48.992 222.086 48.8C220.79 48.56 218.95 48.224 218.95 46.256C218.95 44.464 220.438 43.584 222.102 43.584C223.27 43.584 224.438 43.984 225.222 44.768L224.07 46.224ZM230.883 46.976V48.416H228.579V45.552C230.723 45.552 231.635 45.12 231.635 43.968C231.635 43.072 230.979 42.672 230.195 42.672C229.363 42.672 228.419 43.104 227.923 43.872L226.499 42.592C227.443 41.216 228.931 40.544 230.403 40.544C232.307 40.544 233.971 41.728 233.971 43.76C233.971 45.488 232.739 46.784 230.883 46.976ZM228.243 50.688C228.243 49.888 228.867 49.28 229.731 49.28C230.595 49.28 231.219 49.888 231.219 50.688C231.219 51.488 230.595 52.096 229.731 52.096C228.867 52.096 228.243 51.488 228.243 50.688Z" fill="#144A38"/>
<path d="M66.562 79.656H70.916V81H65.148V71.2H66.562V79.656ZM78.2711 77.906H73.0491C73.2171 79.208 74.0571 79.866 75.2891 79.866C76.2131 79.866 76.8851 79.46 77.3331 78.83L78.1031 79.656C77.3751 80.566 76.4371 81.084 75.1771 81.084C72.9931 81.084 71.6771 79.558 71.6771 77.528C71.6771 75.512 72.9651 73.804 75.1911 73.804C77.0951 73.804 78.2711 75.036 78.2711 77.22V77.906ZM73.0491 76.856H76.8991C76.8991 75.652 76.3111 74.966 75.1351 74.966C73.9451 74.966 73.2171 75.68 73.0491 76.856ZM78.6607 73.972H80.1307V72.096H81.5167V73.972H83.6727V75.204H81.5167V78.62C81.5167 79.46 82.0627 79.838 82.7207 79.838C83.0987 79.838 83.5327 79.712 83.8967 79.474L84.2887 80.468C83.6867 80.888 83.0287 81.084 82.3847 81.084C81.1107 81.084 80.1307 80.272 80.1307 78.802V75.204H78.6607V73.972ZM94.3963 73.972V81H93.0523V79.712C92.6043 80.51 91.8903 81.084 90.7003 81.084C89.2023 81.084 88.1523 80.174 88.1523 78.424V73.972H89.5243V78.13C89.5243 79.264 90.0983 79.852 91.0363 79.852C92.1563 79.852 93.0243 78.998 93.0243 77.57V73.972H94.3963ZM100.375 75.708C99.8994 75.218 99.1574 74.994 98.5554 74.994C97.8414 74.994 97.3514 75.316 97.3514 75.876C97.3514 76.52 98.0234 76.674 99.0034 76.884C100.151 77.122 101.523 77.374 101.523 78.858C101.523 80.272 100.277 81.084 98.7374 81.084C97.5894 81.084 96.4134 80.608 95.6434 79.712L96.4694 78.76C97.0434 79.53 98.0514 79.866 98.8634 79.866C99.5774 79.866 100.151 79.6 100.151 79.026C100.151 78.424 99.5634 78.256 98.6674 78.074C97.4914 77.836 95.9934 77.542 95.9934 75.96C95.9934 74.504 97.2114 73.804 98.5694 73.804C99.4934 73.804 100.459 74.126 101.117 74.798L100.375 75.708ZM106.005 71.2H107.377V76.898L110.499 73.972H112.417L108.791 77.262L112.851 81H110.849L107.377 77.78V81H106.005V71.2ZM113.682 73.972H115.026V75.176C115.46 74.378 116.23 73.804 117.462 73.804C118.974 73.804 119.968 74.728 119.968 76.366V81H118.596V76.716C118.596 75.638 118.008 75.036 117.056 75.036C115.978 75.036 115.054 75.848 115.054 77.318V81H113.682V73.972ZM124.851 73.804C126.937 73.804 128.421 75.344 128.421 77.444C128.421 79.53 126.937 81.084 124.851 81.084C122.765 81.084 121.281 79.53 121.281 77.444C121.281 75.344 122.765 73.804 124.851 73.804ZM122.653 77.444C122.653 78.844 123.535 79.838 124.851 79.838C126.167 79.838 127.049 78.844 127.049 77.444C127.049 76.044 126.167 75.05 124.851 75.05C123.535 75.05 122.653 76.044 122.653 77.444ZM138.753 73.972H140.293L137.689 81H136.401L134.595 75.96L132.775 81H131.501L128.897 73.972H130.367L132.145 79.152L133.923 73.972H135.267L137.045 79.138L138.753 73.972ZM145.12 70.738C145.694 70.738 146.1 71.158 146.1 71.704C146.1 72.236 145.694 72.642 145.12 72.642C144.546 72.642 144.14 72.236 144.14 71.704C144.14 71.158 144.546 70.738 145.12 70.738ZM144.434 81V73.972H145.806V81H144.434ZM146.825 73.972H148.197V73.37C148.197 71.788 149.135 70.85 150.549 70.85C151.235 70.85 151.823 71.046 152.383 71.494L151.767 72.516C151.445 72.222 151.081 72.096 150.689 72.096C150.017 72.096 149.569 72.53 149.569 73.356V73.972H151.459V75.204H149.569V81H148.197V75.204H146.825V73.972ZM154.974 73.972H156.444V72.096H157.83V73.972H159.986V75.204H157.83V78.62C157.83 79.46 158.376 79.838 159.034 79.838C159.412 79.838 159.846 79.712 160.21 79.474L160.602 80.468C160 80.888 159.342 81.084 158.698 81.084C157.424 81.084 156.444 80.272 156.444 78.802V75.204H154.974V73.972ZM161.632 71.2H163.004V75.148C163.438 74.35 164.208 73.804 165.412 73.804C166.924 73.804 167.918 74.728 167.918 76.366V81H166.546V76.716C166.546 75.638 165.958 75.036 165.006 75.036C163.928 75.036 163.004 75.834 163.004 77.29V81H161.632V71.2ZM175.824 77.906H170.602C170.77 79.208 171.61 79.866 172.842 79.866C173.766 79.866 174.438 79.46 174.886 78.83L175.656 79.656C174.928 80.566 173.99 81.084 172.73 81.084C170.546 81.084 169.23 79.558 169.23 77.528C169.23 75.512 170.518 73.804 172.744 73.804C174.648 73.804 175.824 75.036 175.824 77.22V77.906ZM170.602 76.856H174.452C174.452 75.652 173.864 74.966 172.688 74.966C171.498 74.966 170.77 75.68 170.602 76.856ZM177.136 73.972H178.48V75.12C178.816 74.266 179.572 73.874 180.426 73.874C180.762 73.874 181.112 73.93 181.434 74.056L181.21 75.33C180.902 75.204 180.58 75.148 180.3 75.148C179.292 75.148 178.508 75.82 178.508 77.206V81H177.136V73.972ZM188.335 77.906H183.113C183.281 79.208 184.121 79.866 185.353 79.866C186.277 79.866 186.949 79.46 187.397 78.83L188.167 79.656C187.439 80.566 186.501 81.084 185.241 81.084C183.057 81.084 181.741 79.558 181.741 77.528C181.741 75.512 183.029 73.804 185.255 73.804C187.159 73.804 188.335 75.036 188.335 77.22V77.906ZM183.113 76.856H186.963C186.963 75.652 186.375 74.966 185.199 74.966C184.009 74.966 183.281 75.68 183.113 76.856ZM188.946 74.476L190.374 70.556L191.746 71.102L190.066 74.924L188.946 74.476ZM196.89 75.708C196.414 75.218 195.672 74.994 195.07 74.994C194.356 74.994 193.866 75.316 193.866 75.876C193.866 76.52 194.538 76.674 195.518 76.884C196.666 77.122 198.038 77.374 198.038 78.858C198.038 80.272 196.792 81.084 195.252 81.084C194.104 81.084 192.928 80.608 192.158 79.712L192.984 78.76C193.558 79.53 194.566 79.866 195.378 79.866C196.092 79.866 196.666 79.6 196.666 79.026C196.666 78.424 196.078 78.256 195.182 78.074C194.006 77.836 192.508 77.542 192.508 75.96C192.508 74.504 193.726 73.804 195.084 73.804C196.008 73.804 196.974 74.126 197.632 74.798L196.89 75.708ZM209.05 78.998C209.05 79.586 209.414 79.838 209.848 79.838C210.044 79.838 210.254 79.782 210.45 79.67L210.786 80.692C210.38 80.958 209.932 81.084 209.512 81.084C208.672 81.084 207.93 80.566 207.832 79.642C207.328 80.594 206.39 81.084 205.186 81.084C203.03 81.084 201.826 79.404 201.826 77.472C201.826 75.54 203.002 73.804 205.186 73.804C206.376 73.804 207.258 74.294 207.706 75.148V73.972H209.05V78.998ZM203.198 77.444C203.198 78.858 204.094 79.852 205.424 79.852C206.74 79.852 207.678 78.872 207.678 77.444C207.678 76.016 206.754 75.036 205.396 75.036C203.954 75.036 203.198 76.142 203.198 77.444ZM211.755 73.972H213.099V75.176C213.533 74.378 214.303 73.804 215.535 73.804C217.047 73.804 218.041 74.728 218.041 76.366V81H216.669V76.716C216.669 75.638 216.081 75.036 215.129 75.036C214.051 75.036 213.127 75.848 213.127 77.318V81H211.755V73.972ZM224.702 73.972H226.074V80.748C226.074 83.016 224.59 84.276 222.616 84.276C220.978 84.276 219.704 83.464 219.214 81.924L220.46 81.392C220.796 82.512 221.58 83.03 222.658 83.03C223.89 83.03 224.702 82.302 224.702 80.916V79.488C224.282 80.328 223.428 80.832 222.35 80.832C220.936 80.832 219.648 79.922 219.648 78.13V73.972H221.02V77.836C221.02 78.942 221.692 79.586 222.686 79.586C223.834 79.586 224.702 78.69 224.702 77.318V73.972ZM226.966 73.972H228.436V72.096H229.822V73.972H231.978V75.204H229.822V78.62C229.822 79.46 230.368 79.838 231.026 79.838C231.404 79.838 231.838 79.712 232.202 79.474L232.594 80.468C231.992 80.888 231.334 81.084 230.69 81.084C229.416 81.084 228.436 80.272 228.436 78.802V75.204H226.966V73.972ZM233.624 71.2H234.996V75.148C235.43 74.35 236.2 73.804 237.404 73.804C238.916 73.804 239.91 74.728 239.91 76.366V81H238.538V76.716C238.538 75.638 237.95 75.036 236.998 75.036C235.92 75.036 234.996 75.834 234.996 77.29V81H233.624V71.2ZM242.455 70.738C243.029 70.738 243.435 71.158 243.435 71.704C243.435 72.236 243.029 72.642 242.455 72.642C241.881 72.642 241.475 72.236 241.475 71.704C241.475 71.158 241.881 70.738 242.455 70.738ZM241.769 81V73.972H243.141V81H241.769ZM244.999 73.972H246.343V75.176C246.777 74.378 247.547 73.804 248.779 73.804C250.291 73.804 251.285 74.728 251.285 76.366V81H249.913V76.716C249.913 75.638 249.325 75.036 248.373 75.036C247.295 75.036 246.371 75.848 246.371 77.318V81H244.999V73.972ZM258.59 73.972H259.934V80.748C259.934 82.918 258.408 84.29 256.28 84.29C254.53 84.29 253.144 83.366 252.64 81.924L253.872 81.35C254.222 82.414 255.174 83.044 256.322 83.044C257.68 83.044 258.562 82.232 258.562 80.902V79.6C258.086 80.44 257.246 80.86 256.056 80.86C254.012 80.86 252.64 79.432 252.64 77.346C252.64 75.428 253.872 73.804 256.056 73.804C257.246 73.804 258.156 74.224 258.59 75.022V73.972ZM254.026 77.318C254.026 78.606 254.824 79.642 256.28 79.642C257.624 79.642 258.562 78.732 258.562 77.318C258.562 75.918 257.638 75.022 256.266 75.022C254.95 75.022 254.026 75.918 254.026 77.318ZM270.663 77.906H265.441C265.609 79.208 266.449 79.866 267.681 79.866C268.605 79.866 269.277 79.46 269.725 78.83L270.495 79.656C269.767 80.566 268.829 81.084 267.569 81.084C265.385 81.084 264.069 79.558 264.069 77.528C264.069 75.512 265.357 73.804 267.583 73.804C269.487 73.804 270.663 75.036 270.663 77.22V77.906ZM265.441 76.856H269.291C269.291 75.652 268.703 74.966 267.527 74.966C266.337 74.966 265.609 75.68 265.441 76.856ZM275.503 80.664C275.013 80.944 274.509 81.084 274.033 81.084C272.899 81.084 271.975 80.3 271.975 78.872V71.2H273.347V78.718C273.347 79.446 273.781 79.838 274.327 79.838C274.593 79.838 274.873 79.768 275.153 79.614L275.503 80.664ZM280.709 75.708C280.233 75.218 279.491 74.994 278.889 74.994C278.175 74.994 277.685 75.316 277.685 75.876C277.685 76.52 278.357 76.674 279.337 76.884C280.485 77.122 281.857 77.374 281.857 78.858C281.857 80.272 280.611 81.084 279.071 81.084C277.923 81.084 276.747 80.608 275.977 79.712L276.803 78.76C277.377 79.53 278.385 79.866 279.197 79.866C279.911 79.866 280.485 79.6 280.485 79.026C280.485 78.424 279.897 78.256 279.001 78.074C277.825 77.836 276.327 77.542 276.327 75.96C276.327 74.504 277.545 73.804 278.903 73.804C279.827 73.804 280.793 74.126 281.451 74.798L280.709 75.708ZM289.265 77.906H284.043C284.211 79.208 285.051 79.866 286.283 79.866C287.207 79.866 287.879 79.46 288.327 78.83L289.097 79.656C288.369 80.566 287.431 81.084 286.171 81.084C283.987 81.084 282.671 79.558 282.671 77.528C282.671 75.512 283.959 73.804 286.185 73.804C288.089 73.804 289.265 75.036 289.265 77.22V77.906ZM284.043 76.856H287.893C287.893 75.652 287.305 74.966 286.129 74.966C284.939 74.966 284.211 75.68 284.043 76.856ZM302.433 73.972H303.973L301.369 81H300.081L298.275 75.96L296.455 81H295.181L292.577 73.972H294.047L295.825 79.152L297.603 73.972H298.947L300.725 79.138L302.433 73.972ZM310.915 77.906H305.693C305.861 79.208 306.701 79.866 307.933 79.866C308.857 79.866 309.529 79.46 309.977 78.83L310.747 79.656C310.019 80.566 309.081 81.084 307.821 81.084C305.637 81.084 304.321 79.558 304.321 77.528C304.321 75.512 305.609 73.804 307.835 73.804C309.739 73.804 310.915 75.036 310.915 77.22V77.906ZM305.693 76.856H309.543C309.543 75.652 308.955 74.966 307.779 74.966C306.589 74.966 305.861 75.68 305.693 76.856ZM321.031 79.376C320.317 80.454 319.309 81.084 317.993 81.084C315.711 81.084 314.507 79.418 314.507 77.486C314.507 75.512 315.837 73.804 318.049 73.804C319.239 73.804 320.163 74.266 320.835 75.176L319.855 76.002C319.421 75.358 318.847 75.05 318.063 75.05C316.607 75.05 315.879 76.128 315.879 77.402C315.879 78.69 316.677 79.838 318.105 79.838C318.931 79.838 319.673 79.404 320.093 78.69L321.031 79.376ZM328.861 78.998C328.861 79.586 329.225 79.838 329.659 79.838C329.855 79.838 330.065 79.782 330.261 79.67L330.597 80.692C330.191 80.958 329.743 81.084 329.323 81.084C328.483 81.084 327.741 80.566 327.643 79.642C327.139 80.594 326.201 81.084 324.997 81.084C322.841 81.084 321.637 79.404 321.637 77.472C321.637 75.54 322.813 73.804 324.997 73.804C326.187 73.804 327.069 74.294 327.517 75.148V73.972H328.861V78.998ZM323.009 77.444C323.009 78.858 323.905 79.852 325.235 79.852C326.551 79.852 327.489 78.872 327.489 77.444C327.489 76.016 326.565 75.036 325.207 75.036C323.765 75.036 323.009 76.142 323.009 77.444ZM331.566 73.972H332.91V75.176C333.344 74.378 334.114 73.804 335.346 73.804C336.858 73.804 337.852 74.728 337.852 76.366V81H336.48V76.716C336.48 75.638 335.892 75.036 334.94 75.036C333.862 75.036 332.938 75.848 332.938 77.318V81H331.566V73.972ZM349.363 81H348.033V79.768C347.571 80.594 346.647 81.084 345.485 81.084C343.301 81.084 342.139 79.376 342.139 77.458C342.139 75.54 343.315 73.804 345.499 73.804C346.647 73.804 347.543 74.28 347.977 75.078V71.2H349.363V81ZM343.511 77.444C343.511 78.858 344.393 79.852 345.723 79.852C347.067 79.852 347.991 78.858 347.991 77.444C347.991 76.03 347.067 75.036 345.709 75.036C344.281 75.036 343.511 76.142 343.511 77.444ZM354.247 73.804C356.333 73.804 357.817 75.344 357.817 77.444C357.817 79.53 356.333 81.084 354.247 81.084C352.161 81.084 350.677 79.53 350.677 77.444C350.677 75.344 352.161 73.804 354.247 73.804ZM352.049 77.444C352.049 78.844 352.931 79.838 354.247 79.838C355.563 79.838 356.445 78.844 356.445 77.444C356.445 76.044 355.563 75.05 354.247 75.05C352.931 75.05 352.049 76.044 352.049 77.444ZM359.676 79.138C360.264 79.138 360.67 79.572 360.67 80.118C360.67 80.664 360.264 81.084 359.676 81.084C359.088 81.084 358.682 80.664 358.682 80.118C358.682 79.572 359.088 79.138 359.676 79.138Z" fill="#636363"/>
<mask id="path-3-inside-1_138_3821" fill="white">
<path d="M64 103H456V267H64V103Z"/>
</mask>
<path d="M64 103H456V267H64V103Z" fill="#F1F1F1"/>
<path d="M456 265H64V269H456V265Z" fill="#434343" mask="url(#path-3-inside-1_138_3821)"/>
<rect width="392" height="162" transform="translate(64 103)" fill="#F1F1F1"/>
</svg>
