<svg width="520" height="300" viewBox="0 0 520 300" fill="none" xmlns="http://www.w3.org/2000/svg">
<rect width="520" height="300" fill="white"/>
<path d="M278.042 108.708H242.625L260.333 91.0002L278.042 108.708Z" fill="#434343"/>
<rect x="189" y="108.708" width="142.667" height="100" rx="8.33333" fill="#434343"/>
<path d="M237.112 152.442C235.878 150.908 233.912 150.075 232.012 150.075C229.678 150.075 227.912 151.275 227.912 153.442C227.912 156.008 230.445 156.808 233.012 157.608C236.978 158.775 240.112 160.008 240.112 164.208C240.112 168.808 236.512 171.242 232.278 171.242C229.378 171.242 226.178 170.042 224.045 167.342L226.445 164.908C227.945 166.975 230.312 167.975 232.478 167.975C235.012 167.975 236.678 166.575 236.678 164.608C236.678 162.275 234.278 161.475 231.712 160.675C227.678 159.442 224.512 158.075 224.512 153.942C224.512 149.475 227.945 146.842 232.178 146.842C234.845 146.842 237.512 147.942 239.345 150.108L237.112 152.442ZM259.458 165.942C259.458 167.342 260.325 167.942 261.358 167.942C261.825 167.942 262.325 167.808 262.792 167.542L263.592 169.975C262.625 170.608 261.558 170.908 260.558 170.908C258.558 170.908 256.792 169.675 256.558 167.475C255.358 169.742 253.125 170.908 250.258 170.908C245.125 170.908 242.258 166.908 242.258 162.308C242.258 157.708 245.058 153.575 250.258 153.575C253.092 153.575 255.192 154.742 256.258 156.775V153.975H259.458V165.942ZM245.525 162.242C245.525 165.608 247.658 167.975 250.825 167.975C253.958 167.975 256.192 165.642 256.192 162.242C256.192 158.842 253.992 156.508 250.758 156.508C247.325 156.508 245.525 159.142 245.525 162.242ZM276.581 153.975H280.148L273.315 170.708H270.415L263.581 153.975H267.148L271.881 166.342L276.581 153.975ZM296.632 163.342H284.198C284.598 166.442 286.598 168.008 289.532 168.008C291.732 168.008 293.332 167.042 294.398 165.542L296.232 167.508C294.498 169.675 292.265 170.908 289.265 170.908C284.065 170.908 280.932 167.275 280.932 162.442C280.932 157.642 283.998 153.575 289.298 153.575C293.832 153.575 296.632 156.508 296.632 161.708V163.342ZM284.198 160.842H293.365C293.365 157.975 291.965 156.342 289.165 156.342C286.332 156.342 284.598 158.042 284.198 160.842Z" fill="white"/>
</svg>
