<svg width="520" height="300" viewBox="0 0 520 300" fill="none" xmlns="http://www.w3.org/2000/svg">
<rect width="520" height="300" fill="white"/>
<rect x="92" y="111" width="337" height="77" rx="8" fill="white"/>
<rect x="92.5" y="111.5" width="336" height="76" rx="7.5" stroke="#E4E4E4"/>
<g clip-path="url(#clip0_138_3526)">
<path d="M138.072 153.023C139.138 153.318 139.896 154.247 139.986 155.333L139.995 155.553V162.792C139.995 164.22 138.889 165.391 137.487 165.494L137.284 165.502H108.672C108.304 165.502 108.006 165.203 108.006 164.835C108.006 164.508 108.241 164.236 108.552 164.179L108.672 164.169H137.284C137.994 164.169 138.578 163.632 138.653 162.942L138.661 162.792V155.552C138.662 154.972 138.275 154.463 137.716 154.308C137.207 154.167 136.671 154.351 136.353 154.76L136.264 154.889L134.364 158.055C133.912 158.809 133.125 159.292 132.258 159.362L132.04 159.371H122.978C122.61 159.371 122.312 159.072 122.312 158.704C122.312 158.377 122.547 158.105 122.858 158.048L122.978 158.037H132.04C132.47 158.037 132.872 157.837 133.131 157.501L133.221 157.369L135.121 154.203C135.727 153.191 136.935 152.708 138.072 153.023ZM117.605 154.479C117.745 154.775 117.648 155.122 117.391 155.306L117.287 155.366L108.957 159.307C108.624 159.464 108.227 159.322 108.07 158.989C107.93 158.693 108.026 158.346 108.283 158.162L108.387 158.101L116.717 154.161C117.05 154.004 117.448 154.146 117.605 154.479ZM133.016 133.549C134.617 133.785 135.982 134.819 136.645 136.273L136.754 136.533L139.8 144.12C140.067 144.787 140.059 145.533 139.776 146.195C139.525 146.782 139.076 147.26 138.51 147.547L138.293 147.645L124.153 153.32C123.811 153.457 123.423 153.291 123.286 152.949C123.164 152.646 123.282 152.305 123.549 152.137L123.656 152.082L129.208 149.854L123.431 144.731C123.184 144.714 122.957 144.559 122.858 144.314C122.736 144.01 122.854 143.67 123.121 143.502L123.229 143.447L123.385 143.382C123.396 143.378 123.406 143.374 123.416 143.371L128.445 141.351L127.934 140.082C127.313 138.593 127.492 136.899 128.392 135.577L128.569 135.333C129.622 133.98 131.321 133.299 133.016 133.549ZM117.946 147.071C118.029 147.387 117.87 147.711 117.583 147.844L117.47 147.885L108.842 150.152C108.486 150.246 108.121 150.033 108.027 149.677C107.944 149.36 108.103 149.037 108.39 148.903L108.503 148.863L117.131 146.595C117.487 146.502 117.852 146.715 117.946 147.071ZM129.176 142.495L124.871 144.223L130.593 149.298L134.899 147.57L129.176 142.495ZM136.047 138.35L132.963 144.07L136.283 147.015L137.797 146.407C138.136 146.272 138.407 146.006 138.55 145.671C138.67 145.391 138.693 145.081 138.618 144.789L138.562 144.616L136.047 138.35ZM129.622 136.152C128.915 137.06 128.716 138.258 129.081 139.345L129.168 139.576L129.876 141.333L131.937 143.162L135.396 136.751C134.904 135.743 133.944 135.034 132.821 134.868C131.602 134.688 130.379 135.179 129.622 136.152Z" fill="#144A38"/>
<path d="M117.898 133.513C118.225 133.528 118.487 133.775 118.529 134.088L118.535 134.208L117.655 154.464C117.634 154.937 117.858 155.388 118.248 155.657C118.588 155.892 119.014 155.96 119.407 155.849L119.572 155.79L122.433 154.564C122.91 154.36 123.226 153.908 123.264 153.401L123.266 153.23L122.312 134.213C122.294 133.845 122.577 133.532 122.945 133.514C123.272 133.497 123.555 133.719 123.627 134.027L123.644 134.146L124.598 153.164C124.651 154.225 124.079 155.212 123.149 155.699L122.959 155.789L120.097 157.016C119.241 157.382 118.256 157.284 117.489 156.754C116.782 156.265 116.352 155.472 116.322 154.62L116.323 154.407L117.203 134.151C117.219 133.783 117.53 133.497 117.898 133.513Z" fill="#144A38"/>
</g>
<path d="M164.48 143.032C165.952 143.032 167.024 142.184 167.568 140.76L169.584 141.624C168.656 143.928 166.848 145.256 164.32 145.256C160.768 145.256 158.736 142.68 158.736 139.56C158.736 136.344 160.896 133.544 164.544 133.544C166.64 133.544 168.208 134.424 169.232 136.072L167.408 137.432C166.784 136.36 165.712 135.752 164.448 135.752C162.352 135.752 161.088 137.368 161.088 139.384C161.088 141.576 162.544 143.032 164.48 143.032ZM174.512 136.584C176.96 136.584 178.768 138.408 178.768 140.84C178.768 143.272 176.96 145.096 174.512 145.096C172.048 145.096 170.24 143.272 170.24 140.84C170.24 138.408 172.048 136.584 174.512 136.584ZM172.512 140.84C172.512 142.152 173.296 143.064 174.512 143.064C175.728 143.064 176.512 142.152 176.512 140.84C176.512 139.528 175.728 138.616 174.512 138.616C173.296 138.616 172.512 139.528 172.512 140.84ZM180.025 136.776H182.233V137.88C182.697 137.048 183.417 136.584 184.489 136.584C185.625 136.584 186.457 137.08 186.873 138.088C187.353 137.128 188.217 136.584 189.401 136.584C191.113 136.584 192.089 137.672 192.089 139.72V145H189.833V140.088C189.833 139.208 189.529 138.6 188.617 138.6C187.769 138.6 187.193 139.144 187.193 140.44V145H184.921V140.088C184.921 139.208 184.633 138.6 183.721 138.6C182.873 138.6 182.297 139.144 182.297 140.44V145H180.025V136.776ZM198.598 136.584C201.046 136.584 202.454 138.504 202.454 140.808C202.454 143.096 201.03 145 198.614 145C197.51 145 196.582 144.6 196.086 143.928V148.536H193.814V136.776H196.022V137.816C196.422 137.08 197.398 136.584 198.598 136.584ZM196.07 140.792C196.07 142.072 196.902 143 198.166 143C199.382 143 200.198 142.072 200.198 140.792C200.198 139.56 199.43 138.584 198.166 138.584C196.902 138.584 196.07 139.512 196.07 140.792ZM211.889 142.232C211.889 142.824 212.273 143.064 212.673 143.064C212.881 143.064 213.073 143.016 213.265 142.904L213.745 144.552C213.233 144.92 212.641 145.096 212.081 145.096C211.105 145.096 210.225 144.568 210.001 143.56C209.473 144.536 208.433 145.096 207.089 145.096C204.721 145.096 203.233 143.24 203.233 140.856C203.233 138.488 204.657 136.584 207.105 136.584C208.369 136.584 209.281 137.096 209.697 137.896V136.776H211.889V142.232ZM205.505 140.84C205.505 142.168 206.321 143.096 207.537 143.096C208.785 143.096 209.633 142.184 209.633 140.84C209.633 139.512 208.785 138.584 207.537 138.584C206.257 138.584 205.505 139.56 205.505 140.84ZM214.596 136.776H216.804V138.024C217.172 137.08 218.004 136.68 218.98 136.68C219.316 136.68 219.684 136.728 220.052 136.824L219.732 138.936C219.396 138.824 219.06 138.776 218.772 138.776C217.652 138.776 216.868 139.48 216.868 140.824V145H214.596V136.776ZM228.184 141.624H222.584C222.824 142.648 223.544 143.144 224.648 143.144C225.608 143.144 226.296 142.744 226.776 142.2L227.928 143.592C227.032 144.552 225.912 145.096 224.472 145.096C221.96 145.096 220.28 143.464 220.28 140.952C220.28 138.456 221.928 136.584 224.504 136.584C226.744 136.584 228.184 137.976 228.184 140.744V141.624ZM222.552 139.992H225.944C225.928 139.08 225.464 138.456 224.376 138.456C223.368 138.456 222.744 139.016 222.552 139.992ZM237.514 136.584C239.962 136.584 241.37 138.504 241.37 140.808C241.37 143.096 239.946 145 237.53 145C236.426 145 235.498 144.6 235.002 143.928V148.536H232.73V136.776H234.938V137.816C235.338 137.08 236.314 136.584 237.514 136.584ZM234.986 140.792C234.986 142.072 235.818 143 237.082 143C238.298 143 239.114 142.072 239.114 140.792C239.114 139.56 238.346 138.584 237.082 138.584C235.818 138.584 234.986 139.512 234.986 140.792ZM247.172 144.584C246.548 144.92 245.908 145.096 245.3 145.096C243.828 145.096 242.628 144.12 242.628 142.264V133.8H244.9V142.024C244.9 142.696 245.3 143.064 245.86 143.064C246.1 143.064 246.372 143 246.644 142.856L247.172 144.584ZM256.063 142.232C256.063 142.824 256.447 143.064 256.847 143.064C257.055 143.064 257.247 143.016 257.439 142.904L257.919 144.552C257.407 144.92 256.815 145.096 256.255 145.096C255.279 145.096 254.399 144.568 254.175 143.56C253.647 144.536 252.607 145.096 251.263 145.096C248.895 145.096 247.407 143.24 247.407 140.856C247.407 138.488 248.831 136.584 251.279 136.584C252.543 136.584 253.455 137.096 253.871 137.896V136.776H256.063V142.232ZM249.679 140.84C249.679 142.168 250.495 143.096 251.711 143.096C252.959 143.096 253.807 142.184 253.807 140.84C253.807 139.512 252.959 138.584 251.711 138.584C250.431 138.584 249.679 139.56 249.679 140.84ZM258.77 136.776H260.978V137.88C261.474 137.144 262.178 136.584 263.458 136.584C265.138 136.584 266.386 137.576 266.386 139.608V145H264.114V140.088C264.114 139.08 263.554 138.6 262.706 138.6C261.794 138.6 261.042 139.24 261.042 140.52V145H258.77V136.776ZM273.162 139.224C272.602 138.712 271.818 138.488 271.242 138.488C270.65 138.488 270.266 138.728 270.266 139.144C270.266 139.592 270.682 139.704 271.754 139.912C273.05 140.152 274.746 140.472 274.746 142.312C274.746 144.024 273.274 145.096 271.29 145.096C269.882 145.096 268.506 144.536 267.546 143.576L268.746 141.992C269.466 142.792 270.65 143.144 271.498 143.144C272.106 143.144 272.506 142.952 272.506 142.552C272.506 142.152 272.122 141.992 271.178 141.8C269.882 141.56 268.042 141.224 268.042 139.256C268.042 137.464 269.53 136.584 271.194 136.584C272.362 136.584 273.53 136.984 274.314 137.768L273.162 139.224Z" fill="#434343"/>
<path d="M164.524 161.814H160.562V166H159.148V156.2H165.252V157.544H160.562V160.47H164.524V161.814ZM167.511 155.738C168.085 155.738 168.491 156.158 168.491 156.704C168.491 157.236 168.085 157.642 167.511 157.642C166.937 157.642 166.531 157.236 166.531 156.704C166.531 156.158 166.937 155.738 167.511 155.738ZM166.825 166V158.972H168.197V166H166.825ZM170.055 158.972H171.399V160.176C171.833 159.378 172.603 158.804 173.835 158.804C175.347 158.804 176.341 159.728 176.341 161.366V166H174.969V161.716C174.969 160.638 174.381 160.036 173.429 160.036C172.351 160.036 171.427 160.848 171.427 162.318V166H170.055V158.972ZM184.878 166H183.548V164.768C183.086 165.594 182.162 166.084 181 166.084C178.816 166.084 177.654 164.376 177.654 162.458C177.654 160.54 178.83 158.804 181.014 158.804C182.162 158.804 183.058 159.28 183.492 160.078V156.2H184.878V166ZM179.026 162.444C179.026 163.858 179.908 164.852 181.238 164.852C182.582 164.852 183.506 163.858 183.506 162.444C183.506 161.03 182.582 160.036 181.224 160.036C179.796 160.036 179.026 161.142 179.026 162.444ZM188.883 158.972H190.353V157.096H191.739V158.972H193.895V160.204H191.739V163.62C191.739 164.46 192.285 164.838 192.943 164.838C193.321 164.838 193.755 164.712 194.119 164.474L194.511 165.468C193.909 165.888 193.251 166.084 192.607 166.084C191.333 166.084 190.353 165.272 190.353 163.802V160.204H188.883V158.972ZM195.541 156.2H196.913V160.148C197.347 159.35 198.117 158.804 199.321 158.804C200.833 158.804 201.827 159.728 201.827 161.366V166H200.455V161.716C200.455 160.638 199.867 160.036 198.915 160.036C197.837 160.036 196.913 160.834 196.913 162.29V166H195.541V156.2ZM209.734 162.906H204.512C204.68 164.208 205.52 164.866 206.752 164.866C207.676 164.866 208.348 164.46 208.796 163.83L209.566 164.656C208.838 165.566 207.9 166.084 206.64 166.084C204.456 166.084 203.14 164.558 203.14 162.528C203.14 160.512 204.428 158.804 206.654 158.804C208.558 158.804 209.734 160.036 209.734 162.22V162.906ZM204.512 161.856H208.362C208.362 160.652 207.774 159.966 206.598 159.966C205.408 159.966 204.68 160.68 204.512 161.856ZM214.019 158.972H215.363V160.12C215.699 159.266 216.455 158.874 217.309 158.874C217.645 158.874 217.995 158.93 218.317 159.056L218.093 160.33C217.785 160.204 217.463 160.148 217.183 160.148C216.175 160.148 215.391 160.82 215.391 162.206V166H214.019V158.972ZM220.075 155.738C220.649 155.738 221.055 156.158 221.055 156.704C221.055 157.236 220.649 157.642 220.075 157.642C219.501 157.642 219.095 157.236 219.095 156.704C219.095 156.158 219.501 155.738 220.075 155.738ZM219.389 166V158.972H220.761V166H219.389ZM228.191 158.972H229.535V165.748C229.535 167.918 228.009 169.29 225.881 169.29C224.131 169.29 222.745 168.366 222.241 166.924L223.473 166.35C223.823 167.414 224.775 168.044 225.923 168.044C227.281 168.044 228.163 167.232 228.163 165.902V164.6C227.687 165.44 226.847 165.86 225.657 165.86C223.613 165.86 222.241 164.432 222.241 162.346C222.241 160.428 223.473 158.804 225.657 158.804C226.847 158.804 227.757 159.224 228.191 160.022V158.972ZM223.627 162.318C223.627 163.606 224.425 164.642 225.881 164.642C227.225 164.642 228.163 163.732 228.163 162.318C228.163 160.918 227.239 160.022 225.867 160.022C224.551 160.022 223.627 160.918 223.627 162.318ZM231.117 156.2H232.489V160.148C232.923 159.35 233.693 158.804 234.897 158.804C236.409 158.804 237.403 159.728 237.403 161.366V166H236.031V161.716C236.031 160.638 235.443 160.036 234.491 160.036C233.413 160.036 232.489 160.834 232.489 162.29V166H231.117V156.2ZM238.296 158.972H239.766V157.096H241.152V158.972H243.308V160.204H241.152V163.62C241.152 164.46 241.698 164.838 242.356 164.838C242.734 164.838 243.168 164.712 243.532 164.474L243.924 165.468C243.322 165.888 242.664 166.084 242.02 166.084C240.746 166.084 239.766 165.272 239.766 163.802V160.204H238.296V158.972ZM251.928 158.804C254.126 158.804 255.274 160.54 255.274 162.416C255.274 164.292 254.098 166 251.914 166C250.794 166 249.926 165.538 249.436 164.768V169.094H248.064V158.972H249.408V160.134C249.856 159.308 250.78 158.804 251.928 158.804ZM249.436 162.402C249.436 163.774 250.346 164.768 251.704 164.768C253.02 164.768 253.902 163.774 253.902 162.402C253.902 161.142 253.146 160.036 251.704 160.036C250.346 160.036 249.436 161.03 249.436 162.402ZM260.117 165.664C259.627 165.944 259.123 166.084 258.647 166.084C257.513 166.084 256.589 165.3 256.589 163.872V156.2H257.961V163.718C257.961 164.446 258.395 164.838 258.941 164.838C259.207 164.838 259.487 164.768 259.767 164.614L260.117 165.664ZM267.747 163.998C267.747 164.586 268.111 164.838 268.545 164.838C268.741 164.838 268.951 164.782 269.147 164.67L269.483 165.692C269.077 165.958 268.629 166.084 268.209 166.084C267.369 166.084 266.627 165.566 266.529 164.642C266.025 165.594 265.087 166.084 263.883 166.084C261.727 166.084 260.523 164.404 260.523 162.472C260.523 160.54 261.699 158.804 263.883 158.804C265.073 158.804 265.955 159.294 266.403 160.148V158.972H267.747V163.998ZM261.895 162.444C261.895 163.858 262.791 164.852 264.121 164.852C265.437 164.852 266.375 163.872 266.375 162.444C266.375 161.016 265.451 160.036 264.093 160.036C262.651 160.036 261.895 161.142 261.895 162.444ZM270.452 158.972H271.796V160.176C272.23 159.378 273 158.804 274.232 158.804C275.744 158.804 276.738 159.728 276.738 161.366V166H275.366V161.716C275.366 160.638 274.778 160.036 273.826 160.036C272.748 160.036 271.824 160.848 271.824 162.318V166H270.452V158.972Z" fill="#434343"/>
<g clip-path="url(#clip1_138_3526)">
<path d="M405.52 149.515L394.9 138.896C394.607 138.603 394.607 138.128 394.9 137.835C395.193 137.542 395.668 137.542 395.961 137.835L407.111 148.985C407.404 149.278 407.404 149.753 407.111 150.046L395.961 161.196C395.668 161.488 395.193 161.488 394.9 161.196C394.607 160.903 394.607 160.428 394.9 160.135L405.52 149.515Z" fill="#8A8A8A"/>
</g>
<defs>
<clipPath id="clip0_138_3526">
<rect width="32" height="32" fill="white" transform="translate(108 133.5)"/>
</clipPath>
<clipPath id="clip1_138_3526">
<rect width="24" height="24" fill="white" transform="translate(389 137.5)"/>
</clipPath>
</defs>
</svg>
